M48
; DRILL file {KiCad 7.0.10} date Wed Apr 10 22:42:53 2024
; FORMAT={-:-/ absolute / inch / decimal}
; #@! TF.CreationDate,2024-04-10T22:42:53-07:00
; #@! TF.GenerationSoftware,Kicad,Pcbnew,7.0.10
; #@! TF.FileFunction,Plated,1,2,PTH
FMAT,2
INCH
; #@! TA.AperFunction,Plated,PTH,ViaDrill
T1C0.0120
; #@! TA.AperFunction,Plated,PTH,ComponentDrill
T2C0.0236
; #@! TA.AperFunction,Plated,PTH,ComponentDrill
T3C0.0315
; #@! TA.AperFunction,Plated,PTH,ComponentDrill
T4C0.0394
; #@! TA.AperFunction,Plated,PTH,ComponentDrill
T5C0.0472
; #@! TA.AperFunction,Plated,PTH,ComponentDrill
T6C0.0512
; #@! TA.AperFunction,Plated,PTH,ComponentDrill
T7C0.0630
; #@! TA.AperFunction,Plated,PTH,ComponentDrill
T8C0.1378
%
G90
G05
T1
X4.305Y-3.5984
X4.31Y-2.97
X4.5736Y-3.4772
X4.7122Y-3.4748
X4.788Y-3.0407
X4.8028Y-3.328
X4.8071Y-3.1307
X4.81Y-4.27
X4.865Y-2.77
X4.9634Y-2.937
X4.9894Y-3.0394
X5.02Y-3.15
X5.025Y-2.77
X5.0307Y-3.0921
X5.29Y-2.92
X5.315Y-4.5409
X5.32Y-2.98
X5.36Y-4.02
X5.4Y-4.515
X5.47Y-3.33
X5.55Y-3.55
X5.57Y-2.885
X5.59Y-2.42
X5.705Y-4.05
X5.7124Y-3.965
X5.715Y-3.65
X5.8079Y-4.05
X5.83Y-2.45
X5.98Y-4.515
X5.9873Y-3.8211
X6.015Y-4.5393
X6.03Y-2.985
X6.14Y-3.25
X6.36Y-4.04
X6.5Y-4.32
X6.6502Y-4.3002
X6.82Y-4.2
X6.928Y-4.1406
X7.07Y-4.2
X7.25Y-3.12
X7.31Y-3.775
X7.34Y-3.3
X7.41Y-3.98
X7.535Y-2.795
X7.54Y-3.01
X7.72Y-4.04
X7.72Y-4.13
X7.74Y-3.43
X8.23Y-3.96
X8.23Y-4.13
T3
X4.126Y-3.2894
X4.126Y-3.3681
X4.126Y-3.4469
X4.126Y-3.5256
X7.524Y-3.325
X7.524Y-3.55
X7.824Y-3.325
X7.824Y-3.55
T4
X6.5203Y-2.8856
X6.5203Y-2.9856
X6.5203Y-3.0856
X6.5205Y-3.811
X6.5205Y-3.911
X6.5205Y-4.011
X7.5494Y-4.2278
X7.6494Y-4.2278
X7.7494Y-4.2278
X8.0244Y-4.2278
X8.1244Y-4.2278
X8.2244Y-4.2278
X8.82Y-3.37
X8.82Y-3.47
X8.82Y-3.57
X8.82Y-3.67
X8.82Y-3.77
X8.82Y-3.87
T5
X4.45Y-2.55
X4.55Y-2.55
X4.65Y-2.55
X4.75Y-2.55
X4.85Y-2.55
X4.95Y-2.55
X5.05Y-2.55
X5.15Y-2.55
X5.25Y-2.55
X5.35Y-2.55
X5.45Y-2.55
X5.55Y-2.55
X5.65Y-2.55
X5.75Y-2.55
X5.85Y-2.55
X5.95Y-2.55
T6
X8.6953Y-2.9106
X8.6953Y-3.1075
T7
X8.4619Y-4.395
X8.58Y-4.21
X8.6981Y-4.395
T8
X4.1547Y-1.0539
X4.1547Y-2.5106
X8.6823Y-1.0539
X8.6823Y-2.5106
T2
G00X6.3799Y-4.4061
M15
G01X6.3799Y-4.4494
M16
G05
G00X6.3799Y-4.5766
M15
G01X6.3799Y-4.6081
M16
G05
G00X6.7201Y-4.4061
M15
G01X6.7201Y-4.4494
M16
G05
G00X6.7201Y-4.5766
M15
G01X6.7201Y-4.6081
M16
G05
M30
