%TF.GenerationSoftware,KiCad,Pcbnew,7.0.10*%
%TF.CreationDate,2024-04-10T04:00:53-07:00*%
%TF.ProjectId,COFFEE_MAKER,434f4646-4545-45f4-9d41-4b45522e6b69,rev?*%
%TF.SameCoordinates,Original*%
%TF.FileFunction,Drillmap*%
%TF.FilePolarity,Positive*%
%FSLAX45Y45*%
G04 Gerber Fmt 4.5, Leading zero omitted, Abs format (unit mm)*
G04 Created by KiCad (PCBNEW 7.0.10) date 2024-04-10 04:00:53*
%MOMM*%
%LPD*%
G01*
G04 APERTURE LIST*
%ADD10C,0.100000*%
%ADD11C,0.200000*%
%ADD12C,0.120000*%
%ADD13C,0.130000*%
%ADD14C,0.160000*%
%ADD15C,0.350000*%
G04 APERTURE END LIST*
D10*
X9779000Y-1968500D02*
X22923500Y-1968500D01*
X22923500Y-11938000D01*
X9779000Y-11938000D01*
X9779000Y-1968500D01*
D11*
D10*
X10932160Y-7528560D02*
X10962640Y-7559040D01*
X10962640Y-7528560D02*
X10932160Y-7559040D01*
X10932160Y-7858760D02*
X10962640Y-7889240D01*
X10962640Y-7858760D02*
X10932160Y-7889240D01*
X13484860Y-11518700D02*
X13515340Y-11549180D01*
X13515340Y-11518700D02*
X13484860Y-11549180D01*
X13700760Y-11452860D02*
X13731240Y-11483340D01*
X13731240Y-11452860D02*
X13700760Y-11483340D01*
X14183360Y-6131560D02*
X14213840Y-6162040D01*
X14213840Y-6131560D02*
X14183360Y-6162040D01*
X14500860Y-9255760D02*
X14531340Y-9286240D01*
X14531340Y-9255760D02*
X14500860Y-9286240D01*
X14792960Y-6207760D02*
X14823440Y-6238240D01*
X14823440Y-6207760D02*
X14792960Y-6238240D01*
X15173960Y-11452860D02*
X15204440Y-11483340D01*
X15204440Y-11452860D02*
X15173960Y-11483340D01*
X15262860Y-11514514D02*
X15293340Y-11544994D01*
X15293340Y-11514514D02*
X15262860Y-11544994D01*
X17307560Y-10652760D02*
X17338040Y-10683240D01*
X17338040Y-10652760D02*
X17307560Y-10683240D01*
X17586960Y-10449560D02*
X17617440Y-10480040D01*
X17617440Y-10449560D02*
X17586960Y-10480040D01*
X17942560Y-10652760D02*
X17973040Y-10683240D01*
X17973040Y-10652760D02*
X17942560Y-10683240D01*
X18806160Y-10093960D02*
X18836640Y-10124440D01*
X18836640Y-10093960D02*
X18806160Y-10124440D01*
X19593560Y-10246360D02*
X19624040Y-10276840D01*
X19624040Y-10246360D02*
X19593560Y-10276840D01*
X19593560Y-10474960D02*
X19624040Y-10505440D01*
X19624040Y-10474960D02*
X19593560Y-10505440D01*
X20888960Y-10043160D02*
X20919440Y-10073640D01*
X20919440Y-10043160D02*
X20888960Y-10073640D01*
X20888960Y-10474960D02*
X20919440Y-10505440D01*
X20919440Y-10474960D02*
X20888960Y-10505440D01*
X12237400Y-10845800D02*
G75*
G03*
X12197400Y-10845800I-20000J0D01*
G01*
X12197400Y-10845800D02*
G75*
G03*
X12237400Y-10845800I20000J0D01*
G01*
X12377100Y-7035800D02*
G75*
G03*
X12337100Y-7035800I-20000J0D01*
G01*
X12337100Y-7035800D02*
G75*
G03*
X12377100Y-7035800I20000J0D01*
G01*
X12529500Y-7493000D02*
G75*
G03*
X12489500Y-7493000I-20000J0D01*
G01*
X12489500Y-7493000D02*
G75*
G03*
X12529500Y-7493000I20000J0D01*
G01*
X12770800Y-8001000D02*
G75*
G03*
X12730800Y-8001000I-20000J0D01*
G01*
X12730800Y-8001000D02*
G75*
G03*
X12770800Y-8001000I20000J0D01*
G01*
X12783500Y-7035800D02*
G75*
G03*
X12743500Y-7035800I-20000J0D01*
G01*
X12743500Y-7035800D02*
G75*
G03*
X12783500Y-7035800I20000J0D01*
G01*
X13456600Y-7416800D02*
G75*
G03*
X13416600Y-7416800I-20000J0D01*
G01*
X13416600Y-7416800D02*
G75*
G03*
X13456600Y-7416800I20000J0D01*
G01*
X13532800Y-7569200D02*
G75*
G03*
X13492800Y-7569200I-20000J0D01*
G01*
X13492800Y-7569200D02*
G75*
G03*
X13532800Y-7569200I20000J0D01*
G01*
X13634400Y-10210800D02*
G75*
G03*
X13594400Y-10210800I-20000J0D01*
G01*
X13594400Y-10210800D02*
G75*
G03*
X13634400Y-10210800I20000J0D01*
G01*
X13913800Y-8458200D02*
G75*
G03*
X13873800Y-8458200I-20000J0D01*
G01*
X13873800Y-8458200D02*
G75*
G03*
X13913800Y-8458200I20000J0D01*
G01*
X14117000Y-9017000D02*
G75*
G03*
X14077000Y-9017000I-20000J0D01*
G01*
X14077000Y-9017000D02*
G75*
G03*
X14117000Y-9017000I20000J0D01*
G01*
X14167800Y-7327900D02*
G75*
G03*
X14127800Y-7327900I-20000J0D01*
G01*
X14127800Y-7327900D02*
G75*
G03*
X14167800Y-7327900I20000J0D01*
G01*
X14510700Y-10287000D02*
G75*
G03*
X14470700Y-10287000I-20000J0D01*
G01*
X14470700Y-10287000D02*
G75*
G03*
X14510700Y-10287000I20000J0D01*
G01*
X14529600Y-10071100D02*
G75*
G03*
X14489600Y-10071100I-20000J0D01*
G01*
X14489600Y-10071100D02*
G75*
G03*
X14529600Y-10071100I20000J0D01*
G01*
X15011838Y-9999300D02*
G75*
G03*
X14971838Y-9999300I-20000J0D01*
G01*
X14971838Y-9999300D02*
G75*
G03*
X15011838Y-9999300I20000J0D01*
G01*
X15227738Y-9705676D02*
G75*
G03*
X15187738Y-9705676I-20000J0D01*
G01*
X15187738Y-9705676D02*
G75*
G03*
X15227738Y-9705676I20000J0D01*
G01*
X15336200Y-7581900D02*
G75*
G03*
X15296200Y-7581900I-20000J0D01*
G01*
X15296200Y-7581900D02*
G75*
G03*
X15336200Y-7581900I20000J0D01*
G01*
X15615600Y-8255000D02*
G75*
G03*
X15575600Y-8255000I-20000J0D01*
G01*
X15575600Y-8255000D02*
G75*
G03*
X15615600Y-8255000I20000J0D01*
G01*
X16174400Y-10261600D02*
G75*
G03*
X16134400Y-10261600I-20000J0D01*
G01*
X16134400Y-10261600D02*
G75*
G03*
X16174400Y-10261600I20000J0D01*
G01*
X16530000Y-10972800D02*
G75*
G03*
X16490000Y-10972800I-20000J0D01*
G01*
X16490000Y-10972800D02*
G75*
G03*
X16530000Y-10972800I20000J0D01*
G01*
X16911465Y-10922465D02*
G75*
G03*
X16871465Y-10922465I-20000J0D01*
G01*
X16871465Y-10922465D02*
G75*
G03*
X16911465Y-10922465I20000J0D01*
G01*
X18435000Y-7924800D02*
G75*
G03*
X18395000Y-7924800I-20000J0D01*
G01*
X18395000Y-7924800D02*
G75*
G03*
X18435000Y-7924800I20000J0D01*
G01*
X18587400Y-9588500D02*
G75*
G03*
X18547400Y-9588500I-20000J0D01*
G01*
X18547400Y-9588500D02*
G75*
G03*
X18587400Y-9588500I20000J0D01*
G01*
X18663600Y-8382000D02*
G75*
G03*
X18623600Y-8382000I-20000J0D01*
G01*
X18623600Y-8382000D02*
G75*
G03*
X18663600Y-8382000I20000J0D01*
G01*
X19158900Y-7099300D02*
G75*
G03*
X19118900Y-7099300I-20000J0D01*
G01*
X19118900Y-7099300D02*
G75*
G03*
X19158900Y-7099300I20000J0D01*
G01*
X19171600Y-7645400D02*
G75*
G03*
X19131600Y-7645400I-20000J0D01*
G01*
X19131600Y-7645400D02*
G75*
G03*
X19171600Y-7645400I20000J0D01*
G01*
X19679600Y-8712200D02*
G75*
G03*
X19639600Y-8712200I-20000J0D01*
G01*
X19639600Y-8712200D02*
G75*
G03*
X19679600Y-8712200I20000J0D01*
G01*
X16205000Y-11216500D02*
X16205000Y-11276500D01*
X16175000Y-11246500D02*
X16235000Y-11246500D01*
X16175000Y-11191500D02*
X16175000Y-11301500D01*
X16175000Y-11301500D02*
G75*
G03*
X16235000Y-11301500I30000J0D01*
G01*
X16235000Y-11301500D02*
X16235000Y-11191500D01*
X16235000Y-11191500D02*
G75*
G03*
X16175000Y-11191500I-30000J0D01*
G01*
X16205000Y-11634500D02*
X16205000Y-11694500D01*
X16175000Y-11664500D02*
X16235000Y-11664500D01*
X16175000Y-11624500D02*
X16175000Y-11704500D01*
X16175000Y-11704500D02*
G75*
G03*
X16235000Y-11704500I30000J0D01*
G01*
X16235000Y-11704500D02*
X16235000Y-11624500D01*
X16235000Y-11624500D02*
G75*
G03*
X16175000Y-11624500I-30000J0D01*
G01*
X17069000Y-11216500D02*
X17069000Y-11276500D01*
X17039000Y-11246500D02*
X17099000Y-11246500D01*
X17039000Y-11191500D02*
X17039000Y-11301500D01*
X17039000Y-11301500D02*
G75*
G03*
X17099000Y-11301500I30000J0D01*
G01*
X17099000Y-11301500D02*
X17099000Y-11191500D01*
X17099000Y-11191500D02*
G75*
G03*
X17039000Y-11191500I-30000J0D01*
G01*
X17069000Y-11634500D02*
X17069000Y-11694500D01*
X17039000Y-11664500D02*
X17099000Y-11664500D01*
X17039000Y-11624500D02*
X17039000Y-11704500D01*
X17039000Y-11704500D02*
G75*
G03*
X17099000Y-11704500I30000J0D01*
G01*
X17099000Y-11704500D02*
X17099000Y-11624500D01*
X17099000Y-11624500D02*
G75*
G03*
X17039000Y-11624500I-30000J0D01*
G01*
X11255084Y-8389685D02*
X11255084Y-8333115D01*
X11198515Y-8333115D01*
X11198515Y-8389685D01*
X11255084Y-8389685D01*
X11255084Y-8589685D02*
X11255084Y-8533116D01*
X11198515Y-8533116D01*
X11198515Y-8589685D01*
X11255084Y-8589685D01*
X11255084Y-8789685D02*
X11255084Y-8733116D01*
X11198515Y-8733116D01*
X11198515Y-8789685D01*
X11255084Y-8789685D01*
X11255084Y-8989685D02*
X11255084Y-8933116D01*
X11198515Y-8933116D01*
X11198515Y-8989685D01*
X11255084Y-8989685D01*
X19139285Y-8473785D02*
X19139285Y-8417216D01*
X19082716Y-8417216D01*
X19082716Y-8473785D01*
X19139285Y-8473785D01*
X19139285Y-9045285D02*
X19139285Y-8988716D01*
X19082716Y-8988716D01*
X19082716Y-9045285D01*
X19139285Y-9045285D01*
X19901285Y-8473785D02*
X19901285Y-8417216D01*
X19844716Y-8417216D01*
X19844716Y-8473785D01*
X19901285Y-8473785D01*
X19901285Y-9045285D02*
X19901285Y-8988716D01*
X19844716Y-8988716D01*
X19844716Y-9045285D01*
X19901285Y-9045285D01*
X16561562Y-7379424D02*
X16611562Y-7329424D01*
X16561562Y-7279424D01*
X16511562Y-7329424D01*
X16561562Y-7379424D01*
X16561562Y-7633424D02*
X16611562Y-7583424D01*
X16561562Y-7533424D01*
X16511562Y-7583424D01*
X16561562Y-7633424D01*
X16561562Y-7887424D02*
X16611562Y-7837424D01*
X16561562Y-7787424D01*
X16511562Y-7837424D01*
X16561562Y-7887424D01*
X16562062Y-9729924D02*
X16612062Y-9679924D01*
X16562062Y-9629924D01*
X16512062Y-9679924D01*
X16562062Y-9729924D01*
X16562062Y-9983924D02*
X16612062Y-9933924D01*
X16562062Y-9883924D01*
X16512062Y-9933924D01*
X16562062Y-9983924D01*
X16562062Y-10237924D02*
X16612062Y-10187924D01*
X16562062Y-10137924D01*
X16512062Y-10187924D01*
X16562062Y-10237924D01*
X19175500Y-10788500D02*
X19225500Y-10738500D01*
X19175500Y-10688500D01*
X19125500Y-10738500D01*
X19175500Y-10788500D01*
X19429500Y-10788500D02*
X19479500Y-10738500D01*
X19429500Y-10688500D01*
X19379500Y-10738500D01*
X19429500Y-10788500D01*
X19683500Y-10788500D02*
X19733500Y-10738500D01*
X19683500Y-10688500D01*
X19633500Y-10738500D01*
X19683500Y-10788500D01*
X20382000Y-10788500D02*
X20432000Y-10738500D01*
X20382000Y-10688500D01*
X20332000Y-10738500D01*
X20382000Y-10788500D01*
X20636000Y-10788500D02*
X20686000Y-10738500D01*
X20636000Y-10688500D01*
X20586000Y-10738500D01*
X20636000Y-10788500D01*
X20890000Y-10788500D02*
X20940000Y-10738500D01*
X20890000Y-10688500D01*
X20840000Y-10738500D01*
X20890000Y-10788500D01*
X22402800Y-8609800D02*
X22452800Y-8559800D01*
X22402800Y-8509800D01*
X22352800Y-8559800D01*
X22402800Y-8609800D01*
X22402800Y-8863800D02*
X22452800Y-8813800D01*
X22402800Y-8763800D01*
X22352800Y-8813800D01*
X22402800Y-8863800D01*
X22402800Y-9117800D02*
X22452800Y-9067800D01*
X22402800Y-9017800D01*
X22352800Y-9067800D01*
X22402800Y-9117800D01*
X22402800Y-9371800D02*
X22452800Y-9321800D01*
X22402800Y-9271800D01*
X22352800Y-9321800D01*
X22402800Y-9371800D01*
X22402800Y-9625800D02*
X22452800Y-9575800D01*
X22402800Y-9525800D01*
X22352800Y-9575800D01*
X22402800Y-9625800D01*
X22402800Y-9879800D02*
X22452800Y-9829800D01*
X22402800Y-9779800D01*
X22352800Y-9829800D01*
X22402800Y-9879800D01*
D12*
X11243000Y-6417000D02*
X11363000Y-6537000D01*
X11363000Y-6417000D02*
X11243000Y-6537000D01*
X11363000Y-6477000D02*
G75*
G03*
X11243000Y-6477000I-60000J0D01*
G01*
X11243000Y-6477000D02*
G75*
G03*
X11363000Y-6477000I60000J0D01*
G01*
X11497000Y-6417000D02*
X11617000Y-6537000D01*
X11617000Y-6417000D02*
X11497000Y-6537000D01*
X11617000Y-6477000D02*
G75*
G03*
X11497000Y-6477000I-60000J0D01*
G01*
X11497000Y-6477000D02*
G75*
G03*
X11617000Y-6477000I60000J0D01*
G01*
X11751000Y-6417000D02*
X11871000Y-6537000D01*
X11871000Y-6417000D02*
X11751000Y-6537000D01*
X11871000Y-6477000D02*
G75*
G03*
X11751000Y-6477000I-60000J0D01*
G01*
X11751000Y-6477000D02*
G75*
G03*
X11871000Y-6477000I60000J0D01*
G01*
X12005000Y-6417000D02*
X12125000Y-6537000D01*
X12125000Y-6417000D02*
X12005000Y-6537000D01*
X12125000Y-6477000D02*
G75*
G03*
X12005000Y-6477000I-60000J0D01*
G01*
X12005000Y-6477000D02*
G75*
G03*
X12125000Y-6477000I60000J0D01*
G01*
X12259000Y-6417000D02*
X12379000Y-6537000D01*
X12379000Y-6417000D02*
X12259000Y-6537000D01*
X12379000Y-6477000D02*
G75*
G03*
X12259000Y-6477000I-60000J0D01*
G01*
X12259000Y-6477000D02*
G75*
G03*
X12379000Y-6477000I60000J0D01*
G01*
X12513000Y-6417000D02*
X12633000Y-6537000D01*
X12633000Y-6417000D02*
X12513000Y-6537000D01*
X12633000Y-6477000D02*
G75*
G03*
X12513000Y-6477000I-60000J0D01*
G01*
X12513000Y-6477000D02*
G75*
G03*
X12633000Y-6477000I60000J0D01*
G01*
X12767000Y-6417000D02*
X12887000Y-6537000D01*
X12887000Y-6417000D02*
X12767000Y-6537000D01*
X12887000Y-6477000D02*
G75*
G03*
X12767000Y-6477000I-60000J0D01*
G01*
X12767000Y-6477000D02*
G75*
G03*
X12887000Y-6477000I60000J0D01*
G01*
X13021000Y-6417000D02*
X13141000Y-6537000D01*
X13141000Y-6417000D02*
X13021000Y-6537000D01*
X13141000Y-6477000D02*
G75*
G03*
X13021000Y-6477000I-60000J0D01*
G01*
X13021000Y-6477000D02*
G75*
G03*
X13141000Y-6477000I60000J0D01*
G01*
X13275000Y-6417000D02*
X13395000Y-6537000D01*
X13395000Y-6417000D02*
X13275000Y-6537000D01*
X13395000Y-6477000D02*
G75*
G03*
X13275000Y-6477000I-60000J0D01*
G01*
X13275000Y-6477000D02*
G75*
G03*
X13395000Y-6477000I60000J0D01*
G01*
X13529000Y-6417000D02*
X13649000Y-6537000D01*
X13649000Y-6417000D02*
X13529000Y-6537000D01*
X13649000Y-6477000D02*
G75*
G03*
X13529000Y-6477000I-60000J0D01*
G01*
X13529000Y-6477000D02*
G75*
G03*
X13649000Y-6477000I60000J0D01*
G01*
X13783000Y-6417000D02*
X13903000Y-6537000D01*
X13903000Y-6417000D02*
X13783000Y-6537000D01*
X13903000Y-6477000D02*
G75*
G03*
X13783000Y-6477000I-60000J0D01*
G01*
X13783000Y-6477000D02*
G75*
G03*
X13903000Y-6477000I60000J0D01*
G01*
X14037000Y-6417000D02*
X14157000Y-6537000D01*
X14157000Y-6417000D02*
X14037000Y-6537000D01*
X14157000Y-6477000D02*
G75*
G03*
X14037000Y-6477000I-60000J0D01*
G01*
X14037000Y-6477000D02*
G75*
G03*
X14157000Y-6477000I60000J0D01*
G01*
X14291000Y-6417000D02*
X14411000Y-6537000D01*
X14411000Y-6417000D02*
X14291000Y-6537000D01*
X14411000Y-6477000D02*
G75*
G03*
X14291000Y-6477000I-60000J0D01*
G01*
X14291000Y-6477000D02*
G75*
G03*
X14411000Y-6477000I60000J0D01*
G01*
X14545000Y-6417000D02*
X14665000Y-6537000D01*
X14665000Y-6417000D02*
X14545000Y-6537000D01*
X14665000Y-6477000D02*
G75*
G03*
X14545000Y-6477000I-60000J0D01*
G01*
X14545000Y-6477000D02*
G75*
G03*
X14665000Y-6477000I60000J0D01*
G01*
X14799000Y-6417000D02*
X14919000Y-6537000D01*
X14919000Y-6417000D02*
X14799000Y-6537000D01*
X14919000Y-6477000D02*
G75*
G03*
X14799000Y-6477000I-60000J0D01*
G01*
X14799000Y-6477000D02*
G75*
G03*
X14919000Y-6477000I60000J0D01*
G01*
X15053000Y-6417000D02*
X15173000Y-6537000D01*
X15173000Y-6417000D02*
X15053000Y-6537000D01*
X15173000Y-6477000D02*
G75*
G03*
X15053000Y-6477000I-60000J0D01*
G01*
X15053000Y-6477000D02*
G75*
G03*
X15173000Y-6477000I60000J0D01*
G01*
D13*
X22021062Y-7327924D02*
X22151062Y-7457924D01*
X22151062Y-7327924D02*
X22021062Y-7457924D01*
X22086062Y-7327924D02*
X22086062Y-7457924D01*
X22021062Y-7392924D02*
X22151062Y-7392924D01*
X22021062Y-7827924D02*
X22151062Y-7957924D01*
X22151062Y-7827924D02*
X22021062Y-7957924D01*
X22086062Y-7827924D02*
X22086062Y-7957924D01*
X22021062Y-7892924D02*
X22151062Y-7892924D01*
D14*
X21413200Y-11083400D02*
X21573200Y-11243400D01*
X21573200Y-11083400D02*
X21413200Y-11243400D01*
X21549769Y-11219969D02*
X21549769Y-11106831D01*
X21436631Y-11106831D01*
X21436631Y-11219969D01*
X21549769Y-11219969D01*
X21713200Y-10613400D02*
X21873200Y-10773400D01*
X21873200Y-10613400D02*
X21713200Y-10773400D01*
X21849769Y-10749969D02*
X21849769Y-10636831D01*
X21736631Y-10636831D01*
X21736631Y-10749969D01*
X21849769Y-10749969D01*
X22013200Y-11083400D02*
X22173200Y-11243400D01*
X22173200Y-11083400D02*
X22013200Y-11243400D01*
X22149769Y-11219969D02*
X22149769Y-11106831D01*
X22036631Y-11106831D01*
X22036631Y-11219969D01*
X22149769Y-11219969D01*
D15*
X10377938Y-2501906D02*
X10727938Y-2851906D01*
X10727938Y-2501906D02*
X10377938Y-2851906D01*
X10552938Y-2851906D02*
X10727938Y-2676906D01*
X10552938Y-2501906D01*
X10377938Y-2676906D01*
X10552938Y-2851906D01*
X10377938Y-6201924D02*
X10727938Y-6551924D01*
X10727938Y-6201924D02*
X10377938Y-6551924D01*
X10552938Y-6551924D02*
X10727938Y-6376924D01*
X10552938Y-6201924D01*
X10377938Y-6376924D01*
X10552938Y-6551924D01*
X21878042Y-2501906D02*
X22228042Y-2851906D01*
X22228042Y-2501906D02*
X21878042Y-2851906D01*
X22053042Y-2851906D02*
X22228042Y-2676906D01*
X22053042Y-2501906D01*
X21878042Y-2676906D01*
X22053042Y-2851906D01*
X21878042Y-6201924D02*
X22228042Y-6551924D01*
X22228042Y-6201924D02*
X21878042Y-6551924D01*
X22053042Y-6551924D02*
X22228042Y-6376924D01*
X22053042Y-6201924D01*
X21878042Y-6376924D01*
X22053042Y-6551924D01*
D11*
X10034777Y-12254484D02*
X10034777Y-12054484D01*
X10034777Y-12054484D02*
X10082396Y-12054484D01*
X10082396Y-12054484D02*
X10110967Y-12064008D01*
X10110967Y-12064008D02*
X10130015Y-12083055D01*
X10130015Y-12083055D02*
X10139539Y-12102103D01*
X10139539Y-12102103D02*
X10149063Y-12140198D01*
X10149063Y-12140198D02*
X10149063Y-12168769D01*
X10149063Y-12168769D02*
X10139539Y-12206865D01*
X10139539Y-12206865D02*
X10130015Y-12225912D01*
X10130015Y-12225912D02*
X10110967Y-12244960D01*
X10110967Y-12244960D02*
X10082396Y-12254484D01*
X10082396Y-12254484D02*
X10034777Y-12254484D01*
X10234777Y-12254484D02*
X10234777Y-12121150D01*
X10234777Y-12159246D02*
X10244301Y-12140198D01*
X10244301Y-12140198D02*
X10253824Y-12130674D01*
X10253824Y-12130674D02*
X10272872Y-12121150D01*
X10272872Y-12121150D02*
X10291920Y-12121150D01*
X10358586Y-12254484D02*
X10358586Y-12121150D01*
X10358586Y-12054484D02*
X10349063Y-12064008D01*
X10349063Y-12064008D02*
X10358586Y-12073531D01*
X10358586Y-12073531D02*
X10368110Y-12064008D01*
X10368110Y-12064008D02*
X10358586Y-12054484D01*
X10358586Y-12054484D02*
X10358586Y-12073531D01*
X10482396Y-12254484D02*
X10463348Y-12244960D01*
X10463348Y-12244960D02*
X10453824Y-12225912D01*
X10453824Y-12225912D02*
X10453824Y-12054484D01*
X10587158Y-12254484D02*
X10568110Y-12244960D01*
X10568110Y-12244960D02*
X10558586Y-12225912D01*
X10558586Y-12225912D02*
X10558586Y-12054484D01*
X10815729Y-12254484D02*
X10815729Y-12054484D01*
X10815729Y-12054484D02*
X10882396Y-12197341D01*
X10882396Y-12197341D02*
X10949063Y-12054484D01*
X10949063Y-12054484D02*
X10949063Y-12254484D01*
X11130015Y-12254484D02*
X11130015Y-12149722D01*
X11130015Y-12149722D02*
X11120491Y-12130674D01*
X11120491Y-12130674D02*
X11101444Y-12121150D01*
X11101444Y-12121150D02*
X11063348Y-12121150D01*
X11063348Y-12121150D02*
X11044301Y-12130674D01*
X11130015Y-12244960D02*
X11110967Y-12254484D01*
X11110967Y-12254484D02*
X11063348Y-12254484D01*
X11063348Y-12254484D02*
X11044301Y-12244960D01*
X11044301Y-12244960D02*
X11034777Y-12225912D01*
X11034777Y-12225912D02*
X11034777Y-12206865D01*
X11034777Y-12206865D02*
X11044301Y-12187817D01*
X11044301Y-12187817D02*
X11063348Y-12178293D01*
X11063348Y-12178293D02*
X11110967Y-12178293D01*
X11110967Y-12178293D02*
X11130015Y-12168769D01*
X11225253Y-12121150D02*
X11225253Y-12321150D01*
X11225253Y-12130674D02*
X11244301Y-12121150D01*
X11244301Y-12121150D02*
X11282396Y-12121150D01*
X11282396Y-12121150D02*
X11301443Y-12130674D01*
X11301443Y-12130674D02*
X11310967Y-12140198D01*
X11310967Y-12140198D02*
X11320491Y-12159246D01*
X11320491Y-12159246D02*
X11320491Y-12216388D01*
X11320491Y-12216388D02*
X11310967Y-12235436D01*
X11310967Y-12235436D02*
X11301443Y-12244960D01*
X11301443Y-12244960D02*
X11282396Y-12254484D01*
X11282396Y-12254484D02*
X11244301Y-12254484D01*
X11244301Y-12254484D02*
X11225253Y-12244960D01*
X11406205Y-12235436D02*
X11415729Y-12244960D01*
X11415729Y-12244960D02*
X11406205Y-12254484D01*
X11406205Y-12254484D02*
X11396682Y-12244960D01*
X11396682Y-12244960D02*
X11406205Y-12235436D01*
X11406205Y-12235436D02*
X11406205Y-12254484D01*
X11406205Y-12130674D02*
X11415729Y-12140198D01*
X11415729Y-12140198D02*
X11406205Y-12149722D01*
X11406205Y-12149722D02*
X11396682Y-12140198D01*
X11396682Y-12140198D02*
X11406205Y-12130674D01*
X11406205Y-12130674D02*
X11406205Y-12149722D01*
D10*
X9743520Y-12567760D02*
X9774000Y-12598240D01*
X9774000Y-12567760D02*
X9743520Y-12598240D01*
D11*
X10072872Y-12474484D02*
X10091920Y-12474484D01*
X10091920Y-12474484D02*
X10110967Y-12484008D01*
X10110967Y-12484008D02*
X10120491Y-12493531D01*
X10120491Y-12493531D02*
X10130015Y-12512579D01*
X10130015Y-12512579D02*
X10139539Y-12550674D01*
X10139539Y-12550674D02*
X10139539Y-12598293D01*
X10139539Y-12598293D02*
X10130015Y-12636388D01*
X10130015Y-12636388D02*
X10120491Y-12655436D01*
X10120491Y-12655436D02*
X10110967Y-12664960D01*
X10110967Y-12664960D02*
X10091920Y-12674484D01*
X10091920Y-12674484D02*
X10072872Y-12674484D01*
X10072872Y-12674484D02*
X10053824Y-12664960D01*
X10053824Y-12664960D02*
X10044301Y-12655436D01*
X10044301Y-12655436D02*
X10034777Y-12636388D01*
X10034777Y-12636388D02*
X10025253Y-12598293D01*
X10025253Y-12598293D02*
X10025253Y-12550674D01*
X10025253Y-12550674D02*
X10034777Y-12512579D01*
X10034777Y-12512579D02*
X10044301Y-12493531D01*
X10044301Y-12493531D02*
X10053824Y-12484008D01*
X10053824Y-12484008D02*
X10072872Y-12474484D01*
X10225253Y-12655436D02*
X10234777Y-12664960D01*
X10234777Y-12664960D02*
X10225253Y-12674484D01*
X10225253Y-12674484D02*
X10215729Y-12664960D01*
X10215729Y-12664960D02*
X10225253Y-12655436D01*
X10225253Y-12655436D02*
X10225253Y-12674484D01*
X10301444Y-12474484D02*
X10425253Y-12474484D01*
X10425253Y-12474484D02*
X10358586Y-12550674D01*
X10358586Y-12550674D02*
X10387158Y-12550674D01*
X10387158Y-12550674D02*
X10406205Y-12560198D01*
X10406205Y-12560198D02*
X10415729Y-12569722D01*
X10415729Y-12569722D02*
X10425253Y-12588769D01*
X10425253Y-12588769D02*
X10425253Y-12636388D01*
X10425253Y-12636388D02*
X10415729Y-12655436D01*
X10415729Y-12655436D02*
X10406205Y-12664960D01*
X10406205Y-12664960D02*
X10387158Y-12674484D01*
X10387158Y-12674484D02*
X10330015Y-12674484D01*
X10330015Y-12674484D02*
X10310967Y-12664960D01*
X10310967Y-12664960D02*
X10301444Y-12655436D01*
X10549063Y-12474484D02*
X10568110Y-12474484D01*
X10568110Y-12474484D02*
X10587158Y-12484008D01*
X10587158Y-12484008D02*
X10596682Y-12493531D01*
X10596682Y-12493531D02*
X10606205Y-12512579D01*
X10606205Y-12512579D02*
X10615729Y-12550674D01*
X10615729Y-12550674D02*
X10615729Y-12598293D01*
X10615729Y-12598293D02*
X10606205Y-12636388D01*
X10606205Y-12636388D02*
X10596682Y-12655436D01*
X10596682Y-12655436D02*
X10587158Y-12664960D01*
X10587158Y-12664960D02*
X10568110Y-12674484D01*
X10568110Y-12674484D02*
X10549063Y-12674484D01*
X10549063Y-12674484D02*
X10530015Y-12664960D01*
X10530015Y-12664960D02*
X10520491Y-12655436D01*
X10520491Y-12655436D02*
X10510967Y-12636388D01*
X10510967Y-12636388D02*
X10501444Y-12598293D01*
X10501444Y-12598293D02*
X10501444Y-12550674D01*
X10501444Y-12550674D02*
X10510967Y-12512579D01*
X10510967Y-12512579D02*
X10520491Y-12493531D01*
X10520491Y-12493531D02*
X10530015Y-12484008D01*
X10530015Y-12484008D02*
X10549063Y-12474484D01*
X10796682Y-12474484D02*
X10701444Y-12474484D01*
X10701444Y-12474484D02*
X10691920Y-12569722D01*
X10691920Y-12569722D02*
X10701444Y-12560198D01*
X10701444Y-12560198D02*
X10720491Y-12550674D01*
X10720491Y-12550674D02*
X10768110Y-12550674D01*
X10768110Y-12550674D02*
X10787158Y-12560198D01*
X10787158Y-12560198D02*
X10796682Y-12569722D01*
X10796682Y-12569722D02*
X10806205Y-12588769D01*
X10806205Y-12588769D02*
X10806205Y-12636388D01*
X10806205Y-12636388D02*
X10796682Y-12655436D01*
X10796682Y-12655436D02*
X10787158Y-12664960D01*
X10787158Y-12664960D02*
X10768110Y-12674484D01*
X10768110Y-12674484D02*
X10720491Y-12674484D01*
X10720491Y-12674484D02*
X10701444Y-12664960D01*
X10701444Y-12664960D02*
X10691920Y-12655436D01*
X10891920Y-12674484D02*
X10891920Y-12541150D01*
X10891920Y-12560198D02*
X10901444Y-12550674D01*
X10901444Y-12550674D02*
X10920491Y-12541150D01*
X10920491Y-12541150D02*
X10949063Y-12541150D01*
X10949063Y-12541150D02*
X10968110Y-12550674D01*
X10968110Y-12550674D02*
X10977634Y-12569722D01*
X10977634Y-12569722D02*
X10977634Y-12674484D01*
X10977634Y-12569722D02*
X10987158Y-12550674D01*
X10987158Y-12550674D02*
X11006205Y-12541150D01*
X11006205Y-12541150D02*
X11034777Y-12541150D01*
X11034777Y-12541150D02*
X11053825Y-12550674D01*
X11053825Y-12550674D02*
X11063348Y-12569722D01*
X11063348Y-12569722D02*
X11063348Y-12674484D01*
X11158586Y-12674484D02*
X11158586Y-12541150D01*
X11158586Y-12560198D02*
X11168110Y-12550674D01*
X11168110Y-12550674D02*
X11187158Y-12541150D01*
X11187158Y-12541150D02*
X11215729Y-12541150D01*
X11215729Y-12541150D02*
X11234777Y-12550674D01*
X11234777Y-12550674D02*
X11244301Y-12569722D01*
X11244301Y-12569722D02*
X11244301Y-12674484D01*
X11244301Y-12569722D02*
X11253824Y-12550674D01*
X11253824Y-12550674D02*
X11272872Y-12541150D01*
X11272872Y-12541150D02*
X11301443Y-12541150D01*
X11301443Y-12541150D02*
X11320491Y-12550674D01*
X11320491Y-12550674D02*
X11330015Y-12569722D01*
X11330015Y-12569722D02*
X11330015Y-12674484D01*
X11720491Y-12464960D02*
X11549063Y-12722103D01*
X11977634Y-12474484D02*
X11996682Y-12474484D01*
X11996682Y-12474484D02*
X12015729Y-12484008D01*
X12015729Y-12484008D02*
X12025253Y-12493531D01*
X12025253Y-12493531D02*
X12034777Y-12512579D01*
X12034777Y-12512579D02*
X12044301Y-12550674D01*
X12044301Y-12550674D02*
X12044301Y-12598293D01*
X12044301Y-12598293D02*
X12034777Y-12636388D01*
X12034777Y-12636388D02*
X12025253Y-12655436D01*
X12025253Y-12655436D02*
X12015729Y-12664960D01*
X12015729Y-12664960D02*
X11996682Y-12674484D01*
X11996682Y-12674484D02*
X11977634Y-12674484D01*
X11977634Y-12674484D02*
X11958586Y-12664960D01*
X11958586Y-12664960D02*
X11949063Y-12655436D01*
X11949063Y-12655436D02*
X11939539Y-12636388D01*
X11939539Y-12636388D02*
X11930015Y-12598293D01*
X11930015Y-12598293D02*
X11930015Y-12550674D01*
X11930015Y-12550674D02*
X11939539Y-12512579D01*
X11939539Y-12512579D02*
X11949063Y-12493531D01*
X11949063Y-12493531D02*
X11958586Y-12484008D01*
X11958586Y-12484008D02*
X11977634Y-12474484D01*
X12130015Y-12655436D02*
X12139539Y-12664960D01*
X12139539Y-12664960D02*
X12130015Y-12674484D01*
X12130015Y-12674484D02*
X12120491Y-12664960D01*
X12120491Y-12664960D02*
X12130015Y-12655436D01*
X12130015Y-12655436D02*
X12130015Y-12674484D01*
X12263348Y-12474484D02*
X12282396Y-12474484D01*
X12282396Y-12474484D02*
X12301444Y-12484008D01*
X12301444Y-12484008D02*
X12310967Y-12493531D01*
X12310967Y-12493531D02*
X12320491Y-12512579D01*
X12320491Y-12512579D02*
X12330015Y-12550674D01*
X12330015Y-12550674D02*
X12330015Y-12598293D01*
X12330015Y-12598293D02*
X12320491Y-12636388D01*
X12320491Y-12636388D02*
X12310967Y-12655436D01*
X12310967Y-12655436D02*
X12301444Y-12664960D01*
X12301444Y-12664960D02*
X12282396Y-12674484D01*
X12282396Y-12674484D02*
X12263348Y-12674484D01*
X12263348Y-12674484D02*
X12244301Y-12664960D01*
X12244301Y-12664960D02*
X12234777Y-12655436D01*
X12234777Y-12655436D02*
X12225253Y-12636388D01*
X12225253Y-12636388D02*
X12215729Y-12598293D01*
X12215729Y-12598293D02*
X12215729Y-12550674D01*
X12215729Y-12550674D02*
X12225253Y-12512579D01*
X12225253Y-12512579D02*
X12234777Y-12493531D01*
X12234777Y-12493531D02*
X12244301Y-12484008D01*
X12244301Y-12484008D02*
X12263348Y-12474484D01*
X12520491Y-12674484D02*
X12406206Y-12674484D01*
X12463348Y-12674484D02*
X12463348Y-12474484D01*
X12463348Y-12474484D02*
X12444301Y-12503055D01*
X12444301Y-12503055D02*
X12425253Y-12522103D01*
X12425253Y-12522103D02*
X12406206Y-12531627D01*
X12596682Y-12493531D02*
X12606206Y-12484008D01*
X12606206Y-12484008D02*
X12625253Y-12474484D01*
X12625253Y-12474484D02*
X12672872Y-12474484D01*
X12672872Y-12474484D02*
X12691920Y-12484008D01*
X12691920Y-12484008D02*
X12701444Y-12493531D01*
X12701444Y-12493531D02*
X12710967Y-12512579D01*
X12710967Y-12512579D02*
X12710967Y-12531627D01*
X12710967Y-12531627D02*
X12701444Y-12560198D01*
X12701444Y-12560198D02*
X12587158Y-12674484D01*
X12587158Y-12674484D02*
X12710967Y-12674484D01*
X12834777Y-12474484D02*
X12853825Y-12474484D01*
X12853825Y-12474484D02*
X12872872Y-12484008D01*
X12872872Y-12484008D02*
X12882396Y-12493531D01*
X12882396Y-12493531D02*
X12891920Y-12512579D01*
X12891920Y-12512579D02*
X12901444Y-12550674D01*
X12901444Y-12550674D02*
X12901444Y-12598293D01*
X12901444Y-12598293D02*
X12891920Y-12636388D01*
X12891920Y-12636388D02*
X12882396Y-12655436D01*
X12882396Y-12655436D02*
X12872872Y-12664960D01*
X12872872Y-12664960D02*
X12853825Y-12674484D01*
X12853825Y-12674484D02*
X12834777Y-12674484D01*
X12834777Y-12674484D02*
X12815729Y-12664960D01*
X12815729Y-12664960D02*
X12806206Y-12655436D01*
X12806206Y-12655436D02*
X12796682Y-12636388D01*
X12796682Y-12636388D02*
X12787158Y-12598293D01*
X12787158Y-12598293D02*
X12787158Y-12550674D01*
X12787158Y-12550674D02*
X12796682Y-12512579D01*
X12796682Y-12512579D02*
X12806206Y-12493531D01*
X12806206Y-12493531D02*
X12815729Y-12484008D01*
X12815729Y-12484008D02*
X12834777Y-12474484D01*
X12977634Y-12474484D02*
X12977634Y-12512579D01*
X13053825Y-12474484D02*
X13053825Y-12512579D01*
X13349063Y-12750674D02*
X13339539Y-12741150D01*
X13339539Y-12741150D02*
X13320491Y-12712579D01*
X13320491Y-12712579D02*
X13310968Y-12693531D01*
X13310968Y-12693531D02*
X13301444Y-12664960D01*
X13301444Y-12664960D02*
X13291920Y-12617341D01*
X13291920Y-12617341D02*
X13291920Y-12579246D01*
X13291920Y-12579246D02*
X13301444Y-12531627D01*
X13301444Y-12531627D02*
X13310968Y-12503055D01*
X13310968Y-12503055D02*
X13320491Y-12484008D01*
X13320491Y-12484008D02*
X13339539Y-12455436D01*
X13339539Y-12455436D02*
X13349063Y-12445912D01*
X13530015Y-12674484D02*
X13415729Y-12674484D01*
X13472872Y-12674484D02*
X13472872Y-12474484D01*
X13472872Y-12474484D02*
X13453825Y-12503055D01*
X13453825Y-12503055D02*
X13434777Y-12522103D01*
X13434777Y-12522103D02*
X13415729Y-12531627D01*
X13596682Y-12474484D02*
X13730015Y-12474484D01*
X13730015Y-12474484D02*
X13644301Y-12674484D01*
X13958587Y-12674484D02*
X13958587Y-12474484D01*
X14044301Y-12674484D02*
X14044301Y-12569722D01*
X14044301Y-12569722D02*
X14034777Y-12550674D01*
X14034777Y-12550674D02*
X14015730Y-12541150D01*
X14015730Y-12541150D02*
X13987158Y-12541150D01*
X13987158Y-12541150D02*
X13968110Y-12550674D01*
X13968110Y-12550674D02*
X13958587Y-12560198D01*
X14168110Y-12674484D02*
X14149063Y-12664960D01*
X14149063Y-12664960D02*
X14139539Y-12655436D01*
X14139539Y-12655436D02*
X14130015Y-12636388D01*
X14130015Y-12636388D02*
X14130015Y-12579246D01*
X14130015Y-12579246D02*
X14139539Y-12560198D01*
X14139539Y-12560198D02*
X14149063Y-12550674D01*
X14149063Y-12550674D02*
X14168110Y-12541150D01*
X14168110Y-12541150D02*
X14196682Y-12541150D01*
X14196682Y-12541150D02*
X14215730Y-12550674D01*
X14215730Y-12550674D02*
X14225253Y-12560198D01*
X14225253Y-12560198D02*
X14234777Y-12579246D01*
X14234777Y-12579246D02*
X14234777Y-12636388D01*
X14234777Y-12636388D02*
X14225253Y-12655436D01*
X14225253Y-12655436D02*
X14215730Y-12664960D01*
X14215730Y-12664960D02*
X14196682Y-12674484D01*
X14196682Y-12674484D02*
X14168110Y-12674484D01*
X14349063Y-12674484D02*
X14330015Y-12664960D01*
X14330015Y-12664960D02*
X14320491Y-12645912D01*
X14320491Y-12645912D02*
X14320491Y-12474484D01*
X14501444Y-12664960D02*
X14482396Y-12674484D01*
X14482396Y-12674484D02*
X14444301Y-12674484D01*
X14444301Y-12674484D02*
X14425253Y-12664960D01*
X14425253Y-12664960D02*
X14415730Y-12645912D01*
X14415730Y-12645912D02*
X14415730Y-12569722D01*
X14415730Y-12569722D02*
X14425253Y-12550674D01*
X14425253Y-12550674D02*
X14444301Y-12541150D01*
X14444301Y-12541150D02*
X14482396Y-12541150D01*
X14482396Y-12541150D02*
X14501444Y-12550674D01*
X14501444Y-12550674D02*
X14510968Y-12569722D01*
X14510968Y-12569722D02*
X14510968Y-12588769D01*
X14510968Y-12588769D02*
X14415730Y-12607817D01*
X14587158Y-12664960D02*
X14606206Y-12674484D01*
X14606206Y-12674484D02*
X14644301Y-12674484D01*
X14644301Y-12674484D02*
X14663349Y-12664960D01*
X14663349Y-12664960D02*
X14672872Y-12645912D01*
X14672872Y-12645912D02*
X14672872Y-12636388D01*
X14672872Y-12636388D02*
X14663349Y-12617341D01*
X14663349Y-12617341D02*
X14644301Y-12607817D01*
X14644301Y-12607817D02*
X14615730Y-12607817D01*
X14615730Y-12607817D02*
X14596682Y-12598293D01*
X14596682Y-12598293D02*
X14587158Y-12579246D01*
X14587158Y-12579246D02*
X14587158Y-12569722D01*
X14587158Y-12569722D02*
X14596682Y-12550674D01*
X14596682Y-12550674D02*
X14615730Y-12541150D01*
X14615730Y-12541150D02*
X14644301Y-12541150D01*
X14644301Y-12541150D02*
X14663349Y-12550674D01*
X14739539Y-12750674D02*
X14749063Y-12741150D01*
X14749063Y-12741150D02*
X14768111Y-12712579D01*
X14768111Y-12712579D02*
X14777634Y-12693531D01*
X14777634Y-12693531D02*
X14787158Y-12664960D01*
X14787158Y-12664960D02*
X14796682Y-12617341D01*
X14796682Y-12617341D02*
X14796682Y-12579246D01*
X14796682Y-12579246D02*
X14787158Y-12531627D01*
X14787158Y-12531627D02*
X14777634Y-12503055D01*
X14777634Y-12503055D02*
X14768111Y-12484008D01*
X14768111Y-12484008D02*
X14749063Y-12455436D01*
X14749063Y-12455436D02*
X14739539Y-12445912D01*
D10*
X9774000Y-12847000D02*
G75*
G03*
X9734000Y-12847000I-20000J0D01*
G01*
X9734000Y-12847000D02*
G75*
G03*
X9774000Y-12847000I20000J0D01*
G01*
D11*
X10072872Y-12738484D02*
X10091920Y-12738484D01*
X10091920Y-12738484D02*
X10110967Y-12748008D01*
X10110967Y-12748008D02*
X10120491Y-12757531D01*
X10120491Y-12757531D02*
X10130015Y-12776579D01*
X10130015Y-12776579D02*
X10139539Y-12814674D01*
X10139539Y-12814674D02*
X10139539Y-12862293D01*
X10139539Y-12862293D02*
X10130015Y-12900388D01*
X10130015Y-12900388D02*
X10120491Y-12919436D01*
X10120491Y-12919436D02*
X10110967Y-12928960D01*
X10110967Y-12928960D02*
X10091920Y-12938484D01*
X10091920Y-12938484D02*
X10072872Y-12938484D01*
X10072872Y-12938484D02*
X10053824Y-12928960D01*
X10053824Y-12928960D02*
X10044301Y-12919436D01*
X10044301Y-12919436D02*
X10034777Y-12900388D01*
X10034777Y-12900388D02*
X10025253Y-12862293D01*
X10025253Y-12862293D02*
X10025253Y-12814674D01*
X10025253Y-12814674D02*
X10034777Y-12776579D01*
X10034777Y-12776579D02*
X10044301Y-12757531D01*
X10044301Y-12757531D02*
X10053824Y-12748008D01*
X10053824Y-12748008D02*
X10072872Y-12738484D01*
X10225253Y-12919436D02*
X10234777Y-12928960D01*
X10234777Y-12928960D02*
X10225253Y-12938484D01*
X10225253Y-12938484D02*
X10215729Y-12928960D01*
X10215729Y-12928960D02*
X10225253Y-12919436D01*
X10225253Y-12919436D02*
X10225253Y-12938484D01*
X10406205Y-12805150D02*
X10406205Y-12938484D01*
X10358586Y-12728960D02*
X10310967Y-12871817D01*
X10310967Y-12871817D02*
X10434777Y-12871817D01*
X10549063Y-12738484D02*
X10568110Y-12738484D01*
X10568110Y-12738484D02*
X10587158Y-12748008D01*
X10587158Y-12748008D02*
X10596682Y-12757531D01*
X10596682Y-12757531D02*
X10606205Y-12776579D01*
X10606205Y-12776579D02*
X10615729Y-12814674D01*
X10615729Y-12814674D02*
X10615729Y-12862293D01*
X10615729Y-12862293D02*
X10606205Y-12900388D01*
X10606205Y-12900388D02*
X10596682Y-12919436D01*
X10596682Y-12919436D02*
X10587158Y-12928960D01*
X10587158Y-12928960D02*
X10568110Y-12938484D01*
X10568110Y-12938484D02*
X10549063Y-12938484D01*
X10549063Y-12938484D02*
X10530015Y-12928960D01*
X10530015Y-12928960D02*
X10520491Y-12919436D01*
X10520491Y-12919436D02*
X10510967Y-12900388D01*
X10510967Y-12900388D02*
X10501444Y-12862293D01*
X10501444Y-12862293D02*
X10501444Y-12814674D01*
X10501444Y-12814674D02*
X10510967Y-12776579D01*
X10510967Y-12776579D02*
X10520491Y-12757531D01*
X10520491Y-12757531D02*
X10530015Y-12748008D01*
X10530015Y-12748008D02*
X10549063Y-12738484D01*
X10739539Y-12738484D02*
X10758586Y-12738484D01*
X10758586Y-12738484D02*
X10777634Y-12748008D01*
X10777634Y-12748008D02*
X10787158Y-12757531D01*
X10787158Y-12757531D02*
X10796682Y-12776579D01*
X10796682Y-12776579D02*
X10806205Y-12814674D01*
X10806205Y-12814674D02*
X10806205Y-12862293D01*
X10806205Y-12862293D02*
X10796682Y-12900388D01*
X10796682Y-12900388D02*
X10787158Y-12919436D01*
X10787158Y-12919436D02*
X10777634Y-12928960D01*
X10777634Y-12928960D02*
X10758586Y-12938484D01*
X10758586Y-12938484D02*
X10739539Y-12938484D01*
X10739539Y-12938484D02*
X10720491Y-12928960D01*
X10720491Y-12928960D02*
X10710967Y-12919436D01*
X10710967Y-12919436D02*
X10701444Y-12900388D01*
X10701444Y-12900388D02*
X10691920Y-12862293D01*
X10691920Y-12862293D02*
X10691920Y-12814674D01*
X10691920Y-12814674D02*
X10701444Y-12776579D01*
X10701444Y-12776579D02*
X10710967Y-12757531D01*
X10710967Y-12757531D02*
X10720491Y-12748008D01*
X10720491Y-12748008D02*
X10739539Y-12738484D01*
X10891920Y-12938484D02*
X10891920Y-12805150D01*
X10891920Y-12824198D02*
X10901444Y-12814674D01*
X10901444Y-12814674D02*
X10920491Y-12805150D01*
X10920491Y-12805150D02*
X10949063Y-12805150D01*
X10949063Y-12805150D02*
X10968110Y-12814674D01*
X10968110Y-12814674D02*
X10977634Y-12833722D01*
X10977634Y-12833722D02*
X10977634Y-12938484D01*
X10977634Y-12833722D02*
X10987158Y-12814674D01*
X10987158Y-12814674D02*
X11006205Y-12805150D01*
X11006205Y-12805150D02*
X11034777Y-12805150D01*
X11034777Y-12805150D02*
X11053825Y-12814674D01*
X11053825Y-12814674D02*
X11063348Y-12833722D01*
X11063348Y-12833722D02*
X11063348Y-12938484D01*
X11158586Y-12938484D02*
X11158586Y-12805150D01*
X11158586Y-12824198D02*
X11168110Y-12814674D01*
X11168110Y-12814674D02*
X11187158Y-12805150D01*
X11187158Y-12805150D02*
X11215729Y-12805150D01*
X11215729Y-12805150D02*
X11234777Y-12814674D01*
X11234777Y-12814674D02*
X11244301Y-12833722D01*
X11244301Y-12833722D02*
X11244301Y-12938484D01*
X11244301Y-12833722D02*
X11253824Y-12814674D01*
X11253824Y-12814674D02*
X11272872Y-12805150D01*
X11272872Y-12805150D02*
X11301443Y-12805150D01*
X11301443Y-12805150D02*
X11320491Y-12814674D01*
X11320491Y-12814674D02*
X11330015Y-12833722D01*
X11330015Y-12833722D02*
X11330015Y-12938484D01*
X11720491Y-12728960D02*
X11549063Y-12986103D01*
X11977634Y-12738484D02*
X11996682Y-12738484D01*
X11996682Y-12738484D02*
X12015729Y-12748008D01*
X12015729Y-12748008D02*
X12025253Y-12757531D01*
X12025253Y-12757531D02*
X12034777Y-12776579D01*
X12034777Y-12776579D02*
X12044301Y-12814674D01*
X12044301Y-12814674D02*
X12044301Y-12862293D01*
X12044301Y-12862293D02*
X12034777Y-12900388D01*
X12034777Y-12900388D02*
X12025253Y-12919436D01*
X12025253Y-12919436D02*
X12015729Y-12928960D01*
X12015729Y-12928960D02*
X11996682Y-12938484D01*
X11996682Y-12938484D02*
X11977634Y-12938484D01*
X11977634Y-12938484D02*
X11958586Y-12928960D01*
X11958586Y-12928960D02*
X11949063Y-12919436D01*
X11949063Y-12919436D02*
X11939539Y-12900388D01*
X11939539Y-12900388D02*
X11930015Y-12862293D01*
X11930015Y-12862293D02*
X11930015Y-12814674D01*
X11930015Y-12814674D02*
X11939539Y-12776579D01*
X11939539Y-12776579D02*
X11949063Y-12757531D01*
X11949063Y-12757531D02*
X11958586Y-12748008D01*
X11958586Y-12748008D02*
X11977634Y-12738484D01*
X12130015Y-12919436D02*
X12139539Y-12928960D01*
X12139539Y-12928960D02*
X12130015Y-12938484D01*
X12130015Y-12938484D02*
X12120491Y-12928960D01*
X12120491Y-12928960D02*
X12130015Y-12919436D01*
X12130015Y-12919436D02*
X12130015Y-12938484D01*
X12263348Y-12738484D02*
X12282396Y-12738484D01*
X12282396Y-12738484D02*
X12301444Y-12748008D01*
X12301444Y-12748008D02*
X12310967Y-12757531D01*
X12310967Y-12757531D02*
X12320491Y-12776579D01*
X12320491Y-12776579D02*
X12330015Y-12814674D01*
X12330015Y-12814674D02*
X12330015Y-12862293D01*
X12330015Y-12862293D02*
X12320491Y-12900388D01*
X12320491Y-12900388D02*
X12310967Y-12919436D01*
X12310967Y-12919436D02*
X12301444Y-12928960D01*
X12301444Y-12928960D02*
X12282396Y-12938484D01*
X12282396Y-12938484D02*
X12263348Y-12938484D01*
X12263348Y-12938484D02*
X12244301Y-12928960D01*
X12244301Y-12928960D02*
X12234777Y-12919436D01*
X12234777Y-12919436D02*
X12225253Y-12900388D01*
X12225253Y-12900388D02*
X12215729Y-12862293D01*
X12215729Y-12862293D02*
X12215729Y-12814674D01*
X12215729Y-12814674D02*
X12225253Y-12776579D01*
X12225253Y-12776579D02*
X12234777Y-12757531D01*
X12234777Y-12757531D02*
X12244301Y-12748008D01*
X12244301Y-12748008D02*
X12263348Y-12738484D01*
X12520491Y-12938484D02*
X12406206Y-12938484D01*
X12463348Y-12938484D02*
X12463348Y-12738484D01*
X12463348Y-12738484D02*
X12444301Y-12767055D01*
X12444301Y-12767055D02*
X12425253Y-12786103D01*
X12425253Y-12786103D02*
X12406206Y-12795627D01*
X12701444Y-12738484D02*
X12606206Y-12738484D01*
X12606206Y-12738484D02*
X12596682Y-12833722D01*
X12596682Y-12833722D02*
X12606206Y-12824198D01*
X12606206Y-12824198D02*
X12625253Y-12814674D01*
X12625253Y-12814674D02*
X12672872Y-12814674D01*
X12672872Y-12814674D02*
X12691920Y-12824198D01*
X12691920Y-12824198D02*
X12701444Y-12833722D01*
X12701444Y-12833722D02*
X12710967Y-12852769D01*
X12710967Y-12852769D02*
X12710967Y-12900388D01*
X12710967Y-12900388D02*
X12701444Y-12919436D01*
X12701444Y-12919436D02*
X12691920Y-12928960D01*
X12691920Y-12928960D02*
X12672872Y-12938484D01*
X12672872Y-12938484D02*
X12625253Y-12938484D01*
X12625253Y-12938484D02*
X12606206Y-12928960D01*
X12606206Y-12928960D02*
X12596682Y-12919436D01*
X12777634Y-12738484D02*
X12910967Y-12738484D01*
X12910967Y-12738484D02*
X12825253Y-12938484D01*
X12977634Y-12738484D02*
X12977634Y-12776579D01*
X13053825Y-12738484D02*
X13053825Y-12776579D01*
X13349063Y-13014674D02*
X13339539Y-13005150D01*
X13339539Y-13005150D02*
X13320491Y-12976579D01*
X13320491Y-12976579D02*
X13310968Y-12957531D01*
X13310968Y-12957531D02*
X13301444Y-12928960D01*
X13301444Y-12928960D02*
X13291920Y-12881341D01*
X13291920Y-12881341D02*
X13291920Y-12843246D01*
X13291920Y-12843246D02*
X13301444Y-12795627D01*
X13301444Y-12795627D02*
X13310968Y-12767055D01*
X13310968Y-12767055D02*
X13320491Y-12748008D01*
X13320491Y-12748008D02*
X13339539Y-12719436D01*
X13339539Y-12719436D02*
X13349063Y-12709912D01*
X13415729Y-12757531D02*
X13425253Y-12748008D01*
X13425253Y-12748008D02*
X13444301Y-12738484D01*
X13444301Y-12738484D02*
X13491920Y-12738484D01*
X13491920Y-12738484D02*
X13510968Y-12748008D01*
X13510968Y-12748008D02*
X13520491Y-12757531D01*
X13520491Y-12757531D02*
X13530015Y-12776579D01*
X13530015Y-12776579D02*
X13530015Y-12795627D01*
X13530015Y-12795627D02*
X13520491Y-12824198D01*
X13520491Y-12824198D02*
X13406206Y-12938484D01*
X13406206Y-12938484D02*
X13530015Y-12938484D01*
X13701444Y-12738484D02*
X13663348Y-12738484D01*
X13663348Y-12738484D02*
X13644301Y-12748008D01*
X13644301Y-12748008D02*
X13634777Y-12757531D01*
X13634777Y-12757531D02*
X13615729Y-12786103D01*
X13615729Y-12786103D02*
X13606206Y-12824198D01*
X13606206Y-12824198D02*
X13606206Y-12900388D01*
X13606206Y-12900388D02*
X13615729Y-12919436D01*
X13615729Y-12919436D02*
X13625253Y-12928960D01*
X13625253Y-12928960D02*
X13644301Y-12938484D01*
X13644301Y-12938484D02*
X13682396Y-12938484D01*
X13682396Y-12938484D02*
X13701444Y-12928960D01*
X13701444Y-12928960D02*
X13710968Y-12919436D01*
X13710968Y-12919436D02*
X13720491Y-12900388D01*
X13720491Y-12900388D02*
X13720491Y-12852769D01*
X13720491Y-12852769D02*
X13710968Y-12833722D01*
X13710968Y-12833722D02*
X13701444Y-12824198D01*
X13701444Y-12824198D02*
X13682396Y-12814674D01*
X13682396Y-12814674D02*
X13644301Y-12814674D01*
X13644301Y-12814674D02*
X13625253Y-12824198D01*
X13625253Y-12824198D02*
X13615729Y-12833722D01*
X13615729Y-12833722D02*
X13606206Y-12852769D01*
X13958587Y-12938484D02*
X13958587Y-12738484D01*
X14044301Y-12938484D02*
X14044301Y-12833722D01*
X14044301Y-12833722D02*
X14034777Y-12814674D01*
X14034777Y-12814674D02*
X14015730Y-12805150D01*
X14015730Y-12805150D02*
X13987158Y-12805150D01*
X13987158Y-12805150D02*
X13968110Y-12814674D01*
X13968110Y-12814674D02*
X13958587Y-12824198D01*
X14168110Y-12938484D02*
X14149063Y-12928960D01*
X14149063Y-12928960D02*
X14139539Y-12919436D01*
X14139539Y-12919436D02*
X14130015Y-12900388D01*
X14130015Y-12900388D02*
X14130015Y-12843246D01*
X14130015Y-12843246D02*
X14139539Y-12824198D01*
X14139539Y-12824198D02*
X14149063Y-12814674D01*
X14149063Y-12814674D02*
X14168110Y-12805150D01*
X14168110Y-12805150D02*
X14196682Y-12805150D01*
X14196682Y-12805150D02*
X14215730Y-12814674D01*
X14215730Y-12814674D02*
X14225253Y-12824198D01*
X14225253Y-12824198D02*
X14234777Y-12843246D01*
X14234777Y-12843246D02*
X14234777Y-12900388D01*
X14234777Y-12900388D02*
X14225253Y-12919436D01*
X14225253Y-12919436D02*
X14215730Y-12928960D01*
X14215730Y-12928960D02*
X14196682Y-12938484D01*
X14196682Y-12938484D02*
X14168110Y-12938484D01*
X14349063Y-12938484D02*
X14330015Y-12928960D01*
X14330015Y-12928960D02*
X14320491Y-12909912D01*
X14320491Y-12909912D02*
X14320491Y-12738484D01*
X14501444Y-12928960D02*
X14482396Y-12938484D01*
X14482396Y-12938484D02*
X14444301Y-12938484D01*
X14444301Y-12938484D02*
X14425253Y-12928960D01*
X14425253Y-12928960D02*
X14415730Y-12909912D01*
X14415730Y-12909912D02*
X14415730Y-12833722D01*
X14415730Y-12833722D02*
X14425253Y-12814674D01*
X14425253Y-12814674D02*
X14444301Y-12805150D01*
X14444301Y-12805150D02*
X14482396Y-12805150D01*
X14482396Y-12805150D02*
X14501444Y-12814674D01*
X14501444Y-12814674D02*
X14510968Y-12833722D01*
X14510968Y-12833722D02*
X14510968Y-12852769D01*
X14510968Y-12852769D02*
X14415730Y-12871817D01*
X14587158Y-12928960D02*
X14606206Y-12938484D01*
X14606206Y-12938484D02*
X14644301Y-12938484D01*
X14644301Y-12938484D02*
X14663349Y-12928960D01*
X14663349Y-12928960D02*
X14672872Y-12909912D01*
X14672872Y-12909912D02*
X14672872Y-12900388D01*
X14672872Y-12900388D02*
X14663349Y-12881341D01*
X14663349Y-12881341D02*
X14644301Y-12871817D01*
X14644301Y-12871817D02*
X14615730Y-12871817D01*
X14615730Y-12871817D02*
X14596682Y-12862293D01*
X14596682Y-12862293D02*
X14587158Y-12843246D01*
X14587158Y-12843246D02*
X14587158Y-12833722D01*
X14587158Y-12833722D02*
X14596682Y-12814674D01*
X14596682Y-12814674D02*
X14615730Y-12805150D01*
X14615730Y-12805150D02*
X14644301Y-12805150D01*
X14644301Y-12805150D02*
X14663349Y-12814674D01*
X14739539Y-13014674D02*
X14749063Y-13005150D01*
X14749063Y-13005150D02*
X14768111Y-12976579D01*
X14768111Y-12976579D02*
X14777634Y-12957531D01*
X14777634Y-12957531D02*
X14787158Y-12928960D01*
X14787158Y-12928960D02*
X14796682Y-12881341D01*
X14796682Y-12881341D02*
X14796682Y-12843246D01*
X14796682Y-12843246D02*
X14787158Y-12795627D01*
X14787158Y-12795627D02*
X14777634Y-12767055D01*
X14777634Y-12767055D02*
X14768111Y-12748008D01*
X14768111Y-12748008D02*
X14749063Y-12719436D01*
X14749063Y-12719436D02*
X14739539Y-12709912D01*
D10*
X9744000Y-13081000D02*
X9744000Y-13141000D01*
X9714000Y-13111000D02*
X9774000Y-13111000D01*
D11*
X10072872Y-13002484D02*
X10091920Y-13002484D01*
X10091920Y-13002484D02*
X10110967Y-13012008D01*
X10110967Y-13012008D02*
X10120491Y-13021531D01*
X10120491Y-13021531D02*
X10130015Y-13040579D01*
X10130015Y-13040579D02*
X10139539Y-13078674D01*
X10139539Y-13078674D02*
X10139539Y-13126293D01*
X10139539Y-13126293D02*
X10130015Y-13164388D01*
X10130015Y-13164388D02*
X10120491Y-13183436D01*
X10120491Y-13183436D02*
X10110967Y-13192960D01*
X10110967Y-13192960D02*
X10091920Y-13202484D01*
X10091920Y-13202484D02*
X10072872Y-13202484D01*
X10072872Y-13202484D02*
X10053824Y-13192960D01*
X10053824Y-13192960D02*
X10044301Y-13183436D01*
X10044301Y-13183436D02*
X10034777Y-13164388D01*
X10034777Y-13164388D02*
X10025253Y-13126293D01*
X10025253Y-13126293D02*
X10025253Y-13078674D01*
X10025253Y-13078674D02*
X10034777Y-13040579D01*
X10034777Y-13040579D02*
X10044301Y-13021531D01*
X10044301Y-13021531D02*
X10053824Y-13012008D01*
X10053824Y-13012008D02*
X10072872Y-13002484D01*
X10225253Y-13183436D02*
X10234777Y-13192960D01*
X10234777Y-13192960D02*
X10225253Y-13202484D01*
X10225253Y-13202484D02*
X10215729Y-13192960D01*
X10215729Y-13192960D02*
X10225253Y-13183436D01*
X10225253Y-13183436D02*
X10225253Y-13202484D01*
X10406205Y-13002484D02*
X10368110Y-13002484D01*
X10368110Y-13002484D02*
X10349063Y-13012008D01*
X10349063Y-13012008D02*
X10339539Y-13021531D01*
X10339539Y-13021531D02*
X10320491Y-13050103D01*
X10320491Y-13050103D02*
X10310967Y-13088198D01*
X10310967Y-13088198D02*
X10310967Y-13164388D01*
X10310967Y-13164388D02*
X10320491Y-13183436D01*
X10320491Y-13183436D02*
X10330015Y-13192960D01*
X10330015Y-13192960D02*
X10349063Y-13202484D01*
X10349063Y-13202484D02*
X10387158Y-13202484D01*
X10387158Y-13202484D02*
X10406205Y-13192960D01*
X10406205Y-13192960D02*
X10415729Y-13183436D01*
X10415729Y-13183436D02*
X10425253Y-13164388D01*
X10425253Y-13164388D02*
X10425253Y-13116769D01*
X10425253Y-13116769D02*
X10415729Y-13097722D01*
X10415729Y-13097722D02*
X10406205Y-13088198D01*
X10406205Y-13088198D02*
X10387158Y-13078674D01*
X10387158Y-13078674D02*
X10349063Y-13078674D01*
X10349063Y-13078674D02*
X10330015Y-13088198D01*
X10330015Y-13088198D02*
X10320491Y-13097722D01*
X10320491Y-13097722D02*
X10310967Y-13116769D01*
X10549063Y-13002484D02*
X10568110Y-13002484D01*
X10568110Y-13002484D02*
X10587158Y-13012008D01*
X10587158Y-13012008D02*
X10596682Y-13021531D01*
X10596682Y-13021531D02*
X10606205Y-13040579D01*
X10606205Y-13040579D02*
X10615729Y-13078674D01*
X10615729Y-13078674D02*
X10615729Y-13126293D01*
X10615729Y-13126293D02*
X10606205Y-13164388D01*
X10606205Y-13164388D02*
X10596682Y-13183436D01*
X10596682Y-13183436D02*
X10587158Y-13192960D01*
X10587158Y-13192960D02*
X10568110Y-13202484D01*
X10568110Y-13202484D02*
X10549063Y-13202484D01*
X10549063Y-13202484D02*
X10530015Y-13192960D01*
X10530015Y-13192960D02*
X10520491Y-13183436D01*
X10520491Y-13183436D02*
X10510967Y-13164388D01*
X10510967Y-13164388D02*
X10501444Y-13126293D01*
X10501444Y-13126293D02*
X10501444Y-13078674D01*
X10501444Y-13078674D02*
X10510967Y-13040579D01*
X10510967Y-13040579D02*
X10520491Y-13021531D01*
X10520491Y-13021531D02*
X10530015Y-13012008D01*
X10530015Y-13012008D02*
X10549063Y-13002484D01*
X10739539Y-13002484D02*
X10758586Y-13002484D01*
X10758586Y-13002484D02*
X10777634Y-13012008D01*
X10777634Y-13012008D02*
X10787158Y-13021531D01*
X10787158Y-13021531D02*
X10796682Y-13040579D01*
X10796682Y-13040579D02*
X10806205Y-13078674D01*
X10806205Y-13078674D02*
X10806205Y-13126293D01*
X10806205Y-13126293D02*
X10796682Y-13164388D01*
X10796682Y-13164388D02*
X10787158Y-13183436D01*
X10787158Y-13183436D02*
X10777634Y-13192960D01*
X10777634Y-13192960D02*
X10758586Y-13202484D01*
X10758586Y-13202484D02*
X10739539Y-13202484D01*
X10739539Y-13202484D02*
X10720491Y-13192960D01*
X10720491Y-13192960D02*
X10710967Y-13183436D01*
X10710967Y-13183436D02*
X10701444Y-13164388D01*
X10701444Y-13164388D02*
X10691920Y-13126293D01*
X10691920Y-13126293D02*
X10691920Y-13078674D01*
X10691920Y-13078674D02*
X10701444Y-13040579D01*
X10701444Y-13040579D02*
X10710967Y-13021531D01*
X10710967Y-13021531D02*
X10720491Y-13012008D01*
X10720491Y-13012008D02*
X10739539Y-13002484D01*
X10891920Y-13202484D02*
X10891920Y-13069150D01*
X10891920Y-13088198D02*
X10901444Y-13078674D01*
X10901444Y-13078674D02*
X10920491Y-13069150D01*
X10920491Y-13069150D02*
X10949063Y-13069150D01*
X10949063Y-13069150D02*
X10968110Y-13078674D01*
X10968110Y-13078674D02*
X10977634Y-13097722D01*
X10977634Y-13097722D02*
X10977634Y-13202484D01*
X10977634Y-13097722D02*
X10987158Y-13078674D01*
X10987158Y-13078674D02*
X11006205Y-13069150D01*
X11006205Y-13069150D02*
X11034777Y-13069150D01*
X11034777Y-13069150D02*
X11053825Y-13078674D01*
X11053825Y-13078674D02*
X11063348Y-13097722D01*
X11063348Y-13097722D02*
X11063348Y-13202484D01*
X11158586Y-13202484D02*
X11158586Y-13069150D01*
X11158586Y-13088198D02*
X11168110Y-13078674D01*
X11168110Y-13078674D02*
X11187158Y-13069150D01*
X11187158Y-13069150D02*
X11215729Y-13069150D01*
X11215729Y-13069150D02*
X11234777Y-13078674D01*
X11234777Y-13078674D02*
X11244301Y-13097722D01*
X11244301Y-13097722D02*
X11244301Y-13202484D01*
X11244301Y-13097722D02*
X11253824Y-13078674D01*
X11253824Y-13078674D02*
X11272872Y-13069150D01*
X11272872Y-13069150D02*
X11301443Y-13069150D01*
X11301443Y-13069150D02*
X11320491Y-13078674D01*
X11320491Y-13078674D02*
X11330015Y-13097722D01*
X11330015Y-13097722D02*
X11330015Y-13202484D01*
X11720491Y-12992960D02*
X11549063Y-13250103D01*
X11977634Y-13002484D02*
X11996682Y-13002484D01*
X11996682Y-13002484D02*
X12015729Y-13012008D01*
X12015729Y-13012008D02*
X12025253Y-13021531D01*
X12025253Y-13021531D02*
X12034777Y-13040579D01*
X12034777Y-13040579D02*
X12044301Y-13078674D01*
X12044301Y-13078674D02*
X12044301Y-13126293D01*
X12044301Y-13126293D02*
X12034777Y-13164388D01*
X12034777Y-13164388D02*
X12025253Y-13183436D01*
X12025253Y-13183436D02*
X12015729Y-13192960D01*
X12015729Y-13192960D02*
X11996682Y-13202484D01*
X11996682Y-13202484D02*
X11977634Y-13202484D01*
X11977634Y-13202484D02*
X11958586Y-13192960D01*
X11958586Y-13192960D02*
X11949063Y-13183436D01*
X11949063Y-13183436D02*
X11939539Y-13164388D01*
X11939539Y-13164388D02*
X11930015Y-13126293D01*
X11930015Y-13126293D02*
X11930015Y-13078674D01*
X11930015Y-13078674D02*
X11939539Y-13040579D01*
X11939539Y-13040579D02*
X11949063Y-13021531D01*
X11949063Y-13021531D02*
X11958586Y-13012008D01*
X11958586Y-13012008D02*
X11977634Y-13002484D01*
X12130015Y-13183436D02*
X12139539Y-13192960D01*
X12139539Y-13192960D02*
X12130015Y-13202484D01*
X12130015Y-13202484D02*
X12120491Y-13192960D01*
X12120491Y-13192960D02*
X12130015Y-13183436D01*
X12130015Y-13183436D02*
X12130015Y-13202484D01*
X12263348Y-13002484D02*
X12282396Y-13002484D01*
X12282396Y-13002484D02*
X12301444Y-13012008D01*
X12301444Y-13012008D02*
X12310967Y-13021531D01*
X12310967Y-13021531D02*
X12320491Y-13040579D01*
X12320491Y-13040579D02*
X12330015Y-13078674D01*
X12330015Y-13078674D02*
X12330015Y-13126293D01*
X12330015Y-13126293D02*
X12320491Y-13164388D01*
X12320491Y-13164388D02*
X12310967Y-13183436D01*
X12310967Y-13183436D02*
X12301444Y-13192960D01*
X12301444Y-13192960D02*
X12282396Y-13202484D01*
X12282396Y-13202484D02*
X12263348Y-13202484D01*
X12263348Y-13202484D02*
X12244301Y-13192960D01*
X12244301Y-13192960D02*
X12234777Y-13183436D01*
X12234777Y-13183436D02*
X12225253Y-13164388D01*
X12225253Y-13164388D02*
X12215729Y-13126293D01*
X12215729Y-13126293D02*
X12215729Y-13078674D01*
X12215729Y-13078674D02*
X12225253Y-13040579D01*
X12225253Y-13040579D02*
X12234777Y-13021531D01*
X12234777Y-13021531D02*
X12244301Y-13012008D01*
X12244301Y-13012008D02*
X12263348Y-13002484D01*
X12406206Y-13021531D02*
X12415729Y-13012008D01*
X12415729Y-13012008D02*
X12434777Y-13002484D01*
X12434777Y-13002484D02*
X12482396Y-13002484D01*
X12482396Y-13002484D02*
X12501444Y-13012008D01*
X12501444Y-13012008D02*
X12510967Y-13021531D01*
X12510967Y-13021531D02*
X12520491Y-13040579D01*
X12520491Y-13040579D02*
X12520491Y-13059627D01*
X12520491Y-13059627D02*
X12510967Y-13088198D01*
X12510967Y-13088198D02*
X12396682Y-13202484D01*
X12396682Y-13202484D02*
X12520491Y-13202484D01*
X12587158Y-13002484D02*
X12710967Y-13002484D01*
X12710967Y-13002484D02*
X12644301Y-13078674D01*
X12644301Y-13078674D02*
X12672872Y-13078674D01*
X12672872Y-13078674D02*
X12691920Y-13088198D01*
X12691920Y-13088198D02*
X12701444Y-13097722D01*
X12701444Y-13097722D02*
X12710967Y-13116769D01*
X12710967Y-13116769D02*
X12710967Y-13164388D01*
X12710967Y-13164388D02*
X12701444Y-13183436D01*
X12701444Y-13183436D02*
X12691920Y-13192960D01*
X12691920Y-13192960D02*
X12672872Y-13202484D01*
X12672872Y-13202484D02*
X12615729Y-13202484D01*
X12615729Y-13202484D02*
X12596682Y-13192960D01*
X12596682Y-13192960D02*
X12587158Y-13183436D01*
X12882396Y-13002484D02*
X12844301Y-13002484D01*
X12844301Y-13002484D02*
X12825253Y-13012008D01*
X12825253Y-13012008D02*
X12815729Y-13021531D01*
X12815729Y-13021531D02*
X12796682Y-13050103D01*
X12796682Y-13050103D02*
X12787158Y-13088198D01*
X12787158Y-13088198D02*
X12787158Y-13164388D01*
X12787158Y-13164388D02*
X12796682Y-13183436D01*
X12796682Y-13183436D02*
X12806206Y-13192960D01*
X12806206Y-13192960D02*
X12825253Y-13202484D01*
X12825253Y-13202484D02*
X12863348Y-13202484D01*
X12863348Y-13202484D02*
X12882396Y-13192960D01*
X12882396Y-13192960D02*
X12891920Y-13183436D01*
X12891920Y-13183436D02*
X12901444Y-13164388D01*
X12901444Y-13164388D02*
X12901444Y-13116769D01*
X12901444Y-13116769D02*
X12891920Y-13097722D01*
X12891920Y-13097722D02*
X12882396Y-13088198D01*
X12882396Y-13088198D02*
X12863348Y-13078674D01*
X12863348Y-13078674D02*
X12825253Y-13078674D01*
X12825253Y-13078674D02*
X12806206Y-13088198D01*
X12806206Y-13088198D02*
X12796682Y-13097722D01*
X12796682Y-13097722D02*
X12787158Y-13116769D01*
X12977634Y-13002484D02*
X12977634Y-13040579D01*
X13053825Y-13002484D02*
X13053825Y-13040579D01*
X13349063Y-13278674D02*
X13339539Y-13269150D01*
X13339539Y-13269150D02*
X13320491Y-13240579D01*
X13320491Y-13240579D02*
X13310968Y-13221531D01*
X13310968Y-13221531D02*
X13301444Y-13192960D01*
X13301444Y-13192960D02*
X13291920Y-13145341D01*
X13291920Y-13145341D02*
X13291920Y-13107246D01*
X13291920Y-13107246D02*
X13301444Y-13059627D01*
X13301444Y-13059627D02*
X13310968Y-13031055D01*
X13310968Y-13031055D02*
X13320491Y-13012008D01*
X13320491Y-13012008D02*
X13339539Y-12983436D01*
X13339539Y-12983436D02*
X13349063Y-12973912D01*
X13463348Y-13002484D02*
X13482396Y-13002484D01*
X13482396Y-13002484D02*
X13501444Y-13012008D01*
X13501444Y-13012008D02*
X13510968Y-13021531D01*
X13510968Y-13021531D02*
X13520491Y-13040579D01*
X13520491Y-13040579D02*
X13530015Y-13078674D01*
X13530015Y-13078674D02*
X13530015Y-13126293D01*
X13530015Y-13126293D02*
X13520491Y-13164388D01*
X13520491Y-13164388D02*
X13510968Y-13183436D01*
X13510968Y-13183436D02*
X13501444Y-13192960D01*
X13501444Y-13192960D02*
X13482396Y-13202484D01*
X13482396Y-13202484D02*
X13463348Y-13202484D01*
X13463348Y-13202484D02*
X13444301Y-13192960D01*
X13444301Y-13192960D02*
X13434777Y-13183436D01*
X13434777Y-13183436D02*
X13425253Y-13164388D01*
X13425253Y-13164388D02*
X13415729Y-13126293D01*
X13415729Y-13126293D02*
X13415729Y-13078674D01*
X13415729Y-13078674D02*
X13425253Y-13040579D01*
X13425253Y-13040579D02*
X13434777Y-13021531D01*
X13434777Y-13021531D02*
X13444301Y-13012008D01*
X13444301Y-13012008D02*
X13463348Y-13002484D01*
X13768110Y-13202484D02*
X13768110Y-13002484D01*
X13853825Y-13202484D02*
X13853825Y-13097722D01*
X13853825Y-13097722D02*
X13844301Y-13078674D01*
X13844301Y-13078674D02*
X13825253Y-13069150D01*
X13825253Y-13069150D02*
X13796682Y-13069150D01*
X13796682Y-13069150D02*
X13777634Y-13078674D01*
X13777634Y-13078674D02*
X13768110Y-13088198D01*
X13977634Y-13202484D02*
X13958587Y-13192960D01*
X13958587Y-13192960D02*
X13949063Y-13183436D01*
X13949063Y-13183436D02*
X13939539Y-13164388D01*
X13939539Y-13164388D02*
X13939539Y-13107246D01*
X13939539Y-13107246D02*
X13949063Y-13088198D01*
X13949063Y-13088198D02*
X13958587Y-13078674D01*
X13958587Y-13078674D02*
X13977634Y-13069150D01*
X13977634Y-13069150D02*
X14006206Y-13069150D01*
X14006206Y-13069150D02*
X14025253Y-13078674D01*
X14025253Y-13078674D02*
X14034777Y-13088198D01*
X14034777Y-13088198D02*
X14044301Y-13107246D01*
X14044301Y-13107246D02*
X14044301Y-13164388D01*
X14044301Y-13164388D02*
X14034777Y-13183436D01*
X14034777Y-13183436D02*
X14025253Y-13192960D01*
X14025253Y-13192960D02*
X14006206Y-13202484D01*
X14006206Y-13202484D02*
X13977634Y-13202484D01*
X14158587Y-13202484D02*
X14139539Y-13192960D01*
X14139539Y-13192960D02*
X14130015Y-13173912D01*
X14130015Y-13173912D02*
X14130015Y-13002484D01*
X14310968Y-13192960D02*
X14291920Y-13202484D01*
X14291920Y-13202484D02*
X14253825Y-13202484D01*
X14253825Y-13202484D02*
X14234777Y-13192960D01*
X14234777Y-13192960D02*
X14225253Y-13173912D01*
X14225253Y-13173912D02*
X14225253Y-13097722D01*
X14225253Y-13097722D02*
X14234777Y-13078674D01*
X14234777Y-13078674D02*
X14253825Y-13069150D01*
X14253825Y-13069150D02*
X14291920Y-13069150D01*
X14291920Y-13069150D02*
X14310968Y-13078674D01*
X14310968Y-13078674D02*
X14320491Y-13097722D01*
X14320491Y-13097722D02*
X14320491Y-13116769D01*
X14320491Y-13116769D02*
X14225253Y-13135817D01*
X14396682Y-13192960D02*
X14415730Y-13202484D01*
X14415730Y-13202484D02*
X14453825Y-13202484D01*
X14453825Y-13202484D02*
X14472872Y-13192960D01*
X14472872Y-13192960D02*
X14482396Y-13173912D01*
X14482396Y-13173912D02*
X14482396Y-13164388D01*
X14482396Y-13164388D02*
X14472872Y-13145341D01*
X14472872Y-13145341D02*
X14453825Y-13135817D01*
X14453825Y-13135817D02*
X14425253Y-13135817D01*
X14425253Y-13135817D02*
X14406206Y-13126293D01*
X14406206Y-13126293D02*
X14396682Y-13107246D01*
X14396682Y-13107246D02*
X14396682Y-13097722D01*
X14396682Y-13097722D02*
X14406206Y-13078674D01*
X14406206Y-13078674D02*
X14425253Y-13069150D01*
X14425253Y-13069150D02*
X14453825Y-13069150D01*
X14453825Y-13069150D02*
X14472872Y-13078674D01*
X14720492Y-13126293D02*
X14872873Y-13126293D01*
X14796682Y-13202484D02*
X14796682Y-13050103D01*
X15206206Y-13069150D02*
X15206206Y-13202484D01*
X15158587Y-12992960D02*
X15110968Y-13135817D01*
X15110968Y-13135817D02*
X15234777Y-13135817D01*
X15453825Y-13192960D02*
X15472873Y-13202484D01*
X15472873Y-13202484D02*
X15510968Y-13202484D01*
X15510968Y-13202484D02*
X15530015Y-13192960D01*
X15530015Y-13192960D02*
X15539539Y-13173912D01*
X15539539Y-13173912D02*
X15539539Y-13164388D01*
X15539539Y-13164388D02*
X15530015Y-13145341D01*
X15530015Y-13145341D02*
X15510968Y-13135817D01*
X15510968Y-13135817D02*
X15482396Y-13135817D01*
X15482396Y-13135817D02*
X15463349Y-13126293D01*
X15463349Y-13126293D02*
X15453825Y-13107246D01*
X15453825Y-13107246D02*
X15453825Y-13097722D01*
X15453825Y-13097722D02*
X15463349Y-13078674D01*
X15463349Y-13078674D02*
X15482396Y-13069150D01*
X15482396Y-13069150D02*
X15510968Y-13069150D01*
X15510968Y-13069150D02*
X15530015Y-13078674D01*
X15653825Y-13202484D02*
X15634777Y-13192960D01*
X15634777Y-13192960D02*
X15625254Y-13173912D01*
X15625254Y-13173912D02*
X15625254Y-13002484D01*
X15758587Y-13202484D02*
X15739539Y-13192960D01*
X15739539Y-13192960D02*
X15730015Y-13183436D01*
X15730015Y-13183436D02*
X15720492Y-13164388D01*
X15720492Y-13164388D02*
X15720492Y-13107246D01*
X15720492Y-13107246D02*
X15730015Y-13088198D01*
X15730015Y-13088198D02*
X15739539Y-13078674D01*
X15739539Y-13078674D02*
X15758587Y-13069150D01*
X15758587Y-13069150D02*
X15787158Y-13069150D01*
X15787158Y-13069150D02*
X15806206Y-13078674D01*
X15806206Y-13078674D02*
X15815730Y-13088198D01*
X15815730Y-13088198D02*
X15825254Y-13107246D01*
X15825254Y-13107246D02*
X15825254Y-13164388D01*
X15825254Y-13164388D02*
X15815730Y-13183436D01*
X15815730Y-13183436D02*
X15806206Y-13192960D01*
X15806206Y-13192960D02*
X15787158Y-13202484D01*
X15787158Y-13202484D02*
X15758587Y-13202484D01*
X15882396Y-13069150D02*
X15958587Y-13069150D01*
X15910968Y-13002484D02*
X15910968Y-13173912D01*
X15910968Y-13173912D02*
X15920492Y-13192960D01*
X15920492Y-13192960D02*
X15939539Y-13202484D01*
X15939539Y-13202484D02*
X15958587Y-13202484D01*
X16015730Y-13192960D02*
X16034777Y-13202484D01*
X16034777Y-13202484D02*
X16072873Y-13202484D01*
X16072873Y-13202484D02*
X16091920Y-13192960D01*
X16091920Y-13192960D02*
X16101444Y-13173912D01*
X16101444Y-13173912D02*
X16101444Y-13164388D01*
X16101444Y-13164388D02*
X16091920Y-13145341D01*
X16091920Y-13145341D02*
X16072873Y-13135817D01*
X16072873Y-13135817D02*
X16044301Y-13135817D01*
X16044301Y-13135817D02*
X16025254Y-13126293D01*
X16025254Y-13126293D02*
X16015730Y-13107246D01*
X16015730Y-13107246D02*
X16015730Y-13097722D01*
X16015730Y-13097722D02*
X16025254Y-13078674D01*
X16025254Y-13078674D02*
X16044301Y-13069150D01*
X16044301Y-13069150D02*
X16072873Y-13069150D01*
X16072873Y-13069150D02*
X16091920Y-13078674D01*
X16168111Y-13278674D02*
X16177635Y-13269150D01*
X16177635Y-13269150D02*
X16196682Y-13240579D01*
X16196682Y-13240579D02*
X16206206Y-13221531D01*
X16206206Y-13221531D02*
X16215730Y-13192960D01*
X16215730Y-13192960D02*
X16225254Y-13145341D01*
X16225254Y-13145341D02*
X16225254Y-13107246D01*
X16225254Y-13107246D02*
X16215730Y-13059627D01*
X16215730Y-13059627D02*
X16206206Y-13031055D01*
X16206206Y-13031055D02*
X16196682Y-13012008D01*
X16196682Y-13012008D02*
X16177635Y-12983436D01*
X16177635Y-12983436D02*
X16168111Y-12973912D01*
D10*
X9762285Y-13403284D02*
X9762285Y-13346715D01*
X9705716Y-13346715D01*
X9705716Y-13403284D01*
X9762285Y-13403284D01*
D11*
X10072872Y-13266484D02*
X10091920Y-13266484D01*
X10091920Y-13266484D02*
X10110967Y-13276008D01*
X10110967Y-13276008D02*
X10120491Y-13285531D01*
X10120491Y-13285531D02*
X10130015Y-13304579D01*
X10130015Y-13304579D02*
X10139539Y-13342674D01*
X10139539Y-13342674D02*
X10139539Y-13390293D01*
X10139539Y-13390293D02*
X10130015Y-13428388D01*
X10130015Y-13428388D02*
X10120491Y-13447436D01*
X10120491Y-13447436D02*
X10110967Y-13456960D01*
X10110967Y-13456960D02*
X10091920Y-13466484D01*
X10091920Y-13466484D02*
X10072872Y-13466484D01*
X10072872Y-13466484D02*
X10053824Y-13456960D01*
X10053824Y-13456960D02*
X10044301Y-13447436D01*
X10044301Y-13447436D02*
X10034777Y-13428388D01*
X10034777Y-13428388D02*
X10025253Y-13390293D01*
X10025253Y-13390293D02*
X10025253Y-13342674D01*
X10025253Y-13342674D02*
X10034777Y-13304579D01*
X10034777Y-13304579D02*
X10044301Y-13285531D01*
X10044301Y-13285531D02*
X10053824Y-13276008D01*
X10053824Y-13276008D02*
X10072872Y-13266484D01*
X10225253Y-13447436D02*
X10234777Y-13456960D01*
X10234777Y-13456960D02*
X10225253Y-13466484D01*
X10225253Y-13466484D02*
X10215729Y-13456960D01*
X10215729Y-13456960D02*
X10225253Y-13447436D01*
X10225253Y-13447436D02*
X10225253Y-13466484D01*
X10349063Y-13352198D02*
X10330015Y-13342674D01*
X10330015Y-13342674D02*
X10320491Y-13333150D01*
X10320491Y-13333150D02*
X10310967Y-13314103D01*
X10310967Y-13314103D02*
X10310967Y-13304579D01*
X10310967Y-13304579D02*
X10320491Y-13285531D01*
X10320491Y-13285531D02*
X10330015Y-13276008D01*
X10330015Y-13276008D02*
X10349063Y-13266484D01*
X10349063Y-13266484D02*
X10387158Y-13266484D01*
X10387158Y-13266484D02*
X10406205Y-13276008D01*
X10406205Y-13276008D02*
X10415729Y-13285531D01*
X10415729Y-13285531D02*
X10425253Y-13304579D01*
X10425253Y-13304579D02*
X10425253Y-13314103D01*
X10425253Y-13314103D02*
X10415729Y-13333150D01*
X10415729Y-13333150D02*
X10406205Y-13342674D01*
X10406205Y-13342674D02*
X10387158Y-13352198D01*
X10387158Y-13352198D02*
X10349063Y-13352198D01*
X10349063Y-13352198D02*
X10330015Y-13361722D01*
X10330015Y-13361722D02*
X10320491Y-13371246D01*
X10320491Y-13371246D02*
X10310967Y-13390293D01*
X10310967Y-13390293D02*
X10310967Y-13428388D01*
X10310967Y-13428388D02*
X10320491Y-13447436D01*
X10320491Y-13447436D02*
X10330015Y-13456960D01*
X10330015Y-13456960D02*
X10349063Y-13466484D01*
X10349063Y-13466484D02*
X10387158Y-13466484D01*
X10387158Y-13466484D02*
X10406205Y-13456960D01*
X10406205Y-13456960D02*
X10415729Y-13447436D01*
X10415729Y-13447436D02*
X10425253Y-13428388D01*
X10425253Y-13428388D02*
X10425253Y-13390293D01*
X10425253Y-13390293D02*
X10415729Y-13371246D01*
X10415729Y-13371246D02*
X10406205Y-13361722D01*
X10406205Y-13361722D02*
X10387158Y-13352198D01*
X10549063Y-13266484D02*
X10568110Y-13266484D01*
X10568110Y-13266484D02*
X10587158Y-13276008D01*
X10587158Y-13276008D02*
X10596682Y-13285531D01*
X10596682Y-13285531D02*
X10606205Y-13304579D01*
X10606205Y-13304579D02*
X10615729Y-13342674D01*
X10615729Y-13342674D02*
X10615729Y-13390293D01*
X10615729Y-13390293D02*
X10606205Y-13428388D01*
X10606205Y-13428388D02*
X10596682Y-13447436D01*
X10596682Y-13447436D02*
X10587158Y-13456960D01*
X10587158Y-13456960D02*
X10568110Y-13466484D01*
X10568110Y-13466484D02*
X10549063Y-13466484D01*
X10549063Y-13466484D02*
X10530015Y-13456960D01*
X10530015Y-13456960D02*
X10520491Y-13447436D01*
X10520491Y-13447436D02*
X10510967Y-13428388D01*
X10510967Y-13428388D02*
X10501444Y-13390293D01*
X10501444Y-13390293D02*
X10501444Y-13342674D01*
X10501444Y-13342674D02*
X10510967Y-13304579D01*
X10510967Y-13304579D02*
X10520491Y-13285531D01*
X10520491Y-13285531D02*
X10530015Y-13276008D01*
X10530015Y-13276008D02*
X10549063Y-13266484D01*
X10739539Y-13266484D02*
X10758586Y-13266484D01*
X10758586Y-13266484D02*
X10777634Y-13276008D01*
X10777634Y-13276008D02*
X10787158Y-13285531D01*
X10787158Y-13285531D02*
X10796682Y-13304579D01*
X10796682Y-13304579D02*
X10806205Y-13342674D01*
X10806205Y-13342674D02*
X10806205Y-13390293D01*
X10806205Y-13390293D02*
X10796682Y-13428388D01*
X10796682Y-13428388D02*
X10787158Y-13447436D01*
X10787158Y-13447436D02*
X10777634Y-13456960D01*
X10777634Y-13456960D02*
X10758586Y-13466484D01*
X10758586Y-13466484D02*
X10739539Y-13466484D01*
X10739539Y-13466484D02*
X10720491Y-13456960D01*
X10720491Y-13456960D02*
X10710967Y-13447436D01*
X10710967Y-13447436D02*
X10701444Y-13428388D01*
X10701444Y-13428388D02*
X10691920Y-13390293D01*
X10691920Y-13390293D02*
X10691920Y-13342674D01*
X10691920Y-13342674D02*
X10701444Y-13304579D01*
X10701444Y-13304579D02*
X10710967Y-13285531D01*
X10710967Y-13285531D02*
X10720491Y-13276008D01*
X10720491Y-13276008D02*
X10739539Y-13266484D01*
X10891920Y-13466484D02*
X10891920Y-13333150D01*
X10891920Y-13352198D02*
X10901444Y-13342674D01*
X10901444Y-13342674D02*
X10920491Y-13333150D01*
X10920491Y-13333150D02*
X10949063Y-13333150D01*
X10949063Y-13333150D02*
X10968110Y-13342674D01*
X10968110Y-13342674D02*
X10977634Y-13361722D01*
X10977634Y-13361722D02*
X10977634Y-13466484D01*
X10977634Y-13361722D02*
X10987158Y-13342674D01*
X10987158Y-13342674D02*
X11006205Y-13333150D01*
X11006205Y-13333150D02*
X11034777Y-13333150D01*
X11034777Y-13333150D02*
X11053825Y-13342674D01*
X11053825Y-13342674D02*
X11063348Y-13361722D01*
X11063348Y-13361722D02*
X11063348Y-13466484D01*
X11158586Y-13466484D02*
X11158586Y-13333150D01*
X11158586Y-13352198D02*
X11168110Y-13342674D01*
X11168110Y-13342674D02*
X11187158Y-13333150D01*
X11187158Y-13333150D02*
X11215729Y-13333150D01*
X11215729Y-13333150D02*
X11234777Y-13342674D01*
X11234777Y-13342674D02*
X11244301Y-13361722D01*
X11244301Y-13361722D02*
X11244301Y-13466484D01*
X11244301Y-13361722D02*
X11253824Y-13342674D01*
X11253824Y-13342674D02*
X11272872Y-13333150D01*
X11272872Y-13333150D02*
X11301443Y-13333150D01*
X11301443Y-13333150D02*
X11320491Y-13342674D01*
X11320491Y-13342674D02*
X11330015Y-13361722D01*
X11330015Y-13361722D02*
X11330015Y-13466484D01*
X11720491Y-13256960D02*
X11549063Y-13514103D01*
X11977634Y-13266484D02*
X11996682Y-13266484D01*
X11996682Y-13266484D02*
X12015729Y-13276008D01*
X12015729Y-13276008D02*
X12025253Y-13285531D01*
X12025253Y-13285531D02*
X12034777Y-13304579D01*
X12034777Y-13304579D02*
X12044301Y-13342674D01*
X12044301Y-13342674D02*
X12044301Y-13390293D01*
X12044301Y-13390293D02*
X12034777Y-13428388D01*
X12034777Y-13428388D02*
X12025253Y-13447436D01*
X12025253Y-13447436D02*
X12015729Y-13456960D01*
X12015729Y-13456960D02*
X11996682Y-13466484D01*
X11996682Y-13466484D02*
X11977634Y-13466484D01*
X11977634Y-13466484D02*
X11958586Y-13456960D01*
X11958586Y-13456960D02*
X11949063Y-13447436D01*
X11949063Y-13447436D02*
X11939539Y-13428388D01*
X11939539Y-13428388D02*
X11930015Y-13390293D01*
X11930015Y-13390293D02*
X11930015Y-13342674D01*
X11930015Y-13342674D02*
X11939539Y-13304579D01*
X11939539Y-13304579D02*
X11949063Y-13285531D01*
X11949063Y-13285531D02*
X11958586Y-13276008D01*
X11958586Y-13276008D02*
X11977634Y-13266484D01*
X12130015Y-13447436D02*
X12139539Y-13456960D01*
X12139539Y-13456960D02*
X12130015Y-13466484D01*
X12130015Y-13466484D02*
X12120491Y-13456960D01*
X12120491Y-13456960D02*
X12130015Y-13447436D01*
X12130015Y-13447436D02*
X12130015Y-13466484D01*
X12263348Y-13266484D02*
X12282396Y-13266484D01*
X12282396Y-13266484D02*
X12301444Y-13276008D01*
X12301444Y-13276008D02*
X12310967Y-13285531D01*
X12310967Y-13285531D02*
X12320491Y-13304579D01*
X12320491Y-13304579D02*
X12330015Y-13342674D01*
X12330015Y-13342674D02*
X12330015Y-13390293D01*
X12330015Y-13390293D02*
X12320491Y-13428388D01*
X12320491Y-13428388D02*
X12310967Y-13447436D01*
X12310967Y-13447436D02*
X12301444Y-13456960D01*
X12301444Y-13456960D02*
X12282396Y-13466484D01*
X12282396Y-13466484D02*
X12263348Y-13466484D01*
X12263348Y-13466484D02*
X12244301Y-13456960D01*
X12244301Y-13456960D02*
X12234777Y-13447436D01*
X12234777Y-13447436D02*
X12225253Y-13428388D01*
X12225253Y-13428388D02*
X12215729Y-13390293D01*
X12215729Y-13390293D02*
X12215729Y-13342674D01*
X12215729Y-13342674D02*
X12225253Y-13304579D01*
X12225253Y-13304579D02*
X12234777Y-13285531D01*
X12234777Y-13285531D02*
X12244301Y-13276008D01*
X12244301Y-13276008D02*
X12263348Y-13266484D01*
X12396682Y-13266484D02*
X12520491Y-13266484D01*
X12520491Y-13266484D02*
X12453825Y-13342674D01*
X12453825Y-13342674D02*
X12482396Y-13342674D01*
X12482396Y-13342674D02*
X12501444Y-13352198D01*
X12501444Y-13352198D02*
X12510967Y-13361722D01*
X12510967Y-13361722D02*
X12520491Y-13380769D01*
X12520491Y-13380769D02*
X12520491Y-13428388D01*
X12520491Y-13428388D02*
X12510967Y-13447436D01*
X12510967Y-13447436D02*
X12501444Y-13456960D01*
X12501444Y-13456960D02*
X12482396Y-13466484D01*
X12482396Y-13466484D02*
X12425253Y-13466484D01*
X12425253Y-13466484D02*
X12406206Y-13456960D01*
X12406206Y-13456960D02*
X12396682Y-13447436D01*
X12710967Y-13466484D02*
X12596682Y-13466484D01*
X12653825Y-13466484D02*
X12653825Y-13266484D01*
X12653825Y-13266484D02*
X12634777Y-13295055D01*
X12634777Y-13295055D02*
X12615729Y-13314103D01*
X12615729Y-13314103D02*
X12596682Y-13323627D01*
X12891920Y-13266484D02*
X12796682Y-13266484D01*
X12796682Y-13266484D02*
X12787158Y-13361722D01*
X12787158Y-13361722D02*
X12796682Y-13352198D01*
X12796682Y-13352198D02*
X12815729Y-13342674D01*
X12815729Y-13342674D02*
X12863348Y-13342674D01*
X12863348Y-13342674D02*
X12882396Y-13352198D01*
X12882396Y-13352198D02*
X12891920Y-13361722D01*
X12891920Y-13361722D02*
X12901444Y-13380769D01*
X12901444Y-13380769D02*
X12901444Y-13428388D01*
X12901444Y-13428388D02*
X12891920Y-13447436D01*
X12891920Y-13447436D02*
X12882396Y-13456960D01*
X12882396Y-13456960D02*
X12863348Y-13466484D01*
X12863348Y-13466484D02*
X12815729Y-13466484D01*
X12815729Y-13466484D02*
X12796682Y-13456960D01*
X12796682Y-13456960D02*
X12787158Y-13447436D01*
X12977634Y-13266484D02*
X12977634Y-13304579D01*
X13053825Y-13266484D02*
X13053825Y-13304579D01*
X13349063Y-13542674D02*
X13339539Y-13533150D01*
X13339539Y-13533150D02*
X13320491Y-13504579D01*
X13320491Y-13504579D02*
X13310968Y-13485531D01*
X13310968Y-13485531D02*
X13301444Y-13456960D01*
X13301444Y-13456960D02*
X13291920Y-13409341D01*
X13291920Y-13409341D02*
X13291920Y-13371246D01*
X13291920Y-13371246D02*
X13301444Y-13323627D01*
X13301444Y-13323627D02*
X13310968Y-13295055D01*
X13310968Y-13295055D02*
X13320491Y-13276008D01*
X13320491Y-13276008D02*
X13339539Y-13247436D01*
X13339539Y-13247436D02*
X13349063Y-13237912D01*
X13453825Y-13352198D02*
X13434777Y-13342674D01*
X13434777Y-13342674D02*
X13425253Y-13333150D01*
X13425253Y-13333150D02*
X13415729Y-13314103D01*
X13415729Y-13314103D02*
X13415729Y-13304579D01*
X13415729Y-13304579D02*
X13425253Y-13285531D01*
X13425253Y-13285531D02*
X13434777Y-13276008D01*
X13434777Y-13276008D02*
X13453825Y-13266484D01*
X13453825Y-13266484D02*
X13491920Y-13266484D01*
X13491920Y-13266484D02*
X13510968Y-13276008D01*
X13510968Y-13276008D02*
X13520491Y-13285531D01*
X13520491Y-13285531D02*
X13530015Y-13304579D01*
X13530015Y-13304579D02*
X13530015Y-13314103D01*
X13530015Y-13314103D02*
X13520491Y-13333150D01*
X13520491Y-13333150D02*
X13510968Y-13342674D01*
X13510968Y-13342674D02*
X13491920Y-13352198D01*
X13491920Y-13352198D02*
X13453825Y-13352198D01*
X13453825Y-13352198D02*
X13434777Y-13361722D01*
X13434777Y-13361722D02*
X13425253Y-13371246D01*
X13425253Y-13371246D02*
X13415729Y-13390293D01*
X13415729Y-13390293D02*
X13415729Y-13428388D01*
X13415729Y-13428388D02*
X13425253Y-13447436D01*
X13425253Y-13447436D02*
X13434777Y-13456960D01*
X13434777Y-13456960D02*
X13453825Y-13466484D01*
X13453825Y-13466484D02*
X13491920Y-13466484D01*
X13491920Y-13466484D02*
X13510968Y-13456960D01*
X13510968Y-13456960D02*
X13520491Y-13447436D01*
X13520491Y-13447436D02*
X13530015Y-13428388D01*
X13530015Y-13428388D02*
X13530015Y-13390293D01*
X13530015Y-13390293D02*
X13520491Y-13371246D01*
X13520491Y-13371246D02*
X13510968Y-13361722D01*
X13510968Y-13361722D02*
X13491920Y-13352198D01*
X13768110Y-13466484D02*
X13768110Y-13266484D01*
X13853825Y-13466484D02*
X13853825Y-13361722D01*
X13853825Y-13361722D02*
X13844301Y-13342674D01*
X13844301Y-13342674D02*
X13825253Y-13333150D01*
X13825253Y-13333150D02*
X13796682Y-13333150D01*
X13796682Y-13333150D02*
X13777634Y-13342674D01*
X13777634Y-13342674D02*
X13768110Y-13352198D01*
X13977634Y-13466484D02*
X13958587Y-13456960D01*
X13958587Y-13456960D02*
X13949063Y-13447436D01*
X13949063Y-13447436D02*
X13939539Y-13428388D01*
X13939539Y-13428388D02*
X13939539Y-13371246D01*
X13939539Y-13371246D02*
X13949063Y-13352198D01*
X13949063Y-13352198D02*
X13958587Y-13342674D01*
X13958587Y-13342674D02*
X13977634Y-13333150D01*
X13977634Y-13333150D02*
X14006206Y-13333150D01*
X14006206Y-13333150D02*
X14025253Y-13342674D01*
X14025253Y-13342674D02*
X14034777Y-13352198D01*
X14034777Y-13352198D02*
X14044301Y-13371246D01*
X14044301Y-13371246D02*
X14044301Y-13428388D01*
X14044301Y-13428388D02*
X14034777Y-13447436D01*
X14034777Y-13447436D02*
X14025253Y-13456960D01*
X14025253Y-13456960D02*
X14006206Y-13466484D01*
X14006206Y-13466484D02*
X13977634Y-13466484D01*
X14158587Y-13466484D02*
X14139539Y-13456960D01*
X14139539Y-13456960D02*
X14130015Y-13437912D01*
X14130015Y-13437912D02*
X14130015Y-13266484D01*
X14310968Y-13456960D02*
X14291920Y-13466484D01*
X14291920Y-13466484D02*
X14253825Y-13466484D01*
X14253825Y-13466484D02*
X14234777Y-13456960D01*
X14234777Y-13456960D02*
X14225253Y-13437912D01*
X14225253Y-13437912D02*
X14225253Y-13361722D01*
X14225253Y-13361722D02*
X14234777Y-13342674D01*
X14234777Y-13342674D02*
X14253825Y-13333150D01*
X14253825Y-13333150D02*
X14291920Y-13333150D01*
X14291920Y-13333150D02*
X14310968Y-13342674D01*
X14310968Y-13342674D02*
X14320491Y-13361722D01*
X14320491Y-13361722D02*
X14320491Y-13380769D01*
X14320491Y-13380769D02*
X14225253Y-13399817D01*
X14396682Y-13456960D02*
X14415730Y-13466484D01*
X14415730Y-13466484D02*
X14453825Y-13466484D01*
X14453825Y-13466484D02*
X14472872Y-13456960D01*
X14472872Y-13456960D02*
X14482396Y-13437912D01*
X14482396Y-13437912D02*
X14482396Y-13428388D01*
X14482396Y-13428388D02*
X14472872Y-13409341D01*
X14472872Y-13409341D02*
X14453825Y-13399817D01*
X14453825Y-13399817D02*
X14425253Y-13399817D01*
X14425253Y-13399817D02*
X14406206Y-13390293D01*
X14406206Y-13390293D02*
X14396682Y-13371246D01*
X14396682Y-13371246D02*
X14396682Y-13361722D01*
X14396682Y-13361722D02*
X14406206Y-13342674D01*
X14406206Y-13342674D02*
X14425253Y-13333150D01*
X14425253Y-13333150D02*
X14453825Y-13333150D01*
X14453825Y-13333150D02*
X14472872Y-13342674D01*
X14549063Y-13542674D02*
X14558587Y-13533150D01*
X14558587Y-13533150D02*
X14577634Y-13504579D01*
X14577634Y-13504579D02*
X14587158Y-13485531D01*
X14587158Y-13485531D02*
X14596682Y-13456960D01*
X14596682Y-13456960D02*
X14606206Y-13409341D01*
X14606206Y-13409341D02*
X14606206Y-13371246D01*
X14606206Y-13371246D02*
X14596682Y-13323627D01*
X14596682Y-13323627D02*
X14587158Y-13295055D01*
X14587158Y-13295055D02*
X14577634Y-13276008D01*
X14577634Y-13276008D02*
X14558587Y-13247436D01*
X14558587Y-13247436D02*
X14549063Y-13237912D01*
D10*
X9724000Y-13689000D02*
X9774000Y-13639000D01*
X9724000Y-13589000D01*
X9674000Y-13639000D01*
X9724000Y-13689000D01*
D11*
X10139539Y-13730484D02*
X10025253Y-13730484D01*
X10082396Y-13730484D02*
X10082396Y-13530484D01*
X10082396Y-13530484D02*
X10063348Y-13559055D01*
X10063348Y-13559055D02*
X10044301Y-13578103D01*
X10044301Y-13578103D02*
X10025253Y-13587627D01*
X10225253Y-13711436D02*
X10234777Y-13720960D01*
X10234777Y-13720960D02*
X10225253Y-13730484D01*
X10225253Y-13730484D02*
X10215729Y-13720960D01*
X10215729Y-13720960D02*
X10225253Y-13711436D01*
X10225253Y-13711436D02*
X10225253Y-13730484D01*
X10358586Y-13530484D02*
X10377634Y-13530484D01*
X10377634Y-13530484D02*
X10396682Y-13540008D01*
X10396682Y-13540008D02*
X10406205Y-13549531D01*
X10406205Y-13549531D02*
X10415729Y-13568579D01*
X10415729Y-13568579D02*
X10425253Y-13606674D01*
X10425253Y-13606674D02*
X10425253Y-13654293D01*
X10425253Y-13654293D02*
X10415729Y-13692388D01*
X10415729Y-13692388D02*
X10406205Y-13711436D01*
X10406205Y-13711436D02*
X10396682Y-13720960D01*
X10396682Y-13720960D02*
X10377634Y-13730484D01*
X10377634Y-13730484D02*
X10358586Y-13730484D01*
X10358586Y-13730484D02*
X10339539Y-13720960D01*
X10339539Y-13720960D02*
X10330015Y-13711436D01*
X10330015Y-13711436D02*
X10320491Y-13692388D01*
X10320491Y-13692388D02*
X10310967Y-13654293D01*
X10310967Y-13654293D02*
X10310967Y-13606674D01*
X10310967Y-13606674D02*
X10320491Y-13568579D01*
X10320491Y-13568579D02*
X10330015Y-13549531D01*
X10330015Y-13549531D02*
X10339539Y-13540008D01*
X10339539Y-13540008D02*
X10358586Y-13530484D01*
X10549063Y-13530484D02*
X10568110Y-13530484D01*
X10568110Y-13530484D02*
X10587158Y-13540008D01*
X10587158Y-13540008D02*
X10596682Y-13549531D01*
X10596682Y-13549531D02*
X10606205Y-13568579D01*
X10606205Y-13568579D02*
X10615729Y-13606674D01*
X10615729Y-13606674D02*
X10615729Y-13654293D01*
X10615729Y-13654293D02*
X10606205Y-13692388D01*
X10606205Y-13692388D02*
X10596682Y-13711436D01*
X10596682Y-13711436D02*
X10587158Y-13720960D01*
X10587158Y-13720960D02*
X10568110Y-13730484D01*
X10568110Y-13730484D02*
X10549063Y-13730484D01*
X10549063Y-13730484D02*
X10530015Y-13720960D01*
X10530015Y-13720960D02*
X10520491Y-13711436D01*
X10520491Y-13711436D02*
X10510967Y-13692388D01*
X10510967Y-13692388D02*
X10501444Y-13654293D01*
X10501444Y-13654293D02*
X10501444Y-13606674D01*
X10501444Y-13606674D02*
X10510967Y-13568579D01*
X10510967Y-13568579D02*
X10520491Y-13549531D01*
X10520491Y-13549531D02*
X10530015Y-13540008D01*
X10530015Y-13540008D02*
X10549063Y-13530484D01*
X10739539Y-13530484D02*
X10758586Y-13530484D01*
X10758586Y-13530484D02*
X10777634Y-13540008D01*
X10777634Y-13540008D02*
X10787158Y-13549531D01*
X10787158Y-13549531D02*
X10796682Y-13568579D01*
X10796682Y-13568579D02*
X10806205Y-13606674D01*
X10806205Y-13606674D02*
X10806205Y-13654293D01*
X10806205Y-13654293D02*
X10796682Y-13692388D01*
X10796682Y-13692388D02*
X10787158Y-13711436D01*
X10787158Y-13711436D02*
X10777634Y-13720960D01*
X10777634Y-13720960D02*
X10758586Y-13730484D01*
X10758586Y-13730484D02*
X10739539Y-13730484D01*
X10739539Y-13730484D02*
X10720491Y-13720960D01*
X10720491Y-13720960D02*
X10710967Y-13711436D01*
X10710967Y-13711436D02*
X10701444Y-13692388D01*
X10701444Y-13692388D02*
X10691920Y-13654293D01*
X10691920Y-13654293D02*
X10691920Y-13606674D01*
X10691920Y-13606674D02*
X10701444Y-13568579D01*
X10701444Y-13568579D02*
X10710967Y-13549531D01*
X10710967Y-13549531D02*
X10720491Y-13540008D01*
X10720491Y-13540008D02*
X10739539Y-13530484D01*
X10891920Y-13730484D02*
X10891920Y-13597150D01*
X10891920Y-13616198D02*
X10901444Y-13606674D01*
X10901444Y-13606674D02*
X10920491Y-13597150D01*
X10920491Y-13597150D02*
X10949063Y-13597150D01*
X10949063Y-13597150D02*
X10968110Y-13606674D01*
X10968110Y-13606674D02*
X10977634Y-13625722D01*
X10977634Y-13625722D02*
X10977634Y-13730484D01*
X10977634Y-13625722D02*
X10987158Y-13606674D01*
X10987158Y-13606674D02*
X11006205Y-13597150D01*
X11006205Y-13597150D02*
X11034777Y-13597150D01*
X11034777Y-13597150D02*
X11053825Y-13606674D01*
X11053825Y-13606674D02*
X11063348Y-13625722D01*
X11063348Y-13625722D02*
X11063348Y-13730484D01*
X11158586Y-13730484D02*
X11158586Y-13597150D01*
X11158586Y-13616198D02*
X11168110Y-13606674D01*
X11168110Y-13606674D02*
X11187158Y-13597150D01*
X11187158Y-13597150D02*
X11215729Y-13597150D01*
X11215729Y-13597150D02*
X11234777Y-13606674D01*
X11234777Y-13606674D02*
X11244301Y-13625722D01*
X11244301Y-13625722D02*
X11244301Y-13730484D01*
X11244301Y-13625722D02*
X11253824Y-13606674D01*
X11253824Y-13606674D02*
X11272872Y-13597150D01*
X11272872Y-13597150D02*
X11301443Y-13597150D01*
X11301443Y-13597150D02*
X11320491Y-13606674D01*
X11320491Y-13606674D02*
X11330015Y-13625722D01*
X11330015Y-13625722D02*
X11330015Y-13730484D01*
X11720491Y-13520960D02*
X11549063Y-13778103D01*
X11977634Y-13530484D02*
X11996682Y-13530484D01*
X11996682Y-13530484D02*
X12015729Y-13540008D01*
X12015729Y-13540008D02*
X12025253Y-13549531D01*
X12025253Y-13549531D02*
X12034777Y-13568579D01*
X12034777Y-13568579D02*
X12044301Y-13606674D01*
X12044301Y-13606674D02*
X12044301Y-13654293D01*
X12044301Y-13654293D02*
X12034777Y-13692388D01*
X12034777Y-13692388D02*
X12025253Y-13711436D01*
X12025253Y-13711436D02*
X12015729Y-13720960D01*
X12015729Y-13720960D02*
X11996682Y-13730484D01*
X11996682Y-13730484D02*
X11977634Y-13730484D01*
X11977634Y-13730484D02*
X11958586Y-13720960D01*
X11958586Y-13720960D02*
X11949063Y-13711436D01*
X11949063Y-13711436D02*
X11939539Y-13692388D01*
X11939539Y-13692388D02*
X11930015Y-13654293D01*
X11930015Y-13654293D02*
X11930015Y-13606674D01*
X11930015Y-13606674D02*
X11939539Y-13568579D01*
X11939539Y-13568579D02*
X11949063Y-13549531D01*
X11949063Y-13549531D02*
X11958586Y-13540008D01*
X11958586Y-13540008D02*
X11977634Y-13530484D01*
X12130015Y-13711436D02*
X12139539Y-13720960D01*
X12139539Y-13720960D02*
X12130015Y-13730484D01*
X12130015Y-13730484D02*
X12120491Y-13720960D01*
X12120491Y-13720960D02*
X12130015Y-13711436D01*
X12130015Y-13711436D02*
X12130015Y-13730484D01*
X12263348Y-13530484D02*
X12282396Y-13530484D01*
X12282396Y-13530484D02*
X12301444Y-13540008D01*
X12301444Y-13540008D02*
X12310967Y-13549531D01*
X12310967Y-13549531D02*
X12320491Y-13568579D01*
X12320491Y-13568579D02*
X12330015Y-13606674D01*
X12330015Y-13606674D02*
X12330015Y-13654293D01*
X12330015Y-13654293D02*
X12320491Y-13692388D01*
X12320491Y-13692388D02*
X12310967Y-13711436D01*
X12310967Y-13711436D02*
X12301444Y-13720960D01*
X12301444Y-13720960D02*
X12282396Y-13730484D01*
X12282396Y-13730484D02*
X12263348Y-13730484D01*
X12263348Y-13730484D02*
X12244301Y-13720960D01*
X12244301Y-13720960D02*
X12234777Y-13711436D01*
X12234777Y-13711436D02*
X12225253Y-13692388D01*
X12225253Y-13692388D02*
X12215729Y-13654293D01*
X12215729Y-13654293D02*
X12215729Y-13606674D01*
X12215729Y-13606674D02*
X12225253Y-13568579D01*
X12225253Y-13568579D02*
X12234777Y-13549531D01*
X12234777Y-13549531D02*
X12244301Y-13540008D01*
X12244301Y-13540008D02*
X12263348Y-13530484D01*
X12396682Y-13530484D02*
X12520491Y-13530484D01*
X12520491Y-13530484D02*
X12453825Y-13606674D01*
X12453825Y-13606674D02*
X12482396Y-13606674D01*
X12482396Y-13606674D02*
X12501444Y-13616198D01*
X12501444Y-13616198D02*
X12510967Y-13625722D01*
X12510967Y-13625722D02*
X12520491Y-13644769D01*
X12520491Y-13644769D02*
X12520491Y-13692388D01*
X12520491Y-13692388D02*
X12510967Y-13711436D01*
X12510967Y-13711436D02*
X12501444Y-13720960D01*
X12501444Y-13720960D02*
X12482396Y-13730484D01*
X12482396Y-13730484D02*
X12425253Y-13730484D01*
X12425253Y-13730484D02*
X12406206Y-13720960D01*
X12406206Y-13720960D02*
X12396682Y-13711436D01*
X12615729Y-13730484D02*
X12653825Y-13730484D01*
X12653825Y-13730484D02*
X12672872Y-13720960D01*
X12672872Y-13720960D02*
X12682396Y-13711436D01*
X12682396Y-13711436D02*
X12701444Y-13682865D01*
X12701444Y-13682865D02*
X12710967Y-13644769D01*
X12710967Y-13644769D02*
X12710967Y-13568579D01*
X12710967Y-13568579D02*
X12701444Y-13549531D01*
X12701444Y-13549531D02*
X12691920Y-13540008D01*
X12691920Y-13540008D02*
X12672872Y-13530484D01*
X12672872Y-13530484D02*
X12634777Y-13530484D01*
X12634777Y-13530484D02*
X12615729Y-13540008D01*
X12615729Y-13540008D02*
X12606206Y-13549531D01*
X12606206Y-13549531D02*
X12596682Y-13568579D01*
X12596682Y-13568579D02*
X12596682Y-13616198D01*
X12596682Y-13616198D02*
X12606206Y-13635246D01*
X12606206Y-13635246D02*
X12615729Y-13644769D01*
X12615729Y-13644769D02*
X12634777Y-13654293D01*
X12634777Y-13654293D02*
X12672872Y-13654293D01*
X12672872Y-13654293D02*
X12691920Y-13644769D01*
X12691920Y-13644769D02*
X12701444Y-13635246D01*
X12701444Y-13635246D02*
X12710967Y-13616198D01*
X12882396Y-13597150D02*
X12882396Y-13730484D01*
X12834777Y-13520960D02*
X12787158Y-13663817D01*
X12787158Y-13663817D02*
X12910967Y-13663817D01*
X12977634Y-13530484D02*
X12977634Y-13568579D01*
X13053825Y-13530484D02*
X13053825Y-13568579D01*
X13349063Y-13806674D02*
X13339539Y-13797150D01*
X13339539Y-13797150D02*
X13320491Y-13768579D01*
X13320491Y-13768579D02*
X13310968Y-13749531D01*
X13310968Y-13749531D02*
X13301444Y-13720960D01*
X13301444Y-13720960D02*
X13291920Y-13673341D01*
X13291920Y-13673341D02*
X13291920Y-13635246D01*
X13291920Y-13635246D02*
X13301444Y-13587627D01*
X13301444Y-13587627D02*
X13310968Y-13559055D01*
X13310968Y-13559055D02*
X13320491Y-13540008D01*
X13320491Y-13540008D02*
X13339539Y-13511436D01*
X13339539Y-13511436D02*
X13349063Y-13501912D01*
X13530015Y-13730484D02*
X13415729Y-13730484D01*
X13472872Y-13730484D02*
X13472872Y-13530484D01*
X13472872Y-13530484D02*
X13453825Y-13559055D01*
X13453825Y-13559055D02*
X13434777Y-13578103D01*
X13434777Y-13578103D02*
X13415729Y-13587627D01*
X13644301Y-13616198D02*
X13625253Y-13606674D01*
X13625253Y-13606674D02*
X13615729Y-13597150D01*
X13615729Y-13597150D02*
X13606206Y-13578103D01*
X13606206Y-13578103D02*
X13606206Y-13568579D01*
X13606206Y-13568579D02*
X13615729Y-13549531D01*
X13615729Y-13549531D02*
X13625253Y-13540008D01*
X13625253Y-13540008D02*
X13644301Y-13530484D01*
X13644301Y-13530484D02*
X13682396Y-13530484D01*
X13682396Y-13530484D02*
X13701444Y-13540008D01*
X13701444Y-13540008D02*
X13710968Y-13549531D01*
X13710968Y-13549531D02*
X13720491Y-13568579D01*
X13720491Y-13568579D02*
X13720491Y-13578103D01*
X13720491Y-13578103D02*
X13710968Y-13597150D01*
X13710968Y-13597150D02*
X13701444Y-13606674D01*
X13701444Y-13606674D02*
X13682396Y-13616198D01*
X13682396Y-13616198D02*
X13644301Y-13616198D01*
X13644301Y-13616198D02*
X13625253Y-13625722D01*
X13625253Y-13625722D02*
X13615729Y-13635246D01*
X13615729Y-13635246D02*
X13606206Y-13654293D01*
X13606206Y-13654293D02*
X13606206Y-13692388D01*
X13606206Y-13692388D02*
X13615729Y-13711436D01*
X13615729Y-13711436D02*
X13625253Y-13720960D01*
X13625253Y-13720960D02*
X13644301Y-13730484D01*
X13644301Y-13730484D02*
X13682396Y-13730484D01*
X13682396Y-13730484D02*
X13701444Y-13720960D01*
X13701444Y-13720960D02*
X13710968Y-13711436D01*
X13710968Y-13711436D02*
X13720491Y-13692388D01*
X13720491Y-13692388D02*
X13720491Y-13654293D01*
X13720491Y-13654293D02*
X13710968Y-13635246D01*
X13710968Y-13635246D02*
X13701444Y-13625722D01*
X13701444Y-13625722D02*
X13682396Y-13616198D01*
X13958587Y-13730484D02*
X13958587Y-13530484D01*
X14044301Y-13730484D02*
X14044301Y-13625722D01*
X14044301Y-13625722D02*
X14034777Y-13606674D01*
X14034777Y-13606674D02*
X14015730Y-13597150D01*
X14015730Y-13597150D02*
X13987158Y-13597150D01*
X13987158Y-13597150D02*
X13968110Y-13606674D01*
X13968110Y-13606674D02*
X13958587Y-13616198D01*
X14168110Y-13730484D02*
X14149063Y-13720960D01*
X14149063Y-13720960D02*
X14139539Y-13711436D01*
X14139539Y-13711436D02*
X14130015Y-13692388D01*
X14130015Y-13692388D02*
X14130015Y-13635246D01*
X14130015Y-13635246D02*
X14139539Y-13616198D01*
X14139539Y-13616198D02*
X14149063Y-13606674D01*
X14149063Y-13606674D02*
X14168110Y-13597150D01*
X14168110Y-13597150D02*
X14196682Y-13597150D01*
X14196682Y-13597150D02*
X14215730Y-13606674D01*
X14215730Y-13606674D02*
X14225253Y-13616198D01*
X14225253Y-13616198D02*
X14234777Y-13635246D01*
X14234777Y-13635246D02*
X14234777Y-13692388D01*
X14234777Y-13692388D02*
X14225253Y-13711436D01*
X14225253Y-13711436D02*
X14215730Y-13720960D01*
X14215730Y-13720960D02*
X14196682Y-13730484D01*
X14196682Y-13730484D02*
X14168110Y-13730484D01*
X14349063Y-13730484D02*
X14330015Y-13720960D01*
X14330015Y-13720960D02*
X14320491Y-13701912D01*
X14320491Y-13701912D02*
X14320491Y-13530484D01*
X14501444Y-13720960D02*
X14482396Y-13730484D01*
X14482396Y-13730484D02*
X14444301Y-13730484D01*
X14444301Y-13730484D02*
X14425253Y-13720960D01*
X14425253Y-13720960D02*
X14415730Y-13701912D01*
X14415730Y-13701912D02*
X14415730Y-13625722D01*
X14415730Y-13625722D02*
X14425253Y-13606674D01*
X14425253Y-13606674D02*
X14444301Y-13597150D01*
X14444301Y-13597150D02*
X14482396Y-13597150D01*
X14482396Y-13597150D02*
X14501444Y-13606674D01*
X14501444Y-13606674D02*
X14510968Y-13625722D01*
X14510968Y-13625722D02*
X14510968Y-13644769D01*
X14510968Y-13644769D02*
X14415730Y-13663817D01*
X14587158Y-13720960D02*
X14606206Y-13730484D01*
X14606206Y-13730484D02*
X14644301Y-13730484D01*
X14644301Y-13730484D02*
X14663349Y-13720960D01*
X14663349Y-13720960D02*
X14672872Y-13701912D01*
X14672872Y-13701912D02*
X14672872Y-13692388D01*
X14672872Y-13692388D02*
X14663349Y-13673341D01*
X14663349Y-13673341D02*
X14644301Y-13663817D01*
X14644301Y-13663817D02*
X14615730Y-13663817D01*
X14615730Y-13663817D02*
X14596682Y-13654293D01*
X14596682Y-13654293D02*
X14587158Y-13635246D01*
X14587158Y-13635246D02*
X14587158Y-13625722D01*
X14587158Y-13625722D02*
X14596682Y-13606674D01*
X14596682Y-13606674D02*
X14615730Y-13597150D01*
X14615730Y-13597150D02*
X14644301Y-13597150D01*
X14644301Y-13597150D02*
X14663349Y-13606674D01*
X14739539Y-13806674D02*
X14749063Y-13797150D01*
X14749063Y-13797150D02*
X14768111Y-13768579D01*
X14768111Y-13768579D02*
X14777634Y-13749531D01*
X14777634Y-13749531D02*
X14787158Y-13720960D01*
X14787158Y-13720960D02*
X14796682Y-13673341D01*
X14796682Y-13673341D02*
X14796682Y-13635246D01*
X14796682Y-13635246D02*
X14787158Y-13587627D01*
X14787158Y-13587627D02*
X14777634Y-13559055D01*
X14777634Y-13559055D02*
X14768111Y-13540008D01*
X14768111Y-13540008D02*
X14749063Y-13511436D01*
X14749063Y-13511436D02*
X14739539Y-13501912D01*
D12*
X9654000Y-13843000D02*
X9774000Y-13963000D01*
X9774000Y-13843000D02*
X9654000Y-13963000D01*
X9774000Y-13903000D02*
G75*
G03*
X9654000Y-13903000I-60000J0D01*
G01*
X9654000Y-13903000D02*
G75*
G03*
X9774000Y-13903000I60000J0D01*
G01*
D11*
X10139539Y-13994484D02*
X10025253Y-13994484D01*
X10082396Y-13994484D02*
X10082396Y-13794484D01*
X10082396Y-13794484D02*
X10063348Y-13823055D01*
X10063348Y-13823055D02*
X10044301Y-13842103D01*
X10044301Y-13842103D02*
X10025253Y-13851627D01*
X10225253Y-13975436D02*
X10234777Y-13984960D01*
X10234777Y-13984960D02*
X10225253Y-13994484D01*
X10225253Y-13994484D02*
X10215729Y-13984960D01*
X10215729Y-13984960D02*
X10225253Y-13975436D01*
X10225253Y-13975436D02*
X10225253Y-13994484D01*
X10310967Y-13813531D02*
X10320491Y-13804008D01*
X10320491Y-13804008D02*
X10339539Y-13794484D01*
X10339539Y-13794484D02*
X10387158Y-13794484D01*
X10387158Y-13794484D02*
X10406205Y-13804008D01*
X10406205Y-13804008D02*
X10415729Y-13813531D01*
X10415729Y-13813531D02*
X10425253Y-13832579D01*
X10425253Y-13832579D02*
X10425253Y-13851627D01*
X10425253Y-13851627D02*
X10415729Y-13880198D01*
X10415729Y-13880198D02*
X10301444Y-13994484D01*
X10301444Y-13994484D02*
X10425253Y-13994484D01*
X10549063Y-13794484D02*
X10568110Y-13794484D01*
X10568110Y-13794484D02*
X10587158Y-13804008D01*
X10587158Y-13804008D02*
X10596682Y-13813531D01*
X10596682Y-13813531D02*
X10606205Y-13832579D01*
X10606205Y-13832579D02*
X10615729Y-13870674D01*
X10615729Y-13870674D02*
X10615729Y-13918293D01*
X10615729Y-13918293D02*
X10606205Y-13956388D01*
X10606205Y-13956388D02*
X10596682Y-13975436D01*
X10596682Y-13975436D02*
X10587158Y-13984960D01*
X10587158Y-13984960D02*
X10568110Y-13994484D01*
X10568110Y-13994484D02*
X10549063Y-13994484D01*
X10549063Y-13994484D02*
X10530015Y-13984960D01*
X10530015Y-13984960D02*
X10520491Y-13975436D01*
X10520491Y-13975436D02*
X10510967Y-13956388D01*
X10510967Y-13956388D02*
X10501444Y-13918293D01*
X10501444Y-13918293D02*
X10501444Y-13870674D01*
X10501444Y-13870674D02*
X10510967Y-13832579D01*
X10510967Y-13832579D02*
X10520491Y-13813531D01*
X10520491Y-13813531D02*
X10530015Y-13804008D01*
X10530015Y-13804008D02*
X10549063Y-13794484D01*
X10739539Y-13794484D02*
X10758586Y-13794484D01*
X10758586Y-13794484D02*
X10777634Y-13804008D01*
X10777634Y-13804008D02*
X10787158Y-13813531D01*
X10787158Y-13813531D02*
X10796682Y-13832579D01*
X10796682Y-13832579D02*
X10806205Y-13870674D01*
X10806205Y-13870674D02*
X10806205Y-13918293D01*
X10806205Y-13918293D02*
X10796682Y-13956388D01*
X10796682Y-13956388D02*
X10787158Y-13975436D01*
X10787158Y-13975436D02*
X10777634Y-13984960D01*
X10777634Y-13984960D02*
X10758586Y-13994484D01*
X10758586Y-13994484D02*
X10739539Y-13994484D01*
X10739539Y-13994484D02*
X10720491Y-13984960D01*
X10720491Y-13984960D02*
X10710967Y-13975436D01*
X10710967Y-13975436D02*
X10701444Y-13956388D01*
X10701444Y-13956388D02*
X10691920Y-13918293D01*
X10691920Y-13918293D02*
X10691920Y-13870674D01*
X10691920Y-13870674D02*
X10701444Y-13832579D01*
X10701444Y-13832579D02*
X10710967Y-13813531D01*
X10710967Y-13813531D02*
X10720491Y-13804008D01*
X10720491Y-13804008D02*
X10739539Y-13794484D01*
X10891920Y-13994484D02*
X10891920Y-13861150D01*
X10891920Y-13880198D02*
X10901444Y-13870674D01*
X10901444Y-13870674D02*
X10920491Y-13861150D01*
X10920491Y-13861150D02*
X10949063Y-13861150D01*
X10949063Y-13861150D02*
X10968110Y-13870674D01*
X10968110Y-13870674D02*
X10977634Y-13889722D01*
X10977634Y-13889722D02*
X10977634Y-13994484D01*
X10977634Y-13889722D02*
X10987158Y-13870674D01*
X10987158Y-13870674D02*
X11006205Y-13861150D01*
X11006205Y-13861150D02*
X11034777Y-13861150D01*
X11034777Y-13861150D02*
X11053825Y-13870674D01*
X11053825Y-13870674D02*
X11063348Y-13889722D01*
X11063348Y-13889722D02*
X11063348Y-13994484D01*
X11158586Y-13994484D02*
X11158586Y-13861150D01*
X11158586Y-13880198D02*
X11168110Y-13870674D01*
X11168110Y-13870674D02*
X11187158Y-13861150D01*
X11187158Y-13861150D02*
X11215729Y-13861150D01*
X11215729Y-13861150D02*
X11234777Y-13870674D01*
X11234777Y-13870674D02*
X11244301Y-13889722D01*
X11244301Y-13889722D02*
X11244301Y-13994484D01*
X11244301Y-13889722D02*
X11253824Y-13870674D01*
X11253824Y-13870674D02*
X11272872Y-13861150D01*
X11272872Y-13861150D02*
X11301443Y-13861150D01*
X11301443Y-13861150D02*
X11320491Y-13870674D01*
X11320491Y-13870674D02*
X11330015Y-13889722D01*
X11330015Y-13889722D02*
X11330015Y-13994484D01*
X11720491Y-13784960D02*
X11549063Y-14042103D01*
X11977634Y-13794484D02*
X11996682Y-13794484D01*
X11996682Y-13794484D02*
X12015729Y-13804008D01*
X12015729Y-13804008D02*
X12025253Y-13813531D01*
X12025253Y-13813531D02*
X12034777Y-13832579D01*
X12034777Y-13832579D02*
X12044301Y-13870674D01*
X12044301Y-13870674D02*
X12044301Y-13918293D01*
X12044301Y-13918293D02*
X12034777Y-13956388D01*
X12034777Y-13956388D02*
X12025253Y-13975436D01*
X12025253Y-13975436D02*
X12015729Y-13984960D01*
X12015729Y-13984960D02*
X11996682Y-13994484D01*
X11996682Y-13994484D02*
X11977634Y-13994484D01*
X11977634Y-13994484D02*
X11958586Y-13984960D01*
X11958586Y-13984960D02*
X11949063Y-13975436D01*
X11949063Y-13975436D02*
X11939539Y-13956388D01*
X11939539Y-13956388D02*
X11930015Y-13918293D01*
X11930015Y-13918293D02*
X11930015Y-13870674D01*
X11930015Y-13870674D02*
X11939539Y-13832579D01*
X11939539Y-13832579D02*
X11949063Y-13813531D01*
X11949063Y-13813531D02*
X11958586Y-13804008D01*
X11958586Y-13804008D02*
X11977634Y-13794484D01*
X12130015Y-13975436D02*
X12139539Y-13984960D01*
X12139539Y-13984960D02*
X12130015Y-13994484D01*
X12130015Y-13994484D02*
X12120491Y-13984960D01*
X12120491Y-13984960D02*
X12130015Y-13975436D01*
X12130015Y-13975436D02*
X12130015Y-13994484D01*
X12263348Y-13794484D02*
X12282396Y-13794484D01*
X12282396Y-13794484D02*
X12301444Y-13804008D01*
X12301444Y-13804008D02*
X12310967Y-13813531D01*
X12310967Y-13813531D02*
X12320491Y-13832579D01*
X12320491Y-13832579D02*
X12330015Y-13870674D01*
X12330015Y-13870674D02*
X12330015Y-13918293D01*
X12330015Y-13918293D02*
X12320491Y-13956388D01*
X12320491Y-13956388D02*
X12310967Y-13975436D01*
X12310967Y-13975436D02*
X12301444Y-13984960D01*
X12301444Y-13984960D02*
X12282396Y-13994484D01*
X12282396Y-13994484D02*
X12263348Y-13994484D01*
X12263348Y-13994484D02*
X12244301Y-13984960D01*
X12244301Y-13984960D02*
X12234777Y-13975436D01*
X12234777Y-13975436D02*
X12225253Y-13956388D01*
X12225253Y-13956388D02*
X12215729Y-13918293D01*
X12215729Y-13918293D02*
X12215729Y-13870674D01*
X12215729Y-13870674D02*
X12225253Y-13832579D01*
X12225253Y-13832579D02*
X12234777Y-13813531D01*
X12234777Y-13813531D02*
X12244301Y-13804008D01*
X12244301Y-13804008D02*
X12263348Y-13794484D01*
X12501444Y-13861150D02*
X12501444Y-13994484D01*
X12453825Y-13784960D02*
X12406206Y-13927817D01*
X12406206Y-13927817D02*
X12530015Y-13927817D01*
X12587158Y-13794484D02*
X12720491Y-13794484D01*
X12720491Y-13794484D02*
X12634777Y-13994484D01*
X12787158Y-13813531D02*
X12796682Y-13804008D01*
X12796682Y-13804008D02*
X12815729Y-13794484D01*
X12815729Y-13794484D02*
X12863348Y-13794484D01*
X12863348Y-13794484D02*
X12882396Y-13804008D01*
X12882396Y-13804008D02*
X12891920Y-13813531D01*
X12891920Y-13813531D02*
X12901444Y-13832579D01*
X12901444Y-13832579D02*
X12901444Y-13851627D01*
X12901444Y-13851627D02*
X12891920Y-13880198D01*
X12891920Y-13880198D02*
X12777634Y-13994484D01*
X12777634Y-13994484D02*
X12901444Y-13994484D01*
X12977634Y-13794484D02*
X12977634Y-13832579D01*
X13053825Y-13794484D02*
X13053825Y-13832579D01*
X13349063Y-14070674D02*
X13339539Y-14061150D01*
X13339539Y-14061150D02*
X13320491Y-14032579D01*
X13320491Y-14032579D02*
X13310968Y-14013531D01*
X13310968Y-14013531D02*
X13301444Y-13984960D01*
X13301444Y-13984960D02*
X13291920Y-13937341D01*
X13291920Y-13937341D02*
X13291920Y-13899246D01*
X13291920Y-13899246D02*
X13301444Y-13851627D01*
X13301444Y-13851627D02*
X13310968Y-13823055D01*
X13310968Y-13823055D02*
X13320491Y-13804008D01*
X13320491Y-13804008D02*
X13339539Y-13775436D01*
X13339539Y-13775436D02*
X13349063Y-13765912D01*
X13530015Y-13994484D02*
X13415729Y-13994484D01*
X13472872Y-13994484D02*
X13472872Y-13794484D01*
X13472872Y-13794484D02*
X13453825Y-13823055D01*
X13453825Y-13823055D02*
X13434777Y-13842103D01*
X13434777Y-13842103D02*
X13415729Y-13851627D01*
X13701444Y-13794484D02*
X13663348Y-13794484D01*
X13663348Y-13794484D02*
X13644301Y-13804008D01*
X13644301Y-13804008D02*
X13634777Y-13813531D01*
X13634777Y-13813531D02*
X13615729Y-13842103D01*
X13615729Y-13842103D02*
X13606206Y-13880198D01*
X13606206Y-13880198D02*
X13606206Y-13956388D01*
X13606206Y-13956388D02*
X13615729Y-13975436D01*
X13615729Y-13975436D02*
X13625253Y-13984960D01*
X13625253Y-13984960D02*
X13644301Y-13994484D01*
X13644301Y-13994484D02*
X13682396Y-13994484D01*
X13682396Y-13994484D02*
X13701444Y-13984960D01*
X13701444Y-13984960D02*
X13710968Y-13975436D01*
X13710968Y-13975436D02*
X13720491Y-13956388D01*
X13720491Y-13956388D02*
X13720491Y-13908769D01*
X13720491Y-13908769D02*
X13710968Y-13889722D01*
X13710968Y-13889722D02*
X13701444Y-13880198D01*
X13701444Y-13880198D02*
X13682396Y-13870674D01*
X13682396Y-13870674D02*
X13644301Y-13870674D01*
X13644301Y-13870674D02*
X13625253Y-13880198D01*
X13625253Y-13880198D02*
X13615729Y-13889722D01*
X13615729Y-13889722D02*
X13606206Y-13908769D01*
X13958587Y-13994484D02*
X13958587Y-13794484D01*
X14044301Y-13994484D02*
X14044301Y-13889722D01*
X14044301Y-13889722D02*
X14034777Y-13870674D01*
X14034777Y-13870674D02*
X14015730Y-13861150D01*
X14015730Y-13861150D02*
X13987158Y-13861150D01*
X13987158Y-13861150D02*
X13968110Y-13870674D01*
X13968110Y-13870674D02*
X13958587Y-13880198D01*
X14168110Y-13994484D02*
X14149063Y-13984960D01*
X14149063Y-13984960D02*
X14139539Y-13975436D01*
X14139539Y-13975436D02*
X14130015Y-13956388D01*
X14130015Y-13956388D02*
X14130015Y-13899246D01*
X14130015Y-13899246D02*
X14139539Y-13880198D01*
X14139539Y-13880198D02*
X14149063Y-13870674D01*
X14149063Y-13870674D02*
X14168110Y-13861150D01*
X14168110Y-13861150D02*
X14196682Y-13861150D01*
X14196682Y-13861150D02*
X14215730Y-13870674D01*
X14215730Y-13870674D02*
X14225253Y-13880198D01*
X14225253Y-13880198D02*
X14234777Y-13899246D01*
X14234777Y-13899246D02*
X14234777Y-13956388D01*
X14234777Y-13956388D02*
X14225253Y-13975436D01*
X14225253Y-13975436D02*
X14215730Y-13984960D01*
X14215730Y-13984960D02*
X14196682Y-13994484D01*
X14196682Y-13994484D02*
X14168110Y-13994484D01*
X14349063Y-13994484D02*
X14330015Y-13984960D01*
X14330015Y-13984960D02*
X14320491Y-13965912D01*
X14320491Y-13965912D02*
X14320491Y-13794484D01*
X14501444Y-13984960D02*
X14482396Y-13994484D01*
X14482396Y-13994484D02*
X14444301Y-13994484D01*
X14444301Y-13994484D02*
X14425253Y-13984960D01*
X14425253Y-13984960D02*
X14415730Y-13965912D01*
X14415730Y-13965912D02*
X14415730Y-13889722D01*
X14415730Y-13889722D02*
X14425253Y-13870674D01*
X14425253Y-13870674D02*
X14444301Y-13861150D01*
X14444301Y-13861150D02*
X14482396Y-13861150D01*
X14482396Y-13861150D02*
X14501444Y-13870674D01*
X14501444Y-13870674D02*
X14510968Y-13889722D01*
X14510968Y-13889722D02*
X14510968Y-13908769D01*
X14510968Y-13908769D02*
X14415730Y-13927817D01*
X14587158Y-13984960D02*
X14606206Y-13994484D01*
X14606206Y-13994484D02*
X14644301Y-13994484D01*
X14644301Y-13994484D02*
X14663349Y-13984960D01*
X14663349Y-13984960D02*
X14672872Y-13965912D01*
X14672872Y-13965912D02*
X14672872Y-13956388D01*
X14672872Y-13956388D02*
X14663349Y-13937341D01*
X14663349Y-13937341D02*
X14644301Y-13927817D01*
X14644301Y-13927817D02*
X14615730Y-13927817D01*
X14615730Y-13927817D02*
X14596682Y-13918293D01*
X14596682Y-13918293D02*
X14587158Y-13899246D01*
X14587158Y-13899246D02*
X14587158Y-13889722D01*
X14587158Y-13889722D02*
X14596682Y-13870674D01*
X14596682Y-13870674D02*
X14615730Y-13861150D01*
X14615730Y-13861150D02*
X14644301Y-13861150D01*
X14644301Y-13861150D02*
X14663349Y-13870674D01*
X14739539Y-14070674D02*
X14749063Y-14061150D01*
X14749063Y-14061150D02*
X14768111Y-14032579D01*
X14768111Y-14032579D02*
X14777634Y-14013531D01*
X14777634Y-14013531D02*
X14787158Y-13984960D01*
X14787158Y-13984960D02*
X14796682Y-13937341D01*
X14796682Y-13937341D02*
X14796682Y-13899246D01*
X14796682Y-13899246D02*
X14787158Y-13851627D01*
X14787158Y-13851627D02*
X14777634Y-13823055D01*
X14777634Y-13823055D02*
X14768111Y-13804008D01*
X14768111Y-13804008D02*
X14749063Y-13775436D01*
X14749063Y-13775436D02*
X14739539Y-13765912D01*
D13*
X9644000Y-14102000D02*
X9774000Y-14232000D01*
X9774000Y-14102000D02*
X9644000Y-14232000D01*
X9709000Y-14102000D02*
X9709000Y-14232000D01*
X9644000Y-14167000D02*
X9774000Y-14167000D01*
D11*
X10139539Y-14258484D02*
X10025253Y-14258484D01*
X10082396Y-14258484D02*
X10082396Y-14058484D01*
X10082396Y-14058484D02*
X10063348Y-14087055D01*
X10063348Y-14087055D02*
X10044301Y-14106103D01*
X10044301Y-14106103D02*
X10025253Y-14115627D01*
X10225253Y-14239436D02*
X10234777Y-14248960D01*
X10234777Y-14248960D02*
X10225253Y-14258484D01*
X10225253Y-14258484D02*
X10215729Y-14248960D01*
X10215729Y-14248960D02*
X10225253Y-14239436D01*
X10225253Y-14239436D02*
X10225253Y-14258484D01*
X10301444Y-14058484D02*
X10425253Y-14058484D01*
X10425253Y-14058484D02*
X10358586Y-14134674D01*
X10358586Y-14134674D02*
X10387158Y-14134674D01*
X10387158Y-14134674D02*
X10406205Y-14144198D01*
X10406205Y-14144198D02*
X10415729Y-14153722D01*
X10415729Y-14153722D02*
X10425253Y-14172769D01*
X10425253Y-14172769D02*
X10425253Y-14220388D01*
X10425253Y-14220388D02*
X10415729Y-14239436D01*
X10415729Y-14239436D02*
X10406205Y-14248960D01*
X10406205Y-14248960D02*
X10387158Y-14258484D01*
X10387158Y-14258484D02*
X10330015Y-14258484D01*
X10330015Y-14258484D02*
X10310967Y-14248960D01*
X10310967Y-14248960D02*
X10301444Y-14239436D01*
X10549063Y-14058484D02*
X10568110Y-14058484D01*
X10568110Y-14058484D02*
X10587158Y-14068008D01*
X10587158Y-14068008D02*
X10596682Y-14077531D01*
X10596682Y-14077531D02*
X10606205Y-14096579D01*
X10606205Y-14096579D02*
X10615729Y-14134674D01*
X10615729Y-14134674D02*
X10615729Y-14182293D01*
X10615729Y-14182293D02*
X10606205Y-14220388D01*
X10606205Y-14220388D02*
X10596682Y-14239436D01*
X10596682Y-14239436D02*
X10587158Y-14248960D01*
X10587158Y-14248960D02*
X10568110Y-14258484D01*
X10568110Y-14258484D02*
X10549063Y-14258484D01*
X10549063Y-14258484D02*
X10530015Y-14248960D01*
X10530015Y-14248960D02*
X10520491Y-14239436D01*
X10520491Y-14239436D02*
X10510967Y-14220388D01*
X10510967Y-14220388D02*
X10501444Y-14182293D01*
X10501444Y-14182293D02*
X10501444Y-14134674D01*
X10501444Y-14134674D02*
X10510967Y-14096579D01*
X10510967Y-14096579D02*
X10520491Y-14077531D01*
X10520491Y-14077531D02*
X10530015Y-14068008D01*
X10530015Y-14068008D02*
X10549063Y-14058484D01*
X10739539Y-14058484D02*
X10758586Y-14058484D01*
X10758586Y-14058484D02*
X10777634Y-14068008D01*
X10777634Y-14068008D02*
X10787158Y-14077531D01*
X10787158Y-14077531D02*
X10796682Y-14096579D01*
X10796682Y-14096579D02*
X10806205Y-14134674D01*
X10806205Y-14134674D02*
X10806205Y-14182293D01*
X10806205Y-14182293D02*
X10796682Y-14220388D01*
X10796682Y-14220388D02*
X10787158Y-14239436D01*
X10787158Y-14239436D02*
X10777634Y-14248960D01*
X10777634Y-14248960D02*
X10758586Y-14258484D01*
X10758586Y-14258484D02*
X10739539Y-14258484D01*
X10739539Y-14258484D02*
X10720491Y-14248960D01*
X10720491Y-14248960D02*
X10710967Y-14239436D01*
X10710967Y-14239436D02*
X10701444Y-14220388D01*
X10701444Y-14220388D02*
X10691920Y-14182293D01*
X10691920Y-14182293D02*
X10691920Y-14134674D01*
X10691920Y-14134674D02*
X10701444Y-14096579D01*
X10701444Y-14096579D02*
X10710967Y-14077531D01*
X10710967Y-14077531D02*
X10720491Y-14068008D01*
X10720491Y-14068008D02*
X10739539Y-14058484D01*
X10891920Y-14258484D02*
X10891920Y-14125150D01*
X10891920Y-14144198D02*
X10901444Y-14134674D01*
X10901444Y-14134674D02*
X10920491Y-14125150D01*
X10920491Y-14125150D02*
X10949063Y-14125150D01*
X10949063Y-14125150D02*
X10968110Y-14134674D01*
X10968110Y-14134674D02*
X10977634Y-14153722D01*
X10977634Y-14153722D02*
X10977634Y-14258484D01*
X10977634Y-14153722D02*
X10987158Y-14134674D01*
X10987158Y-14134674D02*
X11006205Y-14125150D01*
X11006205Y-14125150D02*
X11034777Y-14125150D01*
X11034777Y-14125150D02*
X11053825Y-14134674D01*
X11053825Y-14134674D02*
X11063348Y-14153722D01*
X11063348Y-14153722D02*
X11063348Y-14258484D01*
X11158586Y-14258484D02*
X11158586Y-14125150D01*
X11158586Y-14144198D02*
X11168110Y-14134674D01*
X11168110Y-14134674D02*
X11187158Y-14125150D01*
X11187158Y-14125150D02*
X11215729Y-14125150D01*
X11215729Y-14125150D02*
X11234777Y-14134674D01*
X11234777Y-14134674D02*
X11244301Y-14153722D01*
X11244301Y-14153722D02*
X11244301Y-14258484D01*
X11244301Y-14153722D02*
X11253824Y-14134674D01*
X11253824Y-14134674D02*
X11272872Y-14125150D01*
X11272872Y-14125150D02*
X11301443Y-14125150D01*
X11301443Y-14125150D02*
X11320491Y-14134674D01*
X11320491Y-14134674D02*
X11330015Y-14153722D01*
X11330015Y-14153722D02*
X11330015Y-14258484D01*
X11720491Y-14048960D02*
X11549063Y-14306103D01*
X11977634Y-14058484D02*
X11996682Y-14058484D01*
X11996682Y-14058484D02*
X12015729Y-14068008D01*
X12015729Y-14068008D02*
X12025253Y-14077531D01*
X12025253Y-14077531D02*
X12034777Y-14096579D01*
X12034777Y-14096579D02*
X12044301Y-14134674D01*
X12044301Y-14134674D02*
X12044301Y-14182293D01*
X12044301Y-14182293D02*
X12034777Y-14220388D01*
X12034777Y-14220388D02*
X12025253Y-14239436D01*
X12025253Y-14239436D02*
X12015729Y-14248960D01*
X12015729Y-14248960D02*
X11996682Y-14258484D01*
X11996682Y-14258484D02*
X11977634Y-14258484D01*
X11977634Y-14258484D02*
X11958586Y-14248960D01*
X11958586Y-14248960D02*
X11949063Y-14239436D01*
X11949063Y-14239436D02*
X11939539Y-14220388D01*
X11939539Y-14220388D02*
X11930015Y-14182293D01*
X11930015Y-14182293D02*
X11930015Y-14134674D01*
X11930015Y-14134674D02*
X11939539Y-14096579D01*
X11939539Y-14096579D02*
X11949063Y-14077531D01*
X11949063Y-14077531D02*
X11958586Y-14068008D01*
X11958586Y-14068008D02*
X11977634Y-14058484D01*
X12130015Y-14239436D02*
X12139539Y-14248960D01*
X12139539Y-14248960D02*
X12130015Y-14258484D01*
X12130015Y-14258484D02*
X12120491Y-14248960D01*
X12120491Y-14248960D02*
X12130015Y-14239436D01*
X12130015Y-14239436D02*
X12130015Y-14258484D01*
X12263348Y-14058484D02*
X12282396Y-14058484D01*
X12282396Y-14058484D02*
X12301444Y-14068008D01*
X12301444Y-14068008D02*
X12310967Y-14077531D01*
X12310967Y-14077531D02*
X12320491Y-14096579D01*
X12320491Y-14096579D02*
X12330015Y-14134674D01*
X12330015Y-14134674D02*
X12330015Y-14182293D01*
X12330015Y-14182293D02*
X12320491Y-14220388D01*
X12320491Y-14220388D02*
X12310967Y-14239436D01*
X12310967Y-14239436D02*
X12301444Y-14248960D01*
X12301444Y-14248960D02*
X12282396Y-14258484D01*
X12282396Y-14258484D02*
X12263348Y-14258484D01*
X12263348Y-14258484D02*
X12244301Y-14248960D01*
X12244301Y-14248960D02*
X12234777Y-14239436D01*
X12234777Y-14239436D02*
X12225253Y-14220388D01*
X12225253Y-14220388D02*
X12215729Y-14182293D01*
X12215729Y-14182293D02*
X12215729Y-14134674D01*
X12215729Y-14134674D02*
X12225253Y-14096579D01*
X12225253Y-14096579D02*
X12234777Y-14077531D01*
X12234777Y-14077531D02*
X12244301Y-14068008D01*
X12244301Y-14068008D02*
X12263348Y-14058484D01*
X12510967Y-14058484D02*
X12415729Y-14058484D01*
X12415729Y-14058484D02*
X12406206Y-14153722D01*
X12406206Y-14153722D02*
X12415729Y-14144198D01*
X12415729Y-14144198D02*
X12434777Y-14134674D01*
X12434777Y-14134674D02*
X12482396Y-14134674D01*
X12482396Y-14134674D02*
X12501444Y-14144198D01*
X12501444Y-14144198D02*
X12510967Y-14153722D01*
X12510967Y-14153722D02*
X12520491Y-14172769D01*
X12520491Y-14172769D02*
X12520491Y-14220388D01*
X12520491Y-14220388D02*
X12510967Y-14239436D01*
X12510967Y-14239436D02*
X12501444Y-14248960D01*
X12501444Y-14248960D02*
X12482396Y-14258484D01*
X12482396Y-14258484D02*
X12434777Y-14258484D01*
X12434777Y-14258484D02*
X12415729Y-14248960D01*
X12415729Y-14248960D02*
X12406206Y-14239436D01*
X12710967Y-14258484D02*
X12596682Y-14258484D01*
X12653825Y-14258484D02*
X12653825Y-14058484D01*
X12653825Y-14058484D02*
X12634777Y-14087055D01*
X12634777Y-14087055D02*
X12615729Y-14106103D01*
X12615729Y-14106103D02*
X12596682Y-14115627D01*
X12787158Y-14077531D02*
X12796682Y-14068008D01*
X12796682Y-14068008D02*
X12815729Y-14058484D01*
X12815729Y-14058484D02*
X12863348Y-14058484D01*
X12863348Y-14058484D02*
X12882396Y-14068008D01*
X12882396Y-14068008D02*
X12891920Y-14077531D01*
X12891920Y-14077531D02*
X12901444Y-14096579D01*
X12901444Y-14096579D02*
X12901444Y-14115627D01*
X12901444Y-14115627D02*
X12891920Y-14144198D01*
X12891920Y-14144198D02*
X12777634Y-14258484D01*
X12777634Y-14258484D02*
X12901444Y-14258484D01*
X12977634Y-14058484D02*
X12977634Y-14096579D01*
X13053825Y-14058484D02*
X13053825Y-14096579D01*
X13349063Y-14334674D02*
X13339539Y-14325150D01*
X13339539Y-14325150D02*
X13320491Y-14296579D01*
X13320491Y-14296579D02*
X13310968Y-14277531D01*
X13310968Y-14277531D02*
X13301444Y-14248960D01*
X13301444Y-14248960D02*
X13291920Y-14201341D01*
X13291920Y-14201341D02*
X13291920Y-14163246D01*
X13291920Y-14163246D02*
X13301444Y-14115627D01*
X13301444Y-14115627D02*
X13310968Y-14087055D01*
X13310968Y-14087055D02*
X13320491Y-14068008D01*
X13320491Y-14068008D02*
X13339539Y-14039436D01*
X13339539Y-14039436D02*
X13349063Y-14029912D01*
X13415729Y-14077531D02*
X13425253Y-14068008D01*
X13425253Y-14068008D02*
X13444301Y-14058484D01*
X13444301Y-14058484D02*
X13491920Y-14058484D01*
X13491920Y-14058484D02*
X13510968Y-14068008D01*
X13510968Y-14068008D02*
X13520491Y-14077531D01*
X13520491Y-14077531D02*
X13530015Y-14096579D01*
X13530015Y-14096579D02*
X13530015Y-14115627D01*
X13530015Y-14115627D02*
X13520491Y-14144198D01*
X13520491Y-14144198D02*
X13406206Y-14258484D01*
X13406206Y-14258484D02*
X13530015Y-14258484D01*
X13768110Y-14258484D02*
X13768110Y-14058484D01*
X13853825Y-14258484D02*
X13853825Y-14153722D01*
X13853825Y-14153722D02*
X13844301Y-14134674D01*
X13844301Y-14134674D02*
X13825253Y-14125150D01*
X13825253Y-14125150D02*
X13796682Y-14125150D01*
X13796682Y-14125150D02*
X13777634Y-14134674D01*
X13777634Y-14134674D02*
X13768110Y-14144198D01*
X13977634Y-14258484D02*
X13958587Y-14248960D01*
X13958587Y-14248960D02*
X13949063Y-14239436D01*
X13949063Y-14239436D02*
X13939539Y-14220388D01*
X13939539Y-14220388D02*
X13939539Y-14163246D01*
X13939539Y-14163246D02*
X13949063Y-14144198D01*
X13949063Y-14144198D02*
X13958587Y-14134674D01*
X13958587Y-14134674D02*
X13977634Y-14125150D01*
X13977634Y-14125150D02*
X14006206Y-14125150D01*
X14006206Y-14125150D02*
X14025253Y-14134674D01*
X14025253Y-14134674D02*
X14034777Y-14144198D01*
X14034777Y-14144198D02*
X14044301Y-14163246D01*
X14044301Y-14163246D02*
X14044301Y-14220388D01*
X14044301Y-14220388D02*
X14034777Y-14239436D01*
X14034777Y-14239436D02*
X14025253Y-14248960D01*
X14025253Y-14248960D02*
X14006206Y-14258484D01*
X14006206Y-14258484D02*
X13977634Y-14258484D01*
X14158587Y-14258484D02*
X14139539Y-14248960D01*
X14139539Y-14248960D02*
X14130015Y-14229912D01*
X14130015Y-14229912D02*
X14130015Y-14058484D01*
X14310968Y-14248960D02*
X14291920Y-14258484D01*
X14291920Y-14258484D02*
X14253825Y-14258484D01*
X14253825Y-14258484D02*
X14234777Y-14248960D01*
X14234777Y-14248960D02*
X14225253Y-14229912D01*
X14225253Y-14229912D02*
X14225253Y-14153722D01*
X14225253Y-14153722D02*
X14234777Y-14134674D01*
X14234777Y-14134674D02*
X14253825Y-14125150D01*
X14253825Y-14125150D02*
X14291920Y-14125150D01*
X14291920Y-14125150D02*
X14310968Y-14134674D01*
X14310968Y-14134674D02*
X14320491Y-14153722D01*
X14320491Y-14153722D02*
X14320491Y-14172769D01*
X14320491Y-14172769D02*
X14225253Y-14191817D01*
X14396682Y-14248960D02*
X14415730Y-14258484D01*
X14415730Y-14258484D02*
X14453825Y-14258484D01*
X14453825Y-14258484D02*
X14472872Y-14248960D01*
X14472872Y-14248960D02*
X14482396Y-14229912D01*
X14482396Y-14229912D02*
X14482396Y-14220388D01*
X14482396Y-14220388D02*
X14472872Y-14201341D01*
X14472872Y-14201341D02*
X14453825Y-14191817D01*
X14453825Y-14191817D02*
X14425253Y-14191817D01*
X14425253Y-14191817D02*
X14406206Y-14182293D01*
X14406206Y-14182293D02*
X14396682Y-14163246D01*
X14396682Y-14163246D02*
X14396682Y-14153722D01*
X14396682Y-14153722D02*
X14406206Y-14134674D01*
X14406206Y-14134674D02*
X14425253Y-14125150D01*
X14425253Y-14125150D02*
X14453825Y-14125150D01*
X14453825Y-14125150D02*
X14472872Y-14134674D01*
X14549063Y-14334674D02*
X14558587Y-14325150D01*
X14558587Y-14325150D02*
X14577634Y-14296579D01*
X14577634Y-14296579D02*
X14587158Y-14277531D01*
X14587158Y-14277531D02*
X14596682Y-14248960D01*
X14596682Y-14248960D02*
X14606206Y-14201341D01*
X14606206Y-14201341D02*
X14606206Y-14163246D01*
X14606206Y-14163246D02*
X14596682Y-14115627D01*
X14596682Y-14115627D02*
X14587158Y-14087055D01*
X14587158Y-14087055D02*
X14577634Y-14068008D01*
X14577634Y-14068008D02*
X14558587Y-14039436D01*
X14558587Y-14039436D02*
X14549063Y-14029912D01*
D14*
X9614000Y-14351000D02*
X9774000Y-14511000D01*
X9774000Y-14351000D02*
X9614000Y-14511000D01*
X9750569Y-14487569D02*
X9750569Y-14374431D01*
X9637431Y-14374431D01*
X9637431Y-14487569D01*
X9750569Y-14487569D01*
D11*
X10139539Y-14522484D02*
X10025253Y-14522484D01*
X10082396Y-14522484D02*
X10082396Y-14322484D01*
X10082396Y-14322484D02*
X10063348Y-14351055D01*
X10063348Y-14351055D02*
X10044301Y-14370103D01*
X10044301Y-14370103D02*
X10025253Y-14379627D01*
X10225253Y-14503436D02*
X10234777Y-14512960D01*
X10234777Y-14512960D02*
X10225253Y-14522484D01*
X10225253Y-14522484D02*
X10215729Y-14512960D01*
X10215729Y-14512960D02*
X10225253Y-14503436D01*
X10225253Y-14503436D02*
X10225253Y-14522484D01*
X10406205Y-14322484D02*
X10368110Y-14322484D01*
X10368110Y-14322484D02*
X10349063Y-14332008D01*
X10349063Y-14332008D02*
X10339539Y-14341531D01*
X10339539Y-14341531D02*
X10320491Y-14370103D01*
X10320491Y-14370103D02*
X10310967Y-14408198D01*
X10310967Y-14408198D02*
X10310967Y-14484388D01*
X10310967Y-14484388D02*
X10320491Y-14503436D01*
X10320491Y-14503436D02*
X10330015Y-14512960D01*
X10330015Y-14512960D02*
X10349063Y-14522484D01*
X10349063Y-14522484D02*
X10387158Y-14522484D01*
X10387158Y-14522484D02*
X10406205Y-14512960D01*
X10406205Y-14512960D02*
X10415729Y-14503436D01*
X10415729Y-14503436D02*
X10425253Y-14484388D01*
X10425253Y-14484388D02*
X10425253Y-14436769D01*
X10425253Y-14436769D02*
X10415729Y-14417722D01*
X10415729Y-14417722D02*
X10406205Y-14408198D01*
X10406205Y-14408198D02*
X10387158Y-14398674D01*
X10387158Y-14398674D02*
X10349063Y-14398674D01*
X10349063Y-14398674D02*
X10330015Y-14408198D01*
X10330015Y-14408198D02*
X10320491Y-14417722D01*
X10320491Y-14417722D02*
X10310967Y-14436769D01*
X10549063Y-14322484D02*
X10568110Y-14322484D01*
X10568110Y-14322484D02*
X10587158Y-14332008D01*
X10587158Y-14332008D02*
X10596682Y-14341531D01*
X10596682Y-14341531D02*
X10606205Y-14360579D01*
X10606205Y-14360579D02*
X10615729Y-14398674D01*
X10615729Y-14398674D02*
X10615729Y-14446293D01*
X10615729Y-14446293D02*
X10606205Y-14484388D01*
X10606205Y-14484388D02*
X10596682Y-14503436D01*
X10596682Y-14503436D02*
X10587158Y-14512960D01*
X10587158Y-14512960D02*
X10568110Y-14522484D01*
X10568110Y-14522484D02*
X10549063Y-14522484D01*
X10549063Y-14522484D02*
X10530015Y-14512960D01*
X10530015Y-14512960D02*
X10520491Y-14503436D01*
X10520491Y-14503436D02*
X10510967Y-14484388D01*
X10510967Y-14484388D02*
X10501444Y-14446293D01*
X10501444Y-14446293D02*
X10501444Y-14398674D01*
X10501444Y-14398674D02*
X10510967Y-14360579D01*
X10510967Y-14360579D02*
X10520491Y-14341531D01*
X10520491Y-14341531D02*
X10530015Y-14332008D01*
X10530015Y-14332008D02*
X10549063Y-14322484D01*
X10739539Y-14322484D02*
X10758586Y-14322484D01*
X10758586Y-14322484D02*
X10777634Y-14332008D01*
X10777634Y-14332008D02*
X10787158Y-14341531D01*
X10787158Y-14341531D02*
X10796682Y-14360579D01*
X10796682Y-14360579D02*
X10806205Y-14398674D01*
X10806205Y-14398674D02*
X10806205Y-14446293D01*
X10806205Y-14446293D02*
X10796682Y-14484388D01*
X10796682Y-14484388D02*
X10787158Y-14503436D01*
X10787158Y-14503436D02*
X10777634Y-14512960D01*
X10777634Y-14512960D02*
X10758586Y-14522484D01*
X10758586Y-14522484D02*
X10739539Y-14522484D01*
X10739539Y-14522484D02*
X10720491Y-14512960D01*
X10720491Y-14512960D02*
X10710967Y-14503436D01*
X10710967Y-14503436D02*
X10701444Y-14484388D01*
X10701444Y-14484388D02*
X10691920Y-14446293D01*
X10691920Y-14446293D02*
X10691920Y-14398674D01*
X10691920Y-14398674D02*
X10701444Y-14360579D01*
X10701444Y-14360579D02*
X10710967Y-14341531D01*
X10710967Y-14341531D02*
X10720491Y-14332008D01*
X10720491Y-14332008D02*
X10739539Y-14322484D01*
X10891920Y-14522484D02*
X10891920Y-14389150D01*
X10891920Y-14408198D02*
X10901444Y-14398674D01*
X10901444Y-14398674D02*
X10920491Y-14389150D01*
X10920491Y-14389150D02*
X10949063Y-14389150D01*
X10949063Y-14389150D02*
X10968110Y-14398674D01*
X10968110Y-14398674D02*
X10977634Y-14417722D01*
X10977634Y-14417722D02*
X10977634Y-14522484D01*
X10977634Y-14417722D02*
X10987158Y-14398674D01*
X10987158Y-14398674D02*
X11006205Y-14389150D01*
X11006205Y-14389150D02*
X11034777Y-14389150D01*
X11034777Y-14389150D02*
X11053825Y-14398674D01*
X11053825Y-14398674D02*
X11063348Y-14417722D01*
X11063348Y-14417722D02*
X11063348Y-14522484D01*
X11158586Y-14522484D02*
X11158586Y-14389150D01*
X11158586Y-14408198D02*
X11168110Y-14398674D01*
X11168110Y-14398674D02*
X11187158Y-14389150D01*
X11187158Y-14389150D02*
X11215729Y-14389150D01*
X11215729Y-14389150D02*
X11234777Y-14398674D01*
X11234777Y-14398674D02*
X11244301Y-14417722D01*
X11244301Y-14417722D02*
X11244301Y-14522484D01*
X11244301Y-14417722D02*
X11253824Y-14398674D01*
X11253824Y-14398674D02*
X11272872Y-14389150D01*
X11272872Y-14389150D02*
X11301443Y-14389150D01*
X11301443Y-14389150D02*
X11320491Y-14398674D01*
X11320491Y-14398674D02*
X11330015Y-14417722D01*
X11330015Y-14417722D02*
X11330015Y-14522484D01*
X11720491Y-14312960D02*
X11549063Y-14570103D01*
X11977634Y-14322484D02*
X11996682Y-14322484D01*
X11996682Y-14322484D02*
X12015729Y-14332008D01*
X12015729Y-14332008D02*
X12025253Y-14341531D01*
X12025253Y-14341531D02*
X12034777Y-14360579D01*
X12034777Y-14360579D02*
X12044301Y-14398674D01*
X12044301Y-14398674D02*
X12044301Y-14446293D01*
X12044301Y-14446293D02*
X12034777Y-14484388D01*
X12034777Y-14484388D02*
X12025253Y-14503436D01*
X12025253Y-14503436D02*
X12015729Y-14512960D01*
X12015729Y-14512960D02*
X11996682Y-14522484D01*
X11996682Y-14522484D02*
X11977634Y-14522484D01*
X11977634Y-14522484D02*
X11958586Y-14512960D01*
X11958586Y-14512960D02*
X11949063Y-14503436D01*
X11949063Y-14503436D02*
X11939539Y-14484388D01*
X11939539Y-14484388D02*
X11930015Y-14446293D01*
X11930015Y-14446293D02*
X11930015Y-14398674D01*
X11930015Y-14398674D02*
X11939539Y-14360579D01*
X11939539Y-14360579D02*
X11949063Y-14341531D01*
X11949063Y-14341531D02*
X11958586Y-14332008D01*
X11958586Y-14332008D02*
X11977634Y-14322484D01*
X12130015Y-14503436D02*
X12139539Y-14512960D01*
X12139539Y-14512960D02*
X12130015Y-14522484D01*
X12130015Y-14522484D02*
X12120491Y-14512960D01*
X12120491Y-14512960D02*
X12130015Y-14503436D01*
X12130015Y-14503436D02*
X12130015Y-14522484D01*
X12263348Y-14322484D02*
X12282396Y-14322484D01*
X12282396Y-14322484D02*
X12301444Y-14332008D01*
X12301444Y-14332008D02*
X12310967Y-14341531D01*
X12310967Y-14341531D02*
X12320491Y-14360579D01*
X12320491Y-14360579D02*
X12330015Y-14398674D01*
X12330015Y-14398674D02*
X12330015Y-14446293D01*
X12330015Y-14446293D02*
X12320491Y-14484388D01*
X12320491Y-14484388D02*
X12310967Y-14503436D01*
X12310967Y-14503436D02*
X12301444Y-14512960D01*
X12301444Y-14512960D02*
X12282396Y-14522484D01*
X12282396Y-14522484D02*
X12263348Y-14522484D01*
X12263348Y-14522484D02*
X12244301Y-14512960D01*
X12244301Y-14512960D02*
X12234777Y-14503436D01*
X12234777Y-14503436D02*
X12225253Y-14484388D01*
X12225253Y-14484388D02*
X12215729Y-14446293D01*
X12215729Y-14446293D02*
X12215729Y-14398674D01*
X12215729Y-14398674D02*
X12225253Y-14360579D01*
X12225253Y-14360579D02*
X12234777Y-14341531D01*
X12234777Y-14341531D02*
X12244301Y-14332008D01*
X12244301Y-14332008D02*
X12263348Y-14322484D01*
X12501444Y-14322484D02*
X12463348Y-14322484D01*
X12463348Y-14322484D02*
X12444301Y-14332008D01*
X12444301Y-14332008D02*
X12434777Y-14341531D01*
X12434777Y-14341531D02*
X12415729Y-14370103D01*
X12415729Y-14370103D02*
X12406206Y-14408198D01*
X12406206Y-14408198D02*
X12406206Y-14484388D01*
X12406206Y-14484388D02*
X12415729Y-14503436D01*
X12415729Y-14503436D02*
X12425253Y-14512960D01*
X12425253Y-14512960D02*
X12444301Y-14522484D01*
X12444301Y-14522484D02*
X12482396Y-14522484D01*
X12482396Y-14522484D02*
X12501444Y-14512960D01*
X12501444Y-14512960D02*
X12510967Y-14503436D01*
X12510967Y-14503436D02*
X12520491Y-14484388D01*
X12520491Y-14484388D02*
X12520491Y-14436769D01*
X12520491Y-14436769D02*
X12510967Y-14417722D01*
X12510967Y-14417722D02*
X12501444Y-14408198D01*
X12501444Y-14408198D02*
X12482396Y-14398674D01*
X12482396Y-14398674D02*
X12444301Y-14398674D01*
X12444301Y-14398674D02*
X12425253Y-14408198D01*
X12425253Y-14408198D02*
X12415729Y-14417722D01*
X12415729Y-14417722D02*
X12406206Y-14436769D01*
X12587158Y-14322484D02*
X12710967Y-14322484D01*
X12710967Y-14322484D02*
X12644301Y-14398674D01*
X12644301Y-14398674D02*
X12672872Y-14398674D01*
X12672872Y-14398674D02*
X12691920Y-14408198D01*
X12691920Y-14408198D02*
X12701444Y-14417722D01*
X12701444Y-14417722D02*
X12710967Y-14436769D01*
X12710967Y-14436769D02*
X12710967Y-14484388D01*
X12710967Y-14484388D02*
X12701444Y-14503436D01*
X12701444Y-14503436D02*
X12691920Y-14512960D01*
X12691920Y-14512960D02*
X12672872Y-14522484D01*
X12672872Y-14522484D02*
X12615729Y-14522484D01*
X12615729Y-14522484D02*
X12596682Y-14512960D01*
X12596682Y-14512960D02*
X12587158Y-14503436D01*
X12834777Y-14322484D02*
X12853825Y-14322484D01*
X12853825Y-14322484D02*
X12872872Y-14332008D01*
X12872872Y-14332008D02*
X12882396Y-14341531D01*
X12882396Y-14341531D02*
X12891920Y-14360579D01*
X12891920Y-14360579D02*
X12901444Y-14398674D01*
X12901444Y-14398674D02*
X12901444Y-14446293D01*
X12901444Y-14446293D02*
X12891920Y-14484388D01*
X12891920Y-14484388D02*
X12882396Y-14503436D01*
X12882396Y-14503436D02*
X12872872Y-14512960D01*
X12872872Y-14512960D02*
X12853825Y-14522484D01*
X12853825Y-14522484D02*
X12834777Y-14522484D01*
X12834777Y-14522484D02*
X12815729Y-14512960D01*
X12815729Y-14512960D02*
X12806206Y-14503436D01*
X12806206Y-14503436D02*
X12796682Y-14484388D01*
X12796682Y-14484388D02*
X12787158Y-14446293D01*
X12787158Y-14446293D02*
X12787158Y-14398674D01*
X12787158Y-14398674D02*
X12796682Y-14360579D01*
X12796682Y-14360579D02*
X12806206Y-14341531D01*
X12806206Y-14341531D02*
X12815729Y-14332008D01*
X12815729Y-14332008D02*
X12834777Y-14322484D01*
X12977634Y-14322484D02*
X12977634Y-14360579D01*
X13053825Y-14322484D02*
X13053825Y-14360579D01*
X13349063Y-14598674D02*
X13339539Y-14589150D01*
X13339539Y-14589150D02*
X13320491Y-14560579D01*
X13320491Y-14560579D02*
X13310968Y-14541531D01*
X13310968Y-14541531D02*
X13301444Y-14512960D01*
X13301444Y-14512960D02*
X13291920Y-14465341D01*
X13291920Y-14465341D02*
X13291920Y-14427246D01*
X13291920Y-14427246D02*
X13301444Y-14379627D01*
X13301444Y-14379627D02*
X13310968Y-14351055D01*
X13310968Y-14351055D02*
X13320491Y-14332008D01*
X13320491Y-14332008D02*
X13339539Y-14303436D01*
X13339539Y-14303436D02*
X13349063Y-14293912D01*
X13406206Y-14322484D02*
X13530015Y-14322484D01*
X13530015Y-14322484D02*
X13463348Y-14398674D01*
X13463348Y-14398674D02*
X13491920Y-14398674D01*
X13491920Y-14398674D02*
X13510968Y-14408198D01*
X13510968Y-14408198D02*
X13520491Y-14417722D01*
X13520491Y-14417722D02*
X13530015Y-14436769D01*
X13530015Y-14436769D02*
X13530015Y-14484388D01*
X13530015Y-14484388D02*
X13520491Y-14503436D01*
X13520491Y-14503436D02*
X13510968Y-14512960D01*
X13510968Y-14512960D02*
X13491920Y-14522484D01*
X13491920Y-14522484D02*
X13434777Y-14522484D01*
X13434777Y-14522484D02*
X13415729Y-14512960D01*
X13415729Y-14512960D02*
X13406206Y-14503436D01*
X13768110Y-14522484D02*
X13768110Y-14322484D01*
X13853825Y-14522484D02*
X13853825Y-14417722D01*
X13853825Y-14417722D02*
X13844301Y-14398674D01*
X13844301Y-14398674D02*
X13825253Y-14389150D01*
X13825253Y-14389150D02*
X13796682Y-14389150D01*
X13796682Y-14389150D02*
X13777634Y-14398674D01*
X13777634Y-14398674D02*
X13768110Y-14408198D01*
X13977634Y-14522484D02*
X13958587Y-14512960D01*
X13958587Y-14512960D02*
X13949063Y-14503436D01*
X13949063Y-14503436D02*
X13939539Y-14484388D01*
X13939539Y-14484388D02*
X13939539Y-14427246D01*
X13939539Y-14427246D02*
X13949063Y-14408198D01*
X13949063Y-14408198D02*
X13958587Y-14398674D01*
X13958587Y-14398674D02*
X13977634Y-14389150D01*
X13977634Y-14389150D02*
X14006206Y-14389150D01*
X14006206Y-14389150D02*
X14025253Y-14398674D01*
X14025253Y-14398674D02*
X14034777Y-14408198D01*
X14034777Y-14408198D02*
X14044301Y-14427246D01*
X14044301Y-14427246D02*
X14044301Y-14484388D01*
X14044301Y-14484388D02*
X14034777Y-14503436D01*
X14034777Y-14503436D02*
X14025253Y-14512960D01*
X14025253Y-14512960D02*
X14006206Y-14522484D01*
X14006206Y-14522484D02*
X13977634Y-14522484D01*
X14158587Y-14522484D02*
X14139539Y-14512960D01*
X14139539Y-14512960D02*
X14130015Y-14493912D01*
X14130015Y-14493912D02*
X14130015Y-14322484D01*
X14310968Y-14512960D02*
X14291920Y-14522484D01*
X14291920Y-14522484D02*
X14253825Y-14522484D01*
X14253825Y-14522484D02*
X14234777Y-14512960D01*
X14234777Y-14512960D02*
X14225253Y-14493912D01*
X14225253Y-14493912D02*
X14225253Y-14417722D01*
X14225253Y-14417722D02*
X14234777Y-14398674D01*
X14234777Y-14398674D02*
X14253825Y-14389150D01*
X14253825Y-14389150D02*
X14291920Y-14389150D01*
X14291920Y-14389150D02*
X14310968Y-14398674D01*
X14310968Y-14398674D02*
X14320491Y-14417722D01*
X14320491Y-14417722D02*
X14320491Y-14436769D01*
X14320491Y-14436769D02*
X14225253Y-14455817D01*
X14396682Y-14512960D02*
X14415730Y-14522484D01*
X14415730Y-14522484D02*
X14453825Y-14522484D01*
X14453825Y-14522484D02*
X14472872Y-14512960D01*
X14472872Y-14512960D02*
X14482396Y-14493912D01*
X14482396Y-14493912D02*
X14482396Y-14484388D01*
X14482396Y-14484388D02*
X14472872Y-14465341D01*
X14472872Y-14465341D02*
X14453825Y-14455817D01*
X14453825Y-14455817D02*
X14425253Y-14455817D01*
X14425253Y-14455817D02*
X14406206Y-14446293D01*
X14406206Y-14446293D02*
X14396682Y-14427246D01*
X14396682Y-14427246D02*
X14396682Y-14417722D01*
X14396682Y-14417722D02*
X14406206Y-14398674D01*
X14406206Y-14398674D02*
X14425253Y-14389150D01*
X14425253Y-14389150D02*
X14453825Y-14389150D01*
X14453825Y-14389150D02*
X14472872Y-14398674D01*
X14549063Y-14598674D02*
X14558587Y-14589150D01*
X14558587Y-14589150D02*
X14577634Y-14560579D01*
X14577634Y-14560579D02*
X14587158Y-14541531D01*
X14587158Y-14541531D02*
X14596682Y-14512960D01*
X14596682Y-14512960D02*
X14606206Y-14465341D01*
X14606206Y-14465341D02*
X14606206Y-14427246D01*
X14606206Y-14427246D02*
X14596682Y-14379627D01*
X14596682Y-14379627D02*
X14587158Y-14351055D01*
X14587158Y-14351055D02*
X14577634Y-14332008D01*
X14577634Y-14332008D02*
X14558587Y-14303436D01*
X14558587Y-14303436D02*
X14549063Y-14293912D01*
X9574000Y-14611000D02*
X9774000Y-14811000D01*
X9774000Y-14611000D02*
X9574000Y-14811000D01*
X9674000Y-14811000D02*
X9774000Y-14711000D01*
X9674000Y-14611000D01*
X9574000Y-14711000D01*
X9674000Y-14811000D01*
X10015729Y-14602484D02*
X10139539Y-14602484D01*
X10139539Y-14602484D02*
X10072872Y-14678674D01*
X10072872Y-14678674D02*
X10101444Y-14678674D01*
X10101444Y-14678674D02*
X10120491Y-14688198D01*
X10120491Y-14688198D02*
X10130015Y-14697722D01*
X10130015Y-14697722D02*
X10139539Y-14716769D01*
X10139539Y-14716769D02*
X10139539Y-14764388D01*
X10139539Y-14764388D02*
X10130015Y-14783436D01*
X10130015Y-14783436D02*
X10120491Y-14792960D01*
X10120491Y-14792960D02*
X10101444Y-14802484D01*
X10101444Y-14802484D02*
X10044301Y-14802484D01*
X10044301Y-14802484D02*
X10025253Y-14792960D01*
X10025253Y-14792960D02*
X10015729Y-14783436D01*
X10225253Y-14783436D02*
X10234777Y-14792960D01*
X10234777Y-14792960D02*
X10225253Y-14802484D01*
X10225253Y-14802484D02*
X10215729Y-14792960D01*
X10215729Y-14792960D02*
X10225253Y-14783436D01*
X10225253Y-14783436D02*
X10225253Y-14802484D01*
X10415729Y-14602484D02*
X10320491Y-14602484D01*
X10320491Y-14602484D02*
X10310967Y-14697722D01*
X10310967Y-14697722D02*
X10320491Y-14688198D01*
X10320491Y-14688198D02*
X10339539Y-14678674D01*
X10339539Y-14678674D02*
X10387158Y-14678674D01*
X10387158Y-14678674D02*
X10406205Y-14688198D01*
X10406205Y-14688198D02*
X10415729Y-14697722D01*
X10415729Y-14697722D02*
X10425253Y-14716769D01*
X10425253Y-14716769D02*
X10425253Y-14764388D01*
X10425253Y-14764388D02*
X10415729Y-14783436D01*
X10415729Y-14783436D02*
X10406205Y-14792960D01*
X10406205Y-14792960D02*
X10387158Y-14802484D01*
X10387158Y-14802484D02*
X10339539Y-14802484D01*
X10339539Y-14802484D02*
X10320491Y-14792960D01*
X10320491Y-14792960D02*
X10310967Y-14783436D01*
X10549063Y-14602484D02*
X10568110Y-14602484D01*
X10568110Y-14602484D02*
X10587158Y-14612008D01*
X10587158Y-14612008D02*
X10596682Y-14621531D01*
X10596682Y-14621531D02*
X10606205Y-14640579D01*
X10606205Y-14640579D02*
X10615729Y-14678674D01*
X10615729Y-14678674D02*
X10615729Y-14726293D01*
X10615729Y-14726293D02*
X10606205Y-14764388D01*
X10606205Y-14764388D02*
X10596682Y-14783436D01*
X10596682Y-14783436D02*
X10587158Y-14792960D01*
X10587158Y-14792960D02*
X10568110Y-14802484D01*
X10568110Y-14802484D02*
X10549063Y-14802484D01*
X10549063Y-14802484D02*
X10530015Y-14792960D01*
X10530015Y-14792960D02*
X10520491Y-14783436D01*
X10520491Y-14783436D02*
X10510967Y-14764388D01*
X10510967Y-14764388D02*
X10501444Y-14726293D01*
X10501444Y-14726293D02*
X10501444Y-14678674D01*
X10501444Y-14678674D02*
X10510967Y-14640579D01*
X10510967Y-14640579D02*
X10520491Y-14621531D01*
X10520491Y-14621531D02*
X10530015Y-14612008D01*
X10530015Y-14612008D02*
X10549063Y-14602484D01*
X10739539Y-14602484D02*
X10758586Y-14602484D01*
X10758586Y-14602484D02*
X10777634Y-14612008D01*
X10777634Y-14612008D02*
X10787158Y-14621531D01*
X10787158Y-14621531D02*
X10796682Y-14640579D01*
X10796682Y-14640579D02*
X10806205Y-14678674D01*
X10806205Y-14678674D02*
X10806205Y-14726293D01*
X10806205Y-14726293D02*
X10796682Y-14764388D01*
X10796682Y-14764388D02*
X10787158Y-14783436D01*
X10787158Y-14783436D02*
X10777634Y-14792960D01*
X10777634Y-14792960D02*
X10758586Y-14802484D01*
X10758586Y-14802484D02*
X10739539Y-14802484D01*
X10739539Y-14802484D02*
X10720491Y-14792960D01*
X10720491Y-14792960D02*
X10710967Y-14783436D01*
X10710967Y-14783436D02*
X10701444Y-14764388D01*
X10701444Y-14764388D02*
X10691920Y-14726293D01*
X10691920Y-14726293D02*
X10691920Y-14678674D01*
X10691920Y-14678674D02*
X10701444Y-14640579D01*
X10701444Y-14640579D02*
X10710967Y-14621531D01*
X10710967Y-14621531D02*
X10720491Y-14612008D01*
X10720491Y-14612008D02*
X10739539Y-14602484D01*
X10891920Y-14802484D02*
X10891920Y-14669150D01*
X10891920Y-14688198D02*
X10901444Y-14678674D01*
X10901444Y-14678674D02*
X10920491Y-14669150D01*
X10920491Y-14669150D02*
X10949063Y-14669150D01*
X10949063Y-14669150D02*
X10968110Y-14678674D01*
X10968110Y-14678674D02*
X10977634Y-14697722D01*
X10977634Y-14697722D02*
X10977634Y-14802484D01*
X10977634Y-14697722D02*
X10987158Y-14678674D01*
X10987158Y-14678674D02*
X11006205Y-14669150D01*
X11006205Y-14669150D02*
X11034777Y-14669150D01*
X11034777Y-14669150D02*
X11053825Y-14678674D01*
X11053825Y-14678674D02*
X11063348Y-14697722D01*
X11063348Y-14697722D02*
X11063348Y-14802484D01*
X11158586Y-14802484D02*
X11158586Y-14669150D01*
X11158586Y-14688198D02*
X11168110Y-14678674D01*
X11168110Y-14678674D02*
X11187158Y-14669150D01*
X11187158Y-14669150D02*
X11215729Y-14669150D01*
X11215729Y-14669150D02*
X11234777Y-14678674D01*
X11234777Y-14678674D02*
X11244301Y-14697722D01*
X11244301Y-14697722D02*
X11244301Y-14802484D01*
X11244301Y-14697722D02*
X11253824Y-14678674D01*
X11253824Y-14678674D02*
X11272872Y-14669150D01*
X11272872Y-14669150D02*
X11301443Y-14669150D01*
X11301443Y-14669150D02*
X11320491Y-14678674D01*
X11320491Y-14678674D02*
X11330015Y-14697722D01*
X11330015Y-14697722D02*
X11330015Y-14802484D01*
X11720491Y-14592960D02*
X11549063Y-14850103D01*
X11977634Y-14602484D02*
X11996682Y-14602484D01*
X11996682Y-14602484D02*
X12015729Y-14612008D01*
X12015729Y-14612008D02*
X12025253Y-14621531D01*
X12025253Y-14621531D02*
X12034777Y-14640579D01*
X12034777Y-14640579D02*
X12044301Y-14678674D01*
X12044301Y-14678674D02*
X12044301Y-14726293D01*
X12044301Y-14726293D02*
X12034777Y-14764388D01*
X12034777Y-14764388D02*
X12025253Y-14783436D01*
X12025253Y-14783436D02*
X12015729Y-14792960D01*
X12015729Y-14792960D02*
X11996682Y-14802484D01*
X11996682Y-14802484D02*
X11977634Y-14802484D01*
X11977634Y-14802484D02*
X11958586Y-14792960D01*
X11958586Y-14792960D02*
X11949063Y-14783436D01*
X11949063Y-14783436D02*
X11939539Y-14764388D01*
X11939539Y-14764388D02*
X11930015Y-14726293D01*
X11930015Y-14726293D02*
X11930015Y-14678674D01*
X11930015Y-14678674D02*
X11939539Y-14640579D01*
X11939539Y-14640579D02*
X11949063Y-14621531D01*
X11949063Y-14621531D02*
X11958586Y-14612008D01*
X11958586Y-14612008D02*
X11977634Y-14602484D01*
X12130015Y-14783436D02*
X12139539Y-14792960D01*
X12139539Y-14792960D02*
X12130015Y-14802484D01*
X12130015Y-14802484D02*
X12120491Y-14792960D01*
X12120491Y-14792960D02*
X12130015Y-14783436D01*
X12130015Y-14783436D02*
X12130015Y-14802484D01*
X12330015Y-14802484D02*
X12215729Y-14802484D01*
X12272872Y-14802484D02*
X12272872Y-14602484D01*
X12272872Y-14602484D02*
X12253825Y-14631055D01*
X12253825Y-14631055D02*
X12234777Y-14650103D01*
X12234777Y-14650103D02*
X12215729Y-14659627D01*
X12396682Y-14602484D02*
X12520491Y-14602484D01*
X12520491Y-14602484D02*
X12453825Y-14678674D01*
X12453825Y-14678674D02*
X12482396Y-14678674D01*
X12482396Y-14678674D02*
X12501444Y-14688198D01*
X12501444Y-14688198D02*
X12510967Y-14697722D01*
X12510967Y-14697722D02*
X12520491Y-14716769D01*
X12520491Y-14716769D02*
X12520491Y-14764388D01*
X12520491Y-14764388D02*
X12510967Y-14783436D01*
X12510967Y-14783436D02*
X12501444Y-14792960D01*
X12501444Y-14792960D02*
X12482396Y-14802484D01*
X12482396Y-14802484D02*
X12425253Y-14802484D01*
X12425253Y-14802484D02*
X12406206Y-14792960D01*
X12406206Y-14792960D02*
X12396682Y-14783436D01*
X12587158Y-14602484D02*
X12720491Y-14602484D01*
X12720491Y-14602484D02*
X12634777Y-14802484D01*
X12825253Y-14688198D02*
X12806206Y-14678674D01*
X12806206Y-14678674D02*
X12796682Y-14669150D01*
X12796682Y-14669150D02*
X12787158Y-14650103D01*
X12787158Y-14650103D02*
X12787158Y-14640579D01*
X12787158Y-14640579D02*
X12796682Y-14621531D01*
X12796682Y-14621531D02*
X12806206Y-14612008D01*
X12806206Y-14612008D02*
X12825253Y-14602484D01*
X12825253Y-14602484D02*
X12863348Y-14602484D01*
X12863348Y-14602484D02*
X12882396Y-14612008D01*
X12882396Y-14612008D02*
X12891920Y-14621531D01*
X12891920Y-14621531D02*
X12901444Y-14640579D01*
X12901444Y-14640579D02*
X12901444Y-14650103D01*
X12901444Y-14650103D02*
X12891920Y-14669150D01*
X12891920Y-14669150D02*
X12882396Y-14678674D01*
X12882396Y-14678674D02*
X12863348Y-14688198D01*
X12863348Y-14688198D02*
X12825253Y-14688198D01*
X12825253Y-14688198D02*
X12806206Y-14697722D01*
X12806206Y-14697722D02*
X12796682Y-14707246D01*
X12796682Y-14707246D02*
X12787158Y-14726293D01*
X12787158Y-14726293D02*
X12787158Y-14764388D01*
X12787158Y-14764388D02*
X12796682Y-14783436D01*
X12796682Y-14783436D02*
X12806206Y-14792960D01*
X12806206Y-14792960D02*
X12825253Y-14802484D01*
X12825253Y-14802484D02*
X12863348Y-14802484D01*
X12863348Y-14802484D02*
X12882396Y-14792960D01*
X12882396Y-14792960D02*
X12891920Y-14783436D01*
X12891920Y-14783436D02*
X12901444Y-14764388D01*
X12901444Y-14764388D02*
X12901444Y-14726293D01*
X12901444Y-14726293D02*
X12891920Y-14707246D01*
X12891920Y-14707246D02*
X12882396Y-14697722D01*
X12882396Y-14697722D02*
X12863348Y-14688198D01*
X12977634Y-14602484D02*
X12977634Y-14640579D01*
X13053825Y-14602484D02*
X13053825Y-14640579D01*
X13349063Y-14878674D02*
X13339539Y-14869150D01*
X13339539Y-14869150D02*
X13320491Y-14840579D01*
X13320491Y-14840579D02*
X13310968Y-14821531D01*
X13310968Y-14821531D02*
X13301444Y-14792960D01*
X13301444Y-14792960D02*
X13291920Y-14745341D01*
X13291920Y-14745341D02*
X13291920Y-14707246D01*
X13291920Y-14707246D02*
X13301444Y-14659627D01*
X13301444Y-14659627D02*
X13310968Y-14631055D01*
X13310968Y-14631055D02*
X13320491Y-14612008D01*
X13320491Y-14612008D02*
X13339539Y-14583436D01*
X13339539Y-14583436D02*
X13349063Y-14573912D01*
X13510968Y-14669150D02*
X13510968Y-14802484D01*
X13463348Y-14592960D02*
X13415729Y-14735817D01*
X13415729Y-14735817D02*
X13539539Y-14735817D01*
X13768110Y-14802484D02*
X13768110Y-14602484D01*
X13853825Y-14802484D02*
X13853825Y-14697722D01*
X13853825Y-14697722D02*
X13844301Y-14678674D01*
X13844301Y-14678674D02*
X13825253Y-14669150D01*
X13825253Y-14669150D02*
X13796682Y-14669150D01*
X13796682Y-14669150D02*
X13777634Y-14678674D01*
X13777634Y-14678674D02*
X13768110Y-14688198D01*
X13977634Y-14802484D02*
X13958587Y-14792960D01*
X13958587Y-14792960D02*
X13949063Y-14783436D01*
X13949063Y-14783436D02*
X13939539Y-14764388D01*
X13939539Y-14764388D02*
X13939539Y-14707246D01*
X13939539Y-14707246D02*
X13949063Y-14688198D01*
X13949063Y-14688198D02*
X13958587Y-14678674D01*
X13958587Y-14678674D02*
X13977634Y-14669150D01*
X13977634Y-14669150D02*
X14006206Y-14669150D01*
X14006206Y-14669150D02*
X14025253Y-14678674D01*
X14025253Y-14678674D02*
X14034777Y-14688198D01*
X14034777Y-14688198D02*
X14044301Y-14707246D01*
X14044301Y-14707246D02*
X14044301Y-14764388D01*
X14044301Y-14764388D02*
X14034777Y-14783436D01*
X14034777Y-14783436D02*
X14025253Y-14792960D01*
X14025253Y-14792960D02*
X14006206Y-14802484D01*
X14006206Y-14802484D02*
X13977634Y-14802484D01*
X14158587Y-14802484D02*
X14139539Y-14792960D01*
X14139539Y-14792960D02*
X14130015Y-14773912D01*
X14130015Y-14773912D02*
X14130015Y-14602484D01*
X14310968Y-14792960D02*
X14291920Y-14802484D01*
X14291920Y-14802484D02*
X14253825Y-14802484D01*
X14253825Y-14802484D02*
X14234777Y-14792960D01*
X14234777Y-14792960D02*
X14225253Y-14773912D01*
X14225253Y-14773912D02*
X14225253Y-14697722D01*
X14225253Y-14697722D02*
X14234777Y-14678674D01*
X14234777Y-14678674D02*
X14253825Y-14669150D01*
X14253825Y-14669150D02*
X14291920Y-14669150D01*
X14291920Y-14669150D02*
X14310968Y-14678674D01*
X14310968Y-14678674D02*
X14320491Y-14697722D01*
X14320491Y-14697722D02*
X14320491Y-14716769D01*
X14320491Y-14716769D02*
X14225253Y-14735817D01*
X14396682Y-14792960D02*
X14415730Y-14802484D01*
X14415730Y-14802484D02*
X14453825Y-14802484D01*
X14453825Y-14802484D02*
X14472872Y-14792960D01*
X14472872Y-14792960D02*
X14482396Y-14773912D01*
X14482396Y-14773912D02*
X14482396Y-14764388D01*
X14482396Y-14764388D02*
X14472872Y-14745341D01*
X14472872Y-14745341D02*
X14453825Y-14735817D01*
X14453825Y-14735817D02*
X14425253Y-14735817D01*
X14425253Y-14735817D02*
X14406206Y-14726293D01*
X14406206Y-14726293D02*
X14396682Y-14707246D01*
X14396682Y-14707246D02*
X14396682Y-14697722D01*
X14396682Y-14697722D02*
X14406206Y-14678674D01*
X14406206Y-14678674D02*
X14425253Y-14669150D01*
X14425253Y-14669150D02*
X14453825Y-14669150D01*
X14453825Y-14669150D02*
X14472872Y-14678674D01*
X14549063Y-14878674D02*
X14558587Y-14869150D01*
X14558587Y-14869150D02*
X14577634Y-14840579D01*
X14577634Y-14840579D02*
X14587158Y-14821531D01*
X14587158Y-14821531D02*
X14596682Y-14792960D01*
X14596682Y-14792960D02*
X14606206Y-14745341D01*
X14606206Y-14745341D02*
X14606206Y-14707246D01*
X14606206Y-14707246D02*
X14596682Y-14659627D01*
X14596682Y-14659627D02*
X14587158Y-14631055D01*
X14587158Y-14631055D02*
X14577634Y-14612008D01*
X14577634Y-14612008D02*
X14558587Y-14583436D01*
X14558587Y-14583436D02*
X14549063Y-14573912D01*
M02*
