%TF.GenerationSoftware,KiCad,Pcbnew,7.0.10*%
%TF.CreationDate,2024-04-10T22:42:47-07:00*%
%TF.ProjectId,COFFEE_MAKER,434f4646-4545-45f4-9d41-4b45522e6b69,rev?*%
%TF.SameCoordinates,Original*%
%TF.FileFunction,Copper,L2,Bot*%
%TF.FilePolarity,Positive*%
%FSLAX46Y46*%
G04 Gerber Fmt 4.6, Leading zero omitted, Abs format (unit mm)*
G04 Created by KiCad (PCBNEW 7.0.10) date 2024-04-10 22:42:47*
%MOMM*%
%LPD*%
G01*
G04 APERTURE LIST*
%TA.AperFunction,ComponentPad*%
%ADD10R,1.350000X1.350000*%
%TD*%
%TA.AperFunction,ComponentPad*%
%ADD11O,1.350000X1.350000*%
%TD*%
%TA.AperFunction,ComponentPad*%
%ADD12R,2.600000X2.600000*%
%TD*%
%TA.AperFunction,ComponentPad*%
%ADD13C,2.600000*%
%TD*%
%TA.AperFunction,ComponentPad*%
%ADD14C,4.000000*%
%TD*%
%TA.AperFunction,ComponentPad*%
%ADD15R,1.800000X2.600000*%
%TD*%
%TA.AperFunction,ComponentPad*%
%ADD16O,1.800000X2.600000*%
%TD*%
%TA.AperFunction,ComponentPad*%
%ADD17R,1.700000X1.700000*%
%TD*%
%TA.AperFunction,ComponentPad*%
%ADD18O,1.700000X1.700000*%
%TD*%
%TA.AperFunction,ComponentPad*%
%ADD19R,1.800000X1.800000*%
%TD*%
%TA.AperFunction,ComponentPad*%
%ADD20C,1.800000*%
%TD*%
%TA.AperFunction,ComponentPad*%
%ADD21R,1.600000X1.600000*%
%TD*%
%TA.AperFunction,ComponentPad*%
%ADD22O,1.600000X1.600000*%
%TD*%
%TA.AperFunction,ComponentPad*%
%ADD23O,1.000000X2.100000*%
%TD*%
%TA.AperFunction,ComponentPad*%
%ADD24O,1.000000X1.800000*%
%TD*%
%TA.AperFunction,ViaPad*%
%ADD25C,0.711200*%
%TD*%
%TA.AperFunction,Conductor*%
%ADD26C,0.203200*%
%TD*%
G04 APERTURE END LIST*
D10*
%TO.P,J7,1,Pin_1*%
%TO.N,LCD_scl*%
X104800000Y-83550000D03*
D11*
%TO.P,J7,2,Pin_2*%
%TO.N,LCD_sda*%
X104800000Y-85550000D03*
%TO.P,J7,3,Pin_3*%
%TO.N,+5V*%
X104800000Y-87550000D03*
%TO.P,J7,4,Pin_4*%
%TO.N,GND*%
X104800000Y-89550000D03*
%TD*%
D12*
%TO.P,J4,1,Pin_1*%
%TO.N,Net-(J4-Pin_1)*%
X220860620Y-73929240D03*
D13*
%TO.P,J4,2,Pin_2*%
%TO.N,Net-(J4-Pin_2)*%
X220860620Y-78929240D03*
%TD*%
D14*
%TO.P,DS1,*%
%TO.N,*%
X220530420Y-63769240D03*
X220530420Y-26769060D03*
X105529380Y-63769240D03*
X105529380Y-26769060D03*
D15*
%TO.P,DS1,1,LEDK*%
%TO.N,Net-(DS1-LEDK)*%
X151130000Y-64770000D03*
D16*
%TO.P,DS1,2,LEDA*%
%TO.N,Net-(DS1-LEDA)*%
X148590000Y-64770000D03*
%TO.P,DS1,3,VSS*%
%TO.N,GND*%
X146050000Y-64770000D03*
%TO.P,DS1,4,VDD*%
%TO.N,+5V*%
X143510000Y-64770000D03*
%TO.P,DS1,5,Vo*%
%TO.N,Net-(DS1-Vo)*%
X140970000Y-64770000D03*
%TO.P,DS1,6,RS*%
%TO.N,Net-(DS1-RS)*%
X138430000Y-64770000D03*
%TO.P,DS1,7,R/~{W}*%
%TO.N,Net-(DS1-R{slash}~{W})*%
X135890000Y-64770000D03*
%TO.P,DS1,8,E*%
%TO.N,Net-(DS1-E)*%
X133350000Y-64770000D03*
%TO.P,DS1,9,DB0*%
%TO.N,unconnected-(DS1-DB0-Pad9)*%
X130810000Y-64770000D03*
%TO.P,DS1,10,DB1*%
%TO.N,unconnected-(DS1-DB1-Pad10)*%
X128270000Y-64770000D03*
%TO.P,DS1,11,DB2*%
%TO.N,unconnected-(DS1-DB2-Pad11)*%
X125730000Y-64770000D03*
%TO.P,DS1,12,DB3*%
%TO.N,unconnected-(DS1-DB3-Pad12)*%
X123190000Y-64770000D03*
%TO.P,DS1,13,DB4*%
%TO.N,Net-(DS1-DB4)*%
X120650000Y-64770000D03*
%TO.P,DS1,14,DB5*%
%TO.N,Net-(DS1-DB5)*%
X118110000Y-64770000D03*
%TO.P,DS1,15,DB6*%
%TO.N,Net-(DS1-DB6)*%
X115570000Y-64770000D03*
%TO.P,DS1,16,DB7*%
%TO.N,Net-(DS1-DB7)*%
X113030000Y-64770000D03*
%TD*%
D17*
%TO.P,J1,1,Pin_1*%
%TO.N,+3V3*%
X208900000Y-107385000D03*
D18*
%TO.P,J1,2,Pin_2*%
%TO.N,RELAY_COIL*%
X206360000Y-107385000D03*
%TO.P,J1,3,Pin_3*%
%TO.N,GND*%
X203820000Y-107385000D03*
%TD*%
D17*
%TO.P,J3,1,Pin_1*%
%TO.N,+3V3*%
X196835000Y-107385000D03*
D18*
%TO.P,J3,2,Pin_2*%
%TO.N,RELAY_FAN*%
X194295000Y-107385000D03*
%TO.P,J3,3,Pin_3*%
%TO.N,GND*%
X191755000Y-107385000D03*
%TD*%
D19*
%TO.P,U1,1,IN*%
%TO.N,V_ALL+*%
X165620620Y-101879240D03*
D20*
%TO.P,U1,2,GND*%
%TO.N,GND*%
X165620620Y-99339240D03*
%TO.P,U1,3,OUT*%
%TO.N,Net-(U1-OUT)*%
X165620620Y-96799240D03*
%TD*%
D19*
%TO.P,U2,1,IN*%
%TO.N,V_ALL+*%
X165615620Y-78374240D03*
D20*
%TO.P,U2,2,GND*%
%TO.N,GND*%
X165615620Y-75834240D03*
%TO.P,U2,3,OUT*%
%TO.N,Net-(U2-OUT)*%
X165615620Y-73294240D03*
%TD*%
D21*
%TO.P,D7,1,K*%
%TO.N,TC_sck*%
X198730000Y-84455000D03*
D22*
%TO.P,D7,2,A*%
%TO.N,Net-(D7-A)*%
X191110000Y-84455000D03*
%TD*%
D17*
%TO.P,J2,1,Pin_1*%
%TO.N,TC_sck*%
X224028000Y-85598000D03*
D18*
%TO.P,J2,2,Pin_2*%
%TO.N,TC_so*%
X224028000Y-88138000D03*
%TO.P,J2,3,Pin_3*%
%TO.N,TC_cs*%
X224028000Y-90678000D03*
%TO.P,J2,4,Pin_4*%
%TO.N,GND*%
X224028000Y-93218000D03*
%TO.P,J2,5,Pin_5*%
%TO.N,+3V3*%
X224028000Y-95758000D03*
%TO.P,J2,6,Pin_6*%
%TO.N,unconnected-(J2-Pin_6-Pad6)*%
X224028000Y-98298000D03*
%TD*%
D23*
%TO.P,J5,S1,SHIELD*%
%TO.N,GND*%
X162050000Y-112465000D03*
D24*
X162050000Y-116645000D03*
D23*
X170690000Y-112465000D03*
D24*
X170690000Y-116645000D03*
%TD*%
D21*
%TO.P,D8,1,K*%
%TO.N,TC_cs*%
X198730000Y-90170000D03*
D22*
%TO.P,D8,2,A*%
%TO.N,Net-(D8-A)*%
X191110000Y-90170000D03*
%TD*%
D12*
%TO.P,J6,1*%
%TO.N,V_ALL+*%
X214932000Y-111634000D03*
D13*
%TO.P,J6,2*%
%TO.N,GND*%
X220932000Y-111634000D03*
%TO.P,J6,3*%
%TO.N,N/C*%
X217932000Y-106934000D03*
%TD*%
D25*
%TO.N,+5V*%
X123571000Y-70358000D03*
X161544000Y-102616000D03*
X121614013Y-77234013D03*
X121990000Y-84530000D03*
X153162000Y-75819000D03*
X185674000Y-95885000D03*
X165100000Y-109728000D03*
X127635000Y-70358000D03*
X109474000Y-75438000D03*
X168914653Y-109224653D03*
X141478000Y-73279000D03*
X109347000Y-91400000D03*
%TO.N,+3V3*%
X196088000Y-102616000D03*
X136144000Y-102108000D03*
X209042000Y-104902000D03*
X209042000Y-100584000D03*
X191516000Y-76454000D03*
X175970000Y-105170000D03*
X147520000Y-102870000D03*
X191389000Y-70993000D03*
X122174000Y-108458000D03*
X196088000Y-104902000D03*
X188214000Y-101092000D03*
X144907000Y-102870000D03*
%TO.N,Net-(U8-EN)*%
X145096000Y-100711000D03*
X152077380Y-97056760D03*
%TO.N,TC_sck*%
X155956000Y-82550000D03*
X196596000Y-87122000D03*
%TO.N,TC_cs*%
X145161000Y-92710000D03*
%TO.N,Net-(D8-A)*%
X186436000Y-83820000D03*
X184150000Y-79248000D03*
%TO.N,Net-(DS1-LEDA)*%
X148082000Y-62230000D03*
X141986000Y-61468000D03*
%TO.N,RELAY_COIL*%
X135001000Y-115339400D03*
X152781000Y-115297540D03*
%TO.N,RELAY_FAN*%
X137160000Y-114681000D03*
X151892000Y-114681000D03*
%TO.N,Net-(J5-CC2)*%
X179578000Y-106680000D03*
X173228000Y-106680000D03*
%TO.N,LCD_scl*%
X134366000Y-74168000D03*
X138938000Y-84582000D03*
%TO.N,LCD_sda*%
X135128000Y-75692000D03*
X140970000Y-90170000D03*
X119690000Y-88260000D03*
X116170000Y-88320000D03*
%TO.N,Net-(JP1-B)*%
X127508000Y-80010000D03*
X126071600Y-74600000D03*
X122100000Y-79520000D03*
%TO.N,Net-(JP2-B)*%
X127780000Y-78540000D03*
X126730000Y-77200000D03*
%TD*%
D26*
%TO.N,+5V*%
X120160000Y-77090000D02*
X120160000Y-82700000D01*
X123571000Y-70358000D02*
X127635000Y-70358000D01*
X109474000Y-75438000D02*
X109474000Y-77090000D01*
X141478000Y-73279000D02*
X130556000Y-73279000D01*
X161544000Y-102616000D02*
X161544000Y-105918000D01*
X120160000Y-77090000D02*
X121470000Y-77090000D01*
X170434000Y-105918000D02*
X168910000Y-105918000D01*
X161544000Y-106172000D02*
X161544000Y-105918000D01*
X168910000Y-109220000D02*
X168910000Y-105918000D01*
X168914653Y-109224653D02*
X168910000Y-109220000D01*
X180467000Y-95885000D02*
X170434000Y-105918000D01*
X144018000Y-75819000D02*
X141478000Y-73279000D01*
X185674000Y-95885000D02*
X180467000Y-95885000D01*
X168910000Y-105918000D02*
X161544000Y-105918000D01*
X109474000Y-91273000D02*
X109347000Y-91400000D01*
X109474000Y-77090000D02*
X109474000Y-91273000D01*
X130556000Y-73279000D02*
X127635000Y-70358000D01*
X121470000Y-77090000D02*
X121614013Y-77234013D01*
X120160000Y-82700000D02*
X121990000Y-84530000D01*
X153162000Y-75819000D02*
X144018000Y-75819000D01*
X109474000Y-77090000D02*
X120160000Y-77090000D01*
X165100000Y-109728000D02*
X161544000Y-106172000D01*
%TO.N,+3V3*%
X191516000Y-76454000D02*
X191516000Y-71120000D01*
X191516000Y-71120000D02*
X191389000Y-70993000D01*
X122555000Y-108458000D02*
X128905000Y-102108000D01*
X122174000Y-108458000D02*
X122555000Y-108458000D01*
X196088000Y-102616000D02*
X196088000Y-104902000D01*
X175970000Y-105170000D02*
X175984000Y-105156000D01*
X184150000Y-105156000D02*
X188214000Y-101092000D01*
X147520000Y-102870000D02*
X144907000Y-102870000D01*
X175984000Y-105156000D02*
X184150000Y-105156000D01*
X128905000Y-102108000D02*
X136144000Y-102108000D01*
X209042000Y-100584000D02*
X209042000Y-104902000D01*
%TO.N,Net-(U8-EN)*%
X146972240Y-98834760D02*
X150299380Y-98834760D01*
X150299380Y-98834760D02*
X152077380Y-97056760D01*
X145096000Y-100711000D02*
X146972240Y-98834760D01*
%TO.N,TC_sck*%
X155956000Y-82550000D02*
X156464000Y-82550000D01*
X189597005Y-87122000D02*
X196596000Y-87122000D01*
X156464000Y-82550000D02*
X160782000Y-86868000D01*
X189343005Y-86868000D02*
X189597005Y-87122000D01*
X160782000Y-86868000D02*
X189343005Y-86868000D01*
%TO.N,TC_cs*%
X145161000Y-92710000D02*
X196190000Y-92710000D01*
X196190000Y-92710000D02*
X198730000Y-90170000D01*
%TO.N,Net-(D8-A)*%
X184150000Y-79248000D02*
X184150000Y-81534000D01*
X184150000Y-81534000D02*
X186436000Y-83820000D01*
%TO.N,Net-(DS1-LEDA)*%
X147320000Y-61468000D02*
X148082000Y-62230000D01*
X141986000Y-61468000D02*
X147320000Y-61468000D01*
%TO.N,RELAY_COIL*%
X152781000Y-115297540D02*
X152781000Y-114723119D01*
X152781000Y-114723119D02*
X152164719Y-115339400D01*
X152164719Y-115339400D02*
X135001000Y-115339400D01*
%TO.N,RELAY_FAN*%
X137160000Y-114681000D02*
X151892000Y-114681000D01*
%TO.N,Net-(J5-CC2)*%
X173228000Y-106680000D02*
X179578000Y-106680000D01*
%TO.N,LCD_scl*%
X133387000Y-75147000D02*
X134366000Y-74168000D01*
X138430000Y-84582000D02*
X133387000Y-79539000D01*
X133387000Y-79539000D02*
X133387000Y-75147000D01*
X138938000Y-84582000D02*
X138430000Y-84582000D01*
%TO.N,LCD_sda*%
X135128000Y-75692000D02*
X135128000Y-77724000D01*
X116170000Y-88320000D02*
X119630000Y-88320000D01*
X119630000Y-88320000D02*
X119690000Y-88260000D01*
X140970000Y-83566000D02*
X140970000Y-90170000D01*
X135128000Y-77724000D02*
X140970000Y-83566000D01*
X140970000Y-90424000D02*
X140970000Y-90170000D01*
%TO.N,Net-(JP1-B)*%
X122660000Y-80080000D02*
X126360000Y-80080000D01*
X122100000Y-79520000D02*
X122660000Y-80080000D01*
X126071600Y-74600000D02*
X126071600Y-79791600D01*
X127438000Y-80080000D02*
X127508000Y-80010000D01*
X126360000Y-80080000D02*
X127438000Y-80080000D01*
X126071600Y-79791600D02*
X126360000Y-80080000D01*
%TO.N,Net-(JP2-B)*%
X127780000Y-78250000D02*
X126730000Y-77200000D01*
X127780000Y-78540000D02*
X127780000Y-78250000D01*
%TD*%
%TA.AperFunction,Conductor*%
%TO.N,GND*%
G36*
X228796342Y-50819685D02*
G01*
X228842097Y-50872489D01*
X228853300Y-50924693D01*
X228605778Y-95066313D01*
X228473690Y-118621936D01*
X228453630Y-118688864D01*
X228400570Y-118734322D01*
X228349936Y-118745241D01*
X99311013Y-118998756D01*
X99243935Y-118979203D01*
X99198076Y-118926489D01*
X99186769Y-118874987D01*
X99180185Y-115339400D01*
X134140184Y-115339400D01*
X134158995Y-115518374D01*
X134214605Y-115689525D01*
X134304585Y-115845375D01*
X134425002Y-115979111D01*
X134570592Y-116084889D01*
X134734993Y-116158085D01*
X134734996Y-116158085D01*
X134734997Y-116158086D01*
X134763128Y-116164065D01*
X134911020Y-116195500D01*
X135090980Y-116195500D01*
X135267007Y-116158085D01*
X135431408Y-116084889D01*
X135576998Y-115979111D01*
X135577003Y-115979104D01*
X135581828Y-115974762D01*
X135583506Y-115976626D01*
X135633390Y-115945884D01*
X135666071Y-115941500D01*
X152117139Y-115941500D01*
X152133324Y-115942561D01*
X152164718Y-115946694D01*
X152172846Y-115946694D01*
X152172846Y-115949095D01*
X152229809Y-115957977D01*
X152249847Y-115969834D01*
X152350586Y-116043025D01*
X152350592Y-116043029D01*
X152514993Y-116116225D01*
X152514996Y-116116225D01*
X152514997Y-116116226D01*
X152543128Y-116122205D01*
X152691020Y-116153640D01*
X152870980Y-116153640D01*
X153047007Y-116116225D01*
X153211408Y-116043029D01*
X153356998Y-115937251D01*
X153477415Y-115803515D01*
X153567395Y-115647665D01*
X153623005Y-115476514D01*
X153641816Y-115297540D01*
X153623005Y-115118566D01*
X153567395Y-114947415D01*
X153477415Y-114791565D01*
X153409348Y-114715970D01*
X153379120Y-114652981D01*
X153378561Y-114649185D01*
X153375543Y-114626262D01*
X153367602Y-114565939D01*
X153306933Y-114419472D01*
X153210422Y-114293697D01*
X153084648Y-114197186D01*
X153084645Y-114197185D01*
X153084643Y-114197183D01*
X152938183Y-114136518D01*
X152938178Y-114136516D01*
X152781001Y-114115824D01*
X152780999Y-114115824D01*
X152625849Y-114136249D01*
X152556813Y-114125483D01*
X152517514Y-114096282D01*
X152467999Y-114041290D01*
X152322411Y-113935513D01*
X152322410Y-113935512D01*
X152322408Y-113935511D01*
X152158007Y-113862315D01*
X152158006Y-113862314D01*
X152158002Y-113862313D01*
X151981980Y-113824900D01*
X151802020Y-113824900D01*
X151625997Y-113862313D01*
X151461588Y-113935513D01*
X151315999Y-114041291D01*
X151311172Y-114045638D01*
X151309493Y-114043773D01*
X151259610Y-114074516D01*
X151226929Y-114078900D01*
X137825071Y-114078900D01*
X137758032Y-114059215D01*
X137741362Y-114045044D01*
X137740828Y-114045638D01*
X137736000Y-114041291D01*
X137735999Y-114041290D01*
X137735998Y-114041289D01*
X137590408Y-113935511D01*
X137426007Y-113862315D01*
X137426006Y-113862314D01*
X137426002Y-113862313D01*
X137249980Y-113824900D01*
X137070020Y-113824900D01*
X136893997Y-113862313D01*
X136729588Y-113935513D01*
X136584000Y-114041290D01*
X136463584Y-114175026D01*
X136373604Y-114330876D01*
X136317996Y-114502022D01*
X136317995Y-114502024D01*
X136317995Y-114502026D01*
X136304936Y-114626264D01*
X136278353Y-114690876D01*
X136221056Y-114730861D01*
X136181617Y-114737300D01*
X135666071Y-114737300D01*
X135599032Y-114717615D01*
X135582362Y-114703444D01*
X135581828Y-114704038D01*
X135577000Y-114699691D01*
X135576999Y-114699690D01*
X135576998Y-114699689D01*
X135431408Y-114593911D01*
X135267007Y-114520715D01*
X135267006Y-114520714D01*
X135267002Y-114520713D01*
X135090980Y-114483300D01*
X134911020Y-114483300D01*
X134734997Y-114520713D01*
X134734993Y-114520715D01*
X134633421Y-114565938D01*
X134570588Y-114593913D01*
X134425000Y-114699690D01*
X134304584Y-114833426D01*
X134214604Y-114989276D01*
X134158996Y-115160422D01*
X134158995Y-115160424D01*
X134158995Y-115160426D01*
X134140184Y-115339400D01*
X99180185Y-115339400D01*
X99178745Y-114565938D01*
X99175687Y-112923516D01*
X162820594Y-112923516D01*
X162830993Y-113088804D01*
X162830993Y-113088807D01*
X162859431Y-113176328D01*
X162882172Y-113246317D01*
X162970914Y-113386152D01*
X163091644Y-113499526D01*
X163091647Y-113499528D01*
X163091649Y-113499529D01*
X163236772Y-113579311D01*
X163236776Y-113579313D01*
X163397191Y-113620500D01*
X163397195Y-113620500D01*
X163521240Y-113620500D01*
X163521242Y-113620500D01*
X163521247Y-113620499D01*
X163521251Y-113620499D01*
X163534590Y-113618813D01*
X163644312Y-113604953D01*
X163798299Y-113543985D01*
X163932287Y-113446637D01*
X164037856Y-113319026D01*
X164108373Y-113169171D01*
X164139406Y-113006486D01*
X164134186Y-112923516D01*
X168600594Y-112923516D01*
X168610993Y-113088804D01*
X168610993Y-113088807D01*
X168639431Y-113176328D01*
X168662172Y-113246317D01*
X168750914Y-113386152D01*
X168871644Y-113499526D01*
X168871647Y-113499528D01*
X168871649Y-113499529D01*
X169016772Y-113579311D01*
X169016776Y-113579313D01*
X169177191Y-113620500D01*
X169177195Y-113620500D01*
X169301240Y-113620500D01*
X169301242Y-113620500D01*
X169301247Y-113620499D01*
X169301251Y-113620499D01*
X169314590Y-113618813D01*
X169424312Y-113604953D01*
X169578299Y-113543985D01*
X169712287Y-113446637D01*
X169817856Y-113319026D01*
X169888373Y-113169171D01*
X169919406Y-113006486D01*
X169917857Y-112981870D01*
X213131500Y-112981870D01*
X213131501Y-112981876D01*
X213137908Y-113041483D01*
X213188202Y-113176328D01*
X213188206Y-113176335D01*
X213274452Y-113291544D01*
X213274455Y-113291547D01*
X213389664Y-113377793D01*
X213389671Y-113377797D01*
X213524517Y-113428091D01*
X213524516Y-113428091D01*
X213531444Y-113428835D01*
X213584127Y-113434500D01*
X216279872Y-113434499D01*
X216339483Y-113428091D01*
X216474331Y-113377796D01*
X216589546Y-113291546D01*
X216675796Y-113176331D01*
X216726091Y-113041483D01*
X216732500Y-112981873D01*
X216732499Y-110286128D01*
X216726893Y-110233975D01*
X216726091Y-110226516D01*
X216675797Y-110091671D01*
X216675793Y-110091664D01*
X216589547Y-109976455D01*
X216589544Y-109976452D01*
X216474335Y-109890206D01*
X216474328Y-109890202D01*
X216339482Y-109839908D01*
X216339483Y-109839908D01*
X216279883Y-109833501D01*
X216279881Y-109833500D01*
X216279873Y-109833500D01*
X216279864Y-109833500D01*
X213584129Y-109833500D01*
X213584123Y-109833501D01*
X213524516Y-109839908D01*
X213389671Y-109890202D01*
X213389664Y-109890206D01*
X213274455Y-109976452D01*
X213274452Y-109976455D01*
X213188206Y-110091664D01*
X213188202Y-110091671D01*
X213137908Y-110226517D01*
X213131501Y-110286116D01*
X213131501Y-110286123D01*
X213131500Y-110286135D01*
X213131500Y-112981870D01*
X169917857Y-112981870D01*
X169909007Y-112841195D01*
X169857828Y-112683683D01*
X169769086Y-112543848D01*
X169648356Y-112430474D01*
X169648353Y-112430472D01*
X169648350Y-112430470D01*
X169503227Y-112350688D01*
X169503217Y-112350685D01*
X169342812Y-112309500D01*
X169342809Y-112309500D01*
X169218758Y-112309500D01*
X169218748Y-112309500D01*
X169095688Y-112325047D01*
X169095686Y-112325047D01*
X168941702Y-112386014D01*
X168941693Y-112386019D01*
X168807715Y-112483360D01*
X168807712Y-112483363D01*
X168702144Y-112610972D01*
X168631626Y-112760831D01*
X168600594Y-112923516D01*
X164134186Y-112923516D01*
X164129007Y-112841195D01*
X164077828Y-112683683D01*
X163989086Y-112543848D01*
X163868356Y-112430474D01*
X163868353Y-112430472D01*
X163868350Y-112430470D01*
X163723227Y-112350688D01*
X163723217Y-112350685D01*
X163562812Y-112309500D01*
X163562809Y-112309500D01*
X163438758Y-112309500D01*
X163438748Y-112309500D01*
X163315688Y-112325047D01*
X163315686Y-112325047D01*
X163161702Y-112386014D01*
X163161693Y-112386019D01*
X163027715Y-112483360D01*
X163027712Y-112483363D01*
X162922144Y-112610972D01*
X162851626Y-112760831D01*
X162820594Y-112923516D01*
X99175687Y-112923516D01*
X99167371Y-108458000D01*
X121313184Y-108458000D01*
X121331995Y-108636975D01*
X121331996Y-108636977D01*
X121364007Y-108735499D01*
X121387605Y-108808125D01*
X121477585Y-108963975D01*
X121598002Y-109097711D01*
X121743592Y-109203489D01*
X121907993Y-109276685D01*
X121907996Y-109276685D01*
X121907997Y-109276686D01*
X121936128Y-109282665D01*
X122084020Y-109314100D01*
X122263980Y-109314100D01*
X122440007Y-109276685D01*
X122604408Y-109203489D01*
X122749998Y-109097711D01*
X122832587Y-109005985D01*
X122852779Y-108989637D01*
X122852199Y-108988881D01*
X122946718Y-108916354D01*
X122946719Y-108916353D01*
X122960939Y-108905442D01*
X122960945Y-108905436D01*
X122963673Y-108903342D01*
X122984422Y-108887422D01*
X123003711Y-108862283D01*
X123014390Y-108850106D01*
X125288941Y-106575556D01*
X125350262Y-106542073D01*
X125419954Y-106547057D01*
X125475887Y-106588929D01*
X125500304Y-106654393D01*
X125500620Y-106663239D01*
X125500620Y-111669240D01*
X143500620Y-111669240D01*
X143500620Y-105719240D01*
X126444620Y-105719240D01*
X126377581Y-105699555D01*
X126331826Y-105646751D01*
X126321882Y-105577593D01*
X126350907Y-105514037D01*
X126356939Y-105507559D01*
X129118079Y-102746419D01*
X129179402Y-102712934D01*
X129205760Y-102710100D01*
X135478929Y-102710100D01*
X135545968Y-102729785D01*
X135562637Y-102743955D01*
X135563172Y-102743362D01*
X135567999Y-102747708D01*
X135568002Y-102747711D01*
X135713592Y-102853489D01*
X135877993Y-102926685D01*
X135877996Y-102926685D01*
X135877997Y-102926686D01*
X135906128Y-102932665D01*
X136054020Y-102964100D01*
X136233980Y-102964100D01*
X136410007Y-102926685D01*
X136537324Y-102870000D01*
X144046184Y-102870000D01*
X144064995Y-103048975D01*
X144064996Y-103048977D01*
X144116431Y-103207281D01*
X144120605Y-103220125D01*
X144210585Y-103375975D01*
X144331002Y-103509711D01*
X144476592Y-103615489D01*
X144640993Y-103688685D01*
X144640996Y-103688685D01*
X144640997Y-103688686D01*
X144669128Y-103694665D01*
X144817020Y-103726100D01*
X144996980Y-103726100D01*
X145173007Y-103688685D01*
X145337408Y-103615489D01*
X145482998Y-103509711D01*
X145483003Y-103509704D01*
X145487828Y-103505362D01*
X145489506Y-103507226D01*
X145539390Y-103476484D01*
X145572071Y-103472100D01*
X146854929Y-103472100D01*
X146921968Y-103491785D01*
X146938637Y-103505955D01*
X146939172Y-103505362D01*
X146943999Y-103509708D01*
X146944002Y-103509711D01*
X147089592Y-103615489D01*
X147253993Y-103688685D01*
X147253996Y-103688685D01*
X147253997Y-103688686D01*
X147282128Y-103694665D01*
X147430020Y-103726100D01*
X147609980Y-103726100D01*
X147786007Y-103688685D01*
X147950408Y-103615489D01*
X148095998Y-103509711D01*
X148216415Y-103375975D01*
X148306395Y-103220125D01*
X148362005Y-103048974D01*
X148380816Y-102870000D01*
X148362005Y-102691026D01*
X148337628Y-102616000D01*
X160683184Y-102616000D01*
X160701995Y-102794975D01*
X160701996Y-102794977D01*
X160756946Y-102964099D01*
X160757605Y-102966125D01*
X160847585Y-103121975D01*
X160910049Y-103191347D01*
X160940279Y-103254338D01*
X160941900Y-103274320D01*
X160941900Y-105870413D01*
X160940839Y-105886598D01*
X160937036Y-105915489D01*
X160936705Y-105918000D01*
X160938879Y-105934511D01*
X160940839Y-105949400D01*
X160941900Y-105965586D01*
X160941900Y-106124420D01*
X160940839Y-106140605D01*
X160936706Y-106171997D01*
X160941369Y-106207422D01*
X160941392Y-106207604D01*
X160957397Y-106329178D01*
X160957398Y-106329180D01*
X161018065Y-106475644D01*
X161018066Y-106475646D01*
X161018067Y-106475647D01*
X161028759Y-106489581D01*
X161090349Y-106569848D01*
X161114576Y-106601420D01*
X161114579Y-106601423D01*
X161139708Y-106620706D01*
X161151901Y-106631399D01*
X164207039Y-109686537D01*
X164240524Y-109747860D01*
X164242679Y-109761255D01*
X164257995Y-109906974D01*
X164257996Y-109906977D01*
X164280570Y-109976455D01*
X164313605Y-110078125D01*
X164403585Y-110233975D01*
X164524002Y-110367711D01*
X164669592Y-110473489D01*
X164833993Y-110546685D01*
X164833996Y-110546685D01*
X164833997Y-110546686D01*
X164862128Y-110552665D01*
X165010020Y-110584100D01*
X165189980Y-110584100D01*
X165366007Y-110546685D01*
X165530408Y-110473489D01*
X165675998Y-110367711D01*
X165796415Y-110233975D01*
X165886395Y-110078125D01*
X165942005Y-109906974D01*
X165960816Y-109728000D01*
X165942005Y-109549026D01*
X165886395Y-109377875D01*
X165796415Y-109222025D01*
X165675998Y-109088289D01*
X165540216Y-108989637D01*
X165530411Y-108982513D01*
X165530410Y-108982512D01*
X165530408Y-108982511D01*
X165366007Y-108909315D01*
X165366006Y-108909314D01*
X165366002Y-108909313D01*
X165189980Y-108871900D01*
X165146760Y-108871900D01*
X165079721Y-108852215D01*
X165059079Y-108835581D01*
X162955279Y-106731781D01*
X162921794Y-106670458D01*
X162926778Y-106600766D01*
X162968650Y-106544833D01*
X163034114Y-106520416D01*
X163042960Y-106520100D01*
X168183900Y-106520100D01*
X168250939Y-106539785D01*
X168296694Y-106592589D01*
X168307900Y-106644100D01*
X168307900Y-108571499D01*
X168288215Y-108638538D01*
X168276050Y-108654471D01*
X168218237Y-108718679D01*
X168128257Y-108874529D01*
X168072649Y-109045675D01*
X168072648Y-109045677D01*
X168053837Y-109224653D01*
X168072648Y-109403628D01*
X168072649Y-109403630D01*
X168119890Y-109549026D01*
X168128258Y-109574778D01*
X168218238Y-109730628D01*
X168245815Y-109761255D01*
X168316635Y-109839909D01*
X168338655Y-109864364D01*
X168484245Y-109970142D01*
X168648646Y-110043338D01*
X168648649Y-110043338D01*
X168648650Y-110043339D01*
X168676781Y-110049318D01*
X168824673Y-110080753D01*
X169004633Y-110080753D01*
X169180660Y-110043338D01*
X169345061Y-109970142D01*
X169490651Y-109864364D01*
X169611068Y-109730628D01*
X169701048Y-109574778D01*
X169756658Y-109403627D01*
X169775469Y-109224653D01*
X169756658Y-109045679D01*
X169701048Y-108874528D01*
X169611068Y-108718678D01*
X169575159Y-108678797D01*
X169543950Y-108644135D01*
X169513720Y-108581143D01*
X169512100Y-108561163D01*
X169512100Y-106680000D01*
X172367184Y-106680000D01*
X172385995Y-106858975D01*
X172385996Y-106858977D01*
X172410373Y-106934004D01*
X172441605Y-107030125D01*
X172531585Y-107185975D01*
X172652002Y-107319711D01*
X172797592Y-107425489D01*
X172961993Y-107498685D01*
X172961996Y-107498685D01*
X172961997Y-107498686D01*
X172990128Y-107504665D01*
X173138020Y-107536100D01*
X173317980Y-107536100D01*
X173494007Y-107498685D01*
X173658408Y-107425489D01*
X173803998Y-107319711D01*
X173804003Y-107319704D01*
X173808828Y-107315362D01*
X173810506Y-107317226D01*
X173860390Y-107286484D01*
X173893071Y-107282100D01*
X178912929Y-107282100D01*
X178979968Y-107301785D01*
X178996637Y-107315955D01*
X178997172Y-107315362D01*
X179001999Y-107319708D01*
X179002002Y-107319711D01*
X179147592Y-107425489D01*
X179311993Y-107498685D01*
X179311996Y-107498685D01*
X179311997Y-107498686D01*
X179340128Y-107504665D01*
X179488020Y-107536100D01*
X179667980Y-107536100D01*
X179844007Y-107498685D01*
X180008408Y-107425489D01*
X180064136Y-107385000D01*
X192939341Y-107385000D01*
X192959936Y-107620403D01*
X192959938Y-107620413D01*
X193021094Y-107848655D01*
X193021096Y-107848659D01*
X193021097Y-107848663D01*
X193069296Y-107952025D01*
X193120965Y-108062830D01*
X193120967Y-108062834D01*
X193190464Y-108162085D01*
X193256505Y-108256401D01*
X193423599Y-108423495D01*
X193520384Y-108491265D01*
X193617165Y-108559032D01*
X193617167Y-108559033D01*
X193617170Y-108559035D01*
X193831337Y-108658903D01*
X194059592Y-108720063D01*
X194236034Y-108735500D01*
X194294999Y-108740659D01*
X194295000Y-108740659D01*
X194295001Y-108740659D01*
X194353966Y-108735500D01*
X194530408Y-108720063D01*
X194758663Y-108658903D01*
X194972830Y-108559035D01*
X195166401Y-108423495D01*
X195288329Y-108301566D01*
X195349648Y-108268084D01*
X195419340Y-108273068D01*
X195475274Y-108314939D01*
X195492189Y-108345917D01*
X195541202Y-108477328D01*
X195541206Y-108477335D01*
X195627452Y-108592544D01*
X195627455Y-108592547D01*
X195742664Y-108678793D01*
X195742671Y-108678797D01*
X195877517Y-108729091D01*
X195877516Y-108729091D01*
X195884444Y-108729835D01*
X195937127Y-108735500D01*
X197732872Y-108735499D01*
X197792483Y-108729091D01*
X197927331Y-108678796D01*
X198042546Y-108592546D01*
X198128796Y-108477331D01*
X198179091Y-108342483D01*
X198185500Y-108282873D01*
X198185499Y-107385000D01*
X205004341Y-107385000D01*
X205024936Y-107620403D01*
X205024938Y-107620413D01*
X205086094Y-107848655D01*
X205086096Y-107848659D01*
X205086097Y-107848663D01*
X205134296Y-107952025D01*
X205185965Y-108062830D01*
X205185967Y-108062834D01*
X205255464Y-108162085D01*
X205321505Y-108256401D01*
X205488599Y-108423495D01*
X205585384Y-108491265D01*
X205682165Y-108559032D01*
X205682167Y-108559033D01*
X205682170Y-108559035D01*
X205896337Y-108658903D01*
X206124592Y-108720063D01*
X206301034Y-108735500D01*
X206359999Y-108740659D01*
X206360000Y-108740659D01*
X206360001Y-108740659D01*
X206418966Y-108735500D01*
X206595408Y-108720063D01*
X206823663Y-108658903D01*
X207037830Y-108559035D01*
X207231401Y-108423495D01*
X207353329Y-108301566D01*
X207414648Y-108268084D01*
X207484340Y-108273068D01*
X207540274Y-108314939D01*
X207557189Y-108345917D01*
X207606202Y-108477328D01*
X207606206Y-108477335D01*
X207692452Y-108592544D01*
X207692455Y-108592547D01*
X207807664Y-108678793D01*
X207807671Y-108678797D01*
X207942517Y-108729091D01*
X207942516Y-108729091D01*
X207949444Y-108729835D01*
X208002127Y-108735500D01*
X209797872Y-108735499D01*
X209857483Y-108729091D01*
X209992331Y-108678796D01*
X210107546Y-108592546D01*
X210193796Y-108477331D01*
X210244091Y-108342483D01*
X210250500Y-108282873D01*
X210250499Y-106934004D01*
X216126451Y-106934004D01*
X216146616Y-107203101D01*
X216206664Y-107466188D01*
X216206666Y-107466195D01*
X216284547Y-107664632D01*
X216305257Y-107717398D01*
X216440185Y-107951102D01*
X216529289Y-108062834D01*
X216608442Y-108162089D01*
X216795183Y-108335358D01*
X216806259Y-108345635D01*
X217029226Y-108497651D01*
X217272359Y-108614738D01*
X217530228Y-108694280D01*
X217530229Y-108694280D01*
X217530232Y-108694281D01*
X217797063Y-108734499D01*
X217797068Y-108734499D01*
X217797071Y-108734500D01*
X217797072Y-108734500D01*
X218066928Y-108734500D01*
X218066929Y-108734500D01*
X218066936Y-108734499D01*
X218333767Y-108694281D01*
X218333768Y-108694280D01*
X218333772Y-108694280D01*
X218591641Y-108614738D01*
X218834775Y-108497651D01*
X219057741Y-108345635D01*
X219255561Y-108162085D01*
X219423815Y-107951102D01*
X219558743Y-107717398D01*
X219657334Y-107466195D01*
X219717383Y-107203103D01*
X219737549Y-106934000D01*
X219717383Y-106664897D01*
X219657334Y-106401805D01*
X219558743Y-106150602D01*
X219423815Y-105916898D01*
X219255561Y-105705915D01*
X219255560Y-105705914D01*
X219255557Y-105705910D01*
X219057741Y-105522365D01*
X219036025Y-105507559D01*
X218834775Y-105370349D01*
X218834769Y-105370346D01*
X218834768Y-105370345D01*
X218834767Y-105370344D01*
X218591643Y-105253263D01*
X218591645Y-105253263D01*
X218333773Y-105173720D01*
X218333767Y-105173718D01*
X218066936Y-105133500D01*
X218066929Y-105133500D01*
X217797071Y-105133500D01*
X217797063Y-105133500D01*
X217530232Y-105173718D01*
X217530226Y-105173720D01*
X217272358Y-105253262D01*
X217029230Y-105370346D01*
X216806258Y-105522365D01*
X216608442Y-105705910D01*
X216440185Y-105916898D01*
X216305258Y-106150599D01*
X216305256Y-106150603D01*
X216206666Y-106401804D01*
X216206664Y-106401811D01*
X216146616Y-106664898D01*
X216126451Y-106933995D01*
X216126451Y-106934004D01*
X210250499Y-106934004D01*
X210250499Y-106487128D01*
X210244091Y-106427517D01*
X210242810Y-106424083D01*
X210193797Y-106292671D01*
X210193793Y-106292664D01*
X210107547Y-106177455D01*
X210107544Y-106177452D01*
X209992335Y-106091206D01*
X209992328Y-106091202D01*
X209857482Y-106040908D01*
X209857483Y-106040908D01*
X209797883Y-106034501D01*
X209797881Y-106034500D01*
X209797873Y-106034500D01*
X209797864Y-106034500D01*
X208002129Y-106034500D01*
X208002123Y-106034501D01*
X207942516Y-106040908D01*
X207807671Y-106091202D01*
X207807664Y-106091206D01*
X207692455Y-106177452D01*
X207692452Y-106177455D01*
X207606206Y-106292664D01*
X207606203Y-106292669D01*
X207557189Y-106424083D01*
X207515317Y-106480016D01*
X207449853Y-106504433D01*
X207381580Y-106489581D01*
X207353326Y-106468430D01*
X207231402Y-106346506D01*
X207231395Y-106346501D01*
X207206655Y-106329178D01*
X207187618Y-106315848D01*
X207037834Y-106210967D01*
X207037830Y-106210965D01*
X207030232Y-106207422D01*
X206823663Y-106111097D01*
X206823659Y-106111096D01*
X206823655Y-106111094D01*
X206595413Y-106049938D01*
X206595403Y-106049936D01*
X206360001Y-106029341D01*
X206359999Y-106029341D01*
X206124596Y-106049936D01*
X206124586Y-106049938D01*
X205896344Y-106111094D01*
X205896335Y-106111098D01*
X205682171Y-106210964D01*
X205682169Y-106210965D01*
X205488597Y-106346505D01*
X205321505Y-106513597D01*
X205185965Y-106707169D01*
X205185964Y-106707171D01*
X205086098Y-106921335D01*
X205086094Y-106921344D01*
X205024938Y-107149586D01*
X205024936Y-107149596D01*
X205004341Y-107384999D01*
X205004341Y-107385000D01*
X198185499Y-107385000D01*
X198185499Y-106487128D01*
X198179091Y-106427517D01*
X198177810Y-106424083D01*
X198128797Y-106292671D01*
X198128793Y-106292664D01*
X198042547Y-106177455D01*
X198042544Y-106177452D01*
X197927335Y-106091206D01*
X197927328Y-106091202D01*
X197792482Y-106040908D01*
X197792483Y-106040908D01*
X197732883Y-106034501D01*
X197732881Y-106034500D01*
X197732873Y-106034500D01*
X197732864Y-106034500D01*
X195937129Y-106034500D01*
X195937123Y-106034501D01*
X195877516Y-106040908D01*
X195742671Y-106091202D01*
X195742664Y-106091206D01*
X195627455Y-106177452D01*
X195627452Y-106177455D01*
X195541206Y-106292664D01*
X195541203Y-106292669D01*
X195492189Y-106424083D01*
X195450317Y-106480016D01*
X195384853Y-106504433D01*
X195316580Y-106489581D01*
X195288326Y-106468430D01*
X195166402Y-106346506D01*
X195166395Y-106346501D01*
X195141655Y-106329178D01*
X195122618Y-106315848D01*
X194972834Y-106210967D01*
X194972830Y-106210965D01*
X194965232Y-106207422D01*
X194758663Y-106111097D01*
X194758659Y-106111096D01*
X194758655Y-106111094D01*
X194530413Y-106049938D01*
X194530403Y-106049936D01*
X194295001Y-106029341D01*
X194294999Y-106029341D01*
X194059596Y-106049936D01*
X194059586Y-106049938D01*
X193831344Y-106111094D01*
X193831335Y-106111098D01*
X193617171Y-106210964D01*
X193617169Y-106210965D01*
X193423597Y-106346505D01*
X193256505Y-106513597D01*
X193120965Y-106707169D01*
X193120964Y-106707171D01*
X193021098Y-106921335D01*
X193021094Y-106921344D01*
X192959938Y-107149586D01*
X192959936Y-107149596D01*
X192939341Y-107384999D01*
X192939341Y-107385000D01*
X180064136Y-107385000D01*
X180153998Y-107319711D01*
X180274415Y-107185975D01*
X180364395Y-107030125D01*
X180420005Y-106858974D01*
X180438816Y-106680000D01*
X180420005Y-106501026D01*
X180364395Y-106329875D01*
X180274415Y-106174025D01*
X180153998Y-106040289D01*
X180074343Y-105982416D01*
X180031680Y-105927088D01*
X180025701Y-105857475D01*
X180058307Y-105795680D01*
X180119146Y-105761322D01*
X180147231Y-105758100D01*
X184102420Y-105758100D01*
X184118605Y-105759161D01*
X184149999Y-105763294D01*
X184150000Y-105763294D01*
X184150001Y-105763294D01*
X184164980Y-105761322D01*
X184189455Y-105758100D01*
X184189460Y-105758100D01*
X184307180Y-105742602D01*
X184453647Y-105681933D01*
X184461412Y-105675975D01*
X184547847Y-105609651D01*
X184547848Y-105609649D01*
X184555939Y-105603441D01*
X184555945Y-105603436D01*
X184579422Y-105585422D01*
X184598708Y-105560287D01*
X184609392Y-105548105D01*
X185255497Y-104902000D01*
X195227184Y-104902000D01*
X195245995Y-105080975D01*
X195245996Y-105080977D01*
X195298773Y-105243411D01*
X195301605Y-105252125D01*
X195391585Y-105407975D01*
X195512002Y-105541711D01*
X195657592Y-105647489D01*
X195821993Y-105720685D01*
X195821996Y-105720685D01*
X195821997Y-105720686D01*
X195850128Y-105726665D01*
X195998020Y-105758100D01*
X196177980Y-105758100D01*
X196354007Y-105720685D01*
X196518408Y-105647489D01*
X196663998Y-105541711D01*
X196784415Y-105407975D01*
X196874395Y-105252125D01*
X196930005Y-105080974D01*
X196948816Y-104902000D01*
X208181184Y-104902000D01*
X208199995Y-105080975D01*
X208199996Y-105080977D01*
X208252773Y-105243411D01*
X208255605Y-105252125D01*
X208345585Y-105407975D01*
X208466002Y-105541711D01*
X208611592Y-105647489D01*
X208775993Y-105720685D01*
X208775996Y-105720685D01*
X208775997Y-105720686D01*
X208804128Y-105726665D01*
X208952020Y-105758100D01*
X209131980Y-105758100D01*
X209308007Y-105720685D01*
X209472408Y-105647489D01*
X209617998Y-105541711D01*
X209738415Y-105407975D01*
X209828395Y-105252125D01*
X209884005Y-105080974D01*
X209902816Y-104902000D01*
X209884005Y-104723026D01*
X209828395Y-104551875D01*
X209738415Y-104396025D01*
X209698156Y-104351313D01*
X209675950Y-104326650D01*
X209645720Y-104263658D01*
X209644100Y-104243678D01*
X209644100Y-101242320D01*
X209663785Y-101175281D01*
X209675951Y-101159347D01*
X209699259Y-101133461D01*
X209738415Y-101089975D01*
X209828395Y-100934125D01*
X209884005Y-100762974D01*
X209902816Y-100584000D01*
X209884005Y-100405026D01*
X209828395Y-100233875D01*
X209738415Y-100078025D01*
X209617998Y-99944289D01*
X209530133Y-99880451D01*
X209472411Y-99838513D01*
X209472410Y-99838512D01*
X209472408Y-99838511D01*
X209308007Y-99765315D01*
X209308006Y-99765314D01*
X209308002Y-99765313D01*
X209131980Y-99727900D01*
X208952020Y-99727900D01*
X208775997Y-99765313D01*
X208611588Y-99838513D01*
X208466000Y-99944290D01*
X208345584Y-100078026D01*
X208255604Y-100233876D01*
X208199996Y-100405022D01*
X208199995Y-100405024D01*
X208181184Y-100584000D01*
X208199995Y-100762975D01*
X208199996Y-100762977D01*
X208254709Y-100931369D01*
X208255605Y-100934125D01*
X208345585Y-101089975D01*
X208355000Y-101100431D01*
X208408049Y-101159347D01*
X208438279Y-101222338D01*
X208439900Y-101242320D01*
X208439900Y-104243678D01*
X208420215Y-104310717D01*
X208408050Y-104326650D01*
X208345584Y-104396025D01*
X208255604Y-104551876D01*
X208199996Y-104723022D01*
X208199995Y-104723024D01*
X208181184Y-104902000D01*
X196948816Y-104902000D01*
X196930005Y-104723026D01*
X196874395Y-104551875D01*
X196784415Y-104396025D01*
X196744156Y-104351313D01*
X196721950Y-104326650D01*
X196691720Y-104263658D01*
X196690100Y-104243678D01*
X196690100Y-103274320D01*
X196709785Y-103207281D01*
X196721951Y-103191347D01*
X196784415Y-103121975D01*
X196874395Y-102966125D01*
X196930005Y-102794974D01*
X196948816Y-102616000D01*
X196930005Y-102437026D01*
X196874395Y-102265875D01*
X196784415Y-102110025D01*
X196663998Y-101976289D01*
X196518408Y-101870511D01*
X196354007Y-101797315D01*
X196354006Y-101797314D01*
X196354002Y-101797313D01*
X196177980Y-101759900D01*
X195998020Y-101759900D01*
X195821997Y-101797313D01*
X195657588Y-101870513D01*
X195512000Y-101976290D01*
X195391584Y-102110026D01*
X195301604Y-102265876D01*
X195245996Y-102437022D01*
X195245995Y-102437024D01*
X195227184Y-102616000D01*
X195245995Y-102794975D01*
X195245996Y-102794977D01*
X195300946Y-102964099D01*
X195301605Y-102966125D01*
X195391585Y-103121975D01*
X195454049Y-103191347D01*
X195484279Y-103254338D01*
X195485900Y-103274320D01*
X195485900Y-104243678D01*
X195466215Y-104310717D01*
X195454050Y-104326650D01*
X195391584Y-104396025D01*
X195301604Y-104551876D01*
X195245996Y-104723022D01*
X195245995Y-104723024D01*
X195227184Y-104902000D01*
X185255497Y-104902000D01*
X188173079Y-101984419D01*
X188234402Y-101950934D01*
X188260760Y-101948100D01*
X188303980Y-101948100D01*
X188480007Y-101910685D01*
X188644408Y-101837489D01*
X188789998Y-101731711D01*
X188910415Y-101597975D01*
X189000395Y-101442125D01*
X189056005Y-101270974D01*
X189074816Y-101092000D01*
X189056005Y-100913026D01*
X189000395Y-100741875D01*
X188910415Y-100586025D01*
X188789998Y-100452289D01*
X188644408Y-100346511D01*
X188480007Y-100273315D01*
X188480006Y-100273314D01*
X188480002Y-100273313D01*
X188303980Y-100235900D01*
X188124020Y-100235900D01*
X187947997Y-100273313D01*
X187783588Y-100346513D01*
X187638000Y-100452290D01*
X187517584Y-100586026D01*
X187427604Y-100741876D01*
X187379484Y-100889977D01*
X187371995Y-100913026D01*
X187362358Y-101004712D01*
X187356679Y-101058743D01*
X187330094Y-101123357D01*
X187321039Y-101133461D01*
X183936921Y-104517581D01*
X183875598Y-104551066D01*
X183849240Y-104553900D01*
X176618786Y-104553900D01*
X176551747Y-104534215D01*
X176545900Y-104530218D01*
X176400411Y-104424513D01*
X176400410Y-104424512D01*
X176400408Y-104424511D01*
X176236007Y-104351315D01*
X176236006Y-104351314D01*
X176236002Y-104351313D01*
X176059980Y-104313900D01*
X175880020Y-104313900D01*
X175703997Y-104351313D01*
X175539588Y-104424513D01*
X175394000Y-104530290D01*
X175273584Y-104664026D01*
X175183604Y-104819876D01*
X175127996Y-104991022D01*
X175127995Y-104991024D01*
X175109184Y-105170000D01*
X175117815Y-105252123D01*
X175127995Y-105348974D01*
X175183605Y-105520125D01*
X175273585Y-105675975D01*
X175394002Y-105809711D01*
X175422738Y-105830589D01*
X175454385Y-105853582D01*
X175497050Y-105908913D01*
X175503029Y-105978526D01*
X175470423Y-106040321D01*
X175409584Y-106074678D01*
X175381499Y-106077900D01*
X173893071Y-106077900D01*
X173826032Y-106058215D01*
X173809362Y-106044044D01*
X173808828Y-106044638D01*
X173804000Y-106040291D01*
X173803999Y-106040290D01*
X173803998Y-106040289D01*
X173658408Y-105934511D01*
X173494007Y-105861315D01*
X173494006Y-105861314D01*
X173494002Y-105861313D01*
X173317980Y-105823900D01*
X173138020Y-105823900D01*
X172961997Y-105861313D01*
X172923307Y-105878539D01*
X172814265Y-105927088D01*
X172797588Y-105934513D01*
X172652000Y-106040290D01*
X172531584Y-106174026D01*
X172441604Y-106329876D01*
X172385996Y-106501022D01*
X172385995Y-106501024D01*
X172367184Y-106680000D01*
X169512100Y-106680000D01*
X169512100Y-106644100D01*
X169531785Y-106577061D01*
X169584589Y-106531306D01*
X169636100Y-106520100D01*
X170386420Y-106520100D01*
X170402605Y-106521161D01*
X170433999Y-106525294D01*
X170434000Y-106525294D01*
X170434001Y-106525294D01*
X170448862Y-106523337D01*
X170473455Y-106520100D01*
X170473460Y-106520100D01*
X170591180Y-106504602D01*
X170737647Y-106443933D01*
X170759041Y-106427517D01*
X170831847Y-106371651D01*
X170831847Y-106371650D01*
X170839940Y-106365441D01*
X170839945Y-106365436D01*
X170842673Y-106363342D01*
X170863422Y-106347422D01*
X170882711Y-106322283D01*
X170893390Y-106310106D01*
X178905498Y-98298000D01*
X222672341Y-98298000D01*
X222692936Y-98533403D01*
X222692938Y-98533413D01*
X222754094Y-98761655D01*
X222754096Y-98761659D01*
X222754097Y-98761663D01*
X222853965Y-98975830D01*
X222853967Y-98975834D01*
X222962281Y-99130521D01*
X222989505Y-99169401D01*
X223156599Y-99336495D01*
X223191159Y-99360694D01*
X223350165Y-99472032D01*
X223350167Y-99472033D01*
X223350170Y-99472035D01*
X223564337Y-99571903D01*
X223792592Y-99633063D01*
X223980918Y-99649539D01*
X224027999Y-99653659D01*
X224028000Y-99653659D01*
X224028001Y-99653659D01*
X224067234Y-99650226D01*
X224263408Y-99633063D01*
X224491663Y-99571903D01*
X224705830Y-99472035D01*
X224899401Y-99336495D01*
X225066495Y-99169401D01*
X225202035Y-98975830D01*
X225301903Y-98761663D01*
X225363063Y-98533408D01*
X225383659Y-98298000D01*
X225363063Y-98062592D01*
X225301903Y-97834337D01*
X225202035Y-97620171D01*
X225095547Y-97468089D01*
X225066494Y-97426597D01*
X224899402Y-97259506D01*
X224899396Y-97259501D01*
X224713842Y-97129575D01*
X224670217Y-97074998D01*
X224663023Y-97005500D01*
X224694546Y-96943145D01*
X224713842Y-96926425D01*
X224736026Y-96910891D01*
X224899401Y-96796495D01*
X225066495Y-96629401D01*
X225202035Y-96435830D01*
X225301903Y-96221663D01*
X225363063Y-95993408D01*
X225383659Y-95758000D01*
X225363063Y-95522592D01*
X225316626Y-95349285D01*
X225301905Y-95294344D01*
X225301904Y-95294343D01*
X225301903Y-95294337D01*
X225202035Y-95080171D01*
X225066495Y-94886599D01*
X225066494Y-94886597D01*
X224899402Y-94719506D01*
X224899395Y-94719501D01*
X224705834Y-94583967D01*
X224705830Y-94583965D01*
X224705828Y-94583964D01*
X224491663Y-94484097D01*
X224491659Y-94484096D01*
X224491655Y-94484094D01*
X224263413Y-94422938D01*
X224263403Y-94422936D01*
X224028001Y-94402341D01*
X224027999Y-94402341D01*
X223792596Y-94422936D01*
X223792586Y-94422938D01*
X223564344Y-94484094D01*
X223564335Y-94484098D01*
X223350171Y-94583964D01*
X223350169Y-94583965D01*
X223156597Y-94719505D01*
X222989505Y-94886597D01*
X222853965Y-95080169D01*
X222853964Y-95080171D01*
X222754098Y-95294335D01*
X222754094Y-95294344D01*
X222692938Y-95522586D01*
X222692936Y-95522596D01*
X222672341Y-95757999D01*
X222672341Y-95758000D01*
X222692936Y-95993403D01*
X222692938Y-95993413D01*
X222754094Y-96221655D01*
X222754096Y-96221659D01*
X222754097Y-96221663D01*
X222795882Y-96311271D01*
X222853965Y-96435830D01*
X222853967Y-96435834D01*
X222989501Y-96629395D01*
X222989506Y-96629402D01*
X223156597Y-96796493D01*
X223156603Y-96796498D01*
X223342158Y-96926425D01*
X223385783Y-96981002D01*
X223392977Y-97050500D01*
X223361454Y-97112855D01*
X223342158Y-97129575D01*
X223156597Y-97259505D01*
X222989505Y-97426597D01*
X222853965Y-97620169D01*
X222853964Y-97620171D01*
X222754098Y-97834335D01*
X222754094Y-97834344D01*
X222692938Y-98062586D01*
X222692936Y-98062596D01*
X222672341Y-98297999D01*
X222672341Y-98298000D01*
X178905498Y-98298000D01*
X180680079Y-96523419D01*
X180741402Y-96489934D01*
X180767760Y-96487100D01*
X185008929Y-96487100D01*
X185075968Y-96506785D01*
X185092637Y-96520955D01*
X185093172Y-96520362D01*
X185097999Y-96524708D01*
X185098002Y-96524711D01*
X185243592Y-96630489D01*
X185407993Y-96703685D01*
X185407996Y-96703685D01*
X185407997Y-96703686D01*
X185436128Y-96709665D01*
X185584020Y-96741100D01*
X185763980Y-96741100D01*
X185940007Y-96703685D01*
X186104408Y-96630489D01*
X186249998Y-96524711D01*
X186370415Y-96390975D01*
X186460395Y-96235125D01*
X186516005Y-96063974D01*
X186534816Y-95885000D01*
X186516005Y-95706026D01*
X186460395Y-95534875D01*
X186370415Y-95379025D01*
X186249998Y-95245289D01*
X186104408Y-95139511D01*
X185940007Y-95066315D01*
X185940006Y-95066314D01*
X185940002Y-95066313D01*
X185763980Y-95028900D01*
X185584020Y-95028900D01*
X185407997Y-95066313D01*
X185243588Y-95139513D01*
X185097999Y-95245291D01*
X185093172Y-95249638D01*
X185091493Y-95247773D01*
X185041610Y-95278516D01*
X185008929Y-95282900D01*
X180514586Y-95282900D01*
X180498401Y-95281839D01*
X180467000Y-95277705D01*
X180466999Y-95277705D01*
X180309821Y-95298397D01*
X180309816Y-95298399D01*
X180163354Y-95359064D01*
X180163352Y-95359066D01*
X180069156Y-95431344D01*
X180069157Y-95431345D01*
X180037578Y-95455577D01*
X180018292Y-95480710D01*
X180007601Y-95492899D01*
X170220921Y-105279581D01*
X170159598Y-105313066D01*
X170133240Y-105315900D01*
X168957586Y-105315900D01*
X168941401Y-105314839D01*
X168910000Y-105310705D01*
X168878598Y-105314839D01*
X168862414Y-105315900D01*
X162270100Y-105315900D01*
X162203061Y-105296215D01*
X162157306Y-105243411D01*
X162146100Y-105191900D01*
X162146100Y-103274320D01*
X162165785Y-103207281D01*
X162177951Y-103191347D01*
X162240415Y-103121975D01*
X162330395Y-102966125D01*
X162375563Y-102827110D01*
X164220120Y-102827110D01*
X164220121Y-102827111D01*
X164226528Y-102886723D01*
X164276822Y-103021568D01*
X164276826Y-103021575D01*
X164363072Y-103136784D01*
X164363075Y-103136787D01*
X164478284Y-103223033D01*
X164478291Y-103223037D01*
X164613137Y-103273331D01*
X164613136Y-103273331D01*
X164620064Y-103274075D01*
X164672747Y-103279740D01*
X166568492Y-103279739D01*
X166628103Y-103273331D01*
X166762951Y-103223036D01*
X166878166Y-103136786D01*
X166964416Y-103021571D01*
X167014711Y-102886723D01*
X167021120Y-102827113D01*
X167021119Y-100931368D01*
X167014711Y-100871757D01*
X166964416Y-100736909D01*
X166964415Y-100736908D01*
X166964413Y-100736904D01*
X166878167Y-100621695D01*
X166878164Y-100621692D01*
X166762955Y-100535446D01*
X166762948Y-100535442D01*
X166628102Y-100485148D01*
X166628103Y-100485148D01*
X166568503Y-100478741D01*
X166568501Y-100478740D01*
X166568493Y-100478740D01*
X166568484Y-100478740D01*
X164672749Y-100478740D01*
X164672743Y-100478741D01*
X164613136Y-100485148D01*
X164478291Y-100535442D01*
X164478284Y-100535446D01*
X164363075Y-100621692D01*
X164363072Y-100621695D01*
X164276826Y-100736904D01*
X164276822Y-100736911D01*
X164226528Y-100871757D01*
X164222092Y-100913022D01*
X164220121Y-100931363D01*
X164220120Y-100931375D01*
X164220120Y-102827110D01*
X162375563Y-102827110D01*
X162386005Y-102794974D01*
X162404816Y-102616000D01*
X162386005Y-102437026D01*
X162330395Y-102265875D01*
X162240415Y-102110025D01*
X162119998Y-101976289D01*
X161974408Y-101870511D01*
X161810007Y-101797315D01*
X161810006Y-101797314D01*
X161810002Y-101797313D01*
X161633980Y-101759900D01*
X161454020Y-101759900D01*
X161277997Y-101797313D01*
X161113588Y-101870513D01*
X160968000Y-101976290D01*
X160847584Y-102110026D01*
X160757604Y-102265876D01*
X160701996Y-102437022D01*
X160701995Y-102437024D01*
X160683184Y-102616000D01*
X148337628Y-102616000D01*
X148306395Y-102519875D01*
X148216415Y-102364025D01*
X148095998Y-102230289D01*
X147950408Y-102124511D01*
X147786007Y-102051315D01*
X147786006Y-102051314D01*
X147786002Y-102051313D01*
X147609980Y-102013900D01*
X147430020Y-102013900D01*
X147253997Y-102051313D01*
X147253993Y-102051315D01*
X147126677Y-102108000D01*
X147089588Y-102124513D01*
X146943999Y-102230291D01*
X146939172Y-102234638D01*
X146937493Y-102232773D01*
X146887610Y-102263516D01*
X146854929Y-102267900D01*
X145572071Y-102267900D01*
X145505032Y-102248215D01*
X145488362Y-102234044D01*
X145487828Y-102234638D01*
X145483000Y-102230291D01*
X145482999Y-102230290D01*
X145482998Y-102230289D01*
X145337408Y-102124511D01*
X145173007Y-102051315D01*
X145173006Y-102051314D01*
X145173002Y-102051313D01*
X144996980Y-102013900D01*
X144817020Y-102013900D01*
X144640997Y-102051313D01*
X144640993Y-102051315D01*
X144513677Y-102108000D01*
X144476588Y-102124513D01*
X144331000Y-102230290D01*
X144210584Y-102364026D01*
X144120604Y-102519876D01*
X144064996Y-102691022D01*
X144064995Y-102691024D01*
X144046184Y-102870000D01*
X136537324Y-102870000D01*
X136574408Y-102853489D01*
X136719998Y-102747711D01*
X136840415Y-102613975D01*
X136930395Y-102458125D01*
X136986005Y-102286974D01*
X137004816Y-102108000D01*
X136986005Y-101929026D01*
X136930395Y-101757875D01*
X136840415Y-101602025D01*
X136719998Y-101468289D01*
X136574408Y-101362511D01*
X136410007Y-101289315D01*
X136410006Y-101289314D01*
X136410002Y-101289313D01*
X136233980Y-101251900D01*
X136054020Y-101251900D01*
X135877997Y-101289313D01*
X135877993Y-101289315D01*
X135740096Y-101350711D01*
X135713588Y-101362513D01*
X135567999Y-101468291D01*
X135563172Y-101472638D01*
X135561493Y-101470773D01*
X135511610Y-101501516D01*
X135478929Y-101505900D01*
X128952580Y-101505900D01*
X128936395Y-101504839D01*
X128905001Y-101500706D01*
X128905000Y-101500706D01*
X128898847Y-101501516D01*
X128869576Y-101505369D01*
X128869575Y-101505368D01*
X128869564Y-101505370D01*
X128747821Y-101521397D01*
X128747819Y-101521398D01*
X128601356Y-101582065D01*
X128508806Y-101653078D01*
X128508787Y-101653095D01*
X128475578Y-101678578D01*
X128456292Y-101703710D01*
X128445601Y-101715899D01*
X122555387Y-107606113D01*
X122494064Y-107639598D01*
X122441926Y-107639723D01*
X122440007Y-107639315D01*
X122263980Y-107601900D01*
X122084020Y-107601900D01*
X121907997Y-107639313D01*
X121743588Y-107712513D01*
X121598000Y-107818290D01*
X121477584Y-107952026D01*
X121387604Y-108107876D01*
X121331996Y-108279022D01*
X121331995Y-108279024D01*
X121313184Y-108458000D01*
X99167371Y-108458000D01*
X99152944Y-100711000D01*
X144235184Y-100711000D01*
X144253995Y-100889974D01*
X144309605Y-101061125D01*
X144399585Y-101216975D01*
X144520002Y-101350711D01*
X144665592Y-101456489D01*
X144829993Y-101529685D01*
X144829996Y-101529685D01*
X144829997Y-101529686D01*
X144858128Y-101535665D01*
X145006020Y-101567100D01*
X145185980Y-101567100D01*
X145362007Y-101529685D01*
X145526408Y-101456489D01*
X145671998Y-101350711D01*
X145792415Y-101216975D01*
X145882395Y-101061125D01*
X145938005Y-100889974D01*
X145953321Y-100744251D01*
X145979903Y-100679642D01*
X145988950Y-100669546D01*
X147185319Y-99473179D01*
X147246642Y-99439694D01*
X147273000Y-99436860D01*
X150251800Y-99436860D01*
X150267985Y-99437921D01*
X150299379Y-99442054D01*
X150299380Y-99442054D01*
X150299381Y-99442054D01*
X150317307Y-99439694D01*
X150338835Y-99436860D01*
X150338840Y-99436860D01*
X150456560Y-99421362D01*
X150603027Y-99360693D01*
X150697227Y-99288411D01*
X150697227Y-99288410D01*
X150705320Y-99282201D01*
X150705325Y-99282196D01*
X150728802Y-99264182D01*
X150748085Y-99239052D01*
X150758772Y-99226865D01*
X152036459Y-97949179D01*
X152097782Y-97915694D01*
X152124140Y-97912860D01*
X152167360Y-97912860D01*
X152343387Y-97875445D01*
X152507788Y-97802249D01*
X152653378Y-97696471D01*
X152773795Y-97562735D01*
X152863775Y-97406885D01*
X152919385Y-97235734D01*
X152938196Y-97056760D01*
X152919385Y-96877786D01*
X152893866Y-96799246D01*
X164215320Y-96799246D01*
X164234484Y-97030537D01*
X164234486Y-97030548D01*
X164291462Y-97255540D01*
X164384695Y-97468088D01*
X164511636Y-97662387D01*
X164511639Y-97662391D01*
X164511641Y-97662393D01*
X164668836Y-97833153D01*
X164668839Y-97833155D01*
X164668842Y-97833158D01*
X164851985Y-97975704D01*
X164851991Y-97975708D01*
X164851994Y-97975710D01*
X165056117Y-98086176D01*
X165170107Y-98125308D01*
X165275635Y-98161537D01*
X165275637Y-98161537D01*
X165275639Y-98161538D01*
X165504571Y-98199740D01*
X165504572Y-98199740D01*
X165736668Y-98199740D01*
X165736669Y-98199740D01*
X165965601Y-98161538D01*
X166185123Y-98086176D01*
X166389246Y-97975710D01*
X166572404Y-97833153D01*
X166729599Y-97662393D01*
X166856544Y-97468089D01*
X166949777Y-97255540D01*
X167006754Y-97030545D01*
X167007338Y-97023503D01*
X167025920Y-96799246D01*
X167025920Y-96799233D01*
X167006755Y-96567942D01*
X167006753Y-96567931D01*
X166949777Y-96342939D01*
X166856544Y-96130391D01*
X166729603Y-95936092D01*
X166729600Y-95936089D01*
X166729599Y-95936087D01*
X166572404Y-95765327D01*
X166572399Y-95765323D01*
X166572397Y-95765321D01*
X166389254Y-95622775D01*
X166389248Y-95622771D01*
X166185124Y-95512304D01*
X166185115Y-95512301D01*
X165965604Y-95436942D01*
X165793902Y-95408290D01*
X165736669Y-95398740D01*
X165504571Y-95398740D01*
X165458784Y-95406380D01*
X165275635Y-95436942D01*
X165056124Y-95512301D01*
X165056115Y-95512304D01*
X164851991Y-95622771D01*
X164851985Y-95622775D01*
X164668842Y-95765321D01*
X164668839Y-95765324D01*
X164511636Y-95936092D01*
X164384695Y-96130391D01*
X164291462Y-96342939D01*
X164234486Y-96567931D01*
X164234484Y-96567942D01*
X164215320Y-96799233D01*
X164215320Y-96799246D01*
X152893866Y-96799246D01*
X152863775Y-96706635D01*
X152773795Y-96550785D01*
X152653378Y-96417049D01*
X152507788Y-96311271D01*
X152343387Y-96238075D01*
X152343386Y-96238074D01*
X152343382Y-96238073D01*
X152167360Y-96200660D01*
X151987400Y-96200660D01*
X151811377Y-96238073D01*
X151646968Y-96311273D01*
X151501380Y-96417050D01*
X151380964Y-96550786D01*
X151290984Y-96706636D01*
X151260898Y-96799233D01*
X151235375Y-96877786D01*
X151225738Y-96969472D01*
X151220059Y-97023503D01*
X151193474Y-97088117D01*
X151184419Y-97098221D01*
X150086301Y-98196341D01*
X150024978Y-98229826D01*
X149998620Y-98232660D01*
X147019820Y-98232660D01*
X147003635Y-98231599D01*
X146972241Y-98227466D01*
X146972240Y-98227466D01*
X146962446Y-98228755D01*
X146936816Y-98232129D01*
X146936815Y-98232128D01*
X146936804Y-98232130D01*
X146823370Y-98247063D01*
X146823370Y-98247064D01*
X146815060Y-98248158D01*
X146815059Y-98248158D01*
X146668596Y-98308825D01*
X146576046Y-98379838D01*
X146576027Y-98379855D01*
X146542818Y-98405338D01*
X146523532Y-98430470D01*
X146512841Y-98442659D01*
X145136921Y-99818581D01*
X145075598Y-99852066D01*
X145049240Y-99854900D01*
X145006020Y-99854900D01*
X144829997Y-99892313D01*
X144829993Y-99892315D01*
X144713258Y-99944289D01*
X144665588Y-99965513D01*
X144520000Y-100071290D01*
X144399584Y-100205026D01*
X144309604Y-100360876D01*
X144253996Y-100532022D01*
X144253995Y-100532024D01*
X144248532Y-100584000D01*
X144235184Y-100711000D01*
X99152944Y-100711000D01*
X99138044Y-92710000D01*
X144300184Y-92710000D01*
X144318995Y-92888974D01*
X144374605Y-93060125D01*
X144464585Y-93215975D01*
X144585002Y-93349711D01*
X144730592Y-93455489D01*
X144894993Y-93528685D01*
X144894996Y-93528685D01*
X144894997Y-93528686D01*
X144923128Y-93534665D01*
X145071020Y-93566100D01*
X145250980Y-93566100D01*
X145427007Y-93528685D01*
X145591408Y-93455489D01*
X145736998Y-93349711D01*
X145737003Y-93349704D01*
X145741828Y-93345362D01*
X145743506Y-93347226D01*
X145793390Y-93316484D01*
X145826071Y-93312100D01*
X196142420Y-93312100D01*
X196158605Y-93313161D01*
X196189999Y-93317294D01*
X196190000Y-93317294D01*
X196190001Y-93317294D01*
X196204862Y-93315337D01*
X196229455Y-93312100D01*
X196229460Y-93312100D01*
X196347180Y-93296602D01*
X196493647Y-93235933D01*
X196519657Y-93215975D01*
X196587847Y-93163651D01*
X196587847Y-93163650D01*
X196595940Y-93157441D01*
X196595945Y-93157436D01*
X196598673Y-93155342D01*
X196619422Y-93139422D01*
X196638711Y-93114283D01*
X196649390Y-93102106D01*
X198244679Y-91506818D01*
X198306002Y-91473333D01*
X198332360Y-91470499D01*
X199577871Y-91470499D01*
X199577872Y-91470499D01*
X199637483Y-91464091D01*
X199772331Y-91413796D01*
X199887546Y-91327546D01*
X199973796Y-91212331D01*
X200024091Y-91077483D01*
X200030500Y-91017873D01*
X200030500Y-90678000D01*
X222672341Y-90678000D01*
X222692936Y-90913403D01*
X222692938Y-90913413D01*
X222754094Y-91141655D01*
X222754096Y-91141659D01*
X222754097Y-91141663D01*
X222828196Y-91300568D01*
X222853965Y-91355830D01*
X222853967Y-91355834D01*
X222959688Y-91506818D01*
X222989505Y-91549401D01*
X223156599Y-91716495D01*
X223204625Y-91750123D01*
X223350165Y-91852032D01*
X223350167Y-91852033D01*
X223350170Y-91852035D01*
X223564337Y-91951903D01*
X223792592Y-92013063D01*
X223980918Y-92029539D01*
X224027999Y-92033659D01*
X224028000Y-92033659D01*
X224028001Y-92033659D01*
X224067234Y-92030226D01*
X224263408Y-92013063D01*
X224491663Y-91951903D01*
X224705830Y-91852035D01*
X224899401Y-91716495D01*
X225066495Y-91549401D01*
X225202035Y-91355830D01*
X225301903Y-91141663D01*
X225363063Y-90913408D01*
X225383659Y-90678000D01*
X225363063Y-90442592D01*
X225301903Y-90214337D01*
X225202035Y-90000171D01*
X225195631Y-89991024D01*
X225066494Y-89806597D01*
X224899402Y-89639506D01*
X224899396Y-89639501D01*
X224713842Y-89509575D01*
X224670217Y-89454998D01*
X224663023Y-89385500D01*
X224694546Y-89323145D01*
X224713842Y-89306425D01*
X224776550Y-89262516D01*
X224899401Y-89176495D01*
X225066495Y-89009401D01*
X225202035Y-88815830D01*
X225301903Y-88601663D01*
X225363063Y-88373408D01*
X225383659Y-88138000D01*
X225363063Y-87902592D01*
X225301903Y-87674337D01*
X225202035Y-87460171D01*
X225155654Y-87393932D01*
X225066496Y-87266600D01*
X225059993Y-87260097D01*
X224944567Y-87144671D01*
X224911084Y-87083351D01*
X224916068Y-87013659D01*
X224957939Y-86957725D01*
X224988915Y-86940810D01*
X225120331Y-86891796D01*
X225235546Y-86805546D01*
X225321796Y-86690331D01*
X225372091Y-86555483D01*
X225378500Y-86495873D01*
X225378499Y-84700128D01*
X225372091Y-84640517D01*
X225350469Y-84582546D01*
X225321797Y-84505671D01*
X225321793Y-84505664D01*
X225235547Y-84390455D01*
X225235544Y-84390452D01*
X225120335Y-84304206D01*
X225120328Y-84304202D01*
X224985482Y-84253908D01*
X224985483Y-84253908D01*
X224925883Y-84247501D01*
X224925881Y-84247500D01*
X224925873Y-84247500D01*
X224925864Y-84247500D01*
X223130129Y-84247500D01*
X223130123Y-84247501D01*
X223070516Y-84253908D01*
X222935671Y-84304202D01*
X222935664Y-84304206D01*
X222820455Y-84390452D01*
X222820452Y-84390455D01*
X222734206Y-84505664D01*
X222734202Y-84505671D01*
X222683908Y-84640517D01*
X222678915Y-84686962D01*
X222677501Y-84700123D01*
X222677500Y-84700135D01*
X222677500Y-86495870D01*
X222677501Y-86495876D01*
X222683908Y-86555483D01*
X222734202Y-86690328D01*
X222734206Y-86690335D01*
X222820452Y-86805544D01*
X222820455Y-86805547D01*
X222935664Y-86891793D01*
X222935671Y-86891797D01*
X223067081Y-86940810D01*
X223123015Y-86982681D01*
X223147432Y-87048145D01*
X223132580Y-87116418D01*
X223111430Y-87144673D01*
X222989503Y-87266600D01*
X222853965Y-87460169D01*
X222853964Y-87460171D01*
X222754098Y-87674335D01*
X222754094Y-87674344D01*
X222692938Y-87902586D01*
X222692936Y-87902596D01*
X222672341Y-88137999D01*
X222672341Y-88138000D01*
X222692936Y-88373403D01*
X222692938Y-88373413D01*
X222754094Y-88601655D01*
X222754096Y-88601659D01*
X222754097Y-88601663D01*
X222830716Y-88765973D01*
X222853965Y-88815830D01*
X222853967Y-88815834D01*
X222989501Y-89009395D01*
X222989506Y-89009402D01*
X223156597Y-89176493D01*
X223156603Y-89176498D01*
X223342158Y-89306425D01*
X223385783Y-89361002D01*
X223392977Y-89430500D01*
X223361454Y-89492855D01*
X223342158Y-89509575D01*
X223156597Y-89639505D01*
X222989505Y-89806597D01*
X222853965Y-90000169D01*
X222853964Y-90000171D01*
X222754098Y-90214335D01*
X222754094Y-90214344D01*
X222692938Y-90442586D01*
X222692936Y-90442596D01*
X222672341Y-90677999D01*
X222672341Y-90678000D01*
X200030500Y-90678000D01*
X200030499Y-89322128D01*
X200024091Y-89262517D01*
X199991859Y-89176099D01*
X199973797Y-89127671D01*
X199973793Y-89127664D01*
X199887547Y-89012455D01*
X199887544Y-89012452D01*
X199772335Y-88926206D01*
X199772328Y-88926202D01*
X199637482Y-88875908D01*
X199637483Y-88875908D01*
X199577883Y-88869501D01*
X199577881Y-88869500D01*
X199577873Y-88869500D01*
X199577864Y-88869500D01*
X197882129Y-88869500D01*
X197882123Y-88869501D01*
X197822516Y-88875908D01*
X197687671Y-88926202D01*
X197687664Y-88926206D01*
X197572455Y-89012452D01*
X197572452Y-89012455D01*
X197486206Y-89127664D01*
X197486202Y-89127671D01*
X197435908Y-89262517D01*
X197431188Y-89306425D01*
X197429501Y-89322123D01*
X197429500Y-89322135D01*
X197429500Y-90567639D01*
X197409815Y-90634678D01*
X197393181Y-90655320D01*
X195976921Y-92071581D01*
X195915598Y-92105066D01*
X195889240Y-92107900D01*
X145826071Y-92107900D01*
X145759032Y-92088215D01*
X145742362Y-92074044D01*
X145741828Y-92074638D01*
X145737000Y-92070291D01*
X145736999Y-92070290D01*
X145736998Y-92070289D01*
X145591408Y-91964511D01*
X145427007Y-91891315D01*
X145427006Y-91891314D01*
X145427002Y-91891313D01*
X145250980Y-91853900D01*
X145071020Y-91853900D01*
X144894997Y-91891313D01*
X144730588Y-91964513D01*
X144585000Y-92070290D01*
X144464584Y-92204026D01*
X144374604Y-92359876D01*
X144318996Y-92531022D01*
X144318995Y-92531024D01*
X144318995Y-92531026D01*
X144300184Y-92710000D01*
X99138044Y-92710000D01*
X99135605Y-91400000D01*
X108486184Y-91400000D01*
X108504995Y-91578974D01*
X108560605Y-91750125D01*
X108650585Y-91905975D01*
X108771002Y-92039711D01*
X108916592Y-92145489D01*
X109080993Y-92218685D01*
X109080996Y-92218685D01*
X109080997Y-92218686D01*
X109109128Y-92224665D01*
X109257020Y-92256100D01*
X109436980Y-92256100D01*
X109613007Y-92218685D01*
X109777408Y-92145489D01*
X109922998Y-92039711D01*
X110043415Y-91905975D01*
X110133395Y-91750125D01*
X110189005Y-91578974D01*
X110207816Y-91400000D01*
X110189005Y-91221026D01*
X110133395Y-91049875D01*
X110092711Y-90979409D01*
X110076100Y-90917411D01*
X110076100Y-88320000D01*
X115309184Y-88320000D01*
X115327995Y-88498974D01*
X115383605Y-88670125D01*
X115473585Y-88825975D01*
X115594002Y-88959711D01*
X115739592Y-89065489D01*
X115903993Y-89138685D01*
X115903996Y-89138685D01*
X115903997Y-89138686D01*
X115932128Y-89144665D01*
X116080020Y-89176100D01*
X116259980Y-89176100D01*
X116436007Y-89138685D01*
X116600408Y-89065489D01*
X116745998Y-88959711D01*
X116746003Y-88959704D01*
X116750828Y-88955362D01*
X116752506Y-88957226D01*
X116802390Y-88926484D01*
X116835071Y-88922100D01*
X119104527Y-88922100D01*
X119171566Y-88941785D01*
X119177413Y-88945782D01*
X119259592Y-89005489D01*
X119423993Y-89078685D01*
X119423996Y-89078685D01*
X119423997Y-89078686D01*
X119452128Y-89084665D01*
X119600020Y-89116100D01*
X119779980Y-89116100D01*
X119956007Y-89078685D01*
X120120408Y-89005489D01*
X120265998Y-88899711D01*
X120386415Y-88765975D01*
X120476395Y-88610125D01*
X120532005Y-88438974D01*
X120550816Y-88260000D01*
X120532005Y-88081026D01*
X120476395Y-87909875D01*
X120386415Y-87754025D01*
X120265998Y-87620289D01*
X120120408Y-87514511D01*
X119956007Y-87441315D01*
X119956006Y-87441314D01*
X119956002Y-87441313D01*
X119779980Y-87403900D01*
X119600020Y-87403900D01*
X119423997Y-87441313D01*
X119347675Y-87475294D01*
X119289236Y-87501313D01*
X119259588Y-87514513D01*
X119114003Y-87620288D01*
X119114002Y-87620289D01*
X119063052Y-87676874D01*
X119003567Y-87713521D01*
X118970904Y-87717900D01*
X116835071Y-87717900D01*
X116768032Y-87698215D01*
X116751362Y-87684044D01*
X116750828Y-87684638D01*
X116746000Y-87680291D01*
X116745999Y-87680290D01*
X116745998Y-87680289D01*
X116600408Y-87574511D01*
X116436007Y-87501315D01*
X116436006Y-87501314D01*
X116436002Y-87501313D01*
X116259980Y-87463900D01*
X116080020Y-87463900D01*
X115903997Y-87501313D01*
X115862365Y-87519849D01*
X115742607Y-87573169D01*
X115739588Y-87574513D01*
X115594000Y-87680290D01*
X115473584Y-87814026D01*
X115383604Y-87969876D01*
X115327996Y-88141022D01*
X115327995Y-88141024D01*
X115327995Y-88141026D01*
X115309184Y-88320000D01*
X110076100Y-88320000D01*
X110076100Y-77816100D01*
X110095785Y-77749061D01*
X110148589Y-77703306D01*
X110200100Y-77692100D01*
X119433900Y-77692100D01*
X119500939Y-77711785D01*
X119546694Y-77764589D01*
X119557900Y-77816100D01*
X119557900Y-82652420D01*
X119556839Y-82668605D01*
X119552706Y-82699997D01*
X119557369Y-82735422D01*
X119557388Y-82735575D01*
X119569442Y-82827128D01*
X119569443Y-82827132D01*
X119573397Y-82857178D01*
X119573398Y-82857180D01*
X119634065Y-83003644D01*
X119706349Y-83097848D01*
X119730576Y-83129420D01*
X119730579Y-83129423D01*
X119755708Y-83148706D01*
X119767901Y-83159399D01*
X121097039Y-84488537D01*
X121130524Y-84549860D01*
X121132679Y-84563255D01*
X121134707Y-84582544D01*
X121147995Y-84708974D01*
X121203605Y-84880125D01*
X121293585Y-85035975D01*
X121372427Y-85123537D01*
X121413002Y-85168601D01*
X121414002Y-85169711D01*
X121559592Y-85275489D01*
X121723993Y-85348685D01*
X121723996Y-85348685D01*
X121723997Y-85348686D01*
X121752128Y-85354665D01*
X121900020Y-85386100D01*
X122079980Y-85386100D01*
X122256007Y-85348685D01*
X122420408Y-85275489D01*
X122565998Y-85169711D01*
X122686415Y-85035975D01*
X122776395Y-84880125D01*
X122832005Y-84708974D01*
X122850816Y-84530000D01*
X122832005Y-84351026D01*
X122776395Y-84179875D01*
X122686415Y-84024025D01*
X122565998Y-83890289D01*
X122420408Y-83784511D01*
X122256007Y-83711315D01*
X122256006Y-83711314D01*
X122256002Y-83711313D01*
X122079980Y-83673900D01*
X122036760Y-83673900D01*
X121969721Y-83654215D01*
X121949079Y-83637581D01*
X120798419Y-82486921D01*
X120764934Y-82425598D01*
X120762100Y-82399240D01*
X120762100Y-79520000D01*
X121239184Y-79520000D01*
X121257995Y-79698975D01*
X121257996Y-79698977D01*
X121309899Y-79858721D01*
X121313605Y-79870125D01*
X121403585Y-80025975D01*
X121500015Y-80133071D01*
X121521853Y-80157325D01*
X121524002Y-80159711D01*
X121669592Y-80265489D01*
X121833993Y-80338685D01*
X121833996Y-80338685D01*
X121833997Y-80338686D01*
X121844296Y-80340875D01*
X122010020Y-80376100D01*
X122053240Y-80376100D01*
X122120279Y-80395785D01*
X122140921Y-80412419D01*
X122200599Y-80472097D01*
X122211293Y-80484290D01*
X122217896Y-80492895D01*
X122230578Y-80509422D01*
X122258932Y-80531179D01*
X122258940Y-80531186D01*
X122356351Y-80605933D01*
X122356354Y-80605935D01*
X122448711Y-80644189D01*
X122502820Y-80666602D01*
X122555213Y-80673499D01*
X122659998Y-80687295D01*
X122660000Y-80687295D01*
X122660001Y-80687295D01*
X122691402Y-80683161D01*
X122707587Y-80682100D01*
X126312420Y-80682100D01*
X126328605Y-80683161D01*
X126359999Y-80687294D01*
X126360000Y-80687294D01*
X126360001Y-80687294D01*
X126391395Y-80683161D01*
X126407580Y-80682100D01*
X126936290Y-80682100D01*
X127003329Y-80701785D01*
X127009175Y-80705782D01*
X127077585Y-80755485D01*
X127077588Y-80755486D01*
X127077592Y-80755489D01*
X127241993Y-80828685D01*
X127241996Y-80828685D01*
X127241997Y-80828686D01*
X127270128Y-80834665D01*
X127418020Y-80866100D01*
X127597980Y-80866100D01*
X127774007Y-80828685D01*
X127938408Y-80755489D01*
X128083998Y-80649711D01*
X128204415Y-80515975D01*
X128294395Y-80360125D01*
X128350005Y-80188974D01*
X128368816Y-80010000D01*
X128350005Y-79831026D01*
X128294395Y-79659875D01*
X128204415Y-79504025D01*
X128179459Y-79476309D01*
X128149229Y-79413318D01*
X128157854Y-79343983D01*
X128202595Y-79290317D01*
X128209617Y-79285945D01*
X128210394Y-79285495D01*
X128210408Y-79285489D01*
X128355998Y-79179711D01*
X128476415Y-79045975D01*
X128566395Y-78890125D01*
X128622005Y-78718974D01*
X128640816Y-78540000D01*
X128622005Y-78361026D01*
X128566395Y-78189875D01*
X128476415Y-78034025D01*
X128355998Y-77900289D01*
X128210408Y-77794511D01*
X128169394Y-77776250D01*
X128132150Y-77750652D01*
X127622959Y-77241461D01*
X127589474Y-77180138D01*
X127587322Y-77166764D01*
X127572005Y-77021026D01*
X127516395Y-76849875D01*
X127426415Y-76694025D01*
X127305998Y-76560289D01*
X127204903Y-76486839D01*
X127160411Y-76454513D01*
X127160410Y-76454512D01*
X127160408Y-76454511D01*
X126996007Y-76381315D01*
X126996006Y-76381314D01*
X126996002Y-76381313D01*
X126819980Y-76343900D01*
X126797700Y-76343900D01*
X126730661Y-76324215D01*
X126684906Y-76271411D01*
X126673700Y-76219900D01*
X126673700Y-75258320D01*
X126693385Y-75191281D01*
X126705551Y-75175347D01*
X126768015Y-75105975D01*
X126857995Y-74950125D01*
X126913605Y-74778974D01*
X126932416Y-74600000D01*
X126913605Y-74421026D01*
X126857995Y-74249875D01*
X126768015Y-74094025D01*
X126647598Y-73960289D01*
X126538604Y-73881100D01*
X126502011Y-73854513D01*
X126502010Y-73854512D01*
X126502008Y-73854511D01*
X126337607Y-73781315D01*
X126337606Y-73781314D01*
X126337602Y-73781313D01*
X126161580Y-73743900D01*
X125981620Y-73743900D01*
X125805597Y-73781313D01*
X125641188Y-73854513D01*
X125495600Y-73960290D01*
X125375184Y-74094026D01*
X125285204Y-74249876D01*
X125229596Y-74421022D01*
X125229595Y-74421024D01*
X125210784Y-74600000D01*
X125229595Y-74778975D01*
X125229596Y-74778977D01*
X125284030Y-74946511D01*
X125285205Y-74950125D01*
X125375185Y-75105975D01*
X125437649Y-75175347D01*
X125467879Y-75238338D01*
X125469500Y-75258320D01*
X125469500Y-79353900D01*
X125449815Y-79420939D01*
X125397011Y-79466694D01*
X125345500Y-79477900D01*
X123068041Y-79477900D01*
X123001002Y-79458215D01*
X122955247Y-79405411D01*
X122944720Y-79366866D01*
X122942005Y-79341026D01*
X122886395Y-79169875D01*
X122796415Y-79014025D01*
X122675998Y-78880289D01*
X122530408Y-78774511D01*
X122366007Y-78701315D01*
X122366006Y-78701314D01*
X122366002Y-78701313D01*
X122189980Y-78663900D01*
X122010020Y-78663900D01*
X121833997Y-78701313D01*
X121669588Y-78774513D01*
X121524000Y-78880290D01*
X121403584Y-79014026D01*
X121313604Y-79169876D01*
X121257996Y-79341022D01*
X121257995Y-79341024D01*
X121239184Y-79520000D01*
X120762100Y-79520000D01*
X120762100Y-77890320D01*
X120781785Y-77823281D01*
X120834589Y-77777526D01*
X120903747Y-77767582D01*
X120967303Y-77796607D01*
X120978245Y-77807343D01*
X121038015Y-77873724D01*
X121183605Y-77979502D01*
X121348006Y-78052698D01*
X121348009Y-78052698D01*
X121348010Y-78052699D01*
X121364011Y-78056100D01*
X121524033Y-78090113D01*
X121703993Y-78090113D01*
X121880020Y-78052698D01*
X122044421Y-77979502D01*
X122190011Y-77873724D01*
X122310428Y-77739988D01*
X122400408Y-77584138D01*
X122456018Y-77412987D01*
X122474829Y-77234013D01*
X122456018Y-77055039D01*
X122400408Y-76883888D01*
X122310428Y-76728038D01*
X122190011Y-76594302D01*
X122044421Y-76488524D01*
X121880020Y-76415328D01*
X121880019Y-76415327D01*
X121880015Y-76415326D01*
X121703993Y-76377913D01*
X121524033Y-76377913D01*
X121348008Y-76415327D01*
X121348004Y-76415328D01*
X121209084Y-76477180D01*
X121158649Y-76487900D01*
X120207586Y-76487900D01*
X120191401Y-76486839D01*
X120160000Y-76482705D01*
X120128598Y-76486839D01*
X120112414Y-76487900D01*
X110200100Y-76487900D01*
X110133061Y-76468215D01*
X110087306Y-76415411D01*
X110076100Y-76363900D01*
X110076100Y-76096320D01*
X110095785Y-76029281D01*
X110107951Y-76013347D01*
X110170415Y-75943975D01*
X110260395Y-75788125D01*
X110316005Y-75616974D01*
X110334816Y-75438000D01*
X110316005Y-75259026D01*
X110260395Y-75087875D01*
X110170415Y-74932025D01*
X110049998Y-74798289D01*
X109904408Y-74692511D01*
X109740007Y-74619315D01*
X109740006Y-74619314D01*
X109740002Y-74619313D01*
X109563980Y-74581900D01*
X109384020Y-74581900D01*
X109207997Y-74619313D01*
X109043588Y-74692513D01*
X108898000Y-74798290D01*
X108777584Y-74932026D01*
X108687604Y-75087876D01*
X108631996Y-75259022D01*
X108631995Y-75259024D01*
X108613184Y-75438000D01*
X108631995Y-75616975D01*
X108631996Y-75616977D01*
X108668634Y-75729740D01*
X108687605Y-75788125D01*
X108777585Y-75943975D01*
X108840049Y-76013347D01*
X108870279Y-76076338D01*
X108871900Y-76096320D01*
X108871900Y-77042413D01*
X108870838Y-77058598D01*
X108866705Y-77090000D01*
X108870839Y-77121400D01*
X108871900Y-77137586D01*
X108871900Y-90623800D01*
X108852215Y-90690839D01*
X108820787Y-90724117D01*
X108771001Y-90760289D01*
X108770996Y-90760293D01*
X108650584Y-90894026D01*
X108560604Y-91049876D01*
X108504996Y-91221022D01*
X108504995Y-91221024D01*
X108504995Y-91221026D01*
X108486184Y-91400000D01*
X99135605Y-91400000D01*
X99128436Y-87550000D01*
X103619464Y-87550000D01*
X103639564Y-87766918D01*
X103639564Y-87766920D01*
X103639565Y-87766923D01*
X103689005Y-87940686D01*
X103699184Y-87976462D01*
X103700000Y-87978100D01*
X103796288Y-88171472D01*
X103927573Y-88345322D01*
X104088568Y-88492088D01*
X104088575Y-88492092D01*
X104088576Y-88492093D01*
X104273786Y-88606770D01*
X104273792Y-88606773D01*
X104282445Y-88610125D01*
X104476931Y-88685470D01*
X104691074Y-88725500D01*
X104691076Y-88725500D01*
X104908924Y-88725500D01*
X104908926Y-88725500D01*
X105123069Y-88685470D01*
X105326210Y-88606772D01*
X105511432Y-88492088D01*
X105672427Y-88345322D01*
X105803712Y-88171472D01*
X105900817Y-87976459D01*
X105960435Y-87766923D01*
X105980536Y-87550000D01*
X105960435Y-87333077D01*
X105900817Y-87123541D01*
X105803712Y-86928528D01*
X105672427Y-86754678D01*
X105548423Y-86641634D01*
X105512145Y-86581927D01*
X105513905Y-86512079D01*
X105548423Y-86458365D01*
X105672427Y-86345322D01*
X105803712Y-86171472D01*
X105900817Y-85976459D01*
X105960435Y-85766923D01*
X105980536Y-85550000D01*
X105960435Y-85333077D01*
X105900817Y-85123541D01*
X105803712Y-84928528D01*
X105722251Y-84820656D01*
X105697560Y-84755297D01*
X105712125Y-84686962D01*
X105746895Y-84646665D01*
X105794545Y-84610993D01*
X105832546Y-84582546D01*
X105918796Y-84467331D01*
X105969091Y-84332483D01*
X105975500Y-84272873D01*
X105975499Y-82827128D01*
X105969091Y-82767517D01*
X105958626Y-82739460D01*
X105918797Y-82632671D01*
X105918793Y-82632664D01*
X105832547Y-82517455D01*
X105832544Y-82517452D01*
X105717335Y-82431206D01*
X105717328Y-82431202D01*
X105582482Y-82380908D01*
X105582483Y-82380908D01*
X105522883Y-82374501D01*
X105522881Y-82374500D01*
X105522873Y-82374500D01*
X105522864Y-82374500D01*
X104077129Y-82374500D01*
X104077123Y-82374501D01*
X104017516Y-82380908D01*
X103882671Y-82431202D01*
X103882664Y-82431206D01*
X103767455Y-82517452D01*
X103767452Y-82517455D01*
X103681206Y-82632664D01*
X103681202Y-82632671D01*
X103630908Y-82767517D01*
X103624501Y-82827116D01*
X103624500Y-82827128D01*
X103624500Y-84272870D01*
X103624501Y-84272876D01*
X103630908Y-84332483D01*
X103681202Y-84467328D01*
X103681206Y-84467335D01*
X103728118Y-84530000D01*
X103767454Y-84582546D01*
X103853105Y-84646664D01*
X103894975Y-84702597D01*
X103899959Y-84772289D01*
X103877748Y-84820656D01*
X103796288Y-84928528D01*
X103699184Y-85123537D01*
X103639564Y-85333081D01*
X103619464Y-85549999D01*
X103619464Y-85550000D01*
X103639564Y-85766918D01*
X103699184Y-85976462D01*
X103796288Y-86171472D01*
X103927574Y-86345324D01*
X104051572Y-86458363D01*
X104087854Y-86518074D01*
X104086093Y-86587922D01*
X104051572Y-86641637D01*
X103927574Y-86754675D01*
X103796288Y-86928527D01*
X103699184Y-87123537D01*
X103699183Y-87123541D01*
X103639565Y-87333077D01*
X103639565Y-87333078D01*
X103639565Y-87333079D01*
X103619464Y-87549999D01*
X103619464Y-87550000D01*
X99128436Y-87550000D01*
X99096421Y-70358000D01*
X122710184Y-70358000D01*
X122728995Y-70536974D01*
X122784605Y-70708125D01*
X122874585Y-70863975D01*
X122995002Y-70997711D01*
X123140592Y-71103489D01*
X123304993Y-71176685D01*
X123304996Y-71176685D01*
X123304997Y-71176686D01*
X123333128Y-71182665D01*
X123481020Y-71214100D01*
X123660980Y-71214100D01*
X123837007Y-71176685D01*
X124001408Y-71103489D01*
X124146998Y-70997711D01*
X124147003Y-70997704D01*
X124151828Y-70993362D01*
X124153506Y-70995226D01*
X124203390Y-70964484D01*
X124236071Y-70960100D01*
X126969929Y-70960100D01*
X127036968Y-70979785D01*
X127053637Y-70993955D01*
X127054172Y-70993362D01*
X127058999Y-70997708D01*
X127059002Y-70997711D01*
X127204592Y-71103489D01*
X127368993Y-71176685D01*
X127368996Y-71176685D01*
X127368997Y-71176686D01*
X127397128Y-71182665D01*
X127545020Y-71214100D01*
X127588240Y-71214100D01*
X127655279Y-71233785D01*
X127675921Y-71250419D01*
X130096599Y-73671097D01*
X130107293Y-73683290D01*
X130126578Y-73708422D01*
X130154931Y-73730178D01*
X130154950Y-73730194D01*
X130252352Y-73804933D01*
X130313021Y-73830062D01*
X130398820Y-73865602D01*
X130477410Y-73875948D01*
X130555999Y-73886295D01*
X130556000Y-73886295D01*
X130587401Y-73882160D01*
X130603586Y-73881100D01*
X133397623Y-73881100D01*
X133464662Y-73900785D01*
X133510417Y-73953589D01*
X133520943Y-74018059D01*
X133512959Y-74094025D01*
X133508679Y-74134743D01*
X133482094Y-74199357D01*
X133473039Y-74209461D01*
X132994895Y-74687605D01*
X132982704Y-74698297D01*
X132957577Y-74717578D01*
X132933348Y-74749152D01*
X132933349Y-74749153D01*
X132905766Y-74785100D01*
X132861065Y-74843355D01*
X132800398Y-74989819D01*
X132800397Y-74989821D01*
X132784370Y-75111564D01*
X132784368Y-75111575D01*
X132784369Y-75111576D01*
X132779706Y-75147001D01*
X132783839Y-75178394D01*
X132784900Y-75194579D01*
X132784900Y-79491420D01*
X132783839Y-79507605D01*
X132779706Y-79538997D01*
X132784369Y-79574422D01*
X132784388Y-79574575D01*
X132798812Y-79684131D01*
X132798813Y-79684137D01*
X132800397Y-79696177D01*
X132800398Y-79696180D01*
X132861065Y-79842644D01*
X132933349Y-79936848D01*
X132957576Y-79968420D01*
X132957579Y-79968423D01*
X132982708Y-79987706D01*
X132994901Y-79998399D01*
X137970599Y-84974097D01*
X137981293Y-84986290D01*
X138000578Y-85011422D01*
X138028928Y-85033175D01*
X138028944Y-85033189D01*
X138032575Y-85035975D01*
X138100343Y-85087975D01*
X138126353Y-85107933D01*
X138272820Y-85168602D01*
X138274385Y-85168808D01*
X138275607Y-85169348D01*
X138280676Y-85170707D01*
X138280464Y-85171497D01*
X138338283Y-85197072D01*
X138350354Y-85208775D01*
X138362002Y-85221711D01*
X138507592Y-85327489D01*
X138671993Y-85400685D01*
X138671996Y-85400685D01*
X138671997Y-85400686D01*
X138700128Y-85406665D01*
X138848020Y-85438100D01*
X139027980Y-85438100D01*
X139204007Y-85400685D01*
X139368408Y-85327489D01*
X139513998Y-85221711D01*
X139634415Y-85087975D01*
X139724395Y-84932125D01*
X139780005Y-84760974D01*
X139798816Y-84582000D01*
X139780005Y-84403026D01*
X139724395Y-84231875D01*
X139634415Y-84076025D01*
X139513998Y-83942289D01*
X139391454Y-83853255D01*
X139368411Y-83836513D01*
X139368410Y-83836512D01*
X139368408Y-83836511D01*
X139204007Y-83763315D01*
X139204006Y-83763314D01*
X139204002Y-83763313D01*
X139027980Y-83725900D01*
X138848020Y-83725900D01*
X138671996Y-83763314D01*
X138671985Y-83763317D01*
X138605106Y-83793093D01*
X138535856Y-83802377D01*
X138472580Y-83772747D01*
X138466992Y-83767494D01*
X134025419Y-79325921D01*
X133991934Y-79264598D01*
X133989100Y-79238240D01*
X133989100Y-75447760D01*
X134008785Y-75380721D01*
X134025413Y-75360084D01*
X134119810Y-75265687D01*
X134181129Y-75232205D01*
X134250821Y-75237189D01*
X134306755Y-75279060D01*
X134331172Y-75344524D01*
X134325419Y-75391688D01*
X134285997Y-75513019D01*
X134285995Y-75513024D01*
X134267184Y-75692000D01*
X134285995Y-75870975D01*
X134285996Y-75870977D01*
X134337431Y-76029281D01*
X134341605Y-76042125D01*
X134431585Y-76197975D01*
X134494049Y-76267347D01*
X134524279Y-76330338D01*
X134525900Y-76350320D01*
X134525900Y-77676420D01*
X134524839Y-77692605D01*
X134520706Y-77723997D01*
X134525369Y-77759422D01*
X134525388Y-77759575D01*
X134537535Y-77851835D01*
X134537536Y-77851839D01*
X134541397Y-77881178D01*
X134541398Y-77881180D01*
X134602065Y-78027644D01*
X134674349Y-78121848D01*
X134698576Y-78153420D01*
X134698579Y-78153423D01*
X134723708Y-78172706D01*
X134735901Y-78183399D01*
X140331581Y-83779079D01*
X140365066Y-83840402D01*
X140367900Y-83866760D01*
X140367900Y-89511678D01*
X140348215Y-89578717D01*
X140336050Y-89594650D01*
X140273584Y-89664025D01*
X140183604Y-89819876D01*
X140127996Y-89991022D01*
X140127995Y-89991024D01*
X140127995Y-89991026D01*
X140109184Y-90170000D01*
X140127995Y-90348974D01*
X140183605Y-90520125D01*
X140273585Y-90675975D01*
X140394002Y-90809711D01*
X140539592Y-90915489D01*
X140703993Y-90988685D01*
X140703996Y-90988685D01*
X140703997Y-90988686D01*
X140732128Y-90994665D01*
X140880020Y-91026100D01*
X140922414Y-91026100D01*
X140938598Y-91027160D01*
X140970000Y-91031295D01*
X141001401Y-91027160D01*
X141017586Y-91026100D01*
X141059980Y-91026100D01*
X141236007Y-90988685D01*
X141400408Y-90915489D01*
X141545998Y-90809711D01*
X141666415Y-90675975D01*
X141756395Y-90520125D01*
X141812005Y-90348974D01*
X141830816Y-90170001D01*
X189804532Y-90170001D01*
X189824364Y-90396686D01*
X189824366Y-90396697D01*
X189883258Y-90616488D01*
X189883261Y-90616497D01*
X189979431Y-90822732D01*
X189979432Y-90822734D01*
X190109954Y-91009141D01*
X190270858Y-91170045D01*
X190270861Y-91170047D01*
X190457266Y-91300568D01*
X190663504Y-91396739D01*
X190883308Y-91455635D01*
X191045230Y-91469801D01*
X191109998Y-91475468D01*
X191110000Y-91475468D01*
X191110002Y-91475468D01*
X191166807Y-91470498D01*
X191336692Y-91455635D01*
X191556496Y-91396739D01*
X191762734Y-91300568D01*
X191949139Y-91170047D01*
X192110047Y-91009139D01*
X192240568Y-90822734D01*
X192336739Y-90616496D01*
X192395635Y-90396692D01*
X192415468Y-90170000D01*
X192395635Y-89943308D01*
X192336739Y-89723504D01*
X192240568Y-89517266D01*
X192110047Y-89330861D01*
X192110045Y-89330858D01*
X191949141Y-89169954D01*
X191762734Y-89039432D01*
X191762732Y-89039431D01*
X191556497Y-88943261D01*
X191556488Y-88943258D01*
X191336697Y-88884366D01*
X191336693Y-88884365D01*
X191336692Y-88884365D01*
X191336691Y-88884364D01*
X191336686Y-88884364D01*
X191110002Y-88864532D01*
X191109998Y-88864532D01*
X190883313Y-88884364D01*
X190883302Y-88884366D01*
X190663511Y-88943258D01*
X190663502Y-88943261D01*
X190457267Y-89039431D01*
X190457265Y-89039432D01*
X190270858Y-89169954D01*
X190109954Y-89330858D01*
X189979432Y-89517265D01*
X189979431Y-89517267D01*
X189883261Y-89723502D01*
X189883258Y-89723511D01*
X189824366Y-89943302D01*
X189824364Y-89943313D01*
X189804532Y-90169998D01*
X189804532Y-90170001D01*
X141830816Y-90170001D01*
X141830816Y-90170000D01*
X141812005Y-89991026D01*
X141756395Y-89819875D01*
X141666415Y-89664025D01*
X141644337Y-89639505D01*
X141603950Y-89594650D01*
X141573720Y-89531658D01*
X141572100Y-89511678D01*
X141572100Y-83613586D01*
X141573161Y-83597400D01*
X141577295Y-83565999D01*
X141577295Y-83565998D01*
X141556602Y-83408821D01*
X141556600Y-83408816D01*
X141495935Y-83262354D01*
X141495933Y-83262351D01*
X141421186Y-83164940D01*
X141421179Y-83164932D01*
X141399422Y-83136578D01*
X141399420Y-83136577D01*
X141399420Y-83136576D01*
X141374295Y-83117297D01*
X141362100Y-83106602D01*
X140805498Y-82550000D01*
X155095184Y-82550000D01*
X155113995Y-82728975D01*
X155113996Y-82728977D01*
X155145886Y-82827127D01*
X155169605Y-82900125D01*
X155259585Y-83055975D01*
X155380002Y-83189711D01*
X155525592Y-83295489D01*
X155689993Y-83368685D01*
X155689996Y-83368685D01*
X155689997Y-83368686D01*
X155718128Y-83374665D01*
X155866020Y-83406100D01*
X156045980Y-83406100D01*
X156222007Y-83368685D01*
X156288893Y-83338905D01*
X156358137Y-83329620D01*
X156421414Y-83359248D01*
X156427006Y-83364504D01*
X160322599Y-87260097D01*
X160333293Y-87272290D01*
X160352578Y-87297422D01*
X160380932Y-87319179D01*
X160380940Y-87319186D01*
X160399045Y-87333078D01*
X160438698Y-87363505D01*
X160478353Y-87393933D01*
X160624820Y-87454602D01*
X160667106Y-87460169D01*
X160746549Y-87470628D01*
X160746579Y-87470631D01*
X160781999Y-87475294D01*
X160782000Y-87475294D01*
X160782001Y-87475294D01*
X160813395Y-87471161D01*
X160829580Y-87470100D01*
X189042245Y-87470100D01*
X189109284Y-87489785D01*
X189129926Y-87506419D01*
X189137604Y-87514097D01*
X189148298Y-87526290D01*
X189167583Y-87551422D01*
X189195930Y-87573174D01*
X189195946Y-87573187D01*
X189257331Y-87620288D01*
X189257333Y-87620290D01*
X189293356Y-87647932D01*
X189293358Y-87647933D01*
X189439825Y-87708602D01*
X189557545Y-87724100D01*
X189557546Y-87724100D01*
X189561549Y-87724627D01*
X189561579Y-87724630D01*
X189597005Y-87729294D01*
X189597006Y-87729294D01*
X189628400Y-87725161D01*
X189644585Y-87724100D01*
X195930929Y-87724100D01*
X195997968Y-87743785D01*
X196014637Y-87757955D01*
X196015172Y-87757362D01*
X196019999Y-87761708D01*
X196020002Y-87761711D01*
X196165592Y-87867489D01*
X196329993Y-87940685D01*
X196329996Y-87940685D01*
X196329997Y-87940686D01*
X196358128Y-87946665D01*
X196506020Y-87978100D01*
X196685980Y-87978100D01*
X196862007Y-87940685D01*
X197026408Y-87867489D01*
X197171998Y-87761711D01*
X197292415Y-87627975D01*
X197382395Y-87472125D01*
X197438005Y-87300974D01*
X197456816Y-87122000D01*
X197438005Y-86943026D01*
X197382395Y-86771875D01*
X197292415Y-86616025D01*
X197171998Y-86482289D01*
X197026408Y-86376511D01*
X196862007Y-86303315D01*
X196862006Y-86303314D01*
X196862002Y-86303313D01*
X196685980Y-86265900D01*
X196506020Y-86265900D01*
X196329997Y-86303313D01*
X196165588Y-86376513D01*
X196019999Y-86482291D01*
X196015172Y-86486638D01*
X196013493Y-86484773D01*
X195963610Y-86515516D01*
X195930929Y-86519900D01*
X189897765Y-86519900D01*
X189830726Y-86500215D01*
X189810084Y-86483581D01*
X189802401Y-86475898D01*
X189791712Y-86463711D01*
X189772427Y-86438578D01*
X189772424Y-86438576D01*
X189772423Y-86438574D01*
X189740855Y-86414351D01*
X189720109Y-86398432D01*
X189646652Y-86342067D01*
X189646648Y-86342065D01*
X189646649Y-86342065D01*
X189500185Y-86281398D01*
X189500183Y-86281397D01*
X189378609Y-86265392D01*
X189378427Y-86265369D01*
X189372386Y-86264573D01*
X189343005Y-86260706D01*
X189343003Y-86260706D01*
X189343002Y-86260706D01*
X189311610Y-86264839D01*
X189295425Y-86265900D01*
X161082760Y-86265900D01*
X161015721Y-86246215D01*
X160995079Y-86229581D01*
X156923396Y-82157898D01*
X156912707Y-82145711D01*
X156893422Y-82120578D01*
X156893419Y-82120576D01*
X156893418Y-82120574D01*
X156861850Y-82096351D01*
X156841104Y-82080432D01*
X156767647Y-82024067D01*
X156767643Y-82024065D01*
X156767644Y-82024065D01*
X156667793Y-81982706D01*
X156621180Y-81963398D01*
X156619605Y-81963190D01*
X156618373Y-81962645D01*
X156613329Y-81961294D01*
X156613539Y-81960507D01*
X156555710Y-81934922D01*
X156543643Y-81923222D01*
X156532001Y-81910291D01*
X156386411Y-81804513D01*
X156386410Y-81804512D01*
X156386408Y-81804511D01*
X156222007Y-81731315D01*
X156222006Y-81731314D01*
X156222002Y-81731313D01*
X156045980Y-81693900D01*
X155866020Y-81693900D01*
X155689997Y-81731313D01*
X155525588Y-81804513D01*
X155380000Y-81910290D01*
X155259584Y-82044026D01*
X155169604Y-82199876D01*
X155113996Y-82371022D01*
X155113995Y-82371024D01*
X155095184Y-82550000D01*
X140805498Y-82550000D01*
X137577608Y-79322110D01*
X164215120Y-79322110D01*
X164215121Y-79322116D01*
X164221528Y-79381723D01*
X164271822Y-79516568D01*
X164271826Y-79516575D01*
X164358072Y-79631784D01*
X164358075Y-79631787D01*
X164473284Y-79718033D01*
X164473291Y-79718037D01*
X164608137Y-79768331D01*
X164608136Y-79768331D01*
X164615064Y-79769075D01*
X164667747Y-79774740D01*
X166563492Y-79774739D01*
X166623103Y-79768331D01*
X166757951Y-79718036D01*
X166873166Y-79631786D01*
X166959416Y-79516571D01*
X167009711Y-79381723D01*
X167016120Y-79322113D01*
X167016120Y-79248000D01*
X183289184Y-79248000D01*
X183307995Y-79426975D01*
X183307996Y-79426977D01*
X183357213Y-79578454D01*
X183363605Y-79598125D01*
X183453585Y-79753975D01*
X183516049Y-79823347D01*
X183546279Y-79886338D01*
X183547900Y-79906320D01*
X183547900Y-81486420D01*
X183546839Y-81502605D01*
X183542706Y-81533997D01*
X183547369Y-81569422D01*
X183547392Y-81569604D01*
X183563397Y-81691178D01*
X183563398Y-81691180D01*
X183610341Y-81804511D01*
X183624067Y-81837647D01*
X183665033Y-81891036D01*
X183697371Y-81933180D01*
X183720578Y-81963422D01*
X183720579Y-81963423D01*
X183745708Y-81982706D01*
X183757901Y-81993399D01*
X185543039Y-83778537D01*
X185576524Y-83839860D01*
X185578679Y-83853255D01*
X185593995Y-83998974D01*
X185593996Y-83998977D01*
X185619030Y-84076026D01*
X185649605Y-84170125D01*
X185739585Y-84325975D01*
X185860002Y-84459711D01*
X186005592Y-84565489D01*
X186169993Y-84638685D01*
X186169996Y-84638685D01*
X186169997Y-84638686D01*
X186178607Y-84640516D01*
X186346020Y-84676100D01*
X186525980Y-84676100D01*
X186702007Y-84638685D01*
X186866408Y-84565489D01*
X187011998Y-84459711D01*
X187016239Y-84455001D01*
X189804532Y-84455001D01*
X189824364Y-84681686D01*
X189824366Y-84681697D01*
X189883258Y-84901488D01*
X189883261Y-84901497D01*
X189979431Y-85107732D01*
X189979432Y-85107734D01*
X190109954Y-85294141D01*
X190270858Y-85455045D01*
X190270861Y-85455047D01*
X190457266Y-85585568D01*
X190663504Y-85681739D01*
X190883308Y-85740635D01*
X191045230Y-85754801D01*
X191109998Y-85760468D01*
X191110000Y-85760468D01*
X191110002Y-85760468D01*
X191166807Y-85755498D01*
X191336692Y-85740635D01*
X191556496Y-85681739D01*
X191762734Y-85585568D01*
X191949139Y-85455047D01*
X192101316Y-85302870D01*
X197429500Y-85302870D01*
X197429501Y-85302876D01*
X197435908Y-85362483D01*
X197486202Y-85497328D01*
X197486206Y-85497335D01*
X197572452Y-85612544D01*
X197572455Y-85612547D01*
X197687664Y-85698793D01*
X197687671Y-85698797D01*
X197822517Y-85749091D01*
X197822516Y-85749091D01*
X197829444Y-85749835D01*
X197882127Y-85755500D01*
X199577872Y-85755499D01*
X199637483Y-85749091D01*
X199772331Y-85698796D01*
X199887546Y-85612546D01*
X199973796Y-85497331D01*
X200024091Y-85362483D01*
X200030500Y-85302873D01*
X200030499Y-83607128D01*
X200024091Y-83547517D01*
X199995132Y-83469875D01*
X199973797Y-83412671D01*
X199973793Y-83412664D01*
X199887547Y-83297455D01*
X199887544Y-83297452D01*
X199772335Y-83211206D01*
X199772328Y-83211202D01*
X199637482Y-83160908D01*
X199637483Y-83160908D01*
X199577883Y-83154501D01*
X199577881Y-83154500D01*
X199577873Y-83154500D01*
X199577864Y-83154500D01*
X197882129Y-83154500D01*
X197882123Y-83154501D01*
X197822516Y-83160908D01*
X197687671Y-83211202D01*
X197687664Y-83211206D01*
X197572455Y-83297452D01*
X197572452Y-83297455D01*
X197486206Y-83412664D01*
X197486202Y-83412671D01*
X197435908Y-83547517D01*
X197429679Y-83605460D01*
X197429501Y-83607123D01*
X197429500Y-83607135D01*
X197429500Y-85302870D01*
X192101316Y-85302870D01*
X192110047Y-85294139D01*
X192240568Y-85107734D01*
X192336739Y-84901496D01*
X192395635Y-84681692D01*
X192415468Y-84455000D01*
X192395635Y-84228308D01*
X192336739Y-84008504D01*
X192240568Y-83802266D01*
X192110047Y-83615861D01*
X192110045Y-83615858D01*
X191949141Y-83454954D01*
X191762734Y-83324432D01*
X191762732Y-83324431D01*
X191556497Y-83228261D01*
X191556488Y-83228258D01*
X191336697Y-83169366D01*
X191336693Y-83169365D01*
X191336692Y-83169365D01*
X191336691Y-83169364D01*
X191336686Y-83169364D01*
X191110002Y-83149532D01*
X191109998Y-83149532D01*
X190883313Y-83169364D01*
X190883302Y-83169366D01*
X190663511Y-83228258D01*
X190663502Y-83228261D01*
X190457267Y-83324431D01*
X190457265Y-83324432D01*
X190270858Y-83454954D01*
X190109954Y-83615858D01*
X189979432Y-83802265D01*
X189979431Y-83802267D01*
X189883261Y-84008502D01*
X189883258Y-84008511D01*
X189824366Y-84228302D01*
X189824364Y-84228313D01*
X189804532Y-84454998D01*
X189804532Y-84455001D01*
X187016239Y-84455001D01*
X187132415Y-84325975D01*
X187222395Y-84170125D01*
X187278005Y-83998974D01*
X187296816Y-83820000D01*
X187278005Y-83641026D01*
X187222395Y-83469875D01*
X187132415Y-83314025D01*
X187011998Y-83180289D01*
X186898530Y-83097849D01*
X186866411Y-83074513D01*
X186866410Y-83074512D01*
X186866408Y-83074511D01*
X186702007Y-83001315D01*
X186702006Y-83001314D01*
X186702002Y-83001313D01*
X186525980Y-82963900D01*
X186482760Y-82963900D01*
X186415721Y-82944215D01*
X186395079Y-82927581D01*
X184788419Y-81320921D01*
X184754934Y-81259598D01*
X184752100Y-81233240D01*
X184752100Y-79906320D01*
X184771785Y-79839281D01*
X184783951Y-79823347D01*
X184846415Y-79753975D01*
X184936395Y-79598125D01*
X184992005Y-79426974D01*
X185010816Y-79248000D01*
X184992005Y-79069026D01*
X184946587Y-78929244D01*
X219055071Y-78929244D01*
X219075236Y-79198341D01*
X219135284Y-79461428D01*
X219135286Y-79461435D01*
X219233876Y-79712636D01*
X219233878Y-79712640D01*
X219236994Y-79718037D01*
X219368805Y-79946342D01*
X219504700Y-80116749D01*
X219537062Y-80157329D01*
X219653632Y-80265489D01*
X219734879Y-80340875D01*
X219957846Y-80492891D01*
X220200979Y-80609978D01*
X220458848Y-80689520D01*
X220458849Y-80689520D01*
X220458852Y-80689521D01*
X220725683Y-80729739D01*
X220725688Y-80729739D01*
X220725691Y-80729740D01*
X220725692Y-80729740D01*
X220995548Y-80729740D01*
X220995549Y-80729740D01*
X220995556Y-80729739D01*
X221262387Y-80689521D01*
X221262388Y-80689520D01*
X221262392Y-80689520D01*
X221520261Y-80609978D01*
X221763395Y-80492891D01*
X221986361Y-80340875D01*
X222150070Y-80188975D01*
X222184177Y-80157329D01*
X222184177Y-80157327D01*
X222184181Y-80157325D01*
X222352435Y-79946342D01*
X222487363Y-79712638D01*
X222585954Y-79461435D01*
X222646003Y-79198343D01*
X222659815Y-79014026D01*
X222666169Y-78929244D01*
X222666169Y-78929235D01*
X222646003Y-78660138D01*
X222619390Y-78543537D01*
X222585954Y-78397045D01*
X222487363Y-78145842D01*
X222352435Y-77912138D01*
X222184181Y-77701155D01*
X222184180Y-77701154D01*
X222184177Y-77701150D01*
X221986361Y-77517605D01*
X221852551Y-77426375D01*
X221763395Y-77365589D01*
X221763389Y-77365586D01*
X221763388Y-77365585D01*
X221763387Y-77365584D01*
X221520263Y-77248503D01*
X221520265Y-77248503D01*
X221262393Y-77168960D01*
X221262387Y-77168958D01*
X220995556Y-77128740D01*
X220995549Y-77128740D01*
X220725691Y-77128740D01*
X220725683Y-77128740D01*
X220458852Y-77168958D01*
X220458846Y-77168960D01*
X220200978Y-77248502D01*
X219957850Y-77365586D01*
X219734878Y-77517605D01*
X219537062Y-77701150D01*
X219368805Y-77912138D01*
X219233878Y-78145839D01*
X219233876Y-78145843D01*
X219135286Y-78397044D01*
X219135284Y-78397051D01*
X219075236Y-78660138D01*
X219055071Y-78929235D01*
X219055071Y-78929244D01*
X184946587Y-78929244D01*
X184936395Y-78897875D01*
X184846415Y-78742025D01*
X184725998Y-78608289D01*
X184580408Y-78502511D01*
X184416007Y-78429315D01*
X184416006Y-78429314D01*
X184416002Y-78429313D01*
X184239980Y-78391900D01*
X184060020Y-78391900D01*
X183883997Y-78429313D01*
X183719588Y-78502513D01*
X183574000Y-78608290D01*
X183453584Y-78742026D01*
X183363604Y-78897876D01*
X183307996Y-79069022D01*
X183307995Y-79069024D01*
X183289184Y-79248000D01*
X167016120Y-79248000D01*
X167016119Y-77426368D01*
X167009711Y-77366757D01*
X167009275Y-77365589D01*
X166959417Y-77231911D01*
X166959413Y-77231904D01*
X166873167Y-77116695D01*
X166873164Y-77116692D01*
X166757955Y-77030446D01*
X166757948Y-77030442D01*
X166623102Y-76980148D01*
X166623103Y-76980148D01*
X166563503Y-76973741D01*
X166563501Y-76973740D01*
X166563493Y-76973740D01*
X166563484Y-76973740D01*
X164667749Y-76973740D01*
X164667743Y-76973741D01*
X164608136Y-76980148D01*
X164473291Y-77030442D01*
X164473284Y-77030446D01*
X164358075Y-77116692D01*
X164358072Y-77116695D01*
X164271826Y-77231904D01*
X164271822Y-77231911D01*
X164221528Y-77366757D01*
X164216558Y-77412988D01*
X164215121Y-77426363D01*
X164215120Y-77426375D01*
X164215120Y-79322110D01*
X137577608Y-79322110D01*
X135766419Y-77510921D01*
X135732934Y-77449598D01*
X135730100Y-77423240D01*
X135730100Y-76350320D01*
X135749785Y-76283281D01*
X135761951Y-76267347D01*
X135824415Y-76197975D01*
X135914395Y-76042125D01*
X135970005Y-75870974D01*
X135988816Y-75692000D01*
X135970005Y-75513026D01*
X135914395Y-75341875D01*
X135824415Y-75186025D01*
X135703998Y-75052289D01*
X135597416Y-74974852D01*
X135558411Y-74946513D01*
X135558410Y-74946512D01*
X135558408Y-74946511D01*
X135394007Y-74873315D01*
X135394006Y-74873314D01*
X135394002Y-74873313D01*
X135217980Y-74835900D01*
X135183702Y-74835900D01*
X135116663Y-74816215D01*
X135070908Y-74763411D01*
X135060964Y-74694253D01*
X135076315Y-74649900D01*
X135105124Y-74600000D01*
X135152395Y-74518125D01*
X135208005Y-74346974D01*
X135226816Y-74168000D01*
X135211056Y-74018059D01*
X135223625Y-73949332D01*
X135271357Y-73898308D01*
X135334377Y-73881100D01*
X140812929Y-73881100D01*
X140879968Y-73900785D01*
X140896637Y-73914955D01*
X140897172Y-73914362D01*
X140901999Y-73918708D01*
X140902002Y-73918711D01*
X141047592Y-74024489D01*
X141211993Y-74097685D01*
X141211996Y-74097685D01*
X141211997Y-74097686D01*
X141240128Y-74103665D01*
X141388020Y-74135100D01*
X141431240Y-74135100D01*
X141498279Y-74154785D01*
X141518921Y-74171419D01*
X143558599Y-76211097D01*
X143569293Y-76223290D01*
X143588578Y-76248422D01*
X143616933Y-76270179D01*
X143616937Y-76270183D01*
X143620151Y-76272649D01*
X143620153Y-76272651D01*
X143714352Y-76344933D01*
X143751382Y-76360271D01*
X143751383Y-76360272D01*
X143751384Y-76360272D01*
X143860820Y-76405602D01*
X143978540Y-76421100D01*
X143978541Y-76421100D01*
X143982544Y-76421627D01*
X143982574Y-76421630D01*
X144018000Y-76426294D01*
X144018001Y-76426294D01*
X144049395Y-76422161D01*
X144065580Y-76421100D01*
X152496929Y-76421100D01*
X152563968Y-76440785D01*
X152580637Y-76454955D01*
X152581172Y-76454362D01*
X152585999Y-76458708D01*
X152586002Y-76458711D01*
X152731592Y-76564489D01*
X152895993Y-76637685D01*
X152895996Y-76637685D01*
X152895997Y-76637686D01*
X152924128Y-76643665D01*
X153072020Y-76675100D01*
X153251980Y-76675100D01*
X153428007Y-76637685D01*
X153592408Y-76564489D01*
X153737998Y-76458711D01*
X153858415Y-76324975D01*
X153948395Y-76169125D01*
X154004005Y-75997974D01*
X154022816Y-75819000D01*
X154004005Y-75640026D01*
X153948395Y-75468875D01*
X153858415Y-75313025D01*
X153737998Y-75179289D01*
X153644783Y-75111564D01*
X153592411Y-75073513D01*
X153592410Y-75073512D01*
X153592408Y-75073511D01*
X153428007Y-75000315D01*
X153428006Y-75000314D01*
X153428002Y-75000313D01*
X153251980Y-74962900D01*
X153072020Y-74962900D01*
X152895997Y-75000313D01*
X152895993Y-75000315D01*
X152779258Y-75052289D01*
X152731588Y-75073513D01*
X152585999Y-75179291D01*
X152581172Y-75183638D01*
X152579493Y-75181773D01*
X152529610Y-75212516D01*
X152496929Y-75216900D01*
X144318760Y-75216900D01*
X144251721Y-75197215D01*
X144231079Y-75180581D01*
X142370959Y-73320461D01*
X142356644Y-73294246D01*
X164210320Y-73294246D01*
X164229484Y-73525537D01*
X164229486Y-73525548D01*
X164286462Y-73750540D01*
X164379695Y-73963088D01*
X164506636Y-74157387D01*
X164506639Y-74157391D01*
X164506641Y-74157393D01*
X164663836Y-74328153D01*
X164663839Y-74328155D01*
X164663842Y-74328158D01*
X164846985Y-74470704D01*
X164846991Y-74470708D01*
X164846994Y-74470710D01*
X165051117Y-74581176D01*
X165162206Y-74619313D01*
X165270635Y-74656537D01*
X165270637Y-74656537D01*
X165270639Y-74656538D01*
X165499571Y-74694740D01*
X165499572Y-74694740D01*
X165731668Y-74694740D01*
X165731669Y-74694740D01*
X165960601Y-74656538D01*
X166180123Y-74581176D01*
X166384246Y-74470710D01*
X166567404Y-74328153D01*
X166724599Y-74157393D01*
X166851544Y-73963089D01*
X166944777Y-73750540D01*
X167001754Y-73525545D01*
X167001755Y-73525537D01*
X167020920Y-73294246D01*
X167020920Y-73294233D01*
X167001755Y-73062942D01*
X167001753Y-73062931D01*
X166944777Y-72837939D01*
X166851544Y-72625391D01*
X166724603Y-72431092D01*
X166724600Y-72431089D01*
X166724599Y-72431087D01*
X166567404Y-72260327D01*
X166567399Y-72260323D01*
X166567397Y-72260321D01*
X166384254Y-72117775D01*
X166384248Y-72117771D01*
X166180124Y-72007304D01*
X166180115Y-72007301D01*
X165960604Y-71931942D01*
X165788902Y-71903290D01*
X165731669Y-71893740D01*
X165499571Y-71893740D01*
X165453784Y-71901380D01*
X165270635Y-71931942D01*
X165051124Y-72007301D01*
X165051115Y-72007304D01*
X164846991Y-72117771D01*
X164846985Y-72117775D01*
X164663842Y-72260321D01*
X164663839Y-72260324D01*
X164506636Y-72431092D01*
X164379695Y-72625391D01*
X164286462Y-72837939D01*
X164229486Y-73062931D01*
X164229484Y-73062942D01*
X164210320Y-73294233D01*
X164210320Y-73294246D01*
X142356644Y-73294246D01*
X142337474Y-73259138D01*
X142335322Y-73245764D01*
X142320005Y-73100026D01*
X142264395Y-72928875D01*
X142174415Y-72773025D01*
X142053998Y-72639289D01*
X141908408Y-72533511D01*
X141744007Y-72460315D01*
X141744006Y-72460314D01*
X141744002Y-72460313D01*
X141567980Y-72422900D01*
X141388020Y-72422900D01*
X141211997Y-72460313D01*
X141211993Y-72460315D01*
X141073995Y-72521756D01*
X141047588Y-72533513D01*
X140901999Y-72639291D01*
X140897172Y-72643638D01*
X140895493Y-72641773D01*
X140845610Y-72672516D01*
X140812929Y-72676900D01*
X130856760Y-72676900D01*
X130789721Y-72657215D01*
X130769079Y-72640581D01*
X129121498Y-70993000D01*
X190528184Y-70993000D01*
X190546995Y-71171974D01*
X190602605Y-71343125D01*
X190692585Y-71498975D01*
X190813002Y-71632711D01*
X190862786Y-71668881D01*
X190905451Y-71724211D01*
X190913900Y-71769199D01*
X190913900Y-75795678D01*
X190894215Y-75862717D01*
X190882050Y-75878650D01*
X190819584Y-75948025D01*
X190729604Y-76103876D01*
X190673996Y-76275022D01*
X190673995Y-76275024D01*
X190655184Y-76454000D01*
X190673995Y-76632975D01*
X190673996Y-76632977D01*
X190693831Y-76694025D01*
X190729605Y-76804125D01*
X190819585Y-76959975D01*
X190908386Y-77058598D01*
X190936660Y-77090000D01*
X190940002Y-77093711D01*
X191085592Y-77199489D01*
X191249993Y-77272685D01*
X191249996Y-77272685D01*
X191249997Y-77272686D01*
X191278128Y-77278665D01*
X191426020Y-77310100D01*
X191605980Y-77310100D01*
X191782007Y-77272685D01*
X191946408Y-77199489D01*
X192091998Y-77093711D01*
X192212415Y-76959975D01*
X192302395Y-76804125D01*
X192358005Y-76632974D01*
X192376816Y-76454000D01*
X192358005Y-76275026D01*
X192302395Y-76103875D01*
X192212415Y-75948025D01*
X192208767Y-75943973D01*
X192149950Y-75878650D01*
X192119720Y-75815658D01*
X192118100Y-75795678D01*
X192118100Y-75277110D01*
X219060120Y-75277110D01*
X219060121Y-75277116D01*
X219066528Y-75336723D01*
X219116822Y-75471568D01*
X219116826Y-75471575D01*
X219203072Y-75586784D01*
X219203075Y-75586787D01*
X219318284Y-75673033D01*
X219318291Y-75673037D01*
X219453137Y-75723331D01*
X219453136Y-75723331D01*
X219460064Y-75724075D01*
X219512747Y-75729740D01*
X222208492Y-75729739D01*
X222268103Y-75723331D01*
X222402951Y-75673036D01*
X222518166Y-75586786D01*
X222604416Y-75471571D01*
X222654711Y-75336723D01*
X222661120Y-75277113D01*
X222661119Y-72581368D01*
X222654711Y-72521757D01*
X222620893Y-72431087D01*
X222604417Y-72386911D01*
X222604413Y-72386904D01*
X222518167Y-72271695D01*
X222518164Y-72271692D01*
X222402955Y-72185446D01*
X222402948Y-72185442D01*
X222268102Y-72135148D01*
X222268103Y-72135148D01*
X222208503Y-72128741D01*
X222208501Y-72128740D01*
X222208493Y-72128740D01*
X222208484Y-72128740D01*
X219512749Y-72128740D01*
X219512743Y-72128741D01*
X219453136Y-72135148D01*
X219318291Y-72185442D01*
X219318284Y-72185446D01*
X219203075Y-72271692D01*
X219203072Y-72271695D01*
X219116826Y-72386904D01*
X219116822Y-72386911D01*
X219066528Y-72521757D01*
X219060121Y-72581356D01*
X219060121Y-72581363D01*
X219060120Y-72581375D01*
X219060120Y-75277110D01*
X192118100Y-75277110D01*
X192118100Y-71475587D01*
X192134713Y-71413587D01*
X192175395Y-71343125D01*
X192231005Y-71171974D01*
X192249816Y-70993000D01*
X192231005Y-70814026D01*
X192175395Y-70642875D01*
X192085415Y-70487025D01*
X191964998Y-70353289D01*
X191819408Y-70247511D01*
X191655007Y-70174315D01*
X191655006Y-70174314D01*
X191655002Y-70174313D01*
X191478980Y-70136900D01*
X191299020Y-70136900D01*
X191122997Y-70174313D01*
X190958588Y-70247513D01*
X190813000Y-70353290D01*
X190692584Y-70487026D01*
X190602604Y-70642876D01*
X190546996Y-70814022D01*
X190546995Y-70814024D01*
X190546995Y-70814026D01*
X190528184Y-70993000D01*
X129121498Y-70993000D01*
X128527959Y-70399461D01*
X128494474Y-70338138D01*
X128492322Y-70324764D01*
X128477005Y-70179026D01*
X128421395Y-70007875D01*
X128331415Y-69852025D01*
X128210998Y-69718289D01*
X128065408Y-69612511D01*
X127901007Y-69539315D01*
X127901006Y-69539314D01*
X127901002Y-69539313D01*
X127724980Y-69501900D01*
X127545020Y-69501900D01*
X127368997Y-69539313D01*
X127204588Y-69612513D01*
X127058999Y-69718291D01*
X127054172Y-69722638D01*
X127052493Y-69720773D01*
X127002610Y-69751516D01*
X126969929Y-69755900D01*
X124236071Y-69755900D01*
X124169032Y-69736215D01*
X124152362Y-69722044D01*
X124151828Y-69722638D01*
X124147000Y-69718291D01*
X124146999Y-69718290D01*
X124146998Y-69718289D01*
X124001408Y-69612511D01*
X123837007Y-69539315D01*
X123837006Y-69539314D01*
X123837002Y-69539313D01*
X123660980Y-69501900D01*
X123481020Y-69501900D01*
X123304997Y-69539313D01*
X123140588Y-69612513D01*
X122995000Y-69718290D01*
X122874584Y-69852026D01*
X122784604Y-70007876D01*
X122728996Y-70179022D01*
X122728995Y-70179024D01*
X122728995Y-70179025D01*
X122728995Y-70179026D01*
X122710184Y-70358000D01*
X99096421Y-70358000D01*
X99084151Y-63769245D01*
X103023936Y-63769245D01*
X103043690Y-64083244D01*
X103043691Y-64083251D01*
X103102650Y-64392323D01*
X103199877Y-64691556D01*
X103199879Y-64691561D01*
X103333841Y-64976243D01*
X103333844Y-64976249D01*
X103502431Y-65241901D01*
X103502434Y-65241905D01*
X103702986Y-65484330D01*
X103702988Y-65484332D01*
X103932348Y-65699716D01*
X103932358Y-65699724D01*
X104186884Y-65884648D01*
X104186889Y-65884650D01*
X104186896Y-65884656D01*
X104462614Y-66036234D01*
X104462619Y-66036236D01*
X104462621Y-66036237D01*
X104462622Y-66036238D01*
X104755151Y-66152058D01*
X104755154Y-66152059D01*
X104974982Y-66208501D01*
X105059907Y-66230306D01*
X105125390Y-66238578D01*
X105372050Y-66269739D01*
X105372059Y-66269739D01*
X105372062Y-66269740D01*
X105372064Y-66269740D01*
X105686696Y-66269740D01*
X105686698Y-66269740D01*
X105686701Y-66269739D01*
X105686709Y-66269739D01*
X105872973Y-66246208D01*
X105998853Y-66230306D01*
X106303605Y-66152059D01*
X106327587Y-66142564D01*
X106596137Y-66036238D01*
X106596138Y-66036237D01*
X106596136Y-66036237D01*
X106596146Y-66036234D01*
X106871864Y-65884656D01*
X107126410Y-65699718D01*
X107355770Y-65484334D01*
X107556327Y-65241903D01*
X107564189Y-65229515D01*
X111629500Y-65229515D01*
X111644652Y-65407536D01*
X111704724Y-65638248D01*
X111802919Y-65855480D01*
X111802924Y-65855488D01*
X111936413Y-66052993D01*
X111936418Y-66052998D01*
X111936421Y-66053003D01*
X112101379Y-66225118D01*
X112293053Y-66366879D01*
X112505926Y-66474207D01*
X112733877Y-66544016D01*
X112970346Y-66574298D01*
X113208532Y-66564180D01*
X113441581Y-66513954D01*
X113662790Y-66425064D01*
X113865795Y-66300069D01*
X114044755Y-66142564D01*
X114194523Y-65957080D01*
X114194529Y-65957070D01*
X114197472Y-65952717D01*
X114198357Y-65953315D01*
X114244401Y-65908144D01*
X114312813Y-65893945D01*
X114378041Y-65918987D01*
X114405520Y-65948102D01*
X114476413Y-66052993D01*
X114476418Y-66052998D01*
X114476421Y-66053003D01*
X114641379Y-66225118D01*
X114833053Y-66366879D01*
X115045926Y-66474207D01*
X115273877Y-66544016D01*
X115510346Y-66574298D01*
X115748532Y-66564180D01*
X115981581Y-66513954D01*
X116202790Y-66425064D01*
X116405795Y-66300069D01*
X116584755Y-66142564D01*
X116734523Y-65957080D01*
X116734529Y-65957070D01*
X116737472Y-65952717D01*
X116738357Y-65953315D01*
X116784401Y-65908144D01*
X116852813Y-65893945D01*
X116918041Y-65918987D01*
X116945520Y-65948102D01*
X117016413Y-66052993D01*
X117016418Y-66052998D01*
X117016421Y-66053003D01*
X117181379Y-66225118D01*
X117373053Y-66366879D01*
X117585926Y-66474207D01*
X117813877Y-66544016D01*
X118050346Y-66574298D01*
X118288532Y-66564180D01*
X118521581Y-66513954D01*
X118742790Y-66425064D01*
X118945795Y-66300069D01*
X119124755Y-66142564D01*
X119274523Y-65957080D01*
X119274529Y-65957070D01*
X119277472Y-65952717D01*
X119278357Y-65953315D01*
X119324401Y-65908144D01*
X119392813Y-65893945D01*
X119458041Y-65918987D01*
X119485520Y-65948102D01*
X119556413Y-66052993D01*
X119556418Y-66052998D01*
X119556421Y-66053003D01*
X119721379Y-66225118D01*
X119913053Y-66366879D01*
X120125926Y-66474207D01*
X120353877Y-66544016D01*
X120590346Y-66574298D01*
X120828532Y-66564180D01*
X121061581Y-66513954D01*
X121282790Y-66425064D01*
X121485795Y-66300069D01*
X121664755Y-66142564D01*
X121814523Y-65957080D01*
X121814529Y-65957070D01*
X121817472Y-65952717D01*
X121818357Y-65953315D01*
X121864401Y-65908144D01*
X121932813Y-65893945D01*
X121998041Y-65918987D01*
X122025520Y-65948102D01*
X122096413Y-66052993D01*
X122096418Y-66052998D01*
X122096421Y-66053003D01*
X122261379Y-66225118D01*
X122453053Y-66366879D01*
X122665926Y-66474207D01*
X122893877Y-66544016D01*
X123130346Y-66574298D01*
X123368532Y-66564180D01*
X123601581Y-66513954D01*
X123822790Y-66425064D01*
X124025795Y-66300069D01*
X124204755Y-66142564D01*
X124354523Y-65957080D01*
X124354529Y-65957070D01*
X124357472Y-65952717D01*
X124358357Y-65953315D01*
X124404401Y-65908144D01*
X124472813Y-65893945D01*
X124538041Y-65918987D01*
X124565520Y-65948102D01*
X124636413Y-66052993D01*
X124636418Y-66052998D01*
X124636421Y-66053003D01*
X124801379Y-66225118D01*
X124993053Y-66366879D01*
X125205926Y-66474207D01*
X125433877Y-66544016D01*
X125670346Y-66574298D01*
X125908532Y-66564180D01*
X126141581Y-66513954D01*
X126362790Y-66425064D01*
X126565795Y-66300069D01*
X126744755Y-66142564D01*
X126894523Y-65957080D01*
X126894529Y-65957070D01*
X126897472Y-65952717D01*
X126898357Y-65953315D01*
X126944401Y-65908144D01*
X127012813Y-65893945D01*
X127078041Y-65918987D01*
X127105520Y-65948102D01*
X127176413Y-66052993D01*
X127176418Y-66052998D01*
X127176421Y-66053003D01*
X127341379Y-66225118D01*
X127533053Y-66366879D01*
X127745926Y-66474207D01*
X127973877Y-66544016D01*
X128210346Y-66574298D01*
X128448532Y-66564180D01*
X128681581Y-66513954D01*
X128902790Y-66425064D01*
X129105795Y-66300069D01*
X129284755Y-66142564D01*
X129434523Y-65957080D01*
X129434529Y-65957070D01*
X129437472Y-65952717D01*
X129438357Y-65953315D01*
X129484401Y-65908144D01*
X129552813Y-65893945D01*
X129618041Y-65918987D01*
X129645520Y-65948102D01*
X129716413Y-66052993D01*
X129716418Y-66052998D01*
X129716421Y-66053003D01*
X129881379Y-66225118D01*
X130073053Y-66366879D01*
X130285926Y-66474207D01*
X130513877Y-66544016D01*
X130750346Y-66574298D01*
X130988532Y-66564180D01*
X131221581Y-66513954D01*
X131442790Y-66425064D01*
X131645795Y-66300069D01*
X131824755Y-66142564D01*
X131974523Y-65957080D01*
X131974529Y-65957070D01*
X131977472Y-65952717D01*
X131978357Y-65953315D01*
X132024401Y-65908144D01*
X132092813Y-65893945D01*
X132158041Y-65918987D01*
X132185520Y-65948102D01*
X132256413Y-66052993D01*
X132256418Y-66052998D01*
X132256421Y-66053003D01*
X132421379Y-66225118D01*
X132613053Y-66366879D01*
X132825926Y-66474207D01*
X133053877Y-66544016D01*
X133290346Y-66574298D01*
X133528532Y-66564180D01*
X133761581Y-66513954D01*
X133982790Y-66425064D01*
X134185795Y-66300069D01*
X134364755Y-66142564D01*
X134514523Y-65957080D01*
X134514529Y-65957070D01*
X134517472Y-65952717D01*
X134518357Y-65953315D01*
X134564401Y-65908144D01*
X134632813Y-65893945D01*
X134698041Y-65918987D01*
X134725520Y-65948102D01*
X134796413Y-66052993D01*
X134796418Y-66052998D01*
X134796421Y-66053003D01*
X134961379Y-66225118D01*
X135153053Y-66366879D01*
X135365926Y-66474207D01*
X135593877Y-66544016D01*
X135830346Y-66574298D01*
X136068532Y-66564180D01*
X136301581Y-66513954D01*
X136522790Y-66425064D01*
X136725795Y-66300069D01*
X136904755Y-66142564D01*
X137054523Y-65957080D01*
X137054529Y-65957070D01*
X137057472Y-65952717D01*
X137058357Y-65953315D01*
X137104401Y-65908144D01*
X137172813Y-65893945D01*
X137238041Y-65918987D01*
X137265520Y-65948102D01*
X137336413Y-66052993D01*
X137336418Y-66052998D01*
X137336421Y-66053003D01*
X137501379Y-66225118D01*
X137693053Y-66366879D01*
X137905926Y-66474207D01*
X138133877Y-66544016D01*
X138370346Y-66574298D01*
X138608532Y-66564180D01*
X138841581Y-66513954D01*
X139062790Y-66425064D01*
X139265795Y-66300069D01*
X139444755Y-66142564D01*
X139594523Y-65957080D01*
X139594529Y-65957070D01*
X139597472Y-65952717D01*
X139598357Y-65953315D01*
X139644401Y-65908144D01*
X139712813Y-65893945D01*
X139778041Y-65918987D01*
X139805520Y-65948102D01*
X139876413Y-66052993D01*
X139876418Y-66052998D01*
X139876421Y-66053003D01*
X140041379Y-66225118D01*
X140233053Y-66366879D01*
X140445926Y-66474207D01*
X140673877Y-66544016D01*
X140910346Y-66574298D01*
X141148532Y-66564180D01*
X141381581Y-66513954D01*
X141602790Y-66425064D01*
X141805795Y-66300069D01*
X141984755Y-66142564D01*
X142134523Y-65957080D01*
X142134529Y-65957070D01*
X142137472Y-65952717D01*
X142138357Y-65953315D01*
X142184401Y-65908144D01*
X142252813Y-65893945D01*
X142318041Y-65918987D01*
X142345520Y-65948102D01*
X142416413Y-66052993D01*
X142416418Y-66052998D01*
X142416421Y-66053003D01*
X142581379Y-66225118D01*
X142773053Y-66366879D01*
X142985926Y-66474207D01*
X143213877Y-66544016D01*
X143450346Y-66574298D01*
X143688532Y-66564180D01*
X143921581Y-66513954D01*
X144142790Y-66425064D01*
X144345795Y-66300069D01*
X144524755Y-66142564D01*
X144674523Y-65957080D01*
X144790790Y-65748954D01*
X144870211Y-65524171D01*
X144890210Y-65407536D01*
X144910499Y-65289209D01*
X144910500Y-65289198D01*
X144910500Y-64310503D01*
X144910499Y-64310484D01*
X144895347Y-64132463D01*
X144835275Y-63901751D01*
X144737080Y-63684519D01*
X144737075Y-63684511D01*
X144603586Y-63487006D01*
X144603582Y-63487001D01*
X144603579Y-63486997D01*
X144438621Y-63314882D01*
X144246947Y-63173121D01*
X144034074Y-63065793D01*
X143933447Y-63034976D01*
X143806121Y-62995983D01*
X143569647Y-62965701D01*
X143331471Y-62975819D01*
X143331467Y-62975819D01*
X143098419Y-63026045D01*
X142877211Y-63114935D01*
X142674203Y-63239932D01*
X142495245Y-63397435D01*
X142345471Y-63582928D01*
X142345458Y-63582952D01*
X142345449Y-63582960D01*
X142342522Y-63587291D01*
X142341640Y-63586695D01*
X142295570Y-63631870D01*
X142227154Y-63646051D01*
X142161933Y-63620993D01*
X142134479Y-63591897D01*
X142063586Y-63487006D01*
X142063582Y-63487001D01*
X142063579Y-63486997D01*
X141898621Y-63314882D01*
X141706947Y-63173121D01*
X141494074Y-63065793D01*
X141393447Y-63034976D01*
X141266121Y-62995983D01*
X141029647Y-62965701D01*
X140791471Y-62975819D01*
X140791467Y-62975819D01*
X140558419Y-63026045D01*
X140337211Y-63114935D01*
X140134203Y-63239932D01*
X139955245Y-63397435D01*
X139805471Y-63582928D01*
X139805458Y-63582952D01*
X139805449Y-63582960D01*
X139802522Y-63587291D01*
X139801640Y-63586695D01*
X139755570Y-63631870D01*
X139687154Y-63646051D01*
X139621933Y-63620993D01*
X139594479Y-63591897D01*
X139523586Y-63487006D01*
X139523582Y-63487001D01*
X139523579Y-63486997D01*
X139358621Y-63314882D01*
X139166947Y-63173121D01*
X138954074Y-63065793D01*
X138853447Y-63034976D01*
X138726121Y-62995983D01*
X138489647Y-62965701D01*
X138251471Y-62975819D01*
X138251467Y-62975819D01*
X138018419Y-63026045D01*
X137797211Y-63114935D01*
X137594203Y-63239932D01*
X137415245Y-63397435D01*
X137265471Y-63582928D01*
X137265458Y-63582952D01*
X137265449Y-63582960D01*
X137262522Y-63587291D01*
X137261640Y-63586695D01*
X137215570Y-63631870D01*
X137147154Y-63646051D01*
X137081933Y-63620993D01*
X137054479Y-63591897D01*
X136983586Y-63487006D01*
X136983582Y-63487001D01*
X136983579Y-63486997D01*
X136818621Y-63314882D01*
X136626947Y-63173121D01*
X136414074Y-63065793D01*
X136313447Y-63034976D01*
X136186121Y-62995983D01*
X135949647Y-62965701D01*
X135711471Y-62975819D01*
X135711467Y-62975819D01*
X135478419Y-63026045D01*
X135257211Y-63114935D01*
X135054203Y-63239932D01*
X134875245Y-63397435D01*
X134725471Y-63582928D01*
X134725458Y-63582952D01*
X134725449Y-63582960D01*
X134722522Y-63587291D01*
X134721640Y-63586695D01*
X134675570Y-63631870D01*
X134607154Y-63646051D01*
X134541933Y-63620993D01*
X134514479Y-63591897D01*
X134443586Y-63487006D01*
X134443582Y-63487001D01*
X134443579Y-63486997D01*
X134278621Y-63314882D01*
X134086947Y-63173121D01*
X133874074Y-63065793D01*
X133773447Y-63034976D01*
X133646121Y-62995983D01*
X133409647Y-62965701D01*
X133171471Y-62975819D01*
X133171467Y-62975819D01*
X132938419Y-63026045D01*
X132717211Y-63114935D01*
X132514203Y-63239932D01*
X132335245Y-63397435D01*
X132185471Y-63582928D01*
X132185458Y-63582952D01*
X132185449Y-63582960D01*
X132182522Y-63587291D01*
X132181640Y-63586695D01*
X132135570Y-63631870D01*
X132067154Y-63646051D01*
X132001933Y-63620993D01*
X131974479Y-63591897D01*
X131903586Y-63487006D01*
X131903582Y-63487001D01*
X131903579Y-63486997D01*
X131738621Y-63314882D01*
X131546947Y-63173121D01*
X131334074Y-63065793D01*
X131233447Y-63034976D01*
X131106121Y-62995983D01*
X130869647Y-62965701D01*
X130631471Y-62975819D01*
X130631467Y-62975819D01*
X130398419Y-63026045D01*
X130177211Y-63114935D01*
X129974203Y-63239932D01*
X129795245Y-63397435D01*
X129645471Y-63582928D01*
X129645458Y-63582952D01*
X129645449Y-63582960D01*
X129642522Y-63587291D01*
X129641640Y-63586695D01*
X129595570Y-63631870D01*
X129527154Y-63646051D01*
X129461933Y-63620993D01*
X129434479Y-63591897D01*
X129363586Y-63487006D01*
X129363582Y-63487001D01*
X129363579Y-63486997D01*
X129198621Y-63314882D01*
X129006947Y-63173121D01*
X128794074Y-63065793D01*
X128693447Y-63034976D01*
X128566121Y-62995983D01*
X128329647Y-62965701D01*
X128091471Y-62975819D01*
X128091467Y-62975819D01*
X127858419Y-63026045D01*
X127637211Y-63114935D01*
X127434203Y-63239932D01*
X127255245Y-63397435D01*
X127105471Y-63582928D01*
X127105458Y-63582952D01*
X127105449Y-63582960D01*
X127102522Y-63587291D01*
X127101640Y-63586695D01*
X127055570Y-63631870D01*
X126987154Y-63646051D01*
X126921933Y-63620993D01*
X126894479Y-63591897D01*
X126823586Y-63487006D01*
X126823582Y-63487001D01*
X126823579Y-63486997D01*
X126658621Y-63314882D01*
X126466947Y-63173121D01*
X126254074Y-63065793D01*
X126153447Y-63034976D01*
X126026121Y-62995983D01*
X125789647Y-62965701D01*
X125551471Y-62975819D01*
X125551467Y-62975819D01*
X125318419Y-63026045D01*
X125097211Y-63114935D01*
X124894203Y-63239932D01*
X124715245Y-63397435D01*
X124565471Y-63582928D01*
X124565458Y-63582952D01*
X124565449Y-63582960D01*
X124562522Y-63587291D01*
X124561640Y-63586695D01*
X124515570Y-63631870D01*
X124447154Y-63646051D01*
X124381933Y-63620993D01*
X124354479Y-63591897D01*
X124283586Y-63487006D01*
X124283582Y-63487001D01*
X124283579Y-63486997D01*
X124118621Y-63314882D01*
X123926947Y-63173121D01*
X123714074Y-63065793D01*
X123613447Y-63034976D01*
X123486121Y-62995983D01*
X123249647Y-62965701D01*
X123011471Y-62975819D01*
X123011467Y-62975819D01*
X122778419Y-63026045D01*
X122557211Y-63114935D01*
X122354203Y-63239932D01*
X122175245Y-63397435D01*
X122025471Y-63582928D01*
X122025458Y-63582952D01*
X122025449Y-63582960D01*
X122022522Y-63587291D01*
X122021640Y-63586695D01*
X121975570Y-63631870D01*
X121907154Y-63646051D01*
X121841933Y-63620993D01*
X121814479Y-63591897D01*
X121743586Y-63487006D01*
X121743582Y-63487001D01*
X121743579Y-63486997D01*
X121578621Y-63314882D01*
X121386947Y-63173121D01*
X121174074Y-63065793D01*
X121073447Y-63034976D01*
X120946121Y-62995983D01*
X120709647Y-62965701D01*
X120471471Y-62975819D01*
X120471467Y-62975819D01*
X120238419Y-63026045D01*
X120017211Y-63114935D01*
X119814203Y-63239932D01*
X119635245Y-63397435D01*
X119485471Y-63582928D01*
X119485458Y-63582952D01*
X119485449Y-63582960D01*
X119482522Y-63587291D01*
X119481640Y-63586695D01*
X119435570Y-63631870D01*
X119367154Y-63646051D01*
X119301933Y-63620993D01*
X119274479Y-63591897D01*
X119203586Y-63487006D01*
X119203582Y-63487001D01*
X119203579Y-63486997D01*
X119038621Y-63314882D01*
X118846947Y-63173121D01*
X118634074Y-63065793D01*
X118533447Y-63034976D01*
X118406121Y-62995983D01*
X118169647Y-62965701D01*
X117931471Y-62975819D01*
X117931467Y-62975819D01*
X117698419Y-63026045D01*
X117477211Y-63114935D01*
X117274203Y-63239932D01*
X117095245Y-63397435D01*
X116945471Y-63582928D01*
X116945458Y-63582952D01*
X116945449Y-63582960D01*
X116942522Y-63587291D01*
X116941640Y-63586695D01*
X116895570Y-63631870D01*
X116827154Y-63646051D01*
X116761933Y-63620993D01*
X116734479Y-63591897D01*
X116663586Y-63487006D01*
X116663582Y-63487001D01*
X116663579Y-63486997D01*
X116498621Y-63314882D01*
X116306947Y-63173121D01*
X116094074Y-63065793D01*
X115993447Y-63034976D01*
X115866121Y-62995983D01*
X115629647Y-62965701D01*
X115391471Y-62975819D01*
X115391467Y-62975819D01*
X115158419Y-63026045D01*
X114937211Y-63114935D01*
X114734203Y-63239932D01*
X114555245Y-63397435D01*
X114405471Y-63582928D01*
X114405458Y-63582952D01*
X114405449Y-63582960D01*
X114402522Y-63587291D01*
X114401640Y-63586695D01*
X114355570Y-63631870D01*
X114287154Y-63646051D01*
X114221933Y-63620993D01*
X114194479Y-63591897D01*
X114123586Y-63487006D01*
X114123582Y-63487001D01*
X114123579Y-63486997D01*
X113958621Y-63314882D01*
X113766947Y-63173121D01*
X113554074Y-63065793D01*
X113453447Y-63034976D01*
X113326121Y-62995983D01*
X113089647Y-62965701D01*
X112851471Y-62975819D01*
X112851467Y-62975819D01*
X112618419Y-63026045D01*
X112397211Y-63114935D01*
X112194203Y-63239932D01*
X112015245Y-63397435D01*
X111942929Y-63486997D01*
X111865477Y-63582920D01*
X111865476Y-63582922D01*
X111749210Y-63791044D01*
X111669788Y-64015829D01*
X111629500Y-64250790D01*
X111629500Y-65229515D01*
X107564189Y-65229515D01*
X107724917Y-64976247D01*
X107858883Y-64691555D01*
X107956111Y-64392319D01*
X108015068Y-64083255D01*
X108033452Y-63791046D01*
X108034824Y-63769245D01*
X108034824Y-63769234D01*
X108015069Y-63455235D01*
X108015068Y-63455228D01*
X108015068Y-63455225D01*
X107956111Y-63146161D01*
X107858883Y-62846925D01*
X107851253Y-62830711D01*
X107724918Y-62562236D01*
X107724917Y-62562233D01*
X107556327Y-62296577D01*
X107556325Y-62296574D01*
X107355773Y-62054149D01*
X107355771Y-62054147D01*
X107352448Y-62051026D01*
X107126410Y-61838762D01*
X107126407Y-61838760D01*
X107126401Y-61838755D01*
X106871875Y-61653831D01*
X106871868Y-61653826D01*
X106871864Y-61653824D01*
X106596146Y-61502246D01*
X106596143Y-61502244D01*
X106596138Y-61502242D01*
X106596137Y-61502241D01*
X106509654Y-61468000D01*
X141125184Y-61468000D01*
X141143995Y-61646975D01*
X141143996Y-61646977D01*
X141169030Y-61724026D01*
X141199605Y-61818125D01*
X141289585Y-61973975D01*
X141376137Y-62070100D01*
X141408838Y-62106419D01*
X141410002Y-62107711D01*
X141555592Y-62213489D01*
X141719993Y-62286685D01*
X141719996Y-62286685D01*
X141719997Y-62286686D01*
X141748128Y-62292665D01*
X141896020Y-62324100D01*
X142075980Y-62324100D01*
X142252007Y-62286685D01*
X142416408Y-62213489D01*
X142561998Y-62107711D01*
X142562003Y-62107704D01*
X142566828Y-62103362D01*
X142568506Y-62105226D01*
X142618390Y-62074484D01*
X142651071Y-62070100D01*
X147019240Y-62070100D01*
X147086279Y-62089785D01*
X147106921Y-62106419D01*
X147189039Y-62188537D01*
X147222524Y-62249860D01*
X147224679Y-62263255D01*
X147239995Y-62408974D01*
X147239996Y-62408977D01*
X147289792Y-62562236D01*
X147295605Y-62580125D01*
X147385585Y-62735975D01*
X147506002Y-62869711D01*
X147651592Y-62975489D01*
X147745638Y-63017361D01*
X147798875Y-63062611D01*
X147819196Y-63129460D01*
X147800151Y-63196683D01*
X147760219Y-63236228D01*
X147754204Y-63239931D01*
X147754203Y-63239931D01*
X147575245Y-63397435D01*
X147502929Y-63486997D01*
X147425477Y-63582920D01*
X147425476Y-63582922D01*
X147309210Y-63791044D01*
X147229788Y-64015829D01*
X147189500Y-64250790D01*
X147189500Y-65229515D01*
X147204652Y-65407536D01*
X147264724Y-65638248D01*
X147362919Y-65855480D01*
X147362924Y-65855488D01*
X147496413Y-66052993D01*
X147496418Y-66052998D01*
X147496421Y-66053003D01*
X147661379Y-66225118D01*
X147853053Y-66366879D01*
X148065926Y-66474207D01*
X148293877Y-66544016D01*
X148530346Y-66574298D01*
X148768532Y-66564180D01*
X149001581Y-66513954D01*
X149222790Y-66425064D01*
X149425795Y-66300069D01*
X149558515Y-66183259D01*
X149621842Y-66153746D01*
X149691076Y-66163155D01*
X149744231Y-66208501D01*
X149756619Y-66233011D01*
X149786202Y-66312328D01*
X149786206Y-66312335D01*
X149872452Y-66427544D01*
X149872455Y-66427547D01*
X149987664Y-66513793D01*
X149987671Y-66513797D01*
X150122517Y-66564091D01*
X150122516Y-66564091D01*
X150129444Y-66564835D01*
X150182127Y-66570500D01*
X152077872Y-66570499D01*
X152137483Y-66564091D01*
X152272331Y-66513796D01*
X152387546Y-66427546D01*
X152473796Y-66312331D01*
X152524091Y-66177483D01*
X152530500Y-66117873D01*
X152530499Y-63769245D01*
X218024976Y-63769245D01*
X218044730Y-64083244D01*
X218044731Y-64083251D01*
X218103690Y-64392323D01*
X218200917Y-64691556D01*
X218200919Y-64691561D01*
X218334881Y-64976243D01*
X218334884Y-64976249D01*
X218503471Y-65241901D01*
X218503474Y-65241905D01*
X218704026Y-65484330D01*
X218704028Y-65484332D01*
X218933388Y-65699716D01*
X218933398Y-65699724D01*
X219187924Y-65884648D01*
X219187929Y-65884650D01*
X219187936Y-65884656D01*
X219463654Y-66036234D01*
X219463659Y-66036236D01*
X219463661Y-66036237D01*
X219463662Y-66036238D01*
X219756191Y-66152058D01*
X219756194Y-66152059D01*
X219976022Y-66208501D01*
X220060947Y-66230306D01*
X220126430Y-66238578D01*
X220373090Y-66269739D01*
X220373099Y-66269739D01*
X220373102Y-66269740D01*
X220373104Y-66269740D01*
X220687736Y-66269740D01*
X220687738Y-66269740D01*
X220687741Y-66269739D01*
X220687749Y-66269739D01*
X220874013Y-66246208D01*
X220999893Y-66230306D01*
X221304645Y-66152059D01*
X221328627Y-66142564D01*
X221597177Y-66036238D01*
X221597178Y-66036237D01*
X221597176Y-66036237D01*
X221597186Y-66036234D01*
X221872904Y-65884656D01*
X222127450Y-65699718D01*
X222356810Y-65484334D01*
X222557367Y-65241903D01*
X222725957Y-64976247D01*
X222859923Y-64691555D01*
X222957151Y-64392319D01*
X223016108Y-64083255D01*
X223034492Y-63791046D01*
X223035864Y-63769245D01*
X223035864Y-63769234D01*
X223016109Y-63455235D01*
X223016108Y-63455228D01*
X223016108Y-63455225D01*
X222957151Y-63146161D01*
X222859923Y-62846925D01*
X222852293Y-62830711D01*
X222725958Y-62562236D01*
X222725957Y-62562233D01*
X222557367Y-62296577D01*
X222557365Y-62296574D01*
X222356813Y-62054149D01*
X222356811Y-62054147D01*
X222353488Y-62051026D01*
X222127450Y-61838762D01*
X222127447Y-61838760D01*
X222127441Y-61838755D01*
X221872915Y-61653831D01*
X221872908Y-61653826D01*
X221872904Y-61653824D01*
X221597186Y-61502246D01*
X221597183Y-61502244D01*
X221597178Y-61502242D01*
X221597177Y-61502241D01*
X221304648Y-61386421D01*
X221304645Y-61386420D01*
X220999896Y-61308174D01*
X220999883Y-61308172D01*
X220687749Y-61268740D01*
X220687738Y-61268740D01*
X220373102Y-61268740D01*
X220373090Y-61268740D01*
X220060956Y-61308172D01*
X220060943Y-61308174D01*
X219756194Y-61386420D01*
X219756191Y-61386421D01*
X219463662Y-61502241D01*
X219463661Y-61502242D01*
X219187936Y-61653824D01*
X219187924Y-61653831D01*
X218933398Y-61838755D01*
X218933388Y-61838763D01*
X218704028Y-62054147D01*
X218704026Y-62054149D01*
X218503474Y-62296574D01*
X218503471Y-62296578D01*
X218334884Y-62562230D01*
X218334881Y-62562236D01*
X218200919Y-62846918D01*
X218200917Y-62846923D01*
X218103690Y-63146156D01*
X218044731Y-63455228D01*
X218044730Y-63455235D01*
X218024976Y-63769234D01*
X218024976Y-63769245D01*
X152530499Y-63769245D01*
X152530499Y-63422128D01*
X152524091Y-63362517D01*
X152524006Y-63362290D01*
X152473797Y-63227671D01*
X152473793Y-63227664D01*
X152387547Y-63112455D01*
X152387544Y-63112452D01*
X152272335Y-63026206D01*
X152272328Y-63026202D01*
X152137482Y-62975908D01*
X152137483Y-62975908D01*
X152077883Y-62969501D01*
X152077881Y-62969500D01*
X152077873Y-62969500D01*
X152077864Y-62969500D01*
X150182129Y-62969500D01*
X150182123Y-62969501D01*
X150122516Y-62975908D01*
X149987671Y-63026202D01*
X149987664Y-63026206D01*
X149872455Y-63112452D01*
X149872452Y-63112455D01*
X149786206Y-63227664D01*
X149786202Y-63227671D01*
X149756855Y-63306356D01*
X149714984Y-63362290D01*
X149649519Y-63386707D01*
X149581246Y-63371855D01*
X149551152Y-63348824D01*
X149518621Y-63314882D01*
X149326947Y-63173121D01*
X149114074Y-63065793D01*
X149013447Y-63034976D01*
X148886121Y-62995983D01*
X148814422Y-62986802D01*
X148750426Y-62958761D01*
X148711749Y-62900573D01*
X148710671Y-62830711D01*
X148738024Y-62780833D01*
X148778415Y-62735975D01*
X148868395Y-62580125D01*
X148924005Y-62408974D01*
X148942816Y-62230000D01*
X148924005Y-62051026D01*
X148868395Y-61879875D01*
X148778415Y-61724025D01*
X148657998Y-61590289D01*
X148536818Y-61502246D01*
X148512411Y-61484513D01*
X148512410Y-61484512D01*
X148512408Y-61484511D01*
X148348007Y-61411315D01*
X148348006Y-61411314D01*
X148348002Y-61411313D01*
X148171980Y-61373900D01*
X148128760Y-61373900D01*
X148061721Y-61354215D01*
X148041079Y-61337581D01*
X147779396Y-61075898D01*
X147768707Y-61063711D01*
X147749422Y-61038578D01*
X147749419Y-61038576D01*
X147749418Y-61038574D01*
X147717850Y-61014351D01*
X147697104Y-60998432D01*
X147623647Y-60942067D01*
X147623643Y-60942065D01*
X147623644Y-60942065D01*
X147477180Y-60881398D01*
X147477178Y-60881397D01*
X147355604Y-60865392D01*
X147355422Y-60865369D01*
X147349381Y-60864573D01*
X147320000Y-60860706D01*
X147319998Y-60860706D01*
X147319997Y-60860706D01*
X147288605Y-60864839D01*
X147272420Y-60865900D01*
X142651071Y-60865900D01*
X142584032Y-60846215D01*
X142567362Y-60832044D01*
X142566828Y-60832638D01*
X142562000Y-60828291D01*
X142561999Y-60828290D01*
X142561998Y-60828289D01*
X142416408Y-60722511D01*
X142252007Y-60649315D01*
X142252006Y-60649314D01*
X142252002Y-60649313D01*
X142075980Y-60611900D01*
X141896020Y-60611900D01*
X141719997Y-60649313D01*
X141555588Y-60722513D01*
X141410000Y-60828290D01*
X141289584Y-60962026D01*
X141199604Y-61117876D01*
X141143996Y-61289022D01*
X141143995Y-61289024D01*
X141125184Y-61468000D01*
X106509654Y-61468000D01*
X106303608Y-61386421D01*
X106303605Y-61386420D01*
X105998856Y-61308174D01*
X105998843Y-61308172D01*
X105686709Y-61268740D01*
X105686698Y-61268740D01*
X105372062Y-61268740D01*
X105372050Y-61268740D01*
X105059916Y-61308172D01*
X105059903Y-61308174D01*
X104755154Y-61386420D01*
X104755151Y-61386421D01*
X104462622Y-61502241D01*
X104462621Y-61502242D01*
X104186896Y-61653824D01*
X104186884Y-61653831D01*
X103932358Y-61838755D01*
X103932348Y-61838763D01*
X103702988Y-62054147D01*
X103702986Y-62054149D01*
X103502434Y-62296574D01*
X103502431Y-62296578D01*
X103333844Y-62562230D01*
X103333841Y-62562236D01*
X103199879Y-62846918D01*
X103199877Y-62846923D01*
X103102650Y-63146156D01*
X103043691Y-63455228D01*
X103043690Y-63455235D01*
X103023936Y-63769234D01*
X103023936Y-63769245D01*
X99084151Y-63769245D01*
X99060231Y-50924229D01*
X99079791Y-50857155D01*
X99132510Y-50811302D01*
X99184231Y-50800000D01*
X228729303Y-50800000D01*
X228796342Y-50819685D01*
G37*
%TD.AperFunction*%
%TD*%
M02*
