M48
; DRILL file {KiCad 7.0.10} date Tue Apr  9 13:41:29 2024
; FORMAT={-:-/ absolute / inch / decimal}
; #@! TF.CreationDate,2024-04-09T13:41:29-07:00
; #@! TF.GenerationSoftware,Kicad,Pcbnew,7.0.10
; #@! TF.FileFunction,Plated,1,2,PTH
FMAT,2
INCH
; #@! TA.AperFunction,Plated,PTH,ViaDrill
T1C0.0120
; #@! TA.AperFunction,Plated,PTH,ViaDrill
T2C0.0157
; #@! TA.AperFunction,Plated,PTH,ComponentDrill
T3C0.0236
; #@! TA.AperFunction,Plated,PTH,ComponentDrill
T4C0.0315
; #@! TA.AperFunction,Plated,PTH,ComponentDrill
T5C0.0394
; #@! TA.AperFunction,Plated,PTH,ComponentDrill
T6C0.0472
; #@! TA.AperFunction,Plated,PTH,ComponentDrill
T7C0.0512
; #@! TA.AperFunction,Plated,PTH,ComponentDrill
T8C0.1378
%
G90
G05
T1
X5.315Y-4.5409
X5.4Y-4.515
X5.715Y-3.65
X5.98Y-4.515
X6.015Y-4.5393
T2
X4.81Y-4.27
X4.865Y-2.77
X4.925Y-2.95
X5.02Y-3.15
X5.025Y-2.77
X5.29Y-2.92
X5.32Y-2.98
X5.36Y-4.02
X5.47Y-3.33
X5.55Y-3.55
X5.57Y-2.885
X5.705Y-4.05
X5.7124Y-3.965
X5.9023Y-3.9367
X5.9873Y-3.8211
X6.03Y-2.985
X6.2275Y-3.3175
X6.36Y-3.75
X6.5Y-4.32
X6.6502Y-4.3002
X7.3Y-3.105
X7.305Y-3.275
X7.31Y-3.775
X7.535Y-2.795
X7.54Y-3.01
X7.6Y-3.41
T4
X4.42Y-3.2919
X4.42Y-3.3706
X4.42Y-3.4494
X4.42Y-3.5281
X7.524Y-3.325
X7.524Y-3.55
X7.824Y-3.325
X7.824Y-3.55
X8.8203Y-3.3706
X8.8203Y-3.4494
X8.8203Y-3.5281
X8.8203Y-3.6069
X8.8203Y-3.6856
X8.8203Y-3.7643
T5
X6.5203Y-2.8856
X6.5203Y-2.9856
X6.5203Y-3.0856
X6.5205Y-3.811
X6.5205Y-3.911
X6.5205Y-4.011
X7.5494Y-4.2278
X7.6494Y-4.2278
X7.7494Y-4.2278
X8.0244Y-4.2278
X8.1244Y-4.2278
X8.2244Y-4.2278
T6
X4.45Y-2.55
X4.55Y-2.55
X4.65Y-2.55
X4.75Y-2.55
X4.85Y-2.55
X4.95Y-2.55
X5.05Y-2.55
X5.15Y-2.55
X5.25Y-2.55
X5.35Y-2.55
X5.45Y-2.55
X5.55Y-2.55
X5.65Y-2.55
X5.75Y-2.55
X5.85Y-2.55
X5.95Y-2.55
T7
X8.6953Y-2.9106
X8.6953Y-3.1075
T8
X4.1547Y-1.0539
X4.1547Y-2.5106
X8.6823Y-1.0539
X8.6823Y-2.5106
T3
G00X6.3799Y-4.4061
M15
G01X6.3799Y-4.4494
M16
G05
G00X6.3799Y-4.5766
M15
G01X6.3799Y-4.6081
M16
G05
G00X6.7201Y-4.4061
M15
G01X6.7201Y-4.4494
M16
G05
G00X6.7201Y-4.5766
M15
G01X6.7201Y-4.6081
M16
G05
M30
