%TF.GenerationSoftware,KiCad,Pcbnew,7.0.10*%
%TF.CreationDate,2024-04-09T13:41:23-07:00*%
%TF.ProjectId,COFFEE_MAKER,434f4646-4545-45f4-9d41-4b45522e6b69,rev?*%
%TF.SameCoordinates,Original*%
%TF.FileFunction,Legend,Top*%
%TF.FilePolarity,Positive*%
%FSLAX46Y46*%
G04 Gerber Fmt 4.6, Leading zero omitted, Abs format (unit mm)*
G04 Created by KiCad (PCBNEW 7.0.10) date 2024-04-09 13:41:23*
%MOMM*%
%LPD*%
G01*
G04 APERTURE LIST*
%ADD10C,0.150000*%
%ADD11C,0.120000*%
%ADD12C,0.203200*%
G04 APERTURE END LIST*
D10*
X184277000Y-92964000D02*
X210820000Y-92964000D01*
X210820000Y-105410000D01*
X184277000Y-105410000D01*
X184277000Y-92964000D01*
X155956000Y-117983000D02*
X109220000Y-117983000D01*
X109220000Y-106807000D01*
X114681000Y-106807000D01*
X114681000Y-96012000D01*
X122936000Y-96012000D01*
X122936000Y-85090000D01*
X127381000Y-85090000D01*
X127381000Y-82423000D01*
X155702000Y-82423000D01*
X155956000Y-117983000D01*
X226314000Y-67564000D02*
X155448000Y-67564000D01*
X155448000Y-82296000D01*
X126746000Y-82296000D01*
X126746000Y-85090000D01*
X122936000Y-85090000D01*
X122936000Y-96012000D01*
X114681000Y-96012000D01*
X114681000Y-106680000D01*
X109601000Y-106680000D01*
X101346000Y-106680000D01*
X100330000Y-22098000D01*
X226314000Y-22098000D01*
X226314000Y-67564000D01*
X155829000Y-67818000D02*
X184023000Y-67818000D01*
X184023000Y-109728000D01*
X155829000Y-109728000D01*
X155829000Y-67818000D01*
X228600000Y-101404331D02*
X210820000Y-101404331D01*
X210820000Y-93022331D01*
X184277000Y-92895331D01*
X184277000Y-67876331D01*
X228346000Y-67876331D01*
X228600000Y-101404331D01*
X157546922Y-107962819D02*
X157880255Y-108962819D01*
X157880255Y-108962819D02*
X158213588Y-107962819D01*
X158689779Y-108962819D02*
X158594541Y-108915200D01*
X158594541Y-108915200D02*
X158546922Y-108867580D01*
X158546922Y-108867580D02*
X158499303Y-108772342D01*
X158499303Y-108772342D02*
X158499303Y-108486628D01*
X158499303Y-108486628D02*
X158546922Y-108391390D01*
X158546922Y-108391390D02*
X158594541Y-108343771D01*
X158594541Y-108343771D02*
X158689779Y-108296152D01*
X158689779Y-108296152D02*
X158832636Y-108296152D01*
X158832636Y-108296152D02*
X158927874Y-108343771D01*
X158927874Y-108343771D02*
X158975493Y-108391390D01*
X158975493Y-108391390D02*
X159023112Y-108486628D01*
X159023112Y-108486628D02*
X159023112Y-108772342D01*
X159023112Y-108772342D02*
X158975493Y-108867580D01*
X158975493Y-108867580D02*
X158927874Y-108915200D01*
X158927874Y-108915200D02*
X158832636Y-108962819D01*
X158832636Y-108962819D02*
X158689779Y-108962819D01*
X159594541Y-108962819D02*
X159499303Y-108915200D01*
X159499303Y-108915200D02*
X159451684Y-108819961D01*
X159451684Y-108819961D02*
X159451684Y-107962819D01*
X159832637Y-108296152D02*
X160213589Y-108296152D01*
X159975494Y-107962819D02*
X159975494Y-108819961D01*
X159975494Y-108819961D02*
X160023113Y-108915200D01*
X160023113Y-108915200D02*
X160118351Y-108962819D01*
X160118351Y-108962819D02*
X160213589Y-108962819D01*
X160975494Y-108962819D02*
X160975494Y-108439009D01*
X160975494Y-108439009D02*
X160927875Y-108343771D01*
X160927875Y-108343771D02*
X160832637Y-108296152D01*
X160832637Y-108296152D02*
X160642161Y-108296152D01*
X160642161Y-108296152D02*
X160546923Y-108343771D01*
X160975494Y-108915200D02*
X160880256Y-108962819D01*
X160880256Y-108962819D02*
X160642161Y-108962819D01*
X160642161Y-108962819D02*
X160546923Y-108915200D01*
X160546923Y-108915200D02*
X160499304Y-108819961D01*
X160499304Y-108819961D02*
X160499304Y-108724723D01*
X160499304Y-108724723D02*
X160546923Y-108629485D01*
X160546923Y-108629485D02*
X160642161Y-108581866D01*
X160642161Y-108581866D02*
X160880256Y-108581866D01*
X160880256Y-108581866D02*
X160975494Y-108534247D01*
X161880256Y-108296152D02*
X161880256Y-109105676D01*
X161880256Y-109105676D02*
X161832637Y-109200914D01*
X161832637Y-109200914D02*
X161785018Y-109248533D01*
X161785018Y-109248533D02*
X161689780Y-109296152D01*
X161689780Y-109296152D02*
X161546923Y-109296152D01*
X161546923Y-109296152D02*
X161451685Y-109248533D01*
X161880256Y-108915200D02*
X161785018Y-108962819D01*
X161785018Y-108962819D02*
X161594542Y-108962819D01*
X161594542Y-108962819D02*
X161499304Y-108915200D01*
X161499304Y-108915200D02*
X161451685Y-108867580D01*
X161451685Y-108867580D02*
X161404066Y-108772342D01*
X161404066Y-108772342D02*
X161404066Y-108486628D01*
X161404066Y-108486628D02*
X161451685Y-108391390D01*
X161451685Y-108391390D02*
X161499304Y-108343771D01*
X161499304Y-108343771D02*
X161594542Y-108296152D01*
X161594542Y-108296152D02*
X161785018Y-108296152D01*
X161785018Y-108296152D02*
X161880256Y-108343771D01*
X162737399Y-108915200D02*
X162642161Y-108962819D01*
X162642161Y-108962819D02*
X162451685Y-108962819D01*
X162451685Y-108962819D02*
X162356447Y-108915200D01*
X162356447Y-108915200D02*
X162308828Y-108819961D01*
X162308828Y-108819961D02*
X162308828Y-108439009D01*
X162308828Y-108439009D02*
X162356447Y-108343771D01*
X162356447Y-108343771D02*
X162451685Y-108296152D01*
X162451685Y-108296152D02*
X162642161Y-108296152D01*
X162642161Y-108296152D02*
X162737399Y-108343771D01*
X162737399Y-108343771D02*
X162785018Y-108439009D01*
X162785018Y-108439009D02*
X162785018Y-108534247D01*
X162785018Y-108534247D02*
X162308828Y-108629485D01*
X164404066Y-108962819D02*
X164404066Y-107962819D01*
X164404066Y-108915200D02*
X164308828Y-108962819D01*
X164308828Y-108962819D02*
X164118352Y-108962819D01*
X164118352Y-108962819D02*
X164023114Y-108915200D01*
X164023114Y-108915200D02*
X163975495Y-108867580D01*
X163975495Y-108867580D02*
X163927876Y-108772342D01*
X163927876Y-108772342D02*
X163927876Y-108486628D01*
X163927876Y-108486628D02*
X163975495Y-108391390D01*
X163975495Y-108391390D02*
X164023114Y-108343771D01*
X164023114Y-108343771D02*
X164118352Y-108296152D01*
X164118352Y-108296152D02*
X164308828Y-108296152D01*
X164308828Y-108296152D02*
X164404066Y-108343771D01*
X164880257Y-108962819D02*
X164880257Y-108296152D01*
X164880257Y-108486628D02*
X164927876Y-108391390D01*
X164927876Y-108391390D02*
X164975495Y-108343771D01*
X164975495Y-108343771D02*
X165070733Y-108296152D01*
X165070733Y-108296152D02*
X165165971Y-108296152D01*
X165642162Y-108962819D02*
X165546924Y-108915200D01*
X165546924Y-108915200D02*
X165499305Y-108867580D01*
X165499305Y-108867580D02*
X165451686Y-108772342D01*
X165451686Y-108772342D02*
X165451686Y-108486628D01*
X165451686Y-108486628D02*
X165499305Y-108391390D01*
X165499305Y-108391390D02*
X165546924Y-108343771D01*
X165546924Y-108343771D02*
X165642162Y-108296152D01*
X165642162Y-108296152D02*
X165785019Y-108296152D01*
X165785019Y-108296152D02*
X165880257Y-108343771D01*
X165880257Y-108343771D02*
X165927876Y-108391390D01*
X165927876Y-108391390D02*
X165975495Y-108486628D01*
X165975495Y-108486628D02*
X165975495Y-108772342D01*
X165975495Y-108772342D02*
X165927876Y-108867580D01*
X165927876Y-108867580D02*
X165880257Y-108915200D01*
X165880257Y-108915200D02*
X165785019Y-108962819D01*
X165785019Y-108962819D02*
X165642162Y-108962819D01*
X166404067Y-108296152D02*
X166404067Y-109296152D01*
X166404067Y-108343771D02*
X166499305Y-108296152D01*
X166499305Y-108296152D02*
X166689781Y-108296152D01*
X166689781Y-108296152D02*
X166785019Y-108343771D01*
X166785019Y-108343771D02*
X166832638Y-108391390D01*
X166832638Y-108391390D02*
X166880257Y-108486628D01*
X166880257Y-108486628D02*
X166880257Y-108772342D01*
X166880257Y-108772342D02*
X166832638Y-108867580D01*
X166832638Y-108867580D02*
X166785019Y-108915200D01*
X166785019Y-108915200D02*
X166689781Y-108962819D01*
X166689781Y-108962819D02*
X166499305Y-108962819D01*
X166499305Y-108962819D02*
X166404067Y-108915200D01*
X168499305Y-108962819D02*
X168499305Y-107962819D01*
X168499305Y-108915200D02*
X168404067Y-108962819D01*
X168404067Y-108962819D02*
X168213591Y-108962819D01*
X168213591Y-108962819D02*
X168118353Y-108915200D01*
X168118353Y-108915200D02*
X168070734Y-108867580D01*
X168070734Y-108867580D02*
X168023115Y-108772342D01*
X168023115Y-108772342D02*
X168023115Y-108486628D01*
X168023115Y-108486628D02*
X168070734Y-108391390D01*
X168070734Y-108391390D02*
X168118353Y-108343771D01*
X168118353Y-108343771D02*
X168213591Y-108296152D01*
X168213591Y-108296152D02*
X168404067Y-108296152D01*
X168404067Y-108296152D02*
X168499305Y-108343771D01*
X169118353Y-108962819D02*
X169023115Y-108915200D01*
X169023115Y-108915200D02*
X168975496Y-108867580D01*
X168975496Y-108867580D02*
X168927877Y-108772342D01*
X168927877Y-108772342D02*
X168927877Y-108486628D01*
X168927877Y-108486628D02*
X168975496Y-108391390D01*
X168975496Y-108391390D02*
X169023115Y-108343771D01*
X169023115Y-108343771D02*
X169118353Y-108296152D01*
X169118353Y-108296152D02*
X169261210Y-108296152D01*
X169261210Y-108296152D02*
X169356448Y-108343771D01*
X169356448Y-108343771D02*
X169404067Y-108391390D01*
X169404067Y-108391390D02*
X169451686Y-108486628D01*
X169451686Y-108486628D02*
X169451686Y-108772342D01*
X169451686Y-108772342D02*
X169404067Y-108867580D01*
X169404067Y-108867580D02*
X169356448Y-108915200D01*
X169356448Y-108915200D02*
X169261210Y-108962819D01*
X169261210Y-108962819D02*
X169118353Y-108962819D01*
X169785020Y-108296152D02*
X169975496Y-108962819D01*
X169975496Y-108962819D02*
X170165972Y-108486628D01*
X170165972Y-108486628D02*
X170356448Y-108962819D01*
X170356448Y-108962819D02*
X170546924Y-108296152D01*
X170927877Y-108296152D02*
X170927877Y-108962819D01*
X170927877Y-108391390D02*
X170975496Y-108343771D01*
X170975496Y-108343771D02*
X171070734Y-108296152D01*
X171070734Y-108296152D02*
X171213591Y-108296152D01*
X171213591Y-108296152D02*
X171308829Y-108343771D01*
X171308829Y-108343771D02*
X171356448Y-108439009D01*
X171356448Y-108439009D02*
X171356448Y-108962819D01*
X173165972Y-108962819D02*
X172832639Y-108486628D01*
X172594544Y-108962819D02*
X172594544Y-107962819D01*
X172594544Y-107962819D02*
X172975496Y-107962819D01*
X172975496Y-107962819D02*
X173070734Y-108010438D01*
X173070734Y-108010438D02*
X173118353Y-108058057D01*
X173118353Y-108058057D02*
X173165972Y-108153295D01*
X173165972Y-108153295D02*
X173165972Y-108296152D01*
X173165972Y-108296152D02*
X173118353Y-108391390D01*
X173118353Y-108391390D02*
X173070734Y-108439009D01*
X173070734Y-108439009D02*
X172975496Y-108486628D01*
X172975496Y-108486628D02*
X172594544Y-108486628D01*
X173975496Y-108915200D02*
X173880258Y-108962819D01*
X173880258Y-108962819D02*
X173689782Y-108962819D01*
X173689782Y-108962819D02*
X173594544Y-108915200D01*
X173594544Y-108915200D02*
X173546925Y-108819961D01*
X173546925Y-108819961D02*
X173546925Y-108439009D01*
X173546925Y-108439009D02*
X173594544Y-108343771D01*
X173594544Y-108343771D02*
X173689782Y-108296152D01*
X173689782Y-108296152D02*
X173880258Y-108296152D01*
X173880258Y-108296152D02*
X173975496Y-108343771D01*
X173975496Y-108343771D02*
X174023115Y-108439009D01*
X174023115Y-108439009D02*
X174023115Y-108534247D01*
X174023115Y-108534247D02*
X173546925Y-108629485D01*
X174880258Y-108296152D02*
X174880258Y-109105676D01*
X174880258Y-109105676D02*
X174832639Y-109200914D01*
X174832639Y-109200914D02*
X174785020Y-109248533D01*
X174785020Y-109248533D02*
X174689782Y-109296152D01*
X174689782Y-109296152D02*
X174546925Y-109296152D01*
X174546925Y-109296152D02*
X174451687Y-109248533D01*
X174880258Y-108915200D02*
X174785020Y-108962819D01*
X174785020Y-108962819D02*
X174594544Y-108962819D01*
X174594544Y-108962819D02*
X174499306Y-108915200D01*
X174499306Y-108915200D02*
X174451687Y-108867580D01*
X174451687Y-108867580D02*
X174404068Y-108772342D01*
X174404068Y-108772342D02*
X174404068Y-108486628D01*
X174404068Y-108486628D02*
X174451687Y-108391390D01*
X174451687Y-108391390D02*
X174499306Y-108343771D01*
X174499306Y-108343771D02*
X174594544Y-108296152D01*
X174594544Y-108296152D02*
X174785020Y-108296152D01*
X174785020Y-108296152D02*
X174880258Y-108343771D01*
X175785020Y-108296152D02*
X175785020Y-108962819D01*
X175356449Y-108296152D02*
X175356449Y-108819961D01*
X175356449Y-108819961D02*
X175404068Y-108915200D01*
X175404068Y-108915200D02*
X175499306Y-108962819D01*
X175499306Y-108962819D02*
X175642163Y-108962819D01*
X175642163Y-108962819D02*
X175737401Y-108915200D01*
X175737401Y-108915200D02*
X175785020Y-108867580D01*
X176404068Y-108962819D02*
X176308830Y-108915200D01*
X176308830Y-108915200D02*
X176261211Y-108819961D01*
X176261211Y-108819961D02*
X176261211Y-107962819D01*
X177213592Y-108962819D02*
X177213592Y-108439009D01*
X177213592Y-108439009D02*
X177165973Y-108343771D01*
X177165973Y-108343771D02*
X177070735Y-108296152D01*
X177070735Y-108296152D02*
X176880259Y-108296152D01*
X176880259Y-108296152D02*
X176785021Y-108343771D01*
X177213592Y-108915200D02*
X177118354Y-108962819D01*
X177118354Y-108962819D02*
X176880259Y-108962819D01*
X176880259Y-108962819D02*
X176785021Y-108915200D01*
X176785021Y-108915200D02*
X176737402Y-108819961D01*
X176737402Y-108819961D02*
X176737402Y-108724723D01*
X176737402Y-108724723D02*
X176785021Y-108629485D01*
X176785021Y-108629485D02*
X176880259Y-108581866D01*
X176880259Y-108581866D02*
X177118354Y-108581866D01*
X177118354Y-108581866D02*
X177213592Y-108534247D01*
X177546926Y-108296152D02*
X177927878Y-108296152D01*
X177689783Y-107962819D02*
X177689783Y-108819961D01*
X177689783Y-108819961D02*
X177737402Y-108915200D01*
X177737402Y-108915200D02*
X177832640Y-108962819D01*
X177832640Y-108962819D02*
X177927878Y-108962819D01*
X178404069Y-108962819D02*
X178308831Y-108915200D01*
X178308831Y-108915200D02*
X178261212Y-108867580D01*
X178261212Y-108867580D02*
X178213593Y-108772342D01*
X178213593Y-108772342D02*
X178213593Y-108486628D01*
X178213593Y-108486628D02*
X178261212Y-108391390D01*
X178261212Y-108391390D02*
X178308831Y-108343771D01*
X178308831Y-108343771D02*
X178404069Y-108296152D01*
X178404069Y-108296152D02*
X178546926Y-108296152D01*
X178546926Y-108296152D02*
X178642164Y-108343771D01*
X178642164Y-108343771D02*
X178689783Y-108391390D01*
X178689783Y-108391390D02*
X178737402Y-108486628D01*
X178737402Y-108486628D02*
X178737402Y-108772342D01*
X178737402Y-108772342D02*
X178689783Y-108867580D01*
X178689783Y-108867580D02*
X178642164Y-108915200D01*
X178642164Y-108915200D02*
X178546926Y-108962819D01*
X178546926Y-108962819D02*
X178404069Y-108962819D01*
X179165974Y-108962819D02*
X179165974Y-108296152D01*
X179165974Y-108486628D02*
X179213593Y-108391390D01*
X179213593Y-108391390D02*
X179261212Y-108343771D01*
X179261212Y-108343771D02*
X179356450Y-108296152D01*
X179356450Y-108296152D02*
X179451688Y-108296152D01*
X179737403Y-108915200D02*
X179832641Y-108962819D01*
X179832641Y-108962819D02*
X180023117Y-108962819D01*
X180023117Y-108962819D02*
X180118355Y-108915200D01*
X180118355Y-108915200D02*
X180165974Y-108819961D01*
X180165974Y-108819961D02*
X180165974Y-108772342D01*
X180165974Y-108772342D02*
X180118355Y-108677104D01*
X180118355Y-108677104D02*
X180023117Y-108629485D01*
X180023117Y-108629485D02*
X179880260Y-108629485D01*
X179880260Y-108629485D02*
X179785022Y-108581866D01*
X179785022Y-108581866D02*
X179737403Y-108486628D01*
X179737403Y-108486628D02*
X179737403Y-108439009D01*
X179737403Y-108439009D02*
X179785022Y-108343771D01*
X179785022Y-108343771D02*
X179880260Y-108296152D01*
X179880260Y-108296152D02*
X180023117Y-108296152D01*
X180023117Y-108296152D02*
X180118355Y-108343771D01*
X140798779Y-117344819D02*
X140798779Y-116344819D01*
X140798779Y-116344819D02*
X141132112Y-117059104D01*
X141132112Y-117059104D02*
X141465445Y-116344819D01*
X141465445Y-116344819D02*
X141465445Y-117344819D01*
X141941636Y-117344819D02*
X141941636Y-116678152D01*
X141941636Y-116344819D02*
X141894017Y-116392438D01*
X141894017Y-116392438D02*
X141941636Y-116440057D01*
X141941636Y-116440057D02*
X141989255Y-116392438D01*
X141989255Y-116392438D02*
X141941636Y-116344819D01*
X141941636Y-116344819D02*
X141941636Y-116440057D01*
X142846397Y-117297200D02*
X142751159Y-117344819D01*
X142751159Y-117344819D02*
X142560683Y-117344819D01*
X142560683Y-117344819D02*
X142465445Y-117297200D01*
X142465445Y-117297200D02*
X142417826Y-117249580D01*
X142417826Y-117249580D02*
X142370207Y-117154342D01*
X142370207Y-117154342D02*
X142370207Y-116868628D01*
X142370207Y-116868628D02*
X142417826Y-116773390D01*
X142417826Y-116773390D02*
X142465445Y-116725771D01*
X142465445Y-116725771D02*
X142560683Y-116678152D01*
X142560683Y-116678152D02*
X142751159Y-116678152D01*
X142751159Y-116678152D02*
X142846397Y-116725771D01*
X143274969Y-117344819D02*
X143274969Y-116678152D01*
X143274969Y-116868628D02*
X143322588Y-116773390D01*
X143322588Y-116773390D02*
X143370207Y-116725771D01*
X143370207Y-116725771D02*
X143465445Y-116678152D01*
X143465445Y-116678152D02*
X143560683Y-116678152D01*
X144036874Y-117344819D02*
X143941636Y-117297200D01*
X143941636Y-117297200D02*
X143894017Y-117249580D01*
X143894017Y-117249580D02*
X143846398Y-117154342D01*
X143846398Y-117154342D02*
X143846398Y-116868628D01*
X143846398Y-116868628D02*
X143894017Y-116773390D01*
X143894017Y-116773390D02*
X143941636Y-116725771D01*
X143941636Y-116725771D02*
X144036874Y-116678152D01*
X144036874Y-116678152D02*
X144179731Y-116678152D01*
X144179731Y-116678152D02*
X144274969Y-116725771D01*
X144274969Y-116725771D02*
X144322588Y-116773390D01*
X144322588Y-116773390D02*
X144370207Y-116868628D01*
X144370207Y-116868628D02*
X144370207Y-117154342D01*
X144370207Y-117154342D02*
X144322588Y-117249580D01*
X144322588Y-117249580D02*
X144274969Y-117297200D01*
X144274969Y-117297200D02*
X144179731Y-117344819D01*
X144179731Y-117344819D02*
X144036874Y-117344819D01*
X145227350Y-117297200D02*
X145132112Y-117344819D01*
X145132112Y-117344819D02*
X144941636Y-117344819D01*
X144941636Y-117344819D02*
X144846398Y-117297200D01*
X144846398Y-117297200D02*
X144798779Y-117249580D01*
X144798779Y-117249580D02*
X144751160Y-117154342D01*
X144751160Y-117154342D02*
X144751160Y-116868628D01*
X144751160Y-116868628D02*
X144798779Y-116773390D01*
X144798779Y-116773390D02*
X144846398Y-116725771D01*
X144846398Y-116725771D02*
X144941636Y-116678152D01*
X144941636Y-116678152D02*
X145132112Y-116678152D01*
X145132112Y-116678152D02*
X145227350Y-116725771D01*
X145798779Y-117344819D02*
X145703541Y-117297200D01*
X145703541Y-117297200D02*
X145655922Y-117249580D01*
X145655922Y-117249580D02*
X145608303Y-117154342D01*
X145608303Y-117154342D02*
X145608303Y-116868628D01*
X145608303Y-116868628D02*
X145655922Y-116773390D01*
X145655922Y-116773390D02*
X145703541Y-116725771D01*
X145703541Y-116725771D02*
X145798779Y-116678152D01*
X145798779Y-116678152D02*
X145941636Y-116678152D01*
X145941636Y-116678152D02*
X146036874Y-116725771D01*
X146036874Y-116725771D02*
X146084493Y-116773390D01*
X146084493Y-116773390D02*
X146132112Y-116868628D01*
X146132112Y-116868628D02*
X146132112Y-117154342D01*
X146132112Y-117154342D02*
X146084493Y-117249580D01*
X146084493Y-117249580D02*
X146036874Y-117297200D01*
X146036874Y-117297200D02*
X145941636Y-117344819D01*
X145941636Y-117344819D02*
X145798779Y-117344819D01*
X146560684Y-116678152D02*
X146560684Y-117344819D01*
X146560684Y-116773390D02*
X146608303Y-116725771D01*
X146608303Y-116725771D02*
X146703541Y-116678152D01*
X146703541Y-116678152D02*
X146846398Y-116678152D01*
X146846398Y-116678152D02*
X146941636Y-116725771D01*
X146941636Y-116725771D02*
X146989255Y-116821009D01*
X146989255Y-116821009D02*
X146989255Y-117344819D01*
X147322589Y-116678152D02*
X147703541Y-116678152D01*
X147465446Y-116344819D02*
X147465446Y-117201961D01*
X147465446Y-117201961D02*
X147513065Y-117297200D01*
X147513065Y-117297200D02*
X147608303Y-117344819D01*
X147608303Y-117344819D02*
X147703541Y-117344819D01*
X148036875Y-117344819D02*
X148036875Y-116678152D01*
X148036875Y-116868628D02*
X148084494Y-116773390D01*
X148084494Y-116773390D02*
X148132113Y-116725771D01*
X148132113Y-116725771D02*
X148227351Y-116678152D01*
X148227351Y-116678152D02*
X148322589Y-116678152D01*
X148798780Y-117344819D02*
X148703542Y-117297200D01*
X148703542Y-117297200D02*
X148655923Y-117249580D01*
X148655923Y-117249580D02*
X148608304Y-117154342D01*
X148608304Y-117154342D02*
X148608304Y-116868628D01*
X148608304Y-116868628D02*
X148655923Y-116773390D01*
X148655923Y-116773390D02*
X148703542Y-116725771D01*
X148703542Y-116725771D02*
X148798780Y-116678152D01*
X148798780Y-116678152D02*
X148941637Y-116678152D01*
X148941637Y-116678152D02*
X149036875Y-116725771D01*
X149036875Y-116725771D02*
X149084494Y-116773390D01*
X149084494Y-116773390D02*
X149132113Y-116868628D01*
X149132113Y-116868628D02*
X149132113Y-117154342D01*
X149132113Y-117154342D02*
X149084494Y-117249580D01*
X149084494Y-117249580D02*
X149036875Y-117297200D01*
X149036875Y-117297200D02*
X148941637Y-117344819D01*
X148941637Y-117344819D02*
X148798780Y-117344819D01*
X149703542Y-117344819D02*
X149608304Y-117297200D01*
X149608304Y-117297200D02*
X149560685Y-117201961D01*
X149560685Y-117201961D02*
X149560685Y-116344819D01*
X150227352Y-117344819D02*
X150132114Y-117297200D01*
X150132114Y-117297200D02*
X150084495Y-117201961D01*
X150084495Y-117201961D02*
X150084495Y-116344819D01*
X150989257Y-117297200D02*
X150894019Y-117344819D01*
X150894019Y-117344819D02*
X150703543Y-117344819D01*
X150703543Y-117344819D02*
X150608305Y-117297200D01*
X150608305Y-117297200D02*
X150560686Y-117201961D01*
X150560686Y-117201961D02*
X150560686Y-116821009D01*
X150560686Y-116821009D02*
X150608305Y-116725771D01*
X150608305Y-116725771D02*
X150703543Y-116678152D01*
X150703543Y-116678152D02*
X150894019Y-116678152D01*
X150894019Y-116678152D02*
X150989257Y-116725771D01*
X150989257Y-116725771D02*
X151036876Y-116821009D01*
X151036876Y-116821009D02*
X151036876Y-116916247D01*
X151036876Y-116916247D02*
X150560686Y-117011485D01*
X151465448Y-117344819D02*
X151465448Y-116678152D01*
X151465448Y-116868628D02*
X151513067Y-116773390D01*
X151513067Y-116773390D02*
X151560686Y-116725771D01*
X151560686Y-116725771D02*
X151655924Y-116678152D01*
X151655924Y-116678152D02*
X151751162Y-116678152D01*
X102412969Y-105787819D02*
X101936779Y-105787819D01*
X101936779Y-105787819D02*
X101936779Y-104787819D01*
X103317731Y-105692580D02*
X103270112Y-105740200D01*
X103270112Y-105740200D02*
X103127255Y-105787819D01*
X103127255Y-105787819D02*
X103032017Y-105787819D01*
X103032017Y-105787819D02*
X102889160Y-105740200D01*
X102889160Y-105740200D02*
X102793922Y-105644961D01*
X102793922Y-105644961D02*
X102746303Y-105549723D01*
X102746303Y-105549723D02*
X102698684Y-105359247D01*
X102698684Y-105359247D02*
X102698684Y-105216390D01*
X102698684Y-105216390D02*
X102746303Y-105025914D01*
X102746303Y-105025914D02*
X102793922Y-104930676D01*
X102793922Y-104930676D02*
X102889160Y-104835438D01*
X102889160Y-104835438D02*
X103032017Y-104787819D01*
X103032017Y-104787819D02*
X103127255Y-104787819D01*
X103127255Y-104787819D02*
X103270112Y-104835438D01*
X103270112Y-104835438D02*
X103317731Y-104883057D01*
X103746303Y-105787819D02*
X103746303Y-104787819D01*
X103746303Y-104787819D02*
X103984398Y-104787819D01*
X103984398Y-104787819D02*
X104127255Y-104835438D01*
X104127255Y-104835438D02*
X104222493Y-104930676D01*
X104222493Y-104930676D02*
X104270112Y-105025914D01*
X104270112Y-105025914D02*
X104317731Y-105216390D01*
X104317731Y-105216390D02*
X104317731Y-105359247D01*
X104317731Y-105359247D02*
X104270112Y-105549723D01*
X104270112Y-105549723D02*
X104222493Y-105644961D01*
X104222493Y-105644961D02*
X104127255Y-105740200D01*
X104127255Y-105740200D02*
X103984398Y-105787819D01*
X103984398Y-105787819D02*
X103746303Y-105787819D01*
X105508208Y-105787819D02*
X105508208Y-104787819D01*
X105936779Y-104883057D02*
X105984398Y-104835438D01*
X105984398Y-104835438D02*
X106079636Y-104787819D01*
X106079636Y-104787819D02*
X106317731Y-104787819D01*
X106317731Y-104787819D02*
X106412969Y-104835438D01*
X106412969Y-104835438D02*
X106460588Y-104883057D01*
X106460588Y-104883057D02*
X106508207Y-104978295D01*
X106508207Y-104978295D02*
X106508207Y-105073533D01*
X106508207Y-105073533D02*
X106460588Y-105216390D01*
X106460588Y-105216390D02*
X105889160Y-105787819D01*
X105889160Y-105787819D02*
X106508207Y-105787819D01*
X107508207Y-105692580D02*
X107460588Y-105740200D01*
X107460588Y-105740200D02*
X107317731Y-105787819D01*
X107317731Y-105787819D02*
X107222493Y-105787819D01*
X107222493Y-105787819D02*
X107079636Y-105740200D01*
X107079636Y-105740200D02*
X106984398Y-105644961D01*
X106984398Y-105644961D02*
X106936779Y-105549723D01*
X106936779Y-105549723D02*
X106889160Y-105359247D01*
X106889160Y-105359247D02*
X106889160Y-105216390D01*
X106889160Y-105216390D02*
X106936779Y-105025914D01*
X106936779Y-105025914D02*
X106984398Y-104930676D01*
X106984398Y-104930676D02*
X107079636Y-104835438D01*
X107079636Y-104835438D02*
X107222493Y-104787819D01*
X107222493Y-104787819D02*
X107317731Y-104787819D01*
X107317731Y-104787819D02*
X107460588Y-104835438D01*
X107460588Y-104835438D02*
X107508207Y-104883057D01*
X211648922Y-99834819D02*
X212220350Y-99834819D01*
X211934636Y-100834819D02*
X211934636Y-99834819D01*
X212553684Y-100834819D02*
X212553684Y-99834819D01*
X212982255Y-100834819D02*
X212982255Y-100311009D01*
X212982255Y-100311009D02*
X212934636Y-100215771D01*
X212934636Y-100215771D02*
X212839398Y-100168152D01*
X212839398Y-100168152D02*
X212696541Y-100168152D01*
X212696541Y-100168152D02*
X212601303Y-100215771D01*
X212601303Y-100215771D02*
X212553684Y-100263390D01*
X213839398Y-100787200D02*
X213744160Y-100834819D01*
X213744160Y-100834819D02*
X213553684Y-100834819D01*
X213553684Y-100834819D02*
X213458446Y-100787200D01*
X213458446Y-100787200D02*
X213410827Y-100691961D01*
X213410827Y-100691961D02*
X213410827Y-100311009D01*
X213410827Y-100311009D02*
X213458446Y-100215771D01*
X213458446Y-100215771D02*
X213553684Y-100168152D01*
X213553684Y-100168152D02*
X213744160Y-100168152D01*
X213744160Y-100168152D02*
X213839398Y-100215771D01*
X213839398Y-100215771D02*
X213887017Y-100311009D01*
X213887017Y-100311009D02*
X213887017Y-100406247D01*
X213887017Y-100406247D02*
X213410827Y-100501485D01*
X214315589Y-100834819D02*
X214315589Y-100168152D01*
X214315589Y-100358628D02*
X214363208Y-100263390D01*
X214363208Y-100263390D02*
X214410827Y-100215771D01*
X214410827Y-100215771D02*
X214506065Y-100168152D01*
X214506065Y-100168152D02*
X214601303Y-100168152D01*
X214934637Y-100834819D02*
X214934637Y-100168152D01*
X214934637Y-100263390D02*
X214982256Y-100215771D01*
X214982256Y-100215771D02*
X215077494Y-100168152D01*
X215077494Y-100168152D02*
X215220351Y-100168152D01*
X215220351Y-100168152D02*
X215315589Y-100215771D01*
X215315589Y-100215771D02*
X215363208Y-100311009D01*
X215363208Y-100311009D02*
X215363208Y-100834819D01*
X215363208Y-100311009D02*
X215410827Y-100215771D01*
X215410827Y-100215771D02*
X215506065Y-100168152D01*
X215506065Y-100168152D02*
X215648922Y-100168152D01*
X215648922Y-100168152D02*
X215744161Y-100215771D01*
X215744161Y-100215771D02*
X215791780Y-100311009D01*
X215791780Y-100311009D02*
X215791780Y-100834819D01*
X216410827Y-100834819D02*
X216315589Y-100787200D01*
X216315589Y-100787200D02*
X216267970Y-100739580D01*
X216267970Y-100739580D02*
X216220351Y-100644342D01*
X216220351Y-100644342D02*
X216220351Y-100358628D01*
X216220351Y-100358628D02*
X216267970Y-100263390D01*
X216267970Y-100263390D02*
X216315589Y-100215771D01*
X216315589Y-100215771D02*
X216410827Y-100168152D01*
X216410827Y-100168152D02*
X216553684Y-100168152D01*
X216553684Y-100168152D02*
X216648922Y-100215771D01*
X216648922Y-100215771D02*
X216696541Y-100263390D01*
X216696541Y-100263390D02*
X216744160Y-100358628D01*
X216744160Y-100358628D02*
X216744160Y-100644342D01*
X216744160Y-100644342D02*
X216696541Y-100739580D01*
X216696541Y-100739580D02*
X216648922Y-100787200D01*
X216648922Y-100787200D02*
X216553684Y-100834819D01*
X216553684Y-100834819D02*
X216410827Y-100834819D01*
X217601303Y-100787200D02*
X217506065Y-100834819D01*
X217506065Y-100834819D02*
X217315589Y-100834819D01*
X217315589Y-100834819D02*
X217220351Y-100787200D01*
X217220351Y-100787200D02*
X217172732Y-100739580D01*
X217172732Y-100739580D02*
X217125113Y-100644342D01*
X217125113Y-100644342D02*
X217125113Y-100358628D01*
X217125113Y-100358628D02*
X217172732Y-100263390D01*
X217172732Y-100263390D02*
X217220351Y-100215771D01*
X217220351Y-100215771D02*
X217315589Y-100168152D01*
X217315589Y-100168152D02*
X217506065Y-100168152D01*
X217506065Y-100168152D02*
X217601303Y-100215771D01*
X218172732Y-100834819D02*
X218077494Y-100787200D01*
X218077494Y-100787200D02*
X218029875Y-100739580D01*
X218029875Y-100739580D02*
X217982256Y-100644342D01*
X217982256Y-100644342D02*
X217982256Y-100358628D01*
X217982256Y-100358628D02*
X218029875Y-100263390D01*
X218029875Y-100263390D02*
X218077494Y-100215771D01*
X218077494Y-100215771D02*
X218172732Y-100168152D01*
X218172732Y-100168152D02*
X218315589Y-100168152D01*
X218315589Y-100168152D02*
X218410827Y-100215771D01*
X218410827Y-100215771D02*
X218458446Y-100263390D01*
X218458446Y-100263390D02*
X218506065Y-100358628D01*
X218506065Y-100358628D02*
X218506065Y-100644342D01*
X218506065Y-100644342D02*
X218458446Y-100739580D01*
X218458446Y-100739580D02*
X218410827Y-100787200D01*
X218410827Y-100787200D02*
X218315589Y-100834819D01*
X218315589Y-100834819D02*
X218172732Y-100834819D01*
X219363208Y-100168152D02*
X219363208Y-100834819D01*
X218934637Y-100168152D02*
X218934637Y-100691961D01*
X218934637Y-100691961D02*
X218982256Y-100787200D01*
X218982256Y-100787200D02*
X219077494Y-100834819D01*
X219077494Y-100834819D02*
X219220351Y-100834819D01*
X219220351Y-100834819D02*
X219315589Y-100787200D01*
X219315589Y-100787200D02*
X219363208Y-100739580D01*
X219839399Y-100168152D02*
X219839399Y-101168152D01*
X219839399Y-100215771D02*
X219934637Y-100168152D01*
X219934637Y-100168152D02*
X220125113Y-100168152D01*
X220125113Y-100168152D02*
X220220351Y-100215771D01*
X220220351Y-100215771D02*
X220267970Y-100263390D01*
X220267970Y-100263390D02*
X220315589Y-100358628D01*
X220315589Y-100358628D02*
X220315589Y-100644342D01*
X220315589Y-100644342D02*
X220267970Y-100739580D01*
X220267970Y-100739580D02*
X220220351Y-100787200D01*
X220220351Y-100787200D02*
X220125113Y-100834819D01*
X220125113Y-100834819D02*
X219934637Y-100834819D01*
X219934637Y-100834819D02*
X219839399Y-100787200D01*
X220887018Y-100834819D02*
X220791780Y-100787200D01*
X220791780Y-100787200D02*
X220744161Y-100691961D01*
X220744161Y-100691961D02*
X220744161Y-99834819D01*
X221648923Y-100787200D02*
X221553685Y-100834819D01*
X221553685Y-100834819D02*
X221363209Y-100834819D01*
X221363209Y-100834819D02*
X221267971Y-100787200D01*
X221267971Y-100787200D02*
X221220352Y-100691961D01*
X221220352Y-100691961D02*
X221220352Y-100311009D01*
X221220352Y-100311009D02*
X221267971Y-100215771D01*
X221267971Y-100215771D02*
X221363209Y-100168152D01*
X221363209Y-100168152D02*
X221553685Y-100168152D01*
X221553685Y-100168152D02*
X221648923Y-100215771D01*
X221648923Y-100215771D02*
X221696542Y-100311009D01*
X221696542Y-100311009D02*
X221696542Y-100406247D01*
X221696542Y-100406247D02*
X221220352Y-100501485D01*
X222887019Y-100834819D02*
X222887019Y-100168152D01*
X222887019Y-100263390D02*
X222934638Y-100215771D01*
X222934638Y-100215771D02*
X223029876Y-100168152D01*
X223029876Y-100168152D02*
X223172733Y-100168152D01*
X223172733Y-100168152D02*
X223267971Y-100215771D01*
X223267971Y-100215771D02*
X223315590Y-100311009D01*
X223315590Y-100311009D02*
X223315590Y-100834819D01*
X223315590Y-100311009D02*
X223363209Y-100215771D01*
X223363209Y-100215771D02*
X223458447Y-100168152D01*
X223458447Y-100168152D02*
X223601304Y-100168152D01*
X223601304Y-100168152D02*
X223696543Y-100215771D01*
X223696543Y-100215771D02*
X223744162Y-100311009D01*
X223744162Y-100311009D02*
X223744162Y-100834819D01*
X224363209Y-100834819D02*
X224267971Y-100787200D01*
X224267971Y-100787200D02*
X224220352Y-100739580D01*
X224220352Y-100739580D02*
X224172733Y-100644342D01*
X224172733Y-100644342D02*
X224172733Y-100358628D01*
X224172733Y-100358628D02*
X224220352Y-100263390D01*
X224220352Y-100263390D02*
X224267971Y-100215771D01*
X224267971Y-100215771D02*
X224363209Y-100168152D01*
X224363209Y-100168152D02*
X224506066Y-100168152D01*
X224506066Y-100168152D02*
X224601304Y-100215771D01*
X224601304Y-100215771D02*
X224648923Y-100263390D01*
X224648923Y-100263390D02*
X224696542Y-100358628D01*
X224696542Y-100358628D02*
X224696542Y-100644342D01*
X224696542Y-100644342D02*
X224648923Y-100739580D01*
X224648923Y-100739580D02*
X224601304Y-100787200D01*
X224601304Y-100787200D02*
X224506066Y-100834819D01*
X224506066Y-100834819D02*
X224363209Y-100834819D01*
X225553685Y-100834819D02*
X225553685Y-99834819D01*
X225553685Y-100787200D02*
X225458447Y-100834819D01*
X225458447Y-100834819D02*
X225267971Y-100834819D01*
X225267971Y-100834819D02*
X225172733Y-100787200D01*
X225172733Y-100787200D02*
X225125114Y-100739580D01*
X225125114Y-100739580D02*
X225077495Y-100644342D01*
X225077495Y-100644342D02*
X225077495Y-100358628D01*
X225077495Y-100358628D02*
X225125114Y-100263390D01*
X225125114Y-100263390D02*
X225172733Y-100215771D01*
X225172733Y-100215771D02*
X225267971Y-100168152D01*
X225267971Y-100168152D02*
X225458447Y-100168152D01*
X225458447Y-100168152D02*
X225553685Y-100215771D01*
X226458447Y-100168152D02*
X226458447Y-100834819D01*
X226029876Y-100168152D02*
X226029876Y-100691961D01*
X226029876Y-100691961D02*
X226077495Y-100787200D01*
X226077495Y-100787200D02*
X226172733Y-100834819D01*
X226172733Y-100834819D02*
X226315590Y-100834819D01*
X226315590Y-100834819D02*
X226410828Y-100787200D01*
X226410828Y-100787200D02*
X226458447Y-100739580D01*
X227077495Y-100834819D02*
X226982257Y-100787200D01*
X226982257Y-100787200D02*
X226934638Y-100691961D01*
X226934638Y-100691961D02*
X226934638Y-99834819D01*
X227839400Y-100787200D02*
X227744162Y-100834819D01*
X227744162Y-100834819D02*
X227553686Y-100834819D01*
X227553686Y-100834819D02*
X227458448Y-100787200D01*
X227458448Y-100787200D02*
X227410829Y-100691961D01*
X227410829Y-100691961D02*
X227410829Y-100311009D01*
X227410829Y-100311009D02*
X227458448Y-100215771D01*
X227458448Y-100215771D02*
X227553686Y-100168152D01*
X227553686Y-100168152D02*
X227744162Y-100168152D01*
X227744162Y-100168152D02*
X227839400Y-100215771D01*
X227839400Y-100215771D02*
X227887019Y-100311009D01*
X227887019Y-100311009D02*
X227887019Y-100406247D01*
X227887019Y-100406247D02*
X227410829Y-100501485D01*
X197932922Y-103517819D02*
X198266255Y-104517819D01*
X198266255Y-104517819D02*
X198599588Y-103517819D01*
X198932922Y-103517819D02*
X198932922Y-104327342D01*
X198932922Y-104327342D02*
X198980541Y-104422580D01*
X198980541Y-104422580D02*
X199028160Y-104470200D01*
X199028160Y-104470200D02*
X199123398Y-104517819D01*
X199123398Y-104517819D02*
X199313874Y-104517819D01*
X199313874Y-104517819D02*
X199409112Y-104470200D01*
X199409112Y-104470200D02*
X199456731Y-104422580D01*
X199456731Y-104422580D02*
X199504350Y-104327342D01*
X199504350Y-104327342D02*
X199504350Y-103517819D01*
X199932922Y-104470200D02*
X200075779Y-104517819D01*
X200075779Y-104517819D02*
X200313874Y-104517819D01*
X200313874Y-104517819D02*
X200409112Y-104470200D01*
X200409112Y-104470200D02*
X200456731Y-104422580D01*
X200456731Y-104422580D02*
X200504350Y-104327342D01*
X200504350Y-104327342D02*
X200504350Y-104232104D01*
X200504350Y-104232104D02*
X200456731Y-104136866D01*
X200456731Y-104136866D02*
X200409112Y-104089247D01*
X200409112Y-104089247D02*
X200313874Y-104041628D01*
X200313874Y-104041628D02*
X200123398Y-103994009D01*
X200123398Y-103994009D02*
X200028160Y-103946390D01*
X200028160Y-103946390D02*
X199980541Y-103898771D01*
X199980541Y-103898771D02*
X199932922Y-103803533D01*
X199932922Y-103803533D02*
X199932922Y-103708295D01*
X199932922Y-103708295D02*
X199980541Y-103613057D01*
X199980541Y-103613057D02*
X200028160Y-103565438D01*
X200028160Y-103565438D02*
X200123398Y-103517819D01*
X200123398Y-103517819D02*
X200361493Y-103517819D01*
X200361493Y-103517819D02*
X200504350Y-103565438D01*
X201266255Y-103994009D02*
X201409112Y-104041628D01*
X201409112Y-104041628D02*
X201456731Y-104089247D01*
X201456731Y-104089247D02*
X201504350Y-104184485D01*
X201504350Y-104184485D02*
X201504350Y-104327342D01*
X201504350Y-104327342D02*
X201456731Y-104422580D01*
X201456731Y-104422580D02*
X201409112Y-104470200D01*
X201409112Y-104470200D02*
X201313874Y-104517819D01*
X201313874Y-104517819D02*
X200932922Y-104517819D01*
X200932922Y-104517819D02*
X200932922Y-103517819D01*
X200932922Y-103517819D02*
X201266255Y-103517819D01*
X201266255Y-103517819D02*
X201361493Y-103565438D01*
X201361493Y-103565438D02*
X201409112Y-103613057D01*
X201409112Y-103613057D02*
X201456731Y-103708295D01*
X201456731Y-103708295D02*
X201456731Y-103803533D01*
X201456731Y-103803533D02*
X201409112Y-103898771D01*
X201409112Y-103898771D02*
X201361493Y-103946390D01*
X201361493Y-103946390D02*
X201266255Y-103994009D01*
X201266255Y-103994009D02*
X200932922Y-103994009D01*
X202551970Y-103851152D02*
X202932922Y-103851152D01*
X202694827Y-103517819D02*
X202694827Y-104374961D01*
X202694827Y-104374961D02*
X202742446Y-104470200D01*
X202742446Y-104470200D02*
X202837684Y-104517819D01*
X202837684Y-104517819D02*
X202932922Y-104517819D01*
X203409113Y-104517819D02*
X203313875Y-104470200D01*
X203313875Y-104470200D02*
X203266256Y-104422580D01*
X203266256Y-104422580D02*
X203218637Y-104327342D01*
X203218637Y-104327342D02*
X203218637Y-104041628D01*
X203218637Y-104041628D02*
X203266256Y-103946390D01*
X203266256Y-103946390D02*
X203313875Y-103898771D01*
X203313875Y-103898771D02*
X203409113Y-103851152D01*
X203409113Y-103851152D02*
X203551970Y-103851152D01*
X203551970Y-103851152D02*
X203647208Y-103898771D01*
X203647208Y-103898771D02*
X203694827Y-103946390D01*
X203694827Y-103946390D02*
X203742446Y-104041628D01*
X203742446Y-104041628D02*
X203742446Y-104327342D01*
X203742446Y-104327342D02*
X203694827Y-104422580D01*
X203694827Y-104422580D02*
X203647208Y-104470200D01*
X203647208Y-104470200D02*
X203551970Y-104517819D01*
X203551970Y-104517819D02*
X203409113Y-104517819D01*
X204837685Y-103517819D02*
X205456732Y-103517819D01*
X205456732Y-103517819D02*
X205123399Y-103898771D01*
X205123399Y-103898771D02*
X205266256Y-103898771D01*
X205266256Y-103898771D02*
X205361494Y-103946390D01*
X205361494Y-103946390D02*
X205409113Y-103994009D01*
X205409113Y-103994009D02*
X205456732Y-104089247D01*
X205456732Y-104089247D02*
X205456732Y-104327342D01*
X205456732Y-104327342D02*
X205409113Y-104422580D01*
X205409113Y-104422580D02*
X205361494Y-104470200D01*
X205361494Y-104470200D02*
X205266256Y-104517819D01*
X205266256Y-104517819D02*
X204980542Y-104517819D01*
X204980542Y-104517819D02*
X204885304Y-104470200D01*
X204885304Y-104470200D02*
X204837685Y-104422580D01*
X205885304Y-104422580D02*
X205932923Y-104470200D01*
X205932923Y-104470200D02*
X205885304Y-104517819D01*
X205885304Y-104517819D02*
X205837685Y-104470200D01*
X205837685Y-104470200D02*
X205885304Y-104422580D01*
X205885304Y-104422580D02*
X205885304Y-104517819D01*
X206266256Y-103517819D02*
X206885303Y-103517819D01*
X206885303Y-103517819D02*
X206551970Y-103898771D01*
X206551970Y-103898771D02*
X206694827Y-103898771D01*
X206694827Y-103898771D02*
X206790065Y-103946390D01*
X206790065Y-103946390D02*
X206837684Y-103994009D01*
X206837684Y-103994009D02*
X206885303Y-104089247D01*
X206885303Y-104089247D02*
X206885303Y-104327342D01*
X206885303Y-104327342D02*
X206837684Y-104422580D01*
X206837684Y-104422580D02*
X206790065Y-104470200D01*
X206790065Y-104470200D02*
X206694827Y-104517819D01*
X206694827Y-104517819D02*
X206409113Y-104517819D01*
X206409113Y-104517819D02*
X206313875Y-104470200D01*
X206313875Y-104470200D02*
X206266256Y-104422580D01*
X207171018Y-103517819D02*
X207504351Y-104517819D01*
X207504351Y-104517819D02*
X207837684Y-103517819D01*
X118578333Y-81989819D02*
X118245000Y-81513628D01*
X118006905Y-81989819D02*
X118006905Y-80989819D01*
X118006905Y-80989819D02*
X118387857Y-80989819D01*
X118387857Y-80989819D02*
X118483095Y-81037438D01*
X118483095Y-81037438D02*
X118530714Y-81085057D01*
X118530714Y-81085057D02*
X118578333Y-81180295D01*
X118578333Y-81180295D02*
X118578333Y-81323152D01*
X118578333Y-81323152D02*
X118530714Y-81418390D01*
X118530714Y-81418390D02*
X118483095Y-81466009D01*
X118483095Y-81466009D02*
X118387857Y-81513628D01*
X118387857Y-81513628D02*
X118006905Y-81513628D01*
X118911667Y-80989819D02*
X119578333Y-80989819D01*
X119578333Y-80989819D02*
X119149762Y-81989819D01*
X206692286Y-75290249D02*
X206358953Y-75290249D01*
X206358953Y-75814059D02*
X206358953Y-74814059D01*
X206358953Y-74814059D02*
X206835143Y-74814059D01*
X207549429Y-75290249D02*
X207692286Y-75337868D01*
X207692286Y-75337868D02*
X207739905Y-75385487D01*
X207739905Y-75385487D02*
X207787524Y-75480725D01*
X207787524Y-75480725D02*
X207787524Y-75623582D01*
X207787524Y-75623582D02*
X207739905Y-75718820D01*
X207739905Y-75718820D02*
X207692286Y-75766440D01*
X207692286Y-75766440D02*
X207597048Y-75814059D01*
X207597048Y-75814059D02*
X207216096Y-75814059D01*
X207216096Y-75814059D02*
X207216096Y-74814059D01*
X207216096Y-74814059D02*
X207549429Y-74814059D01*
X207549429Y-74814059D02*
X207644667Y-74861678D01*
X207644667Y-74861678D02*
X207692286Y-74909297D01*
X207692286Y-74909297D02*
X207739905Y-75004535D01*
X207739905Y-75004535D02*
X207739905Y-75099773D01*
X207739905Y-75099773D02*
X207692286Y-75195011D01*
X207692286Y-75195011D02*
X207644667Y-75242630D01*
X207644667Y-75242630D02*
X207549429Y-75290249D01*
X207549429Y-75290249D02*
X207216096Y-75290249D01*
X208739905Y-75814059D02*
X208168477Y-75814059D01*
X208454191Y-75814059D02*
X208454191Y-74814059D01*
X208454191Y-74814059D02*
X208358953Y-74956916D01*
X208358953Y-74956916D02*
X208263715Y-75052154D01*
X208263715Y-75052154D02*
X208168477Y-75099773D01*
X133738715Y-112424059D02*
X133738715Y-113233582D01*
X133738715Y-113233582D02*
X133786334Y-113328820D01*
X133786334Y-113328820D02*
X133833953Y-113376440D01*
X133833953Y-113376440D02*
X133929191Y-113424059D01*
X133929191Y-113424059D02*
X134119667Y-113424059D01*
X134119667Y-113424059D02*
X134214905Y-113376440D01*
X134214905Y-113376440D02*
X134262524Y-113328820D01*
X134262524Y-113328820D02*
X134310143Y-113233582D01*
X134310143Y-113233582D02*
X134310143Y-112424059D01*
X134929191Y-112852630D02*
X134833953Y-112805011D01*
X134833953Y-112805011D02*
X134786334Y-112757392D01*
X134786334Y-112757392D02*
X134738715Y-112662154D01*
X134738715Y-112662154D02*
X134738715Y-112614535D01*
X134738715Y-112614535D02*
X134786334Y-112519297D01*
X134786334Y-112519297D02*
X134833953Y-112471678D01*
X134833953Y-112471678D02*
X134929191Y-112424059D01*
X134929191Y-112424059D02*
X135119667Y-112424059D01*
X135119667Y-112424059D02*
X135214905Y-112471678D01*
X135214905Y-112471678D02*
X135262524Y-112519297D01*
X135262524Y-112519297D02*
X135310143Y-112614535D01*
X135310143Y-112614535D02*
X135310143Y-112662154D01*
X135310143Y-112662154D02*
X135262524Y-112757392D01*
X135262524Y-112757392D02*
X135214905Y-112805011D01*
X135214905Y-112805011D02*
X135119667Y-112852630D01*
X135119667Y-112852630D02*
X134929191Y-112852630D01*
X134929191Y-112852630D02*
X134833953Y-112900249D01*
X134833953Y-112900249D02*
X134786334Y-112947868D01*
X134786334Y-112947868D02*
X134738715Y-113043106D01*
X134738715Y-113043106D02*
X134738715Y-113233582D01*
X134738715Y-113233582D02*
X134786334Y-113328820D01*
X134786334Y-113328820D02*
X134833953Y-113376440D01*
X134833953Y-113376440D02*
X134929191Y-113424059D01*
X134929191Y-113424059D02*
X135119667Y-113424059D01*
X135119667Y-113424059D02*
X135214905Y-113376440D01*
X135214905Y-113376440D02*
X135262524Y-113328820D01*
X135262524Y-113328820D02*
X135310143Y-113233582D01*
X135310143Y-113233582D02*
X135310143Y-113043106D01*
X135310143Y-113043106D02*
X135262524Y-112947868D01*
X135262524Y-112947868D02*
X135214905Y-112900249D01*
X135214905Y-112900249D02*
X135119667Y-112852630D01*
X129738714Y-108838344D02*
X130214904Y-108838344D01*
X129643476Y-109124059D02*
X129976809Y-108124059D01*
X129976809Y-108124059D02*
X130310142Y-109124059D01*
X130643476Y-108457392D02*
X130643476Y-109124059D01*
X130643476Y-108552630D02*
X130691095Y-108505011D01*
X130691095Y-108505011D02*
X130786333Y-108457392D01*
X130786333Y-108457392D02*
X130929190Y-108457392D01*
X130929190Y-108457392D02*
X131024428Y-108505011D01*
X131024428Y-108505011D02*
X131072047Y-108600249D01*
X131072047Y-108600249D02*
X131072047Y-109124059D01*
X131405381Y-108457392D02*
X131786333Y-108457392D01*
X131548238Y-108124059D02*
X131548238Y-108981201D01*
X131548238Y-108981201D02*
X131595857Y-109076440D01*
X131595857Y-109076440D02*
X131691095Y-109124059D01*
X131691095Y-109124059D02*
X131786333Y-109124059D01*
X132500619Y-109076440D02*
X132405381Y-109124059D01*
X132405381Y-109124059D02*
X132214905Y-109124059D01*
X132214905Y-109124059D02*
X132119667Y-109076440D01*
X132119667Y-109076440D02*
X132072048Y-108981201D01*
X132072048Y-108981201D02*
X132072048Y-108600249D01*
X132072048Y-108600249D02*
X132119667Y-108505011D01*
X132119667Y-108505011D02*
X132214905Y-108457392D01*
X132214905Y-108457392D02*
X132405381Y-108457392D01*
X132405381Y-108457392D02*
X132500619Y-108505011D01*
X132500619Y-108505011D02*
X132548238Y-108600249D01*
X132548238Y-108600249D02*
X132548238Y-108695487D01*
X132548238Y-108695487D02*
X132072048Y-108790725D01*
X132976810Y-108457392D02*
X132976810Y-109124059D01*
X132976810Y-108552630D02*
X133024429Y-108505011D01*
X133024429Y-108505011D02*
X133119667Y-108457392D01*
X133119667Y-108457392D02*
X133262524Y-108457392D01*
X133262524Y-108457392D02*
X133357762Y-108505011D01*
X133357762Y-108505011D02*
X133405381Y-108600249D01*
X133405381Y-108600249D02*
X133405381Y-109124059D01*
X133881572Y-108457392D02*
X133881572Y-109124059D01*
X133881572Y-108552630D02*
X133929191Y-108505011D01*
X133929191Y-108505011D02*
X134024429Y-108457392D01*
X134024429Y-108457392D02*
X134167286Y-108457392D01*
X134167286Y-108457392D02*
X134262524Y-108505011D01*
X134262524Y-108505011D02*
X134310143Y-108600249D01*
X134310143Y-108600249D02*
X134310143Y-109124059D01*
X135214905Y-109124059D02*
X135214905Y-108600249D01*
X135214905Y-108600249D02*
X135167286Y-108505011D01*
X135167286Y-108505011D02*
X135072048Y-108457392D01*
X135072048Y-108457392D02*
X134881572Y-108457392D01*
X134881572Y-108457392D02*
X134786334Y-108505011D01*
X135214905Y-109076440D02*
X135119667Y-109124059D01*
X135119667Y-109124059D02*
X134881572Y-109124059D01*
X134881572Y-109124059D02*
X134786334Y-109076440D01*
X134786334Y-109076440D02*
X134738715Y-108981201D01*
X134738715Y-108981201D02*
X134738715Y-108885963D01*
X134738715Y-108885963D02*
X134786334Y-108790725D01*
X134786334Y-108790725D02*
X134881572Y-108743106D01*
X134881572Y-108743106D02*
X135119667Y-108743106D01*
X135119667Y-108743106D02*
X135214905Y-108695487D01*
X136405382Y-108838344D02*
X136881572Y-108838344D01*
X136310144Y-109124059D02*
X136643477Y-108124059D01*
X136643477Y-108124059D02*
X136976810Y-109124059D01*
X137310144Y-109124059D02*
X137310144Y-108457392D01*
X137310144Y-108647868D02*
X137357763Y-108552630D01*
X137357763Y-108552630D02*
X137405382Y-108505011D01*
X137405382Y-108505011D02*
X137500620Y-108457392D01*
X137500620Y-108457392D02*
X137595858Y-108457392D01*
X138310144Y-109076440D02*
X138214906Y-109124059D01*
X138214906Y-109124059D02*
X138024430Y-109124059D01*
X138024430Y-109124059D02*
X137929192Y-109076440D01*
X137929192Y-109076440D02*
X137881573Y-108981201D01*
X137881573Y-108981201D02*
X137881573Y-108600249D01*
X137881573Y-108600249D02*
X137929192Y-108505011D01*
X137929192Y-108505011D02*
X138024430Y-108457392D01*
X138024430Y-108457392D02*
X138214906Y-108457392D01*
X138214906Y-108457392D02*
X138310144Y-108505011D01*
X138310144Y-108505011D02*
X138357763Y-108600249D01*
X138357763Y-108600249D02*
X138357763Y-108695487D01*
X138357763Y-108695487D02*
X137881573Y-108790725D01*
X139214906Y-109124059D02*
X139214906Y-108600249D01*
X139214906Y-108600249D02*
X139167287Y-108505011D01*
X139167287Y-108505011D02*
X139072049Y-108457392D01*
X139072049Y-108457392D02*
X138881573Y-108457392D01*
X138881573Y-108457392D02*
X138786335Y-108505011D01*
X139214906Y-109076440D02*
X139119668Y-109124059D01*
X139119668Y-109124059D02*
X138881573Y-109124059D01*
X138881573Y-109124059D02*
X138786335Y-109076440D01*
X138786335Y-109076440D02*
X138738716Y-108981201D01*
X138738716Y-108981201D02*
X138738716Y-108885963D01*
X138738716Y-108885963D02*
X138786335Y-108790725D01*
X138786335Y-108790725D02*
X138881573Y-108743106D01*
X138881573Y-108743106D02*
X139119668Y-108743106D01*
X139119668Y-108743106D02*
X139214906Y-108695487D01*
X151757142Y-103327580D02*
X151709523Y-103375200D01*
X151709523Y-103375200D02*
X151566666Y-103422819D01*
X151566666Y-103422819D02*
X151471428Y-103422819D01*
X151471428Y-103422819D02*
X151328571Y-103375200D01*
X151328571Y-103375200D02*
X151233333Y-103279961D01*
X151233333Y-103279961D02*
X151185714Y-103184723D01*
X151185714Y-103184723D02*
X151138095Y-102994247D01*
X151138095Y-102994247D02*
X151138095Y-102851390D01*
X151138095Y-102851390D02*
X151185714Y-102660914D01*
X151185714Y-102660914D02*
X151233333Y-102565676D01*
X151233333Y-102565676D02*
X151328571Y-102470438D01*
X151328571Y-102470438D02*
X151471428Y-102422819D01*
X151471428Y-102422819D02*
X151566666Y-102422819D01*
X151566666Y-102422819D02*
X151709523Y-102470438D01*
X151709523Y-102470438D02*
X151757142Y-102518057D01*
X152709523Y-103422819D02*
X152138095Y-103422819D01*
X152423809Y-103422819D02*
X152423809Y-102422819D01*
X152423809Y-102422819D02*
X152328571Y-102565676D01*
X152328571Y-102565676D02*
X152233333Y-102660914D01*
X152233333Y-102660914D02*
X152138095Y-102708533D01*
X153280952Y-102851390D02*
X153185714Y-102803771D01*
X153185714Y-102803771D02*
X153138095Y-102756152D01*
X153138095Y-102756152D02*
X153090476Y-102660914D01*
X153090476Y-102660914D02*
X153090476Y-102613295D01*
X153090476Y-102613295D02*
X153138095Y-102518057D01*
X153138095Y-102518057D02*
X153185714Y-102470438D01*
X153185714Y-102470438D02*
X153280952Y-102422819D01*
X153280952Y-102422819D02*
X153471428Y-102422819D01*
X153471428Y-102422819D02*
X153566666Y-102470438D01*
X153566666Y-102470438D02*
X153614285Y-102518057D01*
X153614285Y-102518057D02*
X153661904Y-102613295D01*
X153661904Y-102613295D02*
X153661904Y-102660914D01*
X153661904Y-102660914D02*
X153614285Y-102756152D01*
X153614285Y-102756152D02*
X153566666Y-102803771D01*
X153566666Y-102803771D02*
X153471428Y-102851390D01*
X153471428Y-102851390D02*
X153280952Y-102851390D01*
X153280952Y-102851390D02*
X153185714Y-102899009D01*
X153185714Y-102899009D02*
X153138095Y-102946628D01*
X153138095Y-102946628D02*
X153090476Y-103041866D01*
X153090476Y-103041866D02*
X153090476Y-103232342D01*
X153090476Y-103232342D02*
X153138095Y-103327580D01*
X153138095Y-103327580D02*
X153185714Y-103375200D01*
X153185714Y-103375200D02*
X153280952Y-103422819D01*
X153280952Y-103422819D02*
X153471428Y-103422819D01*
X153471428Y-103422819D02*
X153566666Y-103375200D01*
X153566666Y-103375200D02*
X153614285Y-103327580D01*
X153614285Y-103327580D02*
X153661904Y-103232342D01*
X153661904Y-103232342D02*
X153661904Y-103041866D01*
X153661904Y-103041866D02*
X153614285Y-102946628D01*
X153614285Y-102946628D02*
X153566666Y-102899009D01*
X153566666Y-102899009D02*
X153471428Y-102851390D01*
X149292200Y-93071332D02*
X149339819Y-92928475D01*
X149339819Y-92928475D02*
X149339819Y-92690380D01*
X149339819Y-92690380D02*
X149292200Y-92595142D01*
X149292200Y-92595142D02*
X149244580Y-92547523D01*
X149244580Y-92547523D02*
X149149342Y-92499904D01*
X149149342Y-92499904D02*
X149054104Y-92499904D01*
X149054104Y-92499904D02*
X148958866Y-92547523D01*
X148958866Y-92547523D02*
X148911247Y-92595142D01*
X148911247Y-92595142D02*
X148863628Y-92690380D01*
X148863628Y-92690380D02*
X148816009Y-92880856D01*
X148816009Y-92880856D02*
X148768390Y-92976094D01*
X148768390Y-92976094D02*
X148720771Y-93023713D01*
X148720771Y-93023713D02*
X148625533Y-93071332D01*
X148625533Y-93071332D02*
X148530295Y-93071332D01*
X148530295Y-93071332D02*
X148435057Y-93023713D01*
X148435057Y-93023713D02*
X148387438Y-92976094D01*
X148387438Y-92976094D02*
X148339819Y-92880856D01*
X148339819Y-92880856D02*
X148339819Y-92642761D01*
X148339819Y-92642761D02*
X148387438Y-92499904D01*
X148339819Y-92166570D02*
X149339819Y-91928475D01*
X149339819Y-91928475D02*
X148625533Y-91737999D01*
X148625533Y-91737999D02*
X149339819Y-91547523D01*
X149339819Y-91547523D02*
X148339819Y-91309428D01*
X148339819Y-90452285D02*
X148339819Y-90928475D01*
X148339819Y-90928475D02*
X148816009Y-90976094D01*
X148816009Y-90976094D02*
X148768390Y-90928475D01*
X148768390Y-90928475D02*
X148720771Y-90833237D01*
X148720771Y-90833237D02*
X148720771Y-90595142D01*
X148720771Y-90595142D02*
X148768390Y-90499904D01*
X148768390Y-90499904D02*
X148816009Y-90452285D01*
X148816009Y-90452285D02*
X148911247Y-90404666D01*
X148911247Y-90404666D02*
X149149342Y-90404666D01*
X149149342Y-90404666D02*
X149244580Y-90452285D01*
X149244580Y-90452285D02*
X149292200Y-90499904D01*
X149292200Y-90499904D02*
X149339819Y-90595142D01*
X149339819Y-90595142D02*
X149339819Y-90833237D01*
X149339819Y-90833237D02*
X149292200Y-90928475D01*
X149292200Y-90928475D02*
X149244580Y-90976094D01*
X207779580Y-96527857D02*
X207827200Y-96575476D01*
X207827200Y-96575476D02*
X207874819Y-96718333D01*
X207874819Y-96718333D02*
X207874819Y-96813571D01*
X207874819Y-96813571D02*
X207827200Y-96956428D01*
X207827200Y-96956428D02*
X207731961Y-97051666D01*
X207731961Y-97051666D02*
X207636723Y-97099285D01*
X207636723Y-97099285D02*
X207446247Y-97146904D01*
X207446247Y-97146904D02*
X207303390Y-97146904D01*
X207303390Y-97146904D02*
X207112914Y-97099285D01*
X207112914Y-97099285D02*
X207017676Y-97051666D01*
X207017676Y-97051666D02*
X206922438Y-96956428D01*
X206922438Y-96956428D02*
X206874819Y-96813571D01*
X206874819Y-96813571D02*
X206874819Y-96718333D01*
X206874819Y-96718333D02*
X206922438Y-96575476D01*
X206922438Y-96575476D02*
X206970057Y-96527857D01*
X207874819Y-95575476D02*
X207874819Y-96146904D01*
X207874819Y-95861190D02*
X206874819Y-95861190D01*
X206874819Y-95861190D02*
X207017676Y-95956428D01*
X207017676Y-95956428D02*
X207112914Y-96051666D01*
X207112914Y-96051666D02*
X207160533Y-96146904D01*
X206874819Y-94718333D02*
X206874819Y-94908809D01*
X206874819Y-94908809D02*
X206922438Y-95004047D01*
X206922438Y-95004047D02*
X206970057Y-95051666D01*
X206970057Y-95051666D02*
X207112914Y-95146904D01*
X207112914Y-95146904D02*
X207303390Y-95194523D01*
X207303390Y-95194523D02*
X207684342Y-95194523D01*
X207684342Y-95194523D02*
X207779580Y-95146904D01*
X207779580Y-95146904D02*
X207827200Y-95099285D01*
X207827200Y-95099285D02*
X207874819Y-95004047D01*
X207874819Y-95004047D02*
X207874819Y-94813571D01*
X207874819Y-94813571D02*
X207827200Y-94718333D01*
X207827200Y-94718333D02*
X207779580Y-94670714D01*
X207779580Y-94670714D02*
X207684342Y-94623095D01*
X207684342Y-94623095D02*
X207446247Y-94623095D01*
X207446247Y-94623095D02*
X207351009Y-94670714D01*
X207351009Y-94670714D02*
X207303390Y-94718333D01*
X207303390Y-94718333D02*
X207255771Y-94813571D01*
X207255771Y-94813571D02*
X207255771Y-95004047D01*
X207255771Y-95004047D02*
X207303390Y-95099285D01*
X207303390Y-95099285D02*
X207351009Y-95146904D01*
X207351009Y-95146904D02*
X207446247Y-95194523D01*
X111934666Y-81008819D02*
X111934666Y-81723104D01*
X111934666Y-81723104D02*
X111887047Y-81865961D01*
X111887047Y-81865961D02*
X111791809Y-81961200D01*
X111791809Y-81961200D02*
X111648952Y-82008819D01*
X111648952Y-82008819D02*
X111553714Y-82008819D01*
X112315619Y-81008819D02*
X112982285Y-81008819D01*
X112982285Y-81008819D02*
X112553714Y-82008819D01*
X124103333Y-82209819D02*
X123770000Y-81733628D01*
X123531905Y-82209819D02*
X123531905Y-81209819D01*
X123531905Y-81209819D02*
X123912857Y-81209819D01*
X123912857Y-81209819D02*
X124008095Y-81257438D01*
X124008095Y-81257438D02*
X124055714Y-81305057D01*
X124055714Y-81305057D02*
X124103333Y-81400295D01*
X124103333Y-81400295D02*
X124103333Y-81543152D01*
X124103333Y-81543152D02*
X124055714Y-81638390D01*
X124055714Y-81638390D02*
X124008095Y-81686009D01*
X124008095Y-81686009D02*
X123912857Y-81733628D01*
X123912857Y-81733628D02*
X123531905Y-81733628D01*
X125008095Y-81209819D02*
X124531905Y-81209819D01*
X124531905Y-81209819D02*
X124484286Y-81686009D01*
X124484286Y-81686009D02*
X124531905Y-81638390D01*
X124531905Y-81638390D02*
X124627143Y-81590771D01*
X124627143Y-81590771D02*
X124865238Y-81590771D01*
X124865238Y-81590771D02*
X124960476Y-81638390D01*
X124960476Y-81638390D02*
X125008095Y-81686009D01*
X125008095Y-81686009D02*
X125055714Y-81781247D01*
X125055714Y-81781247D02*
X125055714Y-82019342D01*
X125055714Y-82019342D02*
X125008095Y-82114580D01*
X125008095Y-82114580D02*
X124960476Y-82162200D01*
X124960476Y-82162200D02*
X124865238Y-82209819D01*
X124865238Y-82209819D02*
X124627143Y-82209819D01*
X124627143Y-82209819D02*
X124531905Y-82162200D01*
X124531905Y-82162200D02*
X124484286Y-82114580D01*
X117896666Y-85792819D02*
X117896666Y-86507104D01*
X117896666Y-86507104D02*
X117849047Y-86649961D01*
X117849047Y-86649961D02*
X117753809Y-86745200D01*
X117753809Y-86745200D02*
X117610952Y-86792819D01*
X117610952Y-86792819D02*
X117515714Y-86792819D01*
X118372857Y-86792819D02*
X118372857Y-85792819D01*
X118372857Y-85792819D02*
X118753809Y-85792819D01*
X118753809Y-85792819D02*
X118849047Y-85840438D01*
X118849047Y-85840438D02*
X118896666Y-85888057D01*
X118896666Y-85888057D02*
X118944285Y-85983295D01*
X118944285Y-85983295D02*
X118944285Y-86126152D01*
X118944285Y-86126152D02*
X118896666Y-86221390D01*
X118896666Y-86221390D02*
X118849047Y-86269009D01*
X118849047Y-86269009D02*
X118753809Y-86316628D01*
X118753809Y-86316628D02*
X118372857Y-86316628D01*
X119325238Y-85888057D02*
X119372857Y-85840438D01*
X119372857Y-85840438D02*
X119468095Y-85792819D01*
X119468095Y-85792819D02*
X119706190Y-85792819D01*
X119706190Y-85792819D02*
X119801428Y-85840438D01*
X119801428Y-85840438D02*
X119849047Y-85888057D01*
X119849047Y-85888057D02*
X119896666Y-85983295D01*
X119896666Y-85983295D02*
X119896666Y-86078533D01*
X119896666Y-86078533D02*
X119849047Y-86221390D01*
X119849047Y-86221390D02*
X119277619Y-86792819D01*
X119277619Y-86792819D02*
X119896666Y-86792819D01*
X124293333Y-78399819D02*
X123960000Y-77923628D01*
X123721905Y-78399819D02*
X123721905Y-77399819D01*
X123721905Y-77399819D02*
X124102857Y-77399819D01*
X124102857Y-77399819D02*
X124198095Y-77447438D01*
X124198095Y-77447438D02*
X124245714Y-77495057D01*
X124245714Y-77495057D02*
X124293333Y-77590295D01*
X124293333Y-77590295D02*
X124293333Y-77733152D01*
X124293333Y-77733152D02*
X124245714Y-77828390D01*
X124245714Y-77828390D02*
X124198095Y-77876009D01*
X124198095Y-77876009D02*
X124102857Y-77923628D01*
X124102857Y-77923628D02*
X123721905Y-77923628D01*
X125150476Y-77733152D02*
X125150476Y-78399819D01*
X124912381Y-77352200D02*
X124674286Y-78066485D01*
X124674286Y-78066485D02*
X125293333Y-78066485D01*
X193764059Y-79922666D02*
X193287868Y-80255999D01*
X193764059Y-80494094D02*
X192764059Y-80494094D01*
X192764059Y-80494094D02*
X192764059Y-80113142D01*
X192764059Y-80113142D02*
X192811678Y-80017904D01*
X192811678Y-80017904D02*
X192859297Y-79970285D01*
X192859297Y-79970285D02*
X192954535Y-79922666D01*
X192954535Y-79922666D02*
X193097392Y-79922666D01*
X193097392Y-79922666D02*
X193192630Y-79970285D01*
X193192630Y-79970285D02*
X193240249Y-80017904D01*
X193240249Y-80017904D02*
X193287868Y-80113142D01*
X193287868Y-80113142D02*
X193287868Y-80494094D01*
X192859297Y-79541713D02*
X192811678Y-79494094D01*
X192811678Y-79494094D02*
X192764059Y-79398856D01*
X192764059Y-79398856D02*
X192764059Y-79160761D01*
X192764059Y-79160761D02*
X192811678Y-79065523D01*
X192811678Y-79065523D02*
X192859297Y-79017904D01*
X192859297Y-79017904D02*
X192954535Y-78970285D01*
X192954535Y-78970285D02*
X193049773Y-78970285D01*
X193049773Y-78970285D02*
X193192630Y-79017904D01*
X193192630Y-79017904D02*
X193764059Y-79589332D01*
X193764059Y-79589332D02*
X193764059Y-78970285D01*
X198561819Y-74102904D02*
X199371342Y-74102904D01*
X199371342Y-74102904D02*
X199466580Y-74055285D01*
X199466580Y-74055285D02*
X199514200Y-74007666D01*
X199514200Y-74007666D02*
X199561819Y-73912428D01*
X199561819Y-73912428D02*
X199561819Y-73721952D01*
X199561819Y-73721952D02*
X199514200Y-73626714D01*
X199514200Y-73626714D02*
X199466580Y-73579095D01*
X199466580Y-73579095D02*
X199371342Y-73531476D01*
X199371342Y-73531476D02*
X198561819Y-73531476D01*
X198561819Y-72579095D02*
X198561819Y-73055285D01*
X198561819Y-73055285D02*
X199038009Y-73102904D01*
X199038009Y-73102904D02*
X198990390Y-73055285D01*
X198990390Y-73055285D02*
X198942771Y-72960047D01*
X198942771Y-72960047D02*
X198942771Y-72721952D01*
X198942771Y-72721952D02*
X198990390Y-72626714D01*
X198990390Y-72626714D02*
X199038009Y-72579095D01*
X199038009Y-72579095D02*
X199133247Y-72531476D01*
X199133247Y-72531476D02*
X199371342Y-72531476D01*
X199371342Y-72531476D02*
X199466580Y-72579095D01*
X199466580Y-72579095D02*
X199514200Y-72626714D01*
X199514200Y-72626714D02*
X199561819Y-72721952D01*
X199561819Y-72721952D02*
X199561819Y-72960047D01*
X199561819Y-72960047D02*
X199514200Y-73055285D01*
X199514200Y-73055285D02*
X199466580Y-73102904D01*
X225675439Y-76762573D02*
X226389724Y-76762573D01*
X226389724Y-76762573D02*
X226532581Y-76810192D01*
X226532581Y-76810192D02*
X226627820Y-76905430D01*
X226627820Y-76905430D02*
X226675439Y-77048287D01*
X226675439Y-77048287D02*
X226675439Y-77143525D01*
X226008772Y-75857811D02*
X226675439Y-75857811D01*
X225627820Y-76095906D02*
X226342105Y-76334001D01*
X226342105Y-76334001D02*
X226342105Y-75714954D01*
X154487714Y-65351819D02*
X154487714Y-64351819D01*
X154487714Y-64351819D02*
X154725809Y-64351819D01*
X154725809Y-64351819D02*
X154868666Y-64399438D01*
X154868666Y-64399438D02*
X154963904Y-64494676D01*
X154963904Y-64494676D02*
X155011523Y-64589914D01*
X155011523Y-64589914D02*
X155059142Y-64780390D01*
X155059142Y-64780390D02*
X155059142Y-64923247D01*
X155059142Y-64923247D02*
X155011523Y-65113723D01*
X155011523Y-65113723D02*
X154963904Y-65208961D01*
X154963904Y-65208961D02*
X154868666Y-65304200D01*
X154868666Y-65304200D02*
X154725809Y-65351819D01*
X154725809Y-65351819D02*
X154487714Y-65351819D01*
X155440095Y-65304200D02*
X155582952Y-65351819D01*
X155582952Y-65351819D02*
X155821047Y-65351819D01*
X155821047Y-65351819D02*
X155916285Y-65304200D01*
X155916285Y-65304200D02*
X155963904Y-65256580D01*
X155963904Y-65256580D02*
X156011523Y-65161342D01*
X156011523Y-65161342D02*
X156011523Y-65066104D01*
X156011523Y-65066104D02*
X155963904Y-64970866D01*
X155963904Y-64970866D02*
X155916285Y-64923247D01*
X155916285Y-64923247D02*
X155821047Y-64875628D01*
X155821047Y-64875628D02*
X155630571Y-64828009D01*
X155630571Y-64828009D02*
X155535333Y-64780390D01*
X155535333Y-64780390D02*
X155487714Y-64732771D01*
X155487714Y-64732771D02*
X155440095Y-64637533D01*
X155440095Y-64637533D02*
X155440095Y-64542295D01*
X155440095Y-64542295D02*
X155487714Y-64447057D01*
X155487714Y-64447057D02*
X155535333Y-64399438D01*
X155535333Y-64399438D02*
X155630571Y-64351819D01*
X155630571Y-64351819D02*
X155868666Y-64351819D01*
X155868666Y-64351819D02*
X156011523Y-64399438D01*
X156963904Y-65351819D02*
X156392476Y-65351819D01*
X156678190Y-65351819D02*
X156678190Y-64351819D01*
X156678190Y-64351819D02*
X156582952Y-64494676D01*
X156582952Y-64494676D02*
X156487714Y-64589914D01*
X156487714Y-64589914D02*
X156392476Y-64637533D01*
X213436580Y-92971857D02*
X213484200Y-93019476D01*
X213484200Y-93019476D02*
X213531819Y-93162333D01*
X213531819Y-93162333D02*
X213531819Y-93257571D01*
X213531819Y-93257571D02*
X213484200Y-93400428D01*
X213484200Y-93400428D02*
X213388961Y-93495666D01*
X213388961Y-93495666D02*
X213293723Y-93543285D01*
X213293723Y-93543285D02*
X213103247Y-93590904D01*
X213103247Y-93590904D02*
X212960390Y-93590904D01*
X212960390Y-93590904D02*
X212769914Y-93543285D01*
X212769914Y-93543285D02*
X212674676Y-93495666D01*
X212674676Y-93495666D02*
X212579438Y-93400428D01*
X212579438Y-93400428D02*
X212531819Y-93257571D01*
X212531819Y-93257571D02*
X212531819Y-93162333D01*
X212531819Y-93162333D02*
X212579438Y-93019476D01*
X212579438Y-93019476D02*
X212627057Y-92971857D01*
X213531819Y-92019476D02*
X213531819Y-92590904D01*
X213531819Y-92305190D02*
X212531819Y-92305190D01*
X212531819Y-92305190D02*
X212674676Y-92400428D01*
X212674676Y-92400428D02*
X212769914Y-92495666D01*
X212769914Y-92495666D02*
X212817533Y-92590904D01*
X212531819Y-91686142D02*
X212531819Y-91067095D01*
X212531819Y-91067095D02*
X212912771Y-91400428D01*
X212912771Y-91400428D02*
X212912771Y-91257571D01*
X212912771Y-91257571D02*
X212960390Y-91162333D01*
X212960390Y-91162333D02*
X213008009Y-91114714D01*
X213008009Y-91114714D02*
X213103247Y-91067095D01*
X213103247Y-91067095D02*
X213341342Y-91067095D01*
X213341342Y-91067095D02*
X213436580Y-91114714D01*
X213436580Y-91114714D02*
X213484200Y-91162333D01*
X213484200Y-91162333D02*
X213531819Y-91257571D01*
X213531819Y-91257571D02*
X213531819Y-91543285D01*
X213531819Y-91543285D02*
X213484200Y-91638523D01*
X213484200Y-91638523D02*
X213436580Y-91686142D01*
X126753715Y-74654059D02*
X126753715Y-75463582D01*
X126753715Y-75463582D02*
X126801334Y-75558820D01*
X126801334Y-75558820D02*
X126848953Y-75606440D01*
X126848953Y-75606440D02*
X126944191Y-75654059D01*
X126944191Y-75654059D02*
X127134667Y-75654059D01*
X127134667Y-75654059D02*
X127229905Y-75606440D01*
X127229905Y-75606440D02*
X127277524Y-75558820D01*
X127277524Y-75558820D02*
X127325143Y-75463582D01*
X127325143Y-75463582D02*
X127325143Y-74654059D01*
X128229905Y-74987392D02*
X128229905Y-75654059D01*
X127991810Y-74606440D02*
X127753715Y-75320725D01*
X127753715Y-75320725D02*
X128372762Y-75320725D01*
X189082819Y-79542666D02*
X188606628Y-79875999D01*
X189082819Y-80114094D02*
X188082819Y-80114094D01*
X188082819Y-80114094D02*
X188082819Y-79733142D01*
X188082819Y-79733142D02*
X188130438Y-79637904D01*
X188130438Y-79637904D02*
X188178057Y-79590285D01*
X188178057Y-79590285D02*
X188273295Y-79542666D01*
X188273295Y-79542666D02*
X188416152Y-79542666D01*
X188416152Y-79542666D02*
X188511390Y-79590285D01*
X188511390Y-79590285D02*
X188559009Y-79637904D01*
X188559009Y-79637904D02*
X188606628Y-79733142D01*
X188606628Y-79733142D02*
X188606628Y-80114094D01*
X189082819Y-78590285D02*
X189082819Y-79161713D01*
X189082819Y-78875999D02*
X188082819Y-78875999D01*
X188082819Y-78875999D02*
X188225676Y-78971237D01*
X188225676Y-78971237D02*
X188320914Y-79066475D01*
X188320914Y-79066475D02*
X188368533Y-79161713D01*
X111626666Y-75009819D02*
X111626666Y-75724104D01*
X111626666Y-75724104D02*
X111579047Y-75866961D01*
X111579047Y-75866961D02*
X111483809Y-75962200D01*
X111483809Y-75962200D02*
X111340952Y-76009819D01*
X111340952Y-76009819D02*
X111245714Y-76009819D01*
X112102857Y-76009819D02*
X112102857Y-75009819D01*
X112102857Y-75009819D02*
X112483809Y-75009819D01*
X112483809Y-75009819D02*
X112579047Y-75057438D01*
X112579047Y-75057438D02*
X112626666Y-75105057D01*
X112626666Y-75105057D02*
X112674285Y-75200295D01*
X112674285Y-75200295D02*
X112674285Y-75343152D01*
X112674285Y-75343152D02*
X112626666Y-75438390D01*
X112626666Y-75438390D02*
X112579047Y-75486009D01*
X112579047Y-75486009D02*
X112483809Y-75533628D01*
X112483809Y-75533628D02*
X112102857Y-75533628D01*
X113626666Y-76009819D02*
X113055238Y-76009819D01*
X113340952Y-76009819D02*
X113340952Y-75009819D01*
X113340952Y-75009819D02*
X113245714Y-75152676D01*
X113245714Y-75152676D02*
X113150476Y-75247914D01*
X113150476Y-75247914D02*
X113055238Y-75295533D01*
X206882286Y-77510249D02*
X206548953Y-77510249D01*
X206548953Y-78034059D02*
X206548953Y-77034059D01*
X206548953Y-77034059D02*
X207025143Y-77034059D01*
X207739429Y-77510249D02*
X207882286Y-77557868D01*
X207882286Y-77557868D02*
X207929905Y-77605487D01*
X207929905Y-77605487D02*
X207977524Y-77700725D01*
X207977524Y-77700725D02*
X207977524Y-77843582D01*
X207977524Y-77843582D02*
X207929905Y-77938820D01*
X207929905Y-77938820D02*
X207882286Y-77986440D01*
X207882286Y-77986440D02*
X207787048Y-78034059D01*
X207787048Y-78034059D02*
X207406096Y-78034059D01*
X207406096Y-78034059D02*
X207406096Y-77034059D01*
X207406096Y-77034059D02*
X207739429Y-77034059D01*
X207739429Y-77034059D02*
X207834667Y-77081678D01*
X207834667Y-77081678D02*
X207882286Y-77129297D01*
X207882286Y-77129297D02*
X207929905Y-77224535D01*
X207929905Y-77224535D02*
X207929905Y-77319773D01*
X207929905Y-77319773D02*
X207882286Y-77415011D01*
X207882286Y-77415011D02*
X207834667Y-77462630D01*
X207834667Y-77462630D02*
X207739429Y-77510249D01*
X207739429Y-77510249D02*
X207406096Y-77510249D01*
X208358477Y-77129297D02*
X208406096Y-77081678D01*
X208406096Y-77081678D02*
X208501334Y-77034059D01*
X208501334Y-77034059D02*
X208739429Y-77034059D01*
X208739429Y-77034059D02*
X208834667Y-77081678D01*
X208834667Y-77081678D02*
X208882286Y-77129297D01*
X208882286Y-77129297D02*
X208929905Y-77224535D01*
X208929905Y-77224535D02*
X208929905Y-77319773D01*
X208929905Y-77319773D02*
X208882286Y-77462630D01*
X208882286Y-77462630D02*
X208310858Y-78034059D01*
X208310858Y-78034059D02*
X208929905Y-78034059D01*
X117896666Y-90872819D02*
X117896666Y-91587104D01*
X117896666Y-91587104D02*
X117849047Y-91729961D01*
X117849047Y-91729961D02*
X117753809Y-91825200D01*
X117753809Y-91825200D02*
X117610952Y-91872819D01*
X117610952Y-91872819D02*
X117515714Y-91872819D01*
X118372857Y-91872819D02*
X118372857Y-90872819D01*
X118372857Y-90872819D02*
X118753809Y-90872819D01*
X118753809Y-90872819D02*
X118849047Y-90920438D01*
X118849047Y-90920438D02*
X118896666Y-90968057D01*
X118896666Y-90968057D02*
X118944285Y-91063295D01*
X118944285Y-91063295D02*
X118944285Y-91206152D01*
X118944285Y-91206152D02*
X118896666Y-91301390D01*
X118896666Y-91301390D02*
X118849047Y-91349009D01*
X118849047Y-91349009D02*
X118753809Y-91396628D01*
X118753809Y-91396628D02*
X118372857Y-91396628D01*
X119277619Y-90872819D02*
X119896666Y-90872819D01*
X119896666Y-90872819D02*
X119563333Y-91253771D01*
X119563333Y-91253771D02*
X119706190Y-91253771D01*
X119706190Y-91253771D02*
X119801428Y-91301390D01*
X119801428Y-91301390D02*
X119849047Y-91349009D01*
X119849047Y-91349009D02*
X119896666Y-91444247D01*
X119896666Y-91444247D02*
X119896666Y-91682342D01*
X119896666Y-91682342D02*
X119849047Y-91777580D01*
X119849047Y-91777580D02*
X119801428Y-91825200D01*
X119801428Y-91825200D02*
X119706190Y-91872819D01*
X119706190Y-91872819D02*
X119420476Y-91872819D01*
X119420476Y-91872819D02*
X119325238Y-91825200D01*
X119325238Y-91825200D02*
X119277619Y-91777580D01*
X124103333Y-73954819D02*
X123770000Y-73478628D01*
X123531905Y-73954819D02*
X123531905Y-72954819D01*
X123531905Y-72954819D02*
X123912857Y-72954819D01*
X123912857Y-72954819D02*
X124008095Y-73002438D01*
X124008095Y-73002438D02*
X124055714Y-73050057D01*
X124055714Y-73050057D02*
X124103333Y-73145295D01*
X124103333Y-73145295D02*
X124103333Y-73288152D01*
X124103333Y-73288152D02*
X124055714Y-73383390D01*
X124055714Y-73383390D02*
X124008095Y-73431009D01*
X124008095Y-73431009D02*
X123912857Y-73478628D01*
X123912857Y-73478628D02*
X123531905Y-73478628D01*
X124436667Y-72954819D02*
X125055714Y-72954819D01*
X125055714Y-72954819D02*
X124722381Y-73335771D01*
X124722381Y-73335771D02*
X124865238Y-73335771D01*
X124865238Y-73335771D02*
X124960476Y-73383390D01*
X124960476Y-73383390D02*
X125008095Y-73431009D01*
X125008095Y-73431009D02*
X125055714Y-73526247D01*
X125055714Y-73526247D02*
X125055714Y-73764342D01*
X125055714Y-73764342D02*
X125008095Y-73859580D01*
X125008095Y-73859580D02*
X124960476Y-73907200D01*
X124960476Y-73907200D02*
X124865238Y-73954819D01*
X124865238Y-73954819D02*
X124579524Y-73954819D01*
X124579524Y-73954819D02*
X124484286Y-73907200D01*
X124484286Y-73907200D02*
X124436667Y-73859580D01*
X117550439Y-74127573D02*
X118264724Y-74127573D01*
X118264724Y-74127573D02*
X118407581Y-74175192D01*
X118407581Y-74175192D02*
X118502820Y-74270430D01*
X118502820Y-74270430D02*
X118550439Y-74413287D01*
X118550439Y-74413287D02*
X118550439Y-74508525D01*
X118550439Y-73651382D02*
X117550439Y-73651382D01*
X117550439Y-73651382D02*
X117550439Y-73270430D01*
X117550439Y-73270430D02*
X117598058Y-73175192D01*
X117598058Y-73175192D02*
X117645677Y-73127573D01*
X117645677Y-73127573D02*
X117740915Y-73079954D01*
X117740915Y-73079954D02*
X117883772Y-73079954D01*
X117883772Y-73079954D02*
X117979010Y-73127573D01*
X117979010Y-73127573D02*
X118026629Y-73175192D01*
X118026629Y-73175192D02*
X118074248Y-73270430D01*
X118074248Y-73270430D02*
X118074248Y-73651382D01*
X117883772Y-72222811D02*
X118550439Y-72222811D01*
X117502820Y-72460906D02*
X118217105Y-72699001D01*
X118217105Y-72699001D02*
X118217105Y-72079954D01*
X176069080Y-89688666D02*
X176116700Y-89736285D01*
X176116700Y-89736285D02*
X176164319Y-89879142D01*
X176164319Y-89879142D02*
X176164319Y-89974380D01*
X176164319Y-89974380D02*
X176116700Y-90117237D01*
X176116700Y-90117237D02*
X176021461Y-90212475D01*
X176021461Y-90212475D02*
X175926223Y-90260094D01*
X175926223Y-90260094D02*
X175735747Y-90307713D01*
X175735747Y-90307713D02*
X175592890Y-90307713D01*
X175592890Y-90307713D02*
X175402414Y-90260094D01*
X175402414Y-90260094D02*
X175307176Y-90212475D01*
X175307176Y-90212475D02*
X175211938Y-90117237D01*
X175211938Y-90117237D02*
X175164319Y-89974380D01*
X175164319Y-89974380D02*
X175164319Y-89879142D01*
X175164319Y-89879142D02*
X175211938Y-89736285D01*
X175211938Y-89736285D02*
X175259557Y-89688666D01*
X175164319Y-89355332D02*
X175164319Y-88736285D01*
X175164319Y-88736285D02*
X175545271Y-89069618D01*
X175545271Y-89069618D02*
X175545271Y-88926761D01*
X175545271Y-88926761D02*
X175592890Y-88831523D01*
X175592890Y-88831523D02*
X175640509Y-88783904D01*
X175640509Y-88783904D02*
X175735747Y-88736285D01*
X175735747Y-88736285D02*
X175973842Y-88736285D01*
X175973842Y-88736285D02*
X176069080Y-88783904D01*
X176069080Y-88783904D02*
X176116700Y-88831523D01*
X176116700Y-88831523D02*
X176164319Y-88926761D01*
X176164319Y-88926761D02*
X176164319Y-89212475D01*
X176164319Y-89212475D02*
X176116700Y-89307713D01*
X176116700Y-89307713D02*
X176069080Y-89355332D01*
X118549142Y-112725580D02*
X118501523Y-112773200D01*
X118501523Y-112773200D02*
X118358666Y-112820819D01*
X118358666Y-112820819D02*
X118263428Y-112820819D01*
X118263428Y-112820819D02*
X118120571Y-112773200D01*
X118120571Y-112773200D02*
X118025333Y-112677961D01*
X118025333Y-112677961D02*
X117977714Y-112582723D01*
X117977714Y-112582723D02*
X117930095Y-112392247D01*
X117930095Y-112392247D02*
X117930095Y-112249390D01*
X117930095Y-112249390D02*
X117977714Y-112058914D01*
X117977714Y-112058914D02*
X118025333Y-111963676D01*
X118025333Y-111963676D02*
X118120571Y-111868438D01*
X118120571Y-111868438D02*
X118263428Y-111820819D01*
X118263428Y-111820819D02*
X118358666Y-111820819D01*
X118358666Y-111820819D02*
X118501523Y-111868438D01*
X118501523Y-111868438D02*
X118549142Y-111916057D01*
X118930095Y-111916057D02*
X118977714Y-111868438D01*
X118977714Y-111868438D02*
X119072952Y-111820819D01*
X119072952Y-111820819D02*
X119311047Y-111820819D01*
X119311047Y-111820819D02*
X119406285Y-111868438D01*
X119406285Y-111868438D02*
X119453904Y-111916057D01*
X119453904Y-111916057D02*
X119501523Y-112011295D01*
X119501523Y-112011295D02*
X119501523Y-112106533D01*
X119501523Y-112106533D02*
X119453904Y-112249390D01*
X119453904Y-112249390D02*
X118882476Y-112820819D01*
X118882476Y-112820819D02*
X119501523Y-112820819D01*
X120120571Y-111820819D02*
X120215809Y-111820819D01*
X120215809Y-111820819D02*
X120311047Y-111868438D01*
X120311047Y-111868438D02*
X120358666Y-111916057D01*
X120358666Y-111916057D02*
X120406285Y-112011295D01*
X120406285Y-112011295D02*
X120453904Y-112201771D01*
X120453904Y-112201771D02*
X120453904Y-112439866D01*
X120453904Y-112439866D02*
X120406285Y-112630342D01*
X120406285Y-112630342D02*
X120358666Y-112725580D01*
X120358666Y-112725580D02*
X120311047Y-112773200D01*
X120311047Y-112773200D02*
X120215809Y-112820819D01*
X120215809Y-112820819D02*
X120120571Y-112820819D01*
X120120571Y-112820819D02*
X120025333Y-112773200D01*
X120025333Y-112773200D02*
X119977714Y-112725580D01*
X119977714Y-112725580D02*
X119930095Y-112630342D01*
X119930095Y-112630342D02*
X119882476Y-112439866D01*
X119882476Y-112439866D02*
X119882476Y-112201771D01*
X119882476Y-112201771D02*
X119930095Y-112011295D01*
X119930095Y-112011295D02*
X119977714Y-111916057D01*
X119977714Y-111916057D02*
X120025333Y-111868438D01*
X120025333Y-111868438D02*
X120120571Y-111820819D01*
X150351261Y-69539297D02*
X150256023Y-69491678D01*
X150256023Y-69491678D02*
X150160785Y-69396440D01*
X150160785Y-69396440D02*
X150017928Y-69253582D01*
X150017928Y-69253582D02*
X149922690Y-69205963D01*
X149922690Y-69205963D02*
X149827452Y-69205963D01*
X149875071Y-69444059D02*
X149779833Y-69396440D01*
X149779833Y-69396440D02*
X149684595Y-69301201D01*
X149684595Y-69301201D02*
X149636976Y-69110725D01*
X149636976Y-69110725D02*
X149636976Y-68777392D01*
X149636976Y-68777392D02*
X149684595Y-68586916D01*
X149684595Y-68586916D02*
X149779833Y-68491678D01*
X149779833Y-68491678D02*
X149875071Y-68444059D01*
X149875071Y-68444059D02*
X150065547Y-68444059D01*
X150065547Y-68444059D02*
X150160785Y-68491678D01*
X150160785Y-68491678D02*
X150256023Y-68586916D01*
X150256023Y-68586916D02*
X150303642Y-68777392D01*
X150303642Y-68777392D02*
X150303642Y-69110725D01*
X150303642Y-69110725D02*
X150256023Y-69301201D01*
X150256023Y-69301201D02*
X150160785Y-69396440D01*
X150160785Y-69396440D02*
X150065547Y-69444059D01*
X150065547Y-69444059D02*
X149875071Y-69444059D01*
X151256023Y-69444059D02*
X150684595Y-69444059D01*
X150970309Y-69444059D02*
X150970309Y-68444059D01*
X150970309Y-68444059D02*
X150875071Y-68586916D01*
X150875071Y-68586916D02*
X150779833Y-68682154D01*
X150779833Y-68682154D02*
X150684595Y-68729773D01*
X118549142Y-107391580D02*
X118501523Y-107439200D01*
X118501523Y-107439200D02*
X118358666Y-107486819D01*
X118358666Y-107486819D02*
X118263428Y-107486819D01*
X118263428Y-107486819D02*
X118120571Y-107439200D01*
X118120571Y-107439200D02*
X118025333Y-107343961D01*
X118025333Y-107343961D02*
X117977714Y-107248723D01*
X117977714Y-107248723D02*
X117930095Y-107058247D01*
X117930095Y-107058247D02*
X117930095Y-106915390D01*
X117930095Y-106915390D02*
X117977714Y-106724914D01*
X117977714Y-106724914D02*
X118025333Y-106629676D01*
X118025333Y-106629676D02*
X118120571Y-106534438D01*
X118120571Y-106534438D02*
X118263428Y-106486819D01*
X118263428Y-106486819D02*
X118358666Y-106486819D01*
X118358666Y-106486819D02*
X118501523Y-106534438D01*
X118501523Y-106534438D02*
X118549142Y-106582057D01*
X119501523Y-107486819D02*
X118930095Y-107486819D01*
X119215809Y-107486819D02*
X119215809Y-106486819D01*
X119215809Y-106486819D02*
X119120571Y-106629676D01*
X119120571Y-106629676D02*
X119025333Y-106724914D01*
X119025333Y-106724914D02*
X118930095Y-106772533D01*
X119977714Y-107486819D02*
X120168190Y-107486819D01*
X120168190Y-107486819D02*
X120263428Y-107439200D01*
X120263428Y-107439200D02*
X120311047Y-107391580D01*
X120311047Y-107391580D02*
X120406285Y-107248723D01*
X120406285Y-107248723D02*
X120453904Y-107058247D01*
X120453904Y-107058247D02*
X120453904Y-106677295D01*
X120453904Y-106677295D02*
X120406285Y-106582057D01*
X120406285Y-106582057D02*
X120358666Y-106534438D01*
X120358666Y-106534438D02*
X120263428Y-106486819D01*
X120263428Y-106486819D02*
X120072952Y-106486819D01*
X120072952Y-106486819D02*
X119977714Y-106534438D01*
X119977714Y-106534438D02*
X119930095Y-106582057D01*
X119930095Y-106582057D02*
X119882476Y-106677295D01*
X119882476Y-106677295D02*
X119882476Y-106915390D01*
X119882476Y-106915390D02*
X119930095Y-107010628D01*
X119930095Y-107010628D02*
X119977714Y-107058247D01*
X119977714Y-107058247D02*
X120072952Y-107105866D01*
X120072952Y-107105866D02*
X120263428Y-107105866D01*
X120263428Y-107105866D02*
X120358666Y-107058247D01*
X120358666Y-107058247D02*
X120406285Y-107010628D01*
X120406285Y-107010628D02*
X120453904Y-106915390D01*
X170710166Y-88036009D02*
X170376833Y-88036009D01*
X170376833Y-88559819D02*
X170376833Y-87559819D01*
X170376833Y-87559819D02*
X170853023Y-87559819D01*
X171757785Y-88559819D02*
X171186357Y-88559819D01*
X171472071Y-88559819D02*
X171472071Y-87559819D01*
X171472071Y-87559819D02*
X171376833Y-87702676D01*
X171376833Y-87702676D02*
X171281595Y-87797914D01*
X171281595Y-87797914D02*
X171186357Y-87845533D01*
X210624819Y-112103333D02*
X211339104Y-112103333D01*
X211339104Y-112103333D02*
X211481961Y-112150952D01*
X211481961Y-112150952D02*
X211577200Y-112246190D01*
X211577200Y-112246190D02*
X211624819Y-112389047D01*
X211624819Y-112389047D02*
X211624819Y-112484285D01*
X211624819Y-111103333D02*
X211624819Y-111674761D01*
X211624819Y-111389047D02*
X210624819Y-111389047D01*
X210624819Y-111389047D02*
X210767676Y-111484285D01*
X210767676Y-111484285D02*
X210862914Y-111579523D01*
X210862914Y-111579523D02*
X210910533Y-111674761D01*
X198559819Y-112103333D02*
X199274104Y-112103333D01*
X199274104Y-112103333D02*
X199416961Y-112150952D01*
X199416961Y-112150952D02*
X199512200Y-112246190D01*
X199512200Y-112246190D02*
X199559819Y-112389047D01*
X199559819Y-112389047D02*
X199559819Y-112484285D01*
X198559819Y-111722380D02*
X198559819Y-111103333D01*
X198559819Y-111103333D02*
X198940771Y-111436666D01*
X198940771Y-111436666D02*
X198940771Y-111293809D01*
X198940771Y-111293809D02*
X198988390Y-111198571D01*
X198988390Y-111198571D02*
X199036009Y-111150952D01*
X199036009Y-111150952D02*
X199131247Y-111103333D01*
X199131247Y-111103333D02*
X199369342Y-111103333D01*
X199369342Y-111103333D02*
X199464580Y-111150952D01*
X199464580Y-111150952D02*
X199512200Y-111198571D01*
X199512200Y-111198571D02*
X199559819Y-111293809D01*
X199559819Y-111293809D02*
X199559819Y-111579523D01*
X199559819Y-111579523D02*
X199512200Y-111674761D01*
X199512200Y-111674761D02*
X199464580Y-111722380D01*
X218389580Y-92987097D02*
X218437200Y-93034716D01*
X218437200Y-93034716D02*
X218484819Y-93177573D01*
X218484819Y-93177573D02*
X218484819Y-93272811D01*
X218484819Y-93272811D02*
X218437200Y-93415668D01*
X218437200Y-93415668D02*
X218341961Y-93510906D01*
X218341961Y-93510906D02*
X218246723Y-93558525D01*
X218246723Y-93558525D02*
X218056247Y-93606144D01*
X218056247Y-93606144D02*
X217913390Y-93606144D01*
X217913390Y-93606144D02*
X217722914Y-93558525D01*
X217722914Y-93558525D02*
X217627676Y-93510906D01*
X217627676Y-93510906D02*
X217532438Y-93415668D01*
X217532438Y-93415668D02*
X217484819Y-93272811D01*
X217484819Y-93272811D02*
X217484819Y-93177573D01*
X217484819Y-93177573D02*
X217532438Y-93034716D01*
X217532438Y-93034716D02*
X217580057Y-92987097D01*
X218484819Y-92034716D02*
X218484819Y-92606144D01*
X218484819Y-92320430D02*
X217484819Y-92320430D01*
X217484819Y-92320430D02*
X217627676Y-92415668D01*
X217627676Y-92415668D02*
X217722914Y-92510906D01*
X217722914Y-92510906D02*
X217770533Y-92606144D01*
X217818152Y-91177573D02*
X218484819Y-91177573D01*
X217437200Y-91415668D02*
X218151485Y-91653763D01*
X218151485Y-91653763D02*
X218151485Y-91034716D01*
X164189580Y-89294666D02*
X164237200Y-89342285D01*
X164237200Y-89342285D02*
X164284819Y-89485142D01*
X164284819Y-89485142D02*
X164284819Y-89580380D01*
X164284819Y-89580380D02*
X164237200Y-89723237D01*
X164237200Y-89723237D02*
X164141961Y-89818475D01*
X164141961Y-89818475D02*
X164046723Y-89866094D01*
X164046723Y-89866094D02*
X163856247Y-89913713D01*
X163856247Y-89913713D02*
X163713390Y-89913713D01*
X163713390Y-89913713D02*
X163522914Y-89866094D01*
X163522914Y-89866094D02*
X163427676Y-89818475D01*
X163427676Y-89818475D02*
X163332438Y-89723237D01*
X163332438Y-89723237D02*
X163284819Y-89580380D01*
X163284819Y-89580380D02*
X163284819Y-89485142D01*
X163284819Y-89485142D02*
X163332438Y-89342285D01*
X163332438Y-89342285D02*
X163380057Y-89294666D01*
X164284819Y-88342285D02*
X164284819Y-88913713D01*
X164284819Y-88627999D02*
X163284819Y-88627999D01*
X163284819Y-88627999D02*
X163427676Y-88723237D01*
X163427676Y-88723237D02*
X163522914Y-88818475D01*
X163522914Y-88818475D02*
X163570533Y-88913713D01*
X183102642Y-115007819D02*
X182769309Y-114531628D01*
X182531214Y-115007819D02*
X182531214Y-114007819D01*
X182531214Y-114007819D02*
X182912166Y-114007819D01*
X182912166Y-114007819D02*
X183007404Y-114055438D01*
X183007404Y-114055438D02*
X183055023Y-114103057D01*
X183055023Y-114103057D02*
X183102642Y-114198295D01*
X183102642Y-114198295D02*
X183102642Y-114341152D01*
X183102642Y-114341152D02*
X183055023Y-114436390D01*
X183055023Y-114436390D02*
X183007404Y-114484009D01*
X183007404Y-114484009D02*
X182912166Y-114531628D01*
X182912166Y-114531628D02*
X182531214Y-114531628D01*
X184055023Y-115007819D02*
X183483595Y-115007819D01*
X183769309Y-115007819D02*
X183769309Y-114007819D01*
X183769309Y-114007819D02*
X183674071Y-114150676D01*
X183674071Y-114150676D02*
X183578833Y-114245914D01*
X183578833Y-114245914D02*
X183483595Y-114293533D01*
X184435976Y-114103057D02*
X184483595Y-114055438D01*
X184483595Y-114055438D02*
X184578833Y-114007819D01*
X184578833Y-114007819D02*
X184816928Y-114007819D01*
X184816928Y-114007819D02*
X184912166Y-114055438D01*
X184912166Y-114055438D02*
X184959785Y-114103057D01*
X184959785Y-114103057D02*
X185007404Y-114198295D01*
X185007404Y-114198295D02*
X185007404Y-114293533D01*
X185007404Y-114293533D02*
X184959785Y-114436390D01*
X184959785Y-114436390D02*
X184388357Y-115007819D01*
X184388357Y-115007819D02*
X185007404Y-115007819D01*
X162535439Y-102641144D02*
X163344962Y-102641144D01*
X163344962Y-102641144D02*
X163440200Y-102593525D01*
X163440200Y-102593525D02*
X163487820Y-102545906D01*
X163487820Y-102545906D02*
X163535439Y-102450668D01*
X163535439Y-102450668D02*
X163535439Y-102260192D01*
X163535439Y-102260192D02*
X163487820Y-102164954D01*
X163487820Y-102164954D02*
X163440200Y-102117335D01*
X163440200Y-102117335D02*
X163344962Y-102069716D01*
X163344962Y-102069716D02*
X162535439Y-102069716D01*
X163535439Y-101069716D02*
X163535439Y-101641144D01*
X163535439Y-101355430D02*
X162535439Y-101355430D01*
X162535439Y-101355430D02*
X162678296Y-101450668D01*
X162678296Y-101450668D02*
X162773534Y-101545906D01*
X162773534Y-101545906D02*
X162821153Y-101641144D01*
X111060199Y-105493354D02*
X110060199Y-105493354D01*
X110060199Y-105493354D02*
X110060199Y-105255259D01*
X110060199Y-105255259D02*
X110107818Y-105112402D01*
X110107818Y-105112402D02*
X110203056Y-105017164D01*
X110203056Y-105017164D02*
X110298294Y-104969545D01*
X110298294Y-104969545D02*
X110488770Y-104921926D01*
X110488770Y-104921926D02*
X110631627Y-104921926D01*
X110631627Y-104921926D02*
X110822103Y-104969545D01*
X110822103Y-104969545D02*
X110917341Y-105017164D01*
X110917341Y-105017164D02*
X111012580Y-105112402D01*
X111012580Y-105112402D02*
X111060199Y-105255259D01*
X111060199Y-105255259D02*
X111060199Y-105493354D01*
X111060199Y-103969545D02*
X111060199Y-104540973D01*
X111060199Y-104255259D02*
X110060199Y-104255259D01*
X110060199Y-104255259D02*
X110203056Y-104350497D01*
X110203056Y-104350497D02*
X110298294Y-104445735D01*
X110298294Y-104445735D02*
X110345913Y-104540973D01*
X162530439Y-79136144D02*
X163339962Y-79136144D01*
X163339962Y-79136144D02*
X163435200Y-79088525D01*
X163435200Y-79088525D02*
X163482820Y-79040906D01*
X163482820Y-79040906D02*
X163530439Y-78945668D01*
X163530439Y-78945668D02*
X163530439Y-78755192D01*
X163530439Y-78755192D02*
X163482820Y-78659954D01*
X163482820Y-78659954D02*
X163435200Y-78612335D01*
X163435200Y-78612335D02*
X163339962Y-78564716D01*
X163339962Y-78564716D02*
X162530439Y-78564716D01*
X162625677Y-78136144D02*
X162578058Y-78088525D01*
X162578058Y-78088525D02*
X162530439Y-77993287D01*
X162530439Y-77993287D02*
X162530439Y-77755192D01*
X162530439Y-77755192D02*
X162578058Y-77659954D01*
X162578058Y-77659954D02*
X162625677Y-77612335D01*
X162625677Y-77612335D02*
X162720915Y-77564716D01*
X162720915Y-77564716D02*
X162816153Y-77564716D01*
X162816153Y-77564716D02*
X162959010Y-77612335D01*
X162959010Y-77612335D02*
X163530439Y-78183763D01*
X163530439Y-78183763D02*
X163530439Y-77564716D01*
X158329333Y-76780580D02*
X158281714Y-76828200D01*
X158281714Y-76828200D02*
X158138857Y-76875819D01*
X158138857Y-76875819D02*
X158043619Y-76875819D01*
X158043619Y-76875819D02*
X157900762Y-76828200D01*
X157900762Y-76828200D02*
X157805524Y-76732961D01*
X157805524Y-76732961D02*
X157757905Y-76637723D01*
X157757905Y-76637723D02*
X157710286Y-76447247D01*
X157710286Y-76447247D02*
X157710286Y-76304390D01*
X157710286Y-76304390D02*
X157757905Y-76113914D01*
X157757905Y-76113914D02*
X157805524Y-76018676D01*
X157805524Y-76018676D02*
X157900762Y-75923438D01*
X157900762Y-75923438D02*
X158043619Y-75875819D01*
X158043619Y-75875819D02*
X158138857Y-75875819D01*
X158138857Y-75875819D02*
X158281714Y-75923438D01*
X158281714Y-75923438D02*
X158329333Y-75971057D01*
X159186476Y-76209152D02*
X159186476Y-76875819D01*
X158948381Y-75828200D02*
X158710286Y-76542485D01*
X158710286Y-76542485D02*
X159329333Y-76542485D01*
X178681142Y-111707819D02*
X178347809Y-111231628D01*
X178109714Y-111707819D02*
X178109714Y-110707819D01*
X178109714Y-110707819D02*
X178490666Y-110707819D01*
X178490666Y-110707819D02*
X178585904Y-110755438D01*
X178585904Y-110755438D02*
X178633523Y-110803057D01*
X178633523Y-110803057D02*
X178681142Y-110898295D01*
X178681142Y-110898295D02*
X178681142Y-111041152D01*
X178681142Y-111041152D02*
X178633523Y-111136390D01*
X178633523Y-111136390D02*
X178585904Y-111184009D01*
X178585904Y-111184009D02*
X178490666Y-111231628D01*
X178490666Y-111231628D02*
X178109714Y-111231628D01*
X179633523Y-111707819D02*
X179062095Y-111707819D01*
X179347809Y-111707819D02*
X179347809Y-110707819D01*
X179347809Y-110707819D02*
X179252571Y-110850676D01*
X179252571Y-110850676D02*
X179157333Y-110945914D01*
X179157333Y-110945914D02*
X179062095Y-110993533D01*
X180585904Y-111707819D02*
X180014476Y-111707819D01*
X180300190Y-111707819D02*
X180300190Y-110707819D01*
X180300190Y-110707819D02*
X180204952Y-110850676D01*
X180204952Y-110850676D02*
X180109714Y-110945914D01*
X180109714Y-110945914D02*
X180014476Y-110993533D01*
X112093713Y-99417579D02*
X111760380Y-98941388D01*
X111522285Y-99417579D02*
X111522285Y-98417579D01*
X111522285Y-98417579D02*
X111903237Y-98417579D01*
X111903237Y-98417579D02*
X111998475Y-98465198D01*
X111998475Y-98465198D02*
X112046094Y-98512817D01*
X112046094Y-98512817D02*
X112093713Y-98608055D01*
X112093713Y-98608055D02*
X112093713Y-98750912D01*
X112093713Y-98750912D02*
X112046094Y-98846150D01*
X112046094Y-98846150D02*
X111998475Y-98893769D01*
X111998475Y-98893769D02*
X111903237Y-98941388D01*
X111903237Y-98941388D02*
X111522285Y-98941388D01*
X112665142Y-98846150D02*
X112569904Y-98798531D01*
X112569904Y-98798531D02*
X112522285Y-98750912D01*
X112522285Y-98750912D02*
X112474666Y-98655674D01*
X112474666Y-98655674D02*
X112474666Y-98608055D01*
X112474666Y-98608055D02*
X112522285Y-98512817D01*
X112522285Y-98512817D02*
X112569904Y-98465198D01*
X112569904Y-98465198D02*
X112665142Y-98417579D01*
X112665142Y-98417579D02*
X112855618Y-98417579D01*
X112855618Y-98417579D02*
X112950856Y-98465198D01*
X112950856Y-98465198D02*
X112998475Y-98512817D01*
X112998475Y-98512817D02*
X113046094Y-98608055D01*
X113046094Y-98608055D02*
X113046094Y-98655674D01*
X113046094Y-98655674D02*
X112998475Y-98750912D01*
X112998475Y-98750912D02*
X112950856Y-98798531D01*
X112950856Y-98798531D02*
X112855618Y-98846150D01*
X112855618Y-98846150D02*
X112665142Y-98846150D01*
X112665142Y-98846150D02*
X112569904Y-98893769D01*
X112569904Y-98893769D02*
X112522285Y-98941388D01*
X112522285Y-98941388D02*
X112474666Y-99036626D01*
X112474666Y-99036626D02*
X112474666Y-99227102D01*
X112474666Y-99227102D02*
X112522285Y-99322340D01*
X112522285Y-99322340D02*
X112569904Y-99369960D01*
X112569904Y-99369960D02*
X112665142Y-99417579D01*
X112665142Y-99417579D02*
X112855618Y-99417579D01*
X112855618Y-99417579D02*
X112950856Y-99369960D01*
X112950856Y-99369960D02*
X112998475Y-99322340D01*
X112998475Y-99322340D02*
X113046094Y-99227102D01*
X113046094Y-99227102D02*
X113046094Y-99036626D01*
X113046094Y-99036626D02*
X112998475Y-98941388D01*
X112998475Y-98941388D02*
X112950856Y-98893769D01*
X112950856Y-98893769D02*
X112855618Y-98846150D01*
X143851333Y-69924819D02*
X143518000Y-69448628D01*
X143279905Y-69924819D02*
X143279905Y-68924819D01*
X143279905Y-68924819D02*
X143660857Y-68924819D01*
X143660857Y-68924819D02*
X143756095Y-68972438D01*
X143756095Y-68972438D02*
X143803714Y-69020057D01*
X143803714Y-69020057D02*
X143851333Y-69115295D01*
X143851333Y-69115295D02*
X143851333Y-69258152D01*
X143851333Y-69258152D02*
X143803714Y-69353390D01*
X143803714Y-69353390D02*
X143756095Y-69401009D01*
X143756095Y-69401009D02*
X143660857Y-69448628D01*
X143660857Y-69448628D02*
X143279905Y-69448628D01*
X144327524Y-69924819D02*
X144518000Y-69924819D01*
X144518000Y-69924819D02*
X144613238Y-69877200D01*
X144613238Y-69877200D02*
X144660857Y-69829580D01*
X144660857Y-69829580D02*
X144756095Y-69686723D01*
X144756095Y-69686723D02*
X144803714Y-69496247D01*
X144803714Y-69496247D02*
X144803714Y-69115295D01*
X144803714Y-69115295D02*
X144756095Y-69020057D01*
X144756095Y-69020057D02*
X144708476Y-68972438D01*
X144708476Y-68972438D02*
X144613238Y-68924819D01*
X144613238Y-68924819D02*
X144422762Y-68924819D01*
X144422762Y-68924819D02*
X144327524Y-68972438D01*
X144327524Y-68972438D02*
X144279905Y-69020057D01*
X144279905Y-69020057D02*
X144232286Y-69115295D01*
X144232286Y-69115295D02*
X144232286Y-69353390D01*
X144232286Y-69353390D02*
X144279905Y-69448628D01*
X144279905Y-69448628D02*
X144327524Y-69496247D01*
X144327524Y-69496247D02*
X144422762Y-69543866D01*
X144422762Y-69543866D02*
X144613238Y-69543866D01*
X144613238Y-69543866D02*
X144708476Y-69496247D01*
X144708476Y-69496247D02*
X144756095Y-69448628D01*
X144756095Y-69448628D02*
X144803714Y-69353390D01*
X193523095Y-102379819D02*
X193523095Y-103189342D01*
X193523095Y-103189342D02*
X193570714Y-103284580D01*
X193570714Y-103284580D02*
X193618333Y-103332200D01*
X193618333Y-103332200D02*
X193713571Y-103379819D01*
X193713571Y-103379819D02*
X193904047Y-103379819D01*
X193904047Y-103379819D02*
X193999285Y-103332200D01*
X193999285Y-103332200D02*
X194046904Y-103284580D01*
X194046904Y-103284580D02*
X194094523Y-103189342D01*
X194094523Y-103189342D02*
X194094523Y-102379819D01*
X194475476Y-102379819D02*
X195142142Y-102379819D01*
X195142142Y-102379819D02*
X194713571Y-103379819D01*
X207779580Y-100972857D02*
X207827200Y-101020476D01*
X207827200Y-101020476D02*
X207874819Y-101163333D01*
X207874819Y-101163333D02*
X207874819Y-101258571D01*
X207874819Y-101258571D02*
X207827200Y-101401428D01*
X207827200Y-101401428D02*
X207731961Y-101496666D01*
X207731961Y-101496666D02*
X207636723Y-101544285D01*
X207636723Y-101544285D02*
X207446247Y-101591904D01*
X207446247Y-101591904D02*
X207303390Y-101591904D01*
X207303390Y-101591904D02*
X207112914Y-101544285D01*
X207112914Y-101544285D02*
X207017676Y-101496666D01*
X207017676Y-101496666D02*
X206922438Y-101401428D01*
X206922438Y-101401428D02*
X206874819Y-101258571D01*
X206874819Y-101258571D02*
X206874819Y-101163333D01*
X206874819Y-101163333D02*
X206922438Y-101020476D01*
X206922438Y-101020476D02*
X206970057Y-100972857D01*
X207874819Y-100020476D02*
X207874819Y-100591904D01*
X207874819Y-100306190D02*
X206874819Y-100306190D01*
X206874819Y-100306190D02*
X207017676Y-100401428D01*
X207017676Y-100401428D02*
X207112914Y-100496666D01*
X207112914Y-100496666D02*
X207160533Y-100591904D01*
X206874819Y-99687142D02*
X206874819Y-99020476D01*
X206874819Y-99020476D02*
X207874819Y-99449047D01*
X186520200Y-72825906D02*
X186567820Y-72873525D01*
X186567820Y-72873525D02*
X186615439Y-73016382D01*
X186615439Y-73016382D02*
X186615439Y-73111620D01*
X186615439Y-73111620D02*
X186567820Y-73254477D01*
X186567820Y-73254477D02*
X186472581Y-73349715D01*
X186472581Y-73349715D02*
X186377343Y-73397334D01*
X186377343Y-73397334D02*
X186186867Y-73444953D01*
X186186867Y-73444953D02*
X186044010Y-73444953D01*
X186044010Y-73444953D02*
X185853534Y-73397334D01*
X185853534Y-73397334D02*
X185758296Y-73349715D01*
X185758296Y-73349715D02*
X185663058Y-73254477D01*
X185663058Y-73254477D02*
X185615439Y-73111620D01*
X185615439Y-73111620D02*
X185615439Y-73016382D01*
X185615439Y-73016382D02*
X185663058Y-72873525D01*
X185663058Y-72873525D02*
X185710677Y-72825906D01*
X185615439Y-71921144D02*
X185615439Y-72397334D01*
X185615439Y-72397334D02*
X186091629Y-72444953D01*
X186091629Y-72444953D02*
X186044010Y-72397334D01*
X186044010Y-72397334D02*
X185996391Y-72302096D01*
X185996391Y-72302096D02*
X185996391Y-72064001D01*
X185996391Y-72064001D02*
X186044010Y-71968763D01*
X186044010Y-71968763D02*
X186091629Y-71921144D01*
X186091629Y-71921144D02*
X186186867Y-71873525D01*
X186186867Y-71873525D02*
X186424962Y-71873525D01*
X186424962Y-71873525D02*
X186520200Y-71921144D01*
X186520200Y-71921144D02*
X186567820Y-71968763D01*
X186567820Y-71968763D02*
X186615439Y-72064001D01*
X186615439Y-72064001D02*
X186615439Y-72302096D01*
X186615439Y-72302096D02*
X186567820Y-72397334D01*
X186567820Y-72397334D02*
X186520200Y-72444953D01*
X159904580Y-89434666D02*
X159952200Y-89482285D01*
X159952200Y-89482285D02*
X159999819Y-89625142D01*
X159999819Y-89625142D02*
X159999819Y-89720380D01*
X159999819Y-89720380D02*
X159952200Y-89863237D01*
X159952200Y-89863237D02*
X159856961Y-89958475D01*
X159856961Y-89958475D02*
X159761723Y-90006094D01*
X159761723Y-90006094D02*
X159571247Y-90053713D01*
X159571247Y-90053713D02*
X159428390Y-90053713D01*
X159428390Y-90053713D02*
X159237914Y-90006094D01*
X159237914Y-90006094D02*
X159142676Y-89958475D01*
X159142676Y-89958475D02*
X159047438Y-89863237D01*
X159047438Y-89863237D02*
X158999819Y-89720380D01*
X158999819Y-89720380D02*
X158999819Y-89625142D01*
X158999819Y-89625142D02*
X159047438Y-89482285D01*
X159047438Y-89482285D02*
X159095057Y-89434666D01*
X159095057Y-89053713D02*
X159047438Y-89006094D01*
X159047438Y-89006094D02*
X158999819Y-88910856D01*
X158999819Y-88910856D02*
X158999819Y-88672761D01*
X158999819Y-88672761D02*
X159047438Y-88577523D01*
X159047438Y-88577523D02*
X159095057Y-88529904D01*
X159095057Y-88529904D02*
X159190295Y-88482285D01*
X159190295Y-88482285D02*
X159285533Y-88482285D01*
X159285533Y-88482285D02*
X159428390Y-88529904D01*
X159428390Y-88529904D02*
X159999819Y-89101332D01*
X159999819Y-89101332D02*
X159999819Y-88482285D01*
X194181905Y-87029819D02*
X194181905Y-86029819D01*
X194181905Y-86029819D02*
X194420000Y-86029819D01*
X194420000Y-86029819D02*
X194562857Y-86077438D01*
X194562857Y-86077438D02*
X194658095Y-86172676D01*
X194658095Y-86172676D02*
X194705714Y-86267914D01*
X194705714Y-86267914D02*
X194753333Y-86458390D01*
X194753333Y-86458390D02*
X194753333Y-86601247D01*
X194753333Y-86601247D02*
X194705714Y-86791723D01*
X194705714Y-86791723D02*
X194658095Y-86886961D01*
X194658095Y-86886961D02*
X194562857Y-86982200D01*
X194562857Y-86982200D02*
X194420000Y-87029819D01*
X194420000Y-87029819D02*
X194181905Y-87029819D01*
X195086667Y-86029819D02*
X195753333Y-86029819D01*
X195753333Y-86029819D02*
X195324762Y-87029819D01*
X198468095Y-86709819D02*
X198468095Y-85709819D01*
X199039523Y-86709819D02*
X198610952Y-86138390D01*
X199039523Y-85709819D02*
X198468095Y-86281247D01*
X223702286Y-83009059D02*
X223702286Y-83723344D01*
X223702286Y-83723344D02*
X223654667Y-83866201D01*
X223654667Y-83866201D02*
X223559429Y-83961440D01*
X223559429Y-83961440D02*
X223416572Y-84009059D01*
X223416572Y-84009059D02*
X223321334Y-84009059D01*
X224130858Y-83104297D02*
X224178477Y-83056678D01*
X224178477Y-83056678D02*
X224273715Y-83009059D01*
X224273715Y-83009059D02*
X224511810Y-83009059D01*
X224511810Y-83009059D02*
X224607048Y-83056678D01*
X224607048Y-83056678D02*
X224654667Y-83104297D01*
X224654667Y-83104297D02*
X224702286Y-83199535D01*
X224702286Y-83199535D02*
X224702286Y-83294773D01*
X224702286Y-83294773D02*
X224654667Y-83437630D01*
X224654667Y-83437630D02*
X224083239Y-84009059D01*
X224083239Y-84009059D02*
X224702286Y-84009059D01*
X157908666Y-71526009D02*
X157575333Y-71526009D01*
X157575333Y-72049819D02*
X157575333Y-71049819D01*
X157575333Y-71049819D02*
X158051523Y-71049819D01*
X158384857Y-71145057D02*
X158432476Y-71097438D01*
X158432476Y-71097438D02*
X158527714Y-71049819D01*
X158527714Y-71049819D02*
X158765809Y-71049819D01*
X158765809Y-71049819D02*
X158861047Y-71097438D01*
X158861047Y-71097438D02*
X158908666Y-71145057D01*
X158908666Y-71145057D02*
X158956285Y-71240295D01*
X158956285Y-71240295D02*
X158956285Y-71335533D01*
X158956285Y-71335533D02*
X158908666Y-71478390D01*
X158908666Y-71478390D02*
X158337238Y-72049819D01*
X158337238Y-72049819D02*
X158956285Y-72049819D01*
X165782666Y-116548819D02*
X165782666Y-117263104D01*
X165782666Y-117263104D02*
X165735047Y-117405961D01*
X165735047Y-117405961D02*
X165639809Y-117501200D01*
X165639809Y-117501200D02*
X165496952Y-117548819D01*
X165496952Y-117548819D02*
X165401714Y-117548819D01*
X166735047Y-116548819D02*
X166258857Y-116548819D01*
X166258857Y-116548819D02*
X166211238Y-117025009D01*
X166211238Y-117025009D02*
X166258857Y-116977390D01*
X166258857Y-116977390D02*
X166354095Y-116929771D01*
X166354095Y-116929771D02*
X166592190Y-116929771D01*
X166592190Y-116929771D02*
X166687428Y-116977390D01*
X166687428Y-116977390D02*
X166735047Y-117025009D01*
X166735047Y-117025009D02*
X166782666Y-117120247D01*
X166782666Y-117120247D02*
X166782666Y-117358342D01*
X166782666Y-117358342D02*
X166735047Y-117453580D01*
X166735047Y-117453580D02*
X166687428Y-117501200D01*
X166687428Y-117501200D02*
X166592190Y-117548819D01*
X166592190Y-117548819D02*
X166354095Y-117548819D01*
X166354095Y-117548819D02*
X166258857Y-117501200D01*
X166258857Y-117501200D02*
X166211238Y-117453580D01*
X111817022Y-97870340D02*
X111769403Y-97917960D01*
X111769403Y-97917960D02*
X111626546Y-97965579D01*
X111626546Y-97965579D02*
X111531308Y-97965579D01*
X111531308Y-97965579D02*
X111388451Y-97917960D01*
X111388451Y-97917960D02*
X111293213Y-97822721D01*
X111293213Y-97822721D02*
X111245594Y-97727483D01*
X111245594Y-97727483D02*
X111197975Y-97537007D01*
X111197975Y-97537007D02*
X111197975Y-97394150D01*
X111197975Y-97394150D02*
X111245594Y-97203674D01*
X111245594Y-97203674D02*
X111293213Y-97108436D01*
X111293213Y-97108436D02*
X111388451Y-97013198D01*
X111388451Y-97013198D02*
X111531308Y-96965579D01*
X111531308Y-96965579D02*
X111626546Y-96965579D01*
X111626546Y-96965579D02*
X111769403Y-97013198D01*
X111769403Y-97013198D02*
X111817022Y-97060817D01*
X112769403Y-97965579D02*
X112197975Y-97965579D01*
X112483689Y-97965579D02*
X112483689Y-96965579D01*
X112483689Y-96965579D02*
X112388451Y-97108436D01*
X112388451Y-97108436D02*
X112293213Y-97203674D01*
X112293213Y-97203674D02*
X112197975Y-97251293D01*
X113388451Y-96965579D02*
X113483689Y-96965579D01*
X113483689Y-96965579D02*
X113578927Y-97013198D01*
X113578927Y-97013198D02*
X113626546Y-97060817D01*
X113626546Y-97060817D02*
X113674165Y-97156055D01*
X113674165Y-97156055D02*
X113721784Y-97346531D01*
X113721784Y-97346531D02*
X113721784Y-97584626D01*
X113721784Y-97584626D02*
X113674165Y-97775102D01*
X113674165Y-97775102D02*
X113626546Y-97870340D01*
X113626546Y-97870340D02*
X113578927Y-97917960D01*
X113578927Y-97917960D02*
X113483689Y-97965579D01*
X113483689Y-97965579D02*
X113388451Y-97965579D01*
X113388451Y-97965579D02*
X113293213Y-97917960D01*
X113293213Y-97917960D02*
X113245594Y-97870340D01*
X113245594Y-97870340D02*
X113197975Y-97775102D01*
X113197975Y-97775102D02*
X113150356Y-97584626D01*
X113150356Y-97584626D02*
X113150356Y-97346531D01*
X113150356Y-97346531D02*
X113197975Y-97156055D01*
X113197975Y-97156055D02*
X113245594Y-97060817D01*
X113245594Y-97060817D02*
X113293213Y-97013198D01*
X113293213Y-97013198D02*
X113388451Y-96965579D01*
X151732142Y-99017819D02*
X151398809Y-98541628D01*
X151160714Y-99017819D02*
X151160714Y-98017819D01*
X151160714Y-98017819D02*
X151541666Y-98017819D01*
X151541666Y-98017819D02*
X151636904Y-98065438D01*
X151636904Y-98065438D02*
X151684523Y-98113057D01*
X151684523Y-98113057D02*
X151732142Y-98208295D01*
X151732142Y-98208295D02*
X151732142Y-98351152D01*
X151732142Y-98351152D02*
X151684523Y-98446390D01*
X151684523Y-98446390D02*
X151636904Y-98494009D01*
X151636904Y-98494009D02*
X151541666Y-98541628D01*
X151541666Y-98541628D02*
X151160714Y-98541628D01*
X152684523Y-99017819D02*
X152113095Y-99017819D01*
X152398809Y-99017819D02*
X152398809Y-98017819D01*
X152398809Y-98017819D02*
X152303571Y-98160676D01*
X152303571Y-98160676D02*
X152208333Y-98255914D01*
X152208333Y-98255914D02*
X152113095Y-98303533D01*
X153303571Y-98017819D02*
X153398809Y-98017819D01*
X153398809Y-98017819D02*
X153494047Y-98065438D01*
X153494047Y-98065438D02*
X153541666Y-98113057D01*
X153541666Y-98113057D02*
X153589285Y-98208295D01*
X153589285Y-98208295D02*
X153636904Y-98398771D01*
X153636904Y-98398771D02*
X153636904Y-98636866D01*
X153636904Y-98636866D02*
X153589285Y-98827342D01*
X153589285Y-98827342D02*
X153541666Y-98922580D01*
X153541666Y-98922580D02*
X153494047Y-98970200D01*
X153494047Y-98970200D02*
X153398809Y-99017819D01*
X153398809Y-99017819D02*
X153303571Y-99017819D01*
X153303571Y-99017819D02*
X153208333Y-98970200D01*
X153208333Y-98970200D02*
X153160714Y-98922580D01*
X153160714Y-98922580D02*
X153113095Y-98827342D01*
X153113095Y-98827342D02*
X153065476Y-98636866D01*
X153065476Y-98636866D02*
X153065476Y-98398771D01*
X153065476Y-98398771D02*
X153113095Y-98208295D01*
X153113095Y-98208295D02*
X153160714Y-98113057D01*
X153160714Y-98113057D02*
X153208333Y-98065438D01*
X153208333Y-98065438D02*
X153303571Y-98017819D01*
X110079819Y-71820238D02*
X109603628Y-72153571D01*
X110079819Y-72391666D02*
X109079819Y-72391666D01*
X109079819Y-72391666D02*
X109079819Y-72010714D01*
X109079819Y-72010714D02*
X109127438Y-71915476D01*
X109127438Y-71915476D02*
X109175057Y-71867857D01*
X109175057Y-71867857D02*
X109270295Y-71820238D01*
X109270295Y-71820238D02*
X109413152Y-71820238D01*
X109413152Y-71820238D02*
X109508390Y-71867857D01*
X109508390Y-71867857D02*
X109556009Y-71915476D01*
X109556009Y-71915476D02*
X109603628Y-72010714D01*
X109603628Y-72010714D02*
X109603628Y-72391666D01*
X109079819Y-71534523D02*
X110079819Y-71201190D01*
X110079819Y-71201190D02*
X109079819Y-70867857D01*
X110079819Y-70010714D02*
X110079819Y-70582142D01*
X110079819Y-70296428D02*
X109079819Y-70296428D01*
X109079819Y-70296428D02*
X109222676Y-70391666D01*
X109222676Y-70391666D02*
X109317914Y-70486904D01*
X109317914Y-70486904D02*
X109365533Y-70582142D01*
X118855833Y-76909819D02*
X118522500Y-76433628D01*
X118284405Y-76909819D02*
X118284405Y-75909819D01*
X118284405Y-75909819D02*
X118665357Y-75909819D01*
X118665357Y-75909819D02*
X118760595Y-75957438D01*
X118760595Y-75957438D02*
X118808214Y-76005057D01*
X118808214Y-76005057D02*
X118855833Y-76100295D01*
X118855833Y-76100295D02*
X118855833Y-76243152D01*
X118855833Y-76243152D02*
X118808214Y-76338390D01*
X118808214Y-76338390D02*
X118760595Y-76386009D01*
X118760595Y-76386009D02*
X118665357Y-76433628D01*
X118665357Y-76433628D02*
X118284405Y-76433628D01*
X119712976Y-75909819D02*
X119522500Y-75909819D01*
X119522500Y-75909819D02*
X119427262Y-75957438D01*
X119427262Y-75957438D02*
X119379643Y-76005057D01*
X119379643Y-76005057D02*
X119284405Y-76147914D01*
X119284405Y-76147914D02*
X119236786Y-76338390D01*
X119236786Y-76338390D02*
X119236786Y-76719342D01*
X119236786Y-76719342D02*
X119284405Y-76814580D01*
X119284405Y-76814580D02*
X119332024Y-76862200D01*
X119332024Y-76862200D02*
X119427262Y-76909819D01*
X119427262Y-76909819D02*
X119617738Y-76909819D01*
X119617738Y-76909819D02*
X119712976Y-76862200D01*
X119712976Y-76862200D02*
X119760595Y-76814580D01*
X119760595Y-76814580D02*
X119808214Y-76719342D01*
X119808214Y-76719342D02*
X119808214Y-76481247D01*
X119808214Y-76481247D02*
X119760595Y-76386009D01*
X119760595Y-76386009D02*
X119712976Y-76338390D01*
X119712976Y-76338390D02*
X119617738Y-76290771D01*
X119617738Y-76290771D02*
X119427262Y-76290771D01*
X119427262Y-76290771D02*
X119332024Y-76338390D01*
X119332024Y-76338390D02*
X119284405Y-76386009D01*
X119284405Y-76386009D02*
X119236786Y-76481247D01*
X194181905Y-92744819D02*
X194181905Y-91744819D01*
X194181905Y-91744819D02*
X194420000Y-91744819D01*
X194420000Y-91744819D02*
X194562857Y-91792438D01*
X194562857Y-91792438D02*
X194658095Y-91887676D01*
X194658095Y-91887676D02*
X194705714Y-91982914D01*
X194705714Y-91982914D02*
X194753333Y-92173390D01*
X194753333Y-92173390D02*
X194753333Y-92316247D01*
X194753333Y-92316247D02*
X194705714Y-92506723D01*
X194705714Y-92506723D02*
X194658095Y-92601961D01*
X194658095Y-92601961D02*
X194562857Y-92697200D01*
X194562857Y-92697200D02*
X194420000Y-92744819D01*
X194420000Y-92744819D02*
X194181905Y-92744819D01*
X195324762Y-92173390D02*
X195229524Y-92125771D01*
X195229524Y-92125771D02*
X195181905Y-92078152D01*
X195181905Y-92078152D02*
X195134286Y-91982914D01*
X195134286Y-91982914D02*
X195134286Y-91935295D01*
X195134286Y-91935295D02*
X195181905Y-91840057D01*
X195181905Y-91840057D02*
X195229524Y-91792438D01*
X195229524Y-91792438D02*
X195324762Y-91744819D01*
X195324762Y-91744819D02*
X195515238Y-91744819D01*
X195515238Y-91744819D02*
X195610476Y-91792438D01*
X195610476Y-91792438D02*
X195658095Y-91840057D01*
X195658095Y-91840057D02*
X195705714Y-91935295D01*
X195705714Y-91935295D02*
X195705714Y-91982914D01*
X195705714Y-91982914D02*
X195658095Y-92078152D01*
X195658095Y-92078152D02*
X195610476Y-92125771D01*
X195610476Y-92125771D02*
X195515238Y-92173390D01*
X195515238Y-92173390D02*
X195324762Y-92173390D01*
X195324762Y-92173390D02*
X195229524Y-92221009D01*
X195229524Y-92221009D02*
X195181905Y-92268628D01*
X195181905Y-92268628D02*
X195134286Y-92363866D01*
X195134286Y-92363866D02*
X195134286Y-92554342D01*
X195134286Y-92554342D02*
X195181905Y-92649580D01*
X195181905Y-92649580D02*
X195229524Y-92697200D01*
X195229524Y-92697200D02*
X195324762Y-92744819D01*
X195324762Y-92744819D02*
X195515238Y-92744819D01*
X195515238Y-92744819D02*
X195610476Y-92697200D01*
X195610476Y-92697200D02*
X195658095Y-92649580D01*
X195658095Y-92649580D02*
X195705714Y-92554342D01*
X195705714Y-92554342D02*
X195705714Y-92363866D01*
X195705714Y-92363866D02*
X195658095Y-92268628D01*
X195658095Y-92268628D02*
X195610476Y-92221009D01*
X195610476Y-92221009D02*
X195515238Y-92173390D01*
X198468095Y-92424819D02*
X198468095Y-91424819D01*
X199039523Y-92424819D02*
X198610952Y-91853390D01*
X199039523Y-91424819D02*
X198468095Y-91996247D01*
X111617522Y-111542340D02*
X111569903Y-111589960D01*
X111569903Y-111589960D02*
X111427046Y-111637579D01*
X111427046Y-111637579D02*
X111331808Y-111637579D01*
X111331808Y-111637579D02*
X111188951Y-111589960D01*
X111188951Y-111589960D02*
X111093713Y-111494721D01*
X111093713Y-111494721D02*
X111046094Y-111399483D01*
X111046094Y-111399483D02*
X110998475Y-111209007D01*
X110998475Y-111209007D02*
X110998475Y-111066150D01*
X110998475Y-111066150D02*
X111046094Y-110875674D01*
X111046094Y-110875674D02*
X111093713Y-110780436D01*
X111093713Y-110780436D02*
X111188951Y-110685198D01*
X111188951Y-110685198D02*
X111331808Y-110637579D01*
X111331808Y-110637579D02*
X111427046Y-110637579D01*
X111427046Y-110637579D02*
X111569903Y-110685198D01*
X111569903Y-110685198D02*
X111617522Y-110732817D01*
X111998475Y-110732817D02*
X112046094Y-110685198D01*
X112046094Y-110685198D02*
X112141332Y-110637579D01*
X112141332Y-110637579D02*
X112379427Y-110637579D01*
X112379427Y-110637579D02*
X112474665Y-110685198D01*
X112474665Y-110685198D02*
X112522284Y-110732817D01*
X112522284Y-110732817D02*
X112569903Y-110828055D01*
X112569903Y-110828055D02*
X112569903Y-110923293D01*
X112569903Y-110923293D02*
X112522284Y-111066150D01*
X112522284Y-111066150D02*
X111950856Y-111637579D01*
X111950856Y-111637579D02*
X112569903Y-111637579D01*
X113522284Y-111637579D02*
X112950856Y-111637579D01*
X113236570Y-111637579D02*
X113236570Y-110637579D01*
X113236570Y-110637579D02*
X113141332Y-110780436D01*
X113141332Y-110780436D02*
X113046094Y-110875674D01*
X113046094Y-110875674D02*
X112950856Y-110923293D01*
X116103200Y-102381332D02*
X116150819Y-102238475D01*
X116150819Y-102238475D02*
X116150819Y-102000380D01*
X116150819Y-102000380D02*
X116103200Y-101905142D01*
X116103200Y-101905142D02*
X116055580Y-101857523D01*
X116055580Y-101857523D02*
X115960342Y-101809904D01*
X115960342Y-101809904D02*
X115865104Y-101809904D01*
X115865104Y-101809904D02*
X115769866Y-101857523D01*
X115769866Y-101857523D02*
X115722247Y-101905142D01*
X115722247Y-101905142D02*
X115674628Y-102000380D01*
X115674628Y-102000380D02*
X115627009Y-102190856D01*
X115627009Y-102190856D02*
X115579390Y-102286094D01*
X115579390Y-102286094D02*
X115531771Y-102333713D01*
X115531771Y-102333713D02*
X115436533Y-102381332D01*
X115436533Y-102381332D02*
X115341295Y-102381332D01*
X115341295Y-102381332D02*
X115246057Y-102333713D01*
X115246057Y-102333713D02*
X115198438Y-102286094D01*
X115198438Y-102286094D02*
X115150819Y-102190856D01*
X115150819Y-102190856D02*
X115150819Y-101952761D01*
X115150819Y-101952761D02*
X115198438Y-101809904D01*
X115150819Y-101476570D02*
X116150819Y-101238475D01*
X116150819Y-101238475D02*
X115436533Y-101047999D01*
X115436533Y-101047999D02*
X116150819Y-100857523D01*
X116150819Y-100857523D02*
X115150819Y-100619428D01*
X115150819Y-99809904D02*
X115150819Y-100000380D01*
X115150819Y-100000380D02*
X115198438Y-100095618D01*
X115198438Y-100095618D02*
X115246057Y-100143237D01*
X115246057Y-100143237D02*
X115388914Y-100238475D01*
X115388914Y-100238475D02*
X115579390Y-100286094D01*
X115579390Y-100286094D02*
X115960342Y-100286094D01*
X115960342Y-100286094D02*
X116055580Y-100238475D01*
X116055580Y-100238475D02*
X116103200Y-100190856D01*
X116103200Y-100190856D02*
X116150819Y-100095618D01*
X116150819Y-100095618D02*
X116150819Y-99905142D01*
X116150819Y-99905142D02*
X116103200Y-99809904D01*
X116103200Y-99809904D02*
X116055580Y-99762285D01*
X116055580Y-99762285D02*
X115960342Y-99714666D01*
X115960342Y-99714666D02*
X115722247Y-99714666D01*
X115722247Y-99714666D02*
X115627009Y-99762285D01*
X115627009Y-99762285D02*
X115579390Y-99809904D01*
X115579390Y-99809904D02*
X115531771Y-99905142D01*
X115531771Y-99905142D02*
X115531771Y-100095618D01*
X115531771Y-100095618D02*
X115579390Y-100190856D01*
X115579390Y-100190856D02*
X115627009Y-100238475D01*
X115627009Y-100238475D02*
X115722247Y-100286094D01*
D11*
%TO.C,R7*%
X118517936Y-82450000D02*
X118972064Y-82450000D01*
X118517936Y-83920000D02*
X118972064Y-83920000D01*
%TO.C,FB1*%
X207762878Y-74451740D02*
X207288362Y-74451740D01*
X207762878Y-73406740D02*
X207288362Y-73406740D01*
%TO.C,U8*%
X143500620Y-111669240D02*
X143500620Y-104919240D01*
X143500620Y-111669240D02*
X125500620Y-111669240D01*
X143500620Y-86919240D02*
X143500620Y-86169240D01*
X143500620Y-86169240D02*
X142500620Y-86169240D01*
X125500620Y-111669240D02*
X125500620Y-104919240D01*
X125500620Y-105729240D02*
X143500620Y-105729240D01*
X125500620Y-86919240D02*
X125500620Y-86169240D01*
X125500620Y-86169240D02*
X126500620Y-86169240D01*
%TO.C,C18*%
X152138748Y-103913000D02*
X152661252Y-103913000D01*
X152138748Y-105383000D02*
X152661252Y-105383000D01*
%TO.C,SW5*%
X149715000Y-94108000D02*
X150115000Y-94108000D01*
X149715000Y-94108000D02*
X149715000Y-89368000D01*
X153115000Y-94108000D02*
X151055000Y-94108000D01*
X154455000Y-94108000D02*
X154055000Y-94108000D01*
X154455000Y-94108000D02*
X154455000Y-89368000D01*
X149715000Y-89368000D02*
X150115000Y-89368000D01*
X153115000Y-89368000D02*
X151055000Y-89368000D01*
X154455000Y-89368000D02*
X154055000Y-89368000D01*
%TO.C,C16*%
X206475000Y-95623748D02*
X206475000Y-96146252D01*
X205005000Y-95623748D02*
X205005000Y-96146252D01*
%TO.C,J7*%
X111208000Y-82554000D02*
X112268000Y-82554000D01*
X111208000Y-83614000D02*
X111208000Y-82554000D01*
X111208000Y-84614000D02*
X111208000Y-90674000D01*
X111208000Y-84614000D02*
X113328000Y-84614000D01*
X111208000Y-90674000D02*
X113328000Y-90674000D01*
X113328000Y-84614000D02*
X113328000Y-90674000D01*
%TO.C,R5*%
X124032742Y-82662500D02*
X124507258Y-82662500D01*
X124032742Y-83707500D02*
X124507258Y-83707500D01*
%TO.C,JP2*%
X117330000Y-88438000D02*
X117330000Y-87838000D01*
X118030000Y-87138000D02*
X119430000Y-87138000D01*
X119430000Y-89138000D02*
X118030000Y-89138000D01*
X120130000Y-87838000D02*
X120130000Y-88438000D01*
X118030000Y-87138000D02*
G75*
G03*
X117330000Y-87838000I-1J-699999D01*
G01*
X117330000Y-88438000D02*
G75*
G03*
X118030000Y-89138000I699999J-1D01*
G01*
X120130000Y-87838000D02*
G75*
G03*
X119430000Y-87138000I-700000J0D01*
G01*
X119430000Y-89138000D02*
G75*
G03*
X120130000Y-88438000I0J700000D01*
G01*
%TO.C,R4*%
X124222742Y-78852500D02*
X124697258Y-78852500D01*
X124222742Y-79897500D02*
X124697258Y-79897500D01*
%TO.C,R2*%
X192165500Y-79391742D02*
X192165500Y-79866258D01*
X191120500Y-79391742D02*
X191120500Y-79866258D01*
%TO.C,U5*%
X198267000Y-73341000D02*
X198267000Y-69891000D01*
X198267000Y-73341000D02*
X198267000Y-75291000D01*
X193147000Y-73341000D02*
X193147000Y-71391000D01*
X193147000Y-73341000D02*
X193147000Y-75291000D01*
%TO.C,J4*%
X217300620Y-71129240D02*
X216560620Y-71129240D01*
X216560620Y-71129240D02*
X216560620Y-71629240D01*
X225220620Y-71369240D02*
X216800620Y-71369240D01*
X225220620Y-71369240D02*
X225220620Y-81489240D01*
X223161620Y-71369240D02*
X223161620Y-81489240D01*
X218860620Y-71369240D02*
X218860620Y-81489240D01*
X217360620Y-71369240D02*
X217360620Y-81489240D01*
X216800620Y-71369240D02*
X216800620Y-81489240D01*
X225160620Y-72929240D02*
X224160620Y-72929240D01*
X225160620Y-72929240D02*
X225160620Y-74929240D01*
X224160620Y-72929240D02*
X224160620Y-74929240D01*
X225160620Y-74929240D02*
X224160620Y-74929240D01*
X219837620Y-77702240D02*
X219791620Y-77655240D01*
X219621620Y-77895240D02*
X219586620Y-77860240D01*
X225160620Y-77929240D02*
X224160620Y-77929240D01*
X225160620Y-77929240D02*
X225160620Y-79929240D01*
X224160620Y-77929240D02*
X224160620Y-79929240D01*
X225160620Y-79929240D02*
X224160620Y-79929240D01*
X222135620Y-79999240D02*
X222099620Y-79964240D01*
X221929620Y-80204240D02*
X221883620Y-80157240D01*
X225220620Y-81489240D02*
X216800620Y-81489240D01*
X221544619Y-72394241D02*
G75*
G03*
X220177578Y-72393814I-684000J-1534992D01*
G01*
X222395619Y-74613239D02*
G75*
G03*
X222396046Y-73246198I-1534992J684000D01*
G01*
X219325621Y-73245240D02*
G75*
G03*
X219180368Y-73958045I1535000J-683999D01*
G01*
X219180621Y-73929240D02*
G75*
G03*
X219325865Y-74612558I1679999J0D01*
G01*
X220176620Y-75464240D02*
G75*
G03*
X221543662Y-75464666I684000J1535000D01*
G01*
X222540620Y-78929240D02*
G75*
G03*
X219180620Y-78929240I-1680000J0D01*
G01*
X219180620Y-78929240D02*
G75*
G03*
X222540620Y-78929240I1680000J0D01*
G01*
%TO.C,DS1*%
X224170000Y-67410000D02*
X224170000Y-23130000D01*
X224170000Y-67410000D02*
X101890000Y-67410000D01*
X222530000Y-50270000D02*
X215430000Y-50270000D01*
X222530000Y-40270000D02*
X222530000Y-50270000D01*
X221530000Y-52470000D02*
X221530000Y-50270000D01*
X221530000Y-38070000D02*
X221530000Y-40270000D01*
X219530000Y-52470000D02*
X221530000Y-52470000D01*
X219530000Y-50270000D02*
X219530000Y-52470000D01*
X219530000Y-40270000D02*
X219530000Y-38070000D01*
X219530000Y-38070000D02*
X221530000Y-38070000D01*
X215430000Y-60970000D02*
X111030000Y-60970000D01*
X215430000Y-40270000D02*
X222530000Y-40270000D01*
X215430000Y-25570000D02*
X215430000Y-60970000D01*
X213030000Y-31770000D02*
X213030000Y-54770000D01*
X212030000Y-55770000D02*
X114530000Y-55770000D01*
X153130000Y-67770000D02*
X149130000Y-67770000D01*
X114530000Y-30770000D02*
X212030000Y-30770000D01*
X113530000Y-54770000D02*
X113530000Y-31770000D01*
X111030000Y-60970000D02*
X111030000Y-25570000D01*
X111030000Y-25570000D02*
X215430000Y-25570000D01*
X101890000Y-67410000D02*
X101890000Y-23130000D01*
X101890000Y-23130000D02*
X224170000Y-23130000D01*
X212030000Y-55770000D02*
G75*
G03*
X213030000Y-54770000I1J999999D01*
G01*
X213030000Y-31770000D02*
G75*
G03*
X212030000Y-30770000I-999999J1D01*
G01*
X113530000Y-54770000D02*
G75*
G03*
X114530000Y-55770000I1000000J0D01*
G01*
X114530000Y-30770000D02*
G75*
G03*
X113530000Y-31770000I0J-1000000D01*
G01*
%TO.C,C13*%
X214022000Y-92590252D02*
X214022000Y-92067748D01*
X215492000Y-92590252D02*
X215492000Y-92067748D01*
D12*
%TO.C,U4*%
X128725620Y-77974240D02*
X128725620Y-71499240D01*
X128725620Y-78899240D02*
X128725620Y-77974240D01*
X139005620Y-71499240D02*
X139005620Y-77974240D01*
X139005620Y-77974240D02*
X128725620Y-77974240D01*
X139005620Y-77974240D02*
X139005620Y-78899240D01*
D11*
%TO.C,R1*%
X187720500Y-79328742D02*
X187720500Y-79803258D01*
X186675500Y-79328742D02*
X186675500Y-79803258D01*
%TO.C,JP1*%
X111060000Y-77655000D02*
X111060000Y-77055000D01*
X111760000Y-76355000D02*
X113160000Y-76355000D01*
X113160000Y-78355000D02*
X111760000Y-78355000D01*
X113860000Y-77055000D02*
X113860000Y-77655000D01*
X111760000Y-76355000D02*
G75*
G03*
X111060000Y-77055000I-1J-699999D01*
G01*
X111060000Y-77655000D02*
G75*
G03*
X111760000Y-78355000I699999J-1D01*
G01*
X113860000Y-77055000D02*
G75*
G03*
X113160000Y-76355000I-700000J0D01*
G01*
X113160000Y-78355000D02*
G75*
G03*
X113860000Y-77655000I0J700000D01*
G01*
%TO.C,FB2*%
X207478362Y-78486740D02*
X207952878Y-78486740D01*
X207478362Y-79531740D02*
X207952878Y-79531740D01*
%TO.C,JP3*%
X117330000Y-93518000D02*
X117330000Y-92918000D01*
X118030000Y-92218000D02*
X119430000Y-92218000D01*
X119430000Y-94218000D02*
X118030000Y-94218000D01*
X120130000Y-92918000D02*
X120130000Y-93518000D01*
X118030000Y-92218000D02*
G75*
G03*
X117330000Y-92918000I-1J-699999D01*
G01*
X117330000Y-93518000D02*
G75*
G03*
X118030000Y-94218000I699999J-1D01*
G01*
X120130000Y-92918000D02*
G75*
G03*
X119430000Y-92218000I-700000J0D01*
G01*
X119430000Y-94218000D02*
G75*
G03*
X120130000Y-93518000I0J700000D01*
G01*
%TO.C,R3*%
X124032742Y-74407500D02*
X124507258Y-74407500D01*
X124032742Y-75452500D02*
X124507258Y-75452500D01*
%TO.C,JP4*%
X120195620Y-74694240D02*
X119595620Y-74694240D01*
X118895620Y-73994240D02*
X118895620Y-72594240D01*
X120895620Y-72594240D02*
X120895620Y-73994240D01*
X119595620Y-71894240D02*
X120195620Y-71894240D01*
X118895620Y-73994240D02*
G75*
G03*
X119595620Y-74694240I699999J-1D01*
G01*
X120195620Y-74694240D02*
G75*
G03*
X120895620Y-73994240I1J699999D01*
G01*
X119595620Y-71894240D02*
G75*
G03*
X118895620Y-72594240I0J-700000D01*
G01*
X120895620Y-72594240D02*
G75*
G03*
X120195620Y-71894240I-700000J0D01*
G01*
%TO.C,C3*%
X176629500Y-89662580D02*
X176629500Y-89381420D01*
X177649500Y-89662580D02*
X177649500Y-89381420D01*
%TO.C,C20*%
X118930748Y-113311000D02*
X119453252Y-113311000D01*
X118930748Y-114781000D02*
X119453252Y-114781000D01*
%TO.C,Q1*%
X150446500Y-69829240D02*
X148771500Y-69829240D01*
X150446500Y-69829240D02*
X151096500Y-69829240D01*
X150446500Y-72949240D02*
X149796500Y-72949240D01*
X150446500Y-72949240D02*
X151096500Y-72949240D01*
%TO.C,C19*%
X118930748Y-107977000D02*
X119453252Y-107977000D01*
X118930748Y-109447000D02*
X119453252Y-109447000D01*
%TO.C,F1*%
X170880721Y-89025000D02*
X171206279Y-89025000D01*
X170880721Y-90045000D02*
X171206279Y-90045000D01*
%TO.C,J1*%
X210170000Y-106115000D02*
X210170000Y-107385000D01*
X208900000Y-106115000D02*
X210170000Y-106115000D01*
X206740000Y-108427929D02*
X206740000Y-108825000D01*
X205980000Y-108427929D02*
X205980000Y-108825000D01*
X204200000Y-108427929D02*
X204200000Y-108825000D01*
X203440000Y-108427929D02*
X203440000Y-108825000D01*
X209280000Y-108495000D02*
X209280000Y-108825000D01*
X208520000Y-108495000D02*
X208520000Y-108825000D01*
X210230000Y-108825000D02*
X202490000Y-108825000D01*
X207630000Y-108825000D02*
X207630000Y-111485000D01*
X205090000Y-108825000D02*
X205090000Y-111485000D01*
X202490000Y-108825000D02*
X202490000Y-111485000D01*
X210230000Y-111485000D02*
X210230000Y-108825000D01*
X209280000Y-111485000D02*
X209280000Y-117485000D01*
X209220000Y-111485000D02*
X209220000Y-117485000D01*
X209100000Y-111485000D02*
X209100000Y-117485000D01*
X208980000Y-111485000D02*
X208980000Y-117485000D01*
X208860000Y-111485000D02*
X208860000Y-117485000D01*
X208740000Y-111485000D02*
X208740000Y-117485000D01*
X208620000Y-111485000D02*
X208620000Y-117485000D01*
X206740000Y-111485000D02*
X206740000Y-117485000D01*
X204200000Y-111485000D02*
X204200000Y-117485000D01*
X202490000Y-111485000D02*
X210230000Y-111485000D01*
X209280000Y-117485000D02*
X208520000Y-117485000D01*
X208520000Y-117485000D02*
X208520000Y-111485000D01*
X206740000Y-117485000D02*
X205980000Y-117485000D01*
X205980000Y-117485000D02*
X205980000Y-111485000D01*
X204200000Y-117485000D02*
X203440000Y-117485000D01*
X203440000Y-117485000D02*
X203440000Y-111485000D01*
%TO.C,J3*%
X198105000Y-106115000D02*
X198105000Y-107385000D01*
X196835000Y-106115000D02*
X198105000Y-106115000D01*
X194675000Y-108427929D02*
X194675000Y-108825000D01*
X193915000Y-108427929D02*
X193915000Y-108825000D01*
X192135000Y-108427929D02*
X192135000Y-108825000D01*
X191375000Y-108427929D02*
X191375000Y-108825000D01*
X197215000Y-108495000D02*
X197215000Y-108825000D01*
X196455000Y-108495000D02*
X196455000Y-108825000D01*
X198165000Y-108825000D02*
X190425000Y-108825000D01*
X195565000Y-108825000D02*
X195565000Y-111485000D01*
X193025000Y-108825000D02*
X193025000Y-111485000D01*
X190425000Y-108825000D02*
X190425000Y-111485000D01*
X198165000Y-111485000D02*
X198165000Y-108825000D01*
X197215000Y-111485000D02*
X197215000Y-117485000D01*
X197155000Y-111485000D02*
X197155000Y-117485000D01*
X197035000Y-111485000D02*
X197035000Y-117485000D01*
X196915000Y-111485000D02*
X196915000Y-117485000D01*
X196795000Y-111485000D02*
X196795000Y-117485000D01*
X196675000Y-111485000D02*
X196675000Y-117485000D01*
X196555000Y-111485000D02*
X196555000Y-117485000D01*
X194675000Y-111485000D02*
X194675000Y-117485000D01*
X192135000Y-111485000D02*
X192135000Y-117485000D01*
X190425000Y-111485000D02*
X198165000Y-111485000D01*
X197215000Y-117485000D02*
X196455000Y-117485000D01*
X196455000Y-117485000D02*
X196455000Y-111485000D01*
X194675000Y-117485000D02*
X193915000Y-117485000D01*
X193915000Y-117485000D02*
X193915000Y-111485000D01*
X192135000Y-117485000D02*
X191375000Y-117485000D01*
X191375000Y-117485000D02*
X191375000Y-111485000D01*
%TO.C,C14*%
X218975000Y-92605492D02*
X218975000Y-92082988D01*
X220445000Y-92605492D02*
X220445000Y-92082988D01*
%TO.C,C1*%
X162050000Y-89268580D02*
X162050000Y-88987420D01*
X163070000Y-89268580D02*
X163070000Y-88987420D01*
%TO.C,R12*%
X183972564Y-113638000D02*
X183518436Y-113638000D01*
X183972564Y-112168000D02*
X183518436Y-112168000D01*
%TO.C,U1*%
X164220620Y-104659240D02*
X180980620Y-104659240D01*
X180980620Y-104659240D02*
X180980620Y-93999240D01*
X164220620Y-93999240D02*
X164220620Y-104649240D01*
X180980620Y-93999240D02*
X164220620Y-93999240D01*
%TO.C,D1*%
X111295380Y-106440260D02*
X113215380Y-106440260D01*
X113215380Y-106440260D02*
X113215380Y-103755260D01*
X111295380Y-103755260D02*
X111295380Y-106440260D01*
%TO.C,U2*%
X164215620Y-81154240D02*
X180975620Y-81154240D01*
X180975620Y-81154240D02*
X180975620Y-70494240D01*
X164215620Y-70494240D02*
X164215620Y-81144240D01*
X180975620Y-70494240D02*
X164215620Y-70494240D01*
%TO.C,C4*%
X158355420Y-77341000D02*
X158636580Y-77341000D01*
X158355420Y-78361000D02*
X158636580Y-78361000D01*
%TO.C,R11*%
X179096936Y-112168000D02*
X179551064Y-112168000D01*
X179096936Y-113638000D02*
X179551064Y-113638000D01*
%TO.C,R8*%
X112033316Y-99877760D02*
X112487444Y-99877760D01*
X112033316Y-101347760D02*
X112487444Y-101347760D01*
%TO.C,R9*%
X143790936Y-70385000D02*
X144245064Y-70385000D01*
X143790936Y-71855000D02*
X144245064Y-71855000D01*
%TO.C,U7*%
X198385000Y-101835000D02*
X192375000Y-101835000D01*
X196135000Y-95015000D02*
X192375000Y-95015000D01*
X192375000Y-101835000D02*
X192375000Y-100575000D01*
X192375000Y-95015000D02*
X192375000Y-96275000D01*
%TO.C,C17*%
X206475000Y-100068748D02*
X206475000Y-100591252D01*
X205005000Y-100068748D02*
X205005000Y-100591252D01*
%TO.C,C5*%
X187105620Y-72920492D02*
X187105620Y-72397988D01*
X188575620Y-72920492D02*
X188575620Y-72397988D01*
%TO.C,C2*%
X158625000Y-89127420D02*
X158625000Y-89408580D01*
X157605000Y-89127420D02*
X157605000Y-89408580D01*
%TO.C,D7*%
X197690000Y-84455000D02*
X197040000Y-84455000D01*
X197040000Y-85575000D02*
X197040000Y-83335000D01*
X197040000Y-83335000D02*
X192800000Y-83335000D01*
X196440000Y-85575000D02*
X196440000Y-83335000D01*
X196320000Y-85575000D02*
X196320000Y-83335000D01*
X196200000Y-85575000D02*
X196200000Y-83335000D01*
X192800000Y-85575000D02*
X197040000Y-85575000D01*
X192800000Y-83335000D02*
X192800000Y-85575000D01*
X192150000Y-84455000D02*
X192800000Y-84455000D01*
%TO.C,J2*%
X222975620Y-84554240D02*
X224035620Y-84554240D01*
X222975620Y-85614240D02*
X222975620Y-84554240D01*
X222975620Y-86614240D02*
X222975620Y-96674240D01*
X222975620Y-86614240D02*
X225095620Y-86614240D01*
X222975620Y-96674240D02*
X225095620Y-96674240D01*
X225095620Y-86614240D02*
X225095620Y-96674240D01*
%TO.C,F2*%
X158079221Y-72515000D02*
X158404779Y-72515000D01*
X158079221Y-73535000D02*
X158404779Y-73535000D01*
%TO.C,J5*%
X161700000Y-115470000D02*
X161700000Y-113770000D01*
X171040000Y-115470000D02*
X171040000Y-113770000D01*
%TO.C,C10*%
X112721132Y-96565760D02*
X112198628Y-96565760D01*
X112721132Y-95095760D02*
X112198628Y-95095760D01*
%TO.C,R10*%
X152137742Y-99470500D02*
X152612258Y-99470500D01*
X152137742Y-100515500D02*
X152612258Y-100515500D01*
%TO.C,RV1*%
X110325000Y-73825000D02*
X111025000Y-73825000D01*
X111925000Y-73325000D02*
X112325000Y-73325000D01*
X110325000Y-73125000D02*
X110325000Y-73825000D01*
X110525000Y-72225000D02*
X110525000Y-69325000D01*
X113725000Y-72225000D02*
X113725000Y-69325000D01*
X110525000Y-69325000D02*
X111125000Y-69325000D01*
X113725000Y-69325000D02*
X113125000Y-69325000D01*
%TO.C,R6*%
X118795436Y-77370000D02*
X119249564Y-77370000D01*
X118795436Y-78840000D02*
X119249564Y-78840000D01*
%TO.C,D8*%
X197690000Y-90170000D02*
X197040000Y-90170000D01*
X197040000Y-91290000D02*
X197040000Y-89050000D01*
X197040000Y-89050000D02*
X192800000Y-89050000D01*
X196440000Y-91290000D02*
X196440000Y-89050000D01*
X196320000Y-91290000D02*
X196320000Y-89050000D01*
X196200000Y-91290000D02*
X196200000Y-89050000D01*
X192800000Y-91290000D02*
X197040000Y-91290000D01*
X192800000Y-89050000D02*
X192800000Y-91290000D01*
X192150000Y-90170000D02*
X192800000Y-90170000D01*
%TO.C,C21*%
X112521632Y-110237760D02*
X111999128Y-110237760D01*
X112521632Y-108767760D02*
X111999128Y-108767760D01*
%TO.C,SW6*%
X116526000Y-103418000D02*
X116926000Y-103418000D01*
X116526000Y-103418000D02*
X116526000Y-98678000D01*
X119926000Y-103418000D02*
X117866000Y-103418000D01*
X121266000Y-103418000D02*
X120866000Y-103418000D01*
X121266000Y-103418000D02*
X121266000Y-98678000D01*
X116526000Y-98678000D02*
X116926000Y-98678000D01*
X119926000Y-98678000D02*
X117866000Y-98678000D01*
X121266000Y-98678000D02*
X120866000Y-98678000D01*
%TD*%
M02*
