%TF.GenerationSoftware,KiCad,Pcbnew,7.0.10*%
%TF.CreationDate,2024-04-09T14:21:07-07:00*%
%TF.ProjectId,COFFEE_MAKER,434f4646-4545-45f4-9d41-4b45522e6b69,rev?*%
%TF.SameCoordinates,Original*%
%TF.FileFunction,Drillmap*%
%TF.FilePolarity,Positive*%
%FSLAX45Y45*%
G04 Gerber Fmt 4.5, Leading zero omitted, Abs format (unit mm)*
G04 Created by KiCad (PCBNEW 7.0.10) date 2024-04-09 14:21:07*
%MOMM*%
%LPD*%
G01*
G04 APERTURE LIST*
%ADD10C,0.100000*%
%ADD11C,0.200000*%
G04 APERTURE END LIST*
D10*
X9779000Y-1968500D02*
X22923500Y-1968500D01*
X22923500Y-11938000D01*
X9779000Y-11938000D01*
X9779000Y-1968500D01*
D11*
D10*
X16315500Y-11264000D02*
X16380500Y-11329000D01*
X16380500Y-11264000D02*
X16315500Y-11329000D01*
X16893500Y-11264000D02*
X16958500Y-11329000D01*
X16958500Y-11264000D02*
X16893500Y-11329000D01*
D11*
X10034777Y-12254484D02*
X10034777Y-12054484D01*
X10034777Y-12054484D02*
X10082396Y-12054484D01*
X10082396Y-12054484D02*
X10110967Y-12064008D01*
X10110967Y-12064008D02*
X10130015Y-12083055D01*
X10130015Y-12083055D02*
X10139539Y-12102103D01*
X10139539Y-12102103D02*
X10149063Y-12140198D01*
X10149063Y-12140198D02*
X10149063Y-12168769D01*
X10149063Y-12168769D02*
X10139539Y-12206865D01*
X10139539Y-12206865D02*
X10130015Y-12225912D01*
X10130015Y-12225912D02*
X10110967Y-12244960D01*
X10110967Y-12244960D02*
X10082396Y-12254484D01*
X10082396Y-12254484D02*
X10034777Y-12254484D01*
X10234777Y-12254484D02*
X10234777Y-12121150D01*
X10234777Y-12159246D02*
X10244301Y-12140198D01*
X10244301Y-12140198D02*
X10253824Y-12130674D01*
X10253824Y-12130674D02*
X10272872Y-12121150D01*
X10272872Y-12121150D02*
X10291920Y-12121150D01*
X10358586Y-12254484D02*
X10358586Y-12121150D01*
X10358586Y-12054484D02*
X10349063Y-12064008D01*
X10349063Y-12064008D02*
X10358586Y-12073531D01*
X10358586Y-12073531D02*
X10368110Y-12064008D01*
X10368110Y-12064008D02*
X10358586Y-12054484D01*
X10358586Y-12054484D02*
X10358586Y-12073531D01*
X10482396Y-12254484D02*
X10463348Y-12244960D01*
X10463348Y-12244960D02*
X10453824Y-12225912D01*
X10453824Y-12225912D02*
X10453824Y-12054484D01*
X10587158Y-12254484D02*
X10568110Y-12244960D01*
X10568110Y-12244960D02*
X10558586Y-12225912D01*
X10558586Y-12225912D02*
X10558586Y-12054484D01*
X10815729Y-12254484D02*
X10815729Y-12054484D01*
X10815729Y-12054484D02*
X10882396Y-12197341D01*
X10882396Y-12197341D02*
X10949063Y-12054484D01*
X10949063Y-12054484D02*
X10949063Y-12254484D01*
X11130015Y-12254484D02*
X11130015Y-12149722D01*
X11130015Y-12149722D02*
X11120491Y-12130674D01*
X11120491Y-12130674D02*
X11101444Y-12121150D01*
X11101444Y-12121150D02*
X11063348Y-12121150D01*
X11063348Y-12121150D02*
X11044301Y-12130674D01*
X11130015Y-12244960D02*
X11110967Y-12254484D01*
X11110967Y-12254484D02*
X11063348Y-12254484D01*
X11063348Y-12254484D02*
X11044301Y-12244960D01*
X11044301Y-12244960D02*
X11034777Y-12225912D01*
X11034777Y-12225912D02*
X11034777Y-12206865D01*
X11034777Y-12206865D02*
X11044301Y-12187817D01*
X11044301Y-12187817D02*
X11063348Y-12178293D01*
X11063348Y-12178293D02*
X11110967Y-12178293D01*
X11110967Y-12178293D02*
X11130015Y-12168769D01*
X11225253Y-12121150D02*
X11225253Y-12321150D01*
X11225253Y-12130674D02*
X11244301Y-12121150D01*
X11244301Y-12121150D02*
X11282396Y-12121150D01*
X11282396Y-12121150D02*
X11301443Y-12130674D01*
X11301443Y-12130674D02*
X11310967Y-12140198D01*
X11310967Y-12140198D02*
X11320491Y-12159246D01*
X11320491Y-12159246D02*
X11320491Y-12216388D01*
X11320491Y-12216388D02*
X11310967Y-12235436D01*
X11310967Y-12235436D02*
X11301443Y-12244960D01*
X11301443Y-12244960D02*
X11282396Y-12254484D01*
X11282396Y-12254484D02*
X11244301Y-12254484D01*
X11244301Y-12254484D02*
X11225253Y-12244960D01*
X11406205Y-12235436D02*
X11415729Y-12244960D01*
X11415729Y-12244960D02*
X11406205Y-12254484D01*
X11406205Y-12254484D02*
X11396682Y-12244960D01*
X11396682Y-12244960D02*
X11406205Y-12235436D01*
X11406205Y-12235436D02*
X11406205Y-12254484D01*
X11406205Y-12130674D02*
X11415729Y-12140198D01*
X11415729Y-12140198D02*
X11406205Y-12149722D01*
X11406205Y-12149722D02*
X11396682Y-12140198D01*
X11396682Y-12140198D02*
X11406205Y-12130674D01*
X11406205Y-12130674D02*
X11406205Y-12149722D01*
D10*
X9709000Y-12550500D02*
X9774000Y-12615500D01*
X9774000Y-12550500D02*
X9709000Y-12615500D01*
D11*
X10072872Y-12474484D02*
X10091920Y-12474484D01*
X10091920Y-12474484D02*
X10110967Y-12484008D01*
X10110967Y-12484008D02*
X10120491Y-12493531D01*
X10120491Y-12493531D02*
X10130015Y-12512579D01*
X10130015Y-12512579D02*
X10139539Y-12550674D01*
X10139539Y-12550674D02*
X10139539Y-12598293D01*
X10139539Y-12598293D02*
X10130015Y-12636388D01*
X10130015Y-12636388D02*
X10120491Y-12655436D01*
X10120491Y-12655436D02*
X10110967Y-12664960D01*
X10110967Y-12664960D02*
X10091920Y-12674484D01*
X10091920Y-12674484D02*
X10072872Y-12674484D01*
X10072872Y-12674484D02*
X10053824Y-12664960D01*
X10053824Y-12664960D02*
X10044301Y-12655436D01*
X10044301Y-12655436D02*
X10034777Y-12636388D01*
X10034777Y-12636388D02*
X10025253Y-12598293D01*
X10025253Y-12598293D02*
X10025253Y-12550674D01*
X10025253Y-12550674D02*
X10034777Y-12512579D01*
X10034777Y-12512579D02*
X10044301Y-12493531D01*
X10044301Y-12493531D02*
X10053824Y-12484008D01*
X10053824Y-12484008D02*
X10072872Y-12474484D01*
X10225253Y-12655436D02*
X10234777Y-12664960D01*
X10234777Y-12664960D02*
X10225253Y-12674484D01*
X10225253Y-12674484D02*
X10215729Y-12664960D01*
X10215729Y-12664960D02*
X10225253Y-12655436D01*
X10225253Y-12655436D02*
X10225253Y-12674484D01*
X10406205Y-12474484D02*
X10368110Y-12474484D01*
X10368110Y-12474484D02*
X10349063Y-12484008D01*
X10349063Y-12484008D02*
X10339539Y-12493531D01*
X10339539Y-12493531D02*
X10320491Y-12522103D01*
X10320491Y-12522103D02*
X10310967Y-12560198D01*
X10310967Y-12560198D02*
X10310967Y-12636388D01*
X10310967Y-12636388D02*
X10320491Y-12655436D01*
X10320491Y-12655436D02*
X10330015Y-12664960D01*
X10330015Y-12664960D02*
X10349063Y-12674484D01*
X10349063Y-12674484D02*
X10387158Y-12674484D01*
X10387158Y-12674484D02*
X10406205Y-12664960D01*
X10406205Y-12664960D02*
X10415729Y-12655436D01*
X10415729Y-12655436D02*
X10425253Y-12636388D01*
X10425253Y-12636388D02*
X10425253Y-12588769D01*
X10425253Y-12588769D02*
X10415729Y-12569722D01*
X10415729Y-12569722D02*
X10406205Y-12560198D01*
X10406205Y-12560198D02*
X10387158Y-12550674D01*
X10387158Y-12550674D02*
X10349063Y-12550674D01*
X10349063Y-12550674D02*
X10330015Y-12560198D01*
X10330015Y-12560198D02*
X10320491Y-12569722D01*
X10320491Y-12569722D02*
X10310967Y-12588769D01*
X10606205Y-12474484D02*
X10510967Y-12474484D01*
X10510967Y-12474484D02*
X10501444Y-12569722D01*
X10501444Y-12569722D02*
X10510967Y-12560198D01*
X10510967Y-12560198D02*
X10530015Y-12550674D01*
X10530015Y-12550674D02*
X10577634Y-12550674D01*
X10577634Y-12550674D02*
X10596682Y-12560198D01*
X10596682Y-12560198D02*
X10606205Y-12569722D01*
X10606205Y-12569722D02*
X10615729Y-12588769D01*
X10615729Y-12588769D02*
X10615729Y-12636388D01*
X10615729Y-12636388D02*
X10606205Y-12655436D01*
X10606205Y-12655436D02*
X10596682Y-12664960D01*
X10596682Y-12664960D02*
X10577634Y-12674484D01*
X10577634Y-12674484D02*
X10530015Y-12674484D01*
X10530015Y-12674484D02*
X10510967Y-12664960D01*
X10510967Y-12664960D02*
X10501444Y-12655436D01*
X10739539Y-12474484D02*
X10758586Y-12474484D01*
X10758586Y-12474484D02*
X10777634Y-12484008D01*
X10777634Y-12484008D02*
X10787158Y-12493531D01*
X10787158Y-12493531D02*
X10796682Y-12512579D01*
X10796682Y-12512579D02*
X10806205Y-12550674D01*
X10806205Y-12550674D02*
X10806205Y-12598293D01*
X10806205Y-12598293D02*
X10796682Y-12636388D01*
X10796682Y-12636388D02*
X10787158Y-12655436D01*
X10787158Y-12655436D02*
X10777634Y-12664960D01*
X10777634Y-12664960D02*
X10758586Y-12674484D01*
X10758586Y-12674484D02*
X10739539Y-12674484D01*
X10739539Y-12674484D02*
X10720491Y-12664960D01*
X10720491Y-12664960D02*
X10710967Y-12655436D01*
X10710967Y-12655436D02*
X10701444Y-12636388D01*
X10701444Y-12636388D02*
X10691920Y-12598293D01*
X10691920Y-12598293D02*
X10691920Y-12550674D01*
X10691920Y-12550674D02*
X10701444Y-12512579D01*
X10701444Y-12512579D02*
X10710967Y-12493531D01*
X10710967Y-12493531D02*
X10720491Y-12484008D01*
X10720491Y-12484008D02*
X10739539Y-12474484D01*
X10891920Y-12674484D02*
X10891920Y-12541150D01*
X10891920Y-12560198D02*
X10901444Y-12550674D01*
X10901444Y-12550674D02*
X10920491Y-12541150D01*
X10920491Y-12541150D02*
X10949063Y-12541150D01*
X10949063Y-12541150D02*
X10968110Y-12550674D01*
X10968110Y-12550674D02*
X10977634Y-12569722D01*
X10977634Y-12569722D02*
X10977634Y-12674484D01*
X10977634Y-12569722D02*
X10987158Y-12550674D01*
X10987158Y-12550674D02*
X11006205Y-12541150D01*
X11006205Y-12541150D02*
X11034777Y-12541150D01*
X11034777Y-12541150D02*
X11053825Y-12550674D01*
X11053825Y-12550674D02*
X11063348Y-12569722D01*
X11063348Y-12569722D02*
X11063348Y-12674484D01*
X11158586Y-12674484D02*
X11158586Y-12541150D01*
X11158586Y-12560198D02*
X11168110Y-12550674D01*
X11168110Y-12550674D02*
X11187158Y-12541150D01*
X11187158Y-12541150D02*
X11215729Y-12541150D01*
X11215729Y-12541150D02*
X11234777Y-12550674D01*
X11234777Y-12550674D02*
X11244301Y-12569722D01*
X11244301Y-12569722D02*
X11244301Y-12674484D01*
X11244301Y-12569722D02*
X11253824Y-12550674D01*
X11253824Y-12550674D02*
X11272872Y-12541150D01*
X11272872Y-12541150D02*
X11301443Y-12541150D01*
X11301443Y-12541150D02*
X11320491Y-12550674D01*
X11320491Y-12550674D02*
X11330015Y-12569722D01*
X11330015Y-12569722D02*
X11330015Y-12674484D01*
X11720491Y-12464960D02*
X11549063Y-12722103D01*
X11977634Y-12474484D02*
X11996682Y-12474484D01*
X11996682Y-12474484D02*
X12015729Y-12484008D01*
X12015729Y-12484008D02*
X12025253Y-12493531D01*
X12025253Y-12493531D02*
X12034777Y-12512579D01*
X12034777Y-12512579D02*
X12044301Y-12550674D01*
X12044301Y-12550674D02*
X12044301Y-12598293D01*
X12044301Y-12598293D02*
X12034777Y-12636388D01*
X12034777Y-12636388D02*
X12025253Y-12655436D01*
X12025253Y-12655436D02*
X12015729Y-12664960D01*
X12015729Y-12664960D02*
X11996682Y-12674484D01*
X11996682Y-12674484D02*
X11977634Y-12674484D01*
X11977634Y-12674484D02*
X11958586Y-12664960D01*
X11958586Y-12664960D02*
X11949063Y-12655436D01*
X11949063Y-12655436D02*
X11939539Y-12636388D01*
X11939539Y-12636388D02*
X11930015Y-12598293D01*
X11930015Y-12598293D02*
X11930015Y-12550674D01*
X11930015Y-12550674D02*
X11939539Y-12512579D01*
X11939539Y-12512579D02*
X11949063Y-12493531D01*
X11949063Y-12493531D02*
X11958586Y-12484008D01*
X11958586Y-12484008D02*
X11977634Y-12474484D01*
X12130015Y-12655436D02*
X12139539Y-12664960D01*
X12139539Y-12664960D02*
X12130015Y-12674484D01*
X12130015Y-12674484D02*
X12120491Y-12664960D01*
X12120491Y-12664960D02*
X12130015Y-12655436D01*
X12130015Y-12655436D02*
X12130015Y-12674484D01*
X12263348Y-12474484D02*
X12282396Y-12474484D01*
X12282396Y-12474484D02*
X12301444Y-12484008D01*
X12301444Y-12484008D02*
X12310967Y-12493531D01*
X12310967Y-12493531D02*
X12320491Y-12512579D01*
X12320491Y-12512579D02*
X12330015Y-12550674D01*
X12330015Y-12550674D02*
X12330015Y-12598293D01*
X12330015Y-12598293D02*
X12320491Y-12636388D01*
X12320491Y-12636388D02*
X12310967Y-12655436D01*
X12310967Y-12655436D02*
X12301444Y-12664960D01*
X12301444Y-12664960D02*
X12282396Y-12674484D01*
X12282396Y-12674484D02*
X12263348Y-12674484D01*
X12263348Y-12674484D02*
X12244301Y-12664960D01*
X12244301Y-12664960D02*
X12234777Y-12655436D01*
X12234777Y-12655436D02*
X12225253Y-12636388D01*
X12225253Y-12636388D02*
X12215729Y-12598293D01*
X12215729Y-12598293D02*
X12215729Y-12550674D01*
X12215729Y-12550674D02*
X12225253Y-12512579D01*
X12225253Y-12512579D02*
X12234777Y-12493531D01*
X12234777Y-12493531D02*
X12244301Y-12484008D01*
X12244301Y-12484008D02*
X12263348Y-12474484D01*
X12406206Y-12493531D02*
X12415729Y-12484008D01*
X12415729Y-12484008D02*
X12434777Y-12474484D01*
X12434777Y-12474484D02*
X12482396Y-12474484D01*
X12482396Y-12474484D02*
X12501444Y-12484008D01*
X12501444Y-12484008D02*
X12510967Y-12493531D01*
X12510967Y-12493531D02*
X12520491Y-12512579D01*
X12520491Y-12512579D02*
X12520491Y-12531627D01*
X12520491Y-12531627D02*
X12510967Y-12560198D01*
X12510967Y-12560198D02*
X12396682Y-12674484D01*
X12396682Y-12674484D02*
X12520491Y-12674484D01*
X12701444Y-12474484D02*
X12606206Y-12474484D01*
X12606206Y-12474484D02*
X12596682Y-12569722D01*
X12596682Y-12569722D02*
X12606206Y-12560198D01*
X12606206Y-12560198D02*
X12625253Y-12550674D01*
X12625253Y-12550674D02*
X12672872Y-12550674D01*
X12672872Y-12550674D02*
X12691920Y-12560198D01*
X12691920Y-12560198D02*
X12701444Y-12569722D01*
X12701444Y-12569722D02*
X12710967Y-12588769D01*
X12710967Y-12588769D02*
X12710967Y-12636388D01*
X12710967Y-12636388D02*
X12701444Y-12655436D01*
X12701444Y-12655436D02*
X12691920Y-12664960D01*
X12691920Y-12664960D02*
X12672872Y-12674484D01*
X12672872Y-12674484D02*
X12625253Y-12674484D01*
X12625253Y-12674484D02*
X12606206Y-12664960D01*
X12606206Y-12664960D02*
X12596682Y-12655436D01*
X12882396Y-12474484D02*
X12844301Y-12474484D01*
X12844301Y-12474484D02*
X12825253Y-12484008D01*
X12825253Y-12484008D02*
X12815729Y-12493531D01*
X12815729Y-12493531D02*
X12796682Y-12522103D01*
X12796682Y-12522103D02*
X12787158Y-12560198D01*
X12787158Y-12560198D02*
X12787158Y-12636388D01*
X12787158Y-12636388D02*
X12796682Y-12655436D01*
X12796682Y-12655436D02*
X12806206Y-12664960D01*
X12806206Y-12664960D02*
X12825253Y-12674484D01*
X12825253Y-12674484D02*
X12863348Y-12674484D01*
X12863348Y-12674484D02*
X12882396Y-12664960D01*
X12882396Y-12664960D02*
X12891920Y-12655436D01*
X12891920Y-12655436D02*
X12901444Y-12636388D01*
X12901444Y-12636388D02*
X12901444Y-12588769D01*
X12901444Y-12588769D02*
X12891920Y-12569722D01*
X12891920Y-12569722D02*
X12882396Y-12560198D01*
X12882396Y-12560198D02*
X12863348Y-12550674D01*
X12863348Y-12550674D02*
X12825253Y-12550674D01*
X12825253Y-12550674D02*
X12806206Y-12560198D01*
X12806206Y-12560198D02*
X12796682Y-12569722D01*
X12796682Y-12569722D02*
X12787158Y-12588769D01*
X12977634Y-12474484D02*
X12977634Y-12512579D01*
X13053825Y-12474484D02*
X13053825Y-12512579D01*
X13349063Y-12750674D02*
X13339539Y-12741150D01*
X13339539Y-12741150D02*
X13320491Y-12712579D01*
X13320491Y-12712579D02*
X13310968Y-12693531D01*
X13310968Y-12693531D02*
X13301444Y-12664960D01*
X13301444Y-12664960D02*
X13291920Y-12617341D01*
X13291920Y-12617341D02*
X13291920Y-12579246D01*
X13291920Y-12579246D02*
X13301444Y-12531627D01*
X13301444Y-12531627D02*
X13310968Y-12503055D01*
X13310968Y-12503055D02*
X13320491Y-12484008D01*
X13320491Y-12484008D02*
X13339539Y-12455436D01*
X13339539Y-12455436D02*
X13349063Y-12445912D01*
X13415729Y-12493531D02*
X13425253Y-12484008D01*
X13425253Y-12484008D02*
X13444301Y-12474484D01*
X13444301Y-12474484D02*
X13491920Y-12474484D01*
X13491920Y-12474484D02*
X13510968Y-12484008D01*
X13510968Y-12484008D02*
X13520491Y-12493531D01*
X13520491Y-12493531D02*
X13530015Y-12512579D01*
X13530015Y-12512579D02*
X13530015Y-12531627D01*
X13530015Y-12531627D02*
X13520491Y-12560198D01*
X13520491Y-12560198D02*
X13406206Y-12674484D01*
X13406206Y-12674484D02*
X13530015Y-12674484D01*
X13768110Y-12674484D02*
X13768110Y-12474484D01*
X13853825Y-12674484D02*
X13853825Y-12569722D01*
X13853825Y-12569722D02*
X13844301Y-12550674D01*
X13844301Y-12550674D02*
X13825253Y-12541150D01*
X13825253Y-12541150D02*
X13796682Y-12541150D01*
X13796682Y-12541150D02*
X13777634Y-12550674D01*
X13777634Y-12550674D02*
X13768110Y-12560198D01*
X13977634Y-12674484D02*
X13958587Y-12664960D01*
X13958587Y-12664960D02*
X13949063Y-12655436D01*
X13949063Y-12655436D02*
X13939539Y-12636388D01*
X13939539Y-12636388D02*
X13939539Y-12579246D01*
X13939539Y-12579246D02*
X13949063Y-12560198D01*
X13949063Y-12560198D02*
X13958587Y-12550674D01*
X13958587Y-12550674D02*
X13977634Y-12541150D01*
X13977634Y-12541150D02*
X14006206Y-12541150D01*
X14006206Y-12541150D02*
X14025253Y-12550674D01*
X14025253Y-12550674D02*
X14034777Y-12560198D01*
X14034777Y-12560198D02*
X14044301Y-12579246D01*
X14044301Y-12579246D02*
X14044301Y-12636388D01*
X14044301Y-12636388D02*
X14034777Y-12655436D01*
X14034777Y-12655436D02*
X14025253Y-12664960D01*
X14025253Y-12664960D02*
X14006206Y-12674484D01*
X14006206Y-12674484D02*
X13977634Y-12674484D01*
X14158587Y-12674484D02*
X14139539Y-12664960D01*
X14139539Y-12664960D02*
X14130015Y-12645912D01*
X14130015Y-12645912D02*
X14130015Y-12474484D01*
X14310968Y-12664960D02*
X14291920Y-12674484D01*
X14291920Y-12674484D02*
X14253825Y-12674484D01*
X14253825Y-12674484D02*
X14234777Y-12664960D01*
X14234777Y-12664960D02*
X14225253Y-12645912D01*
X14225253Y-12645912D02*
X14225253Y-12569722D01*
X14225253Y-12569722D02*
X14234777Y-12550674D01*
X14234777Y-12550674D02*
X14253825Y-12541150D01*
X14253825Y-12541150D02*
X14291920Y-12541150D01*
X14291920Y-12541150D02*
X14310968Y-12550674D01*
X14310968Y-12550674D02*
X14320491Y-12569722D01*
X14320491Y-12569722D02*
X14320491Y-12588769D01*
X14320491Y-12588769D02*
X14225253Y-12607817D01*
X14396682Y-12664960D02*
X14415730Y-12674484D01*
X14415730Y-12674484D02*
X14453825Y-12674484D01*
X14453825Y-12674484D02*
X14472872Y-12664960D01*
X14472872Y-12664960D02*
X14482396Y-12645912D01*
X14482396Y-12645912D02*
X14482396Y-12636388D01*
X14482396Y-12636388D02*
X14472872Y-12617341D01*
X14472872Y-12617341D02*
X14453825Y-12607817D01*
X14453825Y-12607817D02*
X14425253Y-12607817D01*
X14425253Y-12607817D02*
X14406206Y-12598293D01*
X14406206Y-12598293D02*
X14396682Y-12579246D01*
X14396682Y-12579246D02*
X14396682Y-12569722D01*
X14396682Y-12569722D02*
X14406206Y-12550674D01*
X14406206Y-12550674D02*
X14425253Y-12541150D01*
X14425253Y-12541150D02*
X14453825Y-12541150D01*
X14453825Y-12541150D02*
X14472872Y-12550674D01*
X14549063Y-12750674D02*
X14558587Y-12741150D01*
X14558587Y-12741150D02*
X14577634Y-12712579D01*
X14577634Y-12712579D02*
X14587158Y-12693531D01*
X14587158Y-12693531D02*
X14596682Y-12664960D01*
X14596682Y-12664960D02*
X14606206Y-12617341D01*
X14606206Y-12617341D02*
X14606206Y-12579246D01*
X14606206Y-12579246D02*
X14596682Y-12531627D01*
X14596682Y-12531627D02*
X14587158Y-12503055D01*
X14587158Y-12503055D02*
X14577634Y-12484008D01*
X14577634Y-12484008D02*
X14558587Y-12455436D01*
X14558587Y-12455436D02*
X14549063Y-12445912D01*
X14910968Y-12750674D02*
X14901444Y-12741150D01*
X14901444Y-12741150D02*
X14882396Y-12712579D01*
X14882396Y-12712579D02*
X14872872Y-12693531D01*
X14872872Y-12693531D02*
X14863349Y-12664960D01*
X14863349Y-12664960D02*
X14853825Y-12617341D01*
X14853825Y-12617341D02*
X14853825Y-12579246D01*
X14853825Y-12579246D02*
X14863349Y-12531627D01*
X14863349Y-12531627D02*
X14872872Y-12503055D01*
X14872872Y-12503055D02*
X14882396Y-12484008D01*
X14882396Y-12484008D02*
X14901444Y-12455436D01*
X14901444Y-12455436D02*
X14910968Y-12445912D01*
X14987158Y-12541150D02*
X14987158Y-12674484D01*
X14987158Y-12560198D02*
X14996682Y-12550674D01*
X14996682Y-12550674D02*
X15015730Y-12541150D01*
X15015730Y-12541150D02*
X15044301Y-12541150D01*
X15044301Y-12541150D02*
X15063349Y-12550674D01*
X15063349Y-12550674D02*
X15072872Y-12569722D01*
X15072872Y-12569722D02*
X15072872Y-12674484D01*
X15196682Y-12674484D02*
X15177634Y-12664960D01*
X15177634Y-12664960D02*
X15168111Y-12655436D01*
X15168111Y-12655436D02*
X15158587Y-12636388D01*
X15158587Y-12636388D02*
X15158587Y-12579246D01*
X15158587Y-12579246D02*
X15168111Y-12560198D01*
X15168111Y-12560198D02*
X15177634Y-12550674D01*
X15177634Y-12550674D02*
X15196682Y-12541150D01*
X15196682Y-12541150D02*
X15225253Y-12541150D01*
X15225253Y-12541150D02*
X15244301Y-12550674D01*
X15244301Y-12550674D02*
X15253825Y-12560198D01*
X15253825Y-12560198D02*
X15263349Y-12579246D01*
X15263349Y-12579246D02*
X15263349Y-12636388D01*
X15263349Y-12636388D02*
X15253825Y-12655436D01*
X15253825Y-12655436D02*
X15244301Y-12664960D01*
X15244301Y-12664960D02*
X15225253Y-12674484D01*
X15225253Y-12674484D02*
X15196682Y-12674484D01*
X15320492Y-12541150D02*
X15396682Y-12541150D01*
X15349063Y-12474484D02*
X15349063Y-12645912D01*
X15349063Y-12645912D02*
X15358587Y-12664960D01*
X15358587Y-12664960D02*
X15377634Y-12674484D01*
X15377634Y-12674484D02*
X15396682Y-12674484D01*
X15615730Y-12541150D02*
X15615730Y-12741150D01*
X15615730Y-12550674D02*
X15634777Y-12541150D01*
X15634777Y-12541150D02*
X15672873Y-12541150D01*
X15672873Y-12541150D02*
X15691920Y-12550674D01*
X15691920Y-12550674D02*
X15701444Y-12560198D01*
X15701444Y-12560198D02*
X15710968Y-12579246D01*
X15710968Y-12579246D02*
X15710968Y-12636388D01*
X15710968Y-12636388D02*
X15701444Y-12655436D01*
X15701444Y-12655436D02*
X15691920Y-12664960D01*
X15691920Y-12664960D02*
X15672873Y-12674484D01*
X15672873Y-12674484D02*
X15634777Y-12674484D01*
X15634777Y-12674484D02*
X15615730Y-12664960D01*
X15825253Y-12674484D02*
X15806206Y-12664960D01*
X15806206Y-12664960D02*
X15796682Y-12645912D01*
X15796682Y-12645912D02*
X15796682Y-12474484D01*
X15987158Y-12674484D02*
X15987158Y-12569722D01*
X15987158Y-12569722D02*
X15977634Y-12550674D01*
X15977634Y-12550674D02*
X15958587Y-12541150D01*
X15958587Y-12541150D02*
X15920492Y-12541150D01*
X15920492Y-12541150D02*
X15901444Y-12550674D01*
X15987158Y-12664960D02*
X15968111Y-12674484D01*
X15968111Y-12674484D02*
X15920492Y-12674484D01*
X15920492Y-12674484D02*
X15901444Y-12664960D01*
X15901444Y-12664960D02*
X15891920Y-12645912D01*
X15891920Y-12645912D02*
X15891920Y-12626865D01*
X15891920Y-12626865D02*
X15901444Y-12607817D01*
X15901444Y-12607817D02*
X15920492Y-12598293D01*
X15920492Y-12598293D02*
X15968111Y-12598293D01*
X15968111Y-12598293D02*
X15987158Y-12588769D01*
X16053825Y-12541150D02*
X16130015Y-12541150D01*
X16082396Y-12474484D02*
X16082396Y-12645912D01*
X16082396Y-12645912D02*
X16091920Y-12664960D01*
X16091920Y-12664960D02*
X16110968Y-12674484D01*
X16110968Y-12674484D02*
X16130015Y-12674484D01*
X16272873Y-12664960D02*
X16253825Y-12674484D01*
X16253825Y-12674484D02*
X16215730Y-12674484D01*
X16215730Y-12674484D02*
X16196682Y-12664960D01*
X16196682Y-12664960D02*
X16187158Y-12645912D01*
X16187158Y-12645912D02*
X16187158Y-12569722D01*
X16187158Y-12569722D02*
X16196682Y-12550674D01*
X16196682Y-12550674D02*
X16215730Y-12541150D01*
X16215730Y-12541150D02*
X16253825Y-12541150D01*
X16253825Y-12541150D02*
X16272873Y-12550674D01*
X16272873Y-12550674D02*
X16282396Y-12569722D01*
X16282396Y-12569722D02*
X16282396Y-12588769D01*
X16282396Y-12588769D02*
X16187158Y-12607817D01*
X16453825Y-12674484D02*
X16453825Y-12474484D01*
X16453825Y-12664960D02*
X16434777Y-12674484D01*
X16434777Y-12674484D02*
X16396682Y-12674484D01*
X16396682Y-12674484D02*
X16377634Y-12664960D01*
X16377634Y-12664960D02*
X16368111Y-12655436D01*
X16368111Y-12655436D02*
X16358587Y-12636388D01*
X16358587Y-12636388D02*
X16358587Y-12579246D01*
X16358587Y-12579246D02*
X16368111Y-12560198D01*
X16368111Y-12560198D02*
X16377634Y-12550674D01*
X16377634Y-12550674D02*
X16396682Y-12541150D01*
X16396682Y-12541150D02*
X16434777Y-12541150D01*
X16434777Y-12541150D02*
X16453825Y-12550674D01*
X16530015Y-12750674D02*
X16539539Y-12741150D01*
X16539539Y-12741150D02*
X16558587Y-12712579D01*
X16558587Y-12712579D02*
X16568111Y-12693531D01*
X16568111Y-12693531D02*
X16577634Y-12664960D01*
X16577634Y-12664960D02*
X16587158Y-12617341D01*
X16587158Y-12617341D02*
X16587158Y-12579246D01*
X16587158Y-12579246D02*
X16577634Y-12531627D01*
X16577634Y-12531627D02*
X16568111Y-12503055D01*
X16568111Y-12503055D02*
X16558587Y-12484008D01*
X16558587Y-12484008D02*
X16539539Y-12455436D01*
X16539539Y-12455436D02*
X16530015Y-12445912D01*
M02*
