%TF.GenerationSoftware,KiCad,Pcbnew,7.0.10*%
%TF.CreationDate,2024-04-09T14:21:01-07:00*%
%TF.ProjectId,COFFEE_MAKER,434f4646-4545-45f4-9d41-4b45522e6b69,rev?*%
%TF.SameCoordinates,Original*%
%TF.FileFunction,Copper,L2,Bot*%
%TF.FilePolarity,Positive*%
%FSLAX46Y46*%
G04 Gerber Fmt 4.6, Leading zero omitted, Abs format (unit mm)*
G04 Created by KiCad (PCBNEW 7.0.10) date 2024-04-09 14:21:01*
%MOMM*%
%LPD*%
G01*
G04 APERTURE LIST*
%TA.AperFunction,ComponentPad*%
%ADD10R,1.350000X1.350000*%
%TD*%
%TA.AperFunction,ComponentPad*%
%ADD11O,1.350000X1.350000*%
%TD*%
%TA.AperFunction,ComponentPad*%
%ADD12R,2.600000X2.600000*%
%TD*%
%TA.AperFunction,ComponentPad*%
%ADD13C,2.600000*%
%TD*%
%TA.AperFunction,ComponentPad*%
%ADD14C,4.000000*%
%TD*%
%TA.AperFunction,ComponentPad*%
%ADD15R,1.800000X2.600000*%
%TD*%
%TA.AperFunction,ComponentPad*%
%ADD16O,1.800000X2.600000*%
%TD*%
%TA.AperFunction,ComponentPad*%
%ADD17R,1.700000X1.700000*%
%TD*%
%TA.AperFunction,ComponentPad*%
%ADD18O,1.700000X1.700000*%
%TD*%
%TA.AperFunction,ComponentPad*%
%ADD19R,1.800000X1.800000*%
%TD*%
%TA.AperFunction,ComponentPad*%
%ADD20C,1.800000*%
%TD*%
%TA.AperFunction,ComponentPad*%
%ADD21R,1.600000X1.600000*%
%TD*%
%TA.AperFunction,ComponentPad*%
%ADD22O,1.600000X1.600000*%
%TD*%
%TA.AperFunction,ComponentPad*%
%ADD23O,1.000000X2.100000*%
%TD*%
%TA.AperFunction,ComponentPad*%
%ADD24O,1.000000X1.800000*%
%TD*%
%TA.AperFunction,ViaPad*%
%ADD25C,0.800000*%
%TD*%
%TA.AperFunction,ViaPad*%
%ADD26C,0.711200*%
%TD*%
%TA.AperFunction,Conductor*%
%ADD27C,0.250000*%
%TD*%
%TA.AperFunction,Conductor*%
%ADD28C,0.203200*%
%TD*%
G04 APERTURE END LIST*
D10*
%TO.P,J7,1,Pin_1*%
%TO.N,LCD_scl*%
X112268000Y-83614000D03*
D11*
%TO.P,J7,2,Pin_2*%
%TO.N,LCD_sda*%
X112268000Y-85614000D03*
%TO.P,J7,3,Pin_3*%
%TO.N,+5V*%
X112268000Y-87614000D03*
%TO.P,J7,4,Pin_4*%
%TO.N,GND*%
X112268000Y-89614000D03*
%TD*%
D12*
%TO.P,J4,1,Pin_1*%
%TO.N,Net-(J4-Pin_1)*%
X220860620Y-73929240D03*
D13*
%TO.P,J4,2,Pin_2*%
%TO.N,Net-(J4-Pin_2)*%
X220860620Y-78929240D03*
%TD*%
D14*
%TO.P,DS1,*%
%TO.N,*%
X220530420Y-63769240D03*
X220530420Y-26769060D03*
X105529380Y-63769240D03*
X105529380Y-26769060D03*
D15*
%TO.P,DS1,1,LEDK*%
%TO.N,Net-(DS1-LEDK)*%
X151130000Y-64770000D03*
D16*
%TO.P,DS1,2,LEDA*%
%TO.N,Net-(DS1-LEDA)*%
X148590000Y-64770000D03*
%TO.P,DS1,3,VSS*%
%TO.N,GND*%
X146050000Y-64770000D03*
%TO.P,DS1,4,VDD*%
%TO.N,+5V*%
X143510000Y-64770000D03*
%TO.P,DS1,5,Vo*%
%TO.N,Net-(DS1-Vo)*%
X140970000Y-64770000D03*
%TO.P,DS1,6,RS*%
%TO.N,Net-(DS1-RS)*%
X138430000Y-64770000D03*
%TO.P,DS1,7,R/~{W}*%
%TO.N,Net-(DS1-R{slash}~{W})*%
X135890000Y-64770000D03*
%TO.P,DS1,8,E*%
%TO.N,Net-(DS1-E)*%
X133350000Y-64770000D03*
%TO.P,DS1,9,DB0*%
%TO.N,unconnected-(DS1-DB0-Pad9)*%
X130810000Y-64770000D03*
%TO.P,DS1,10,DB1*%
%TO.N,unconnected-(DS1-DB1-Pad10)*%
X128270000Y-64770000D03*
%TO.P,DS1,11,DB2*%
%TO.N,unconnected-(DS1-DB2-Pad11)*%
X125730000Y-64770000D03*
%TO.P,DS1,12,DB3*%
%TO.N,unconnected-(DS1-DB3-Pad12)*%
X123190000Y-64770000D03*
%TO.P,DS1,13,DB4*%
%TO.N,Net-(DS1-DB4)*%
X120650000Y-64770000D03*
%TO.P,DS1,14,DB5*%
%TO.N,Net-(DS1-DB5)*%
X118110000Y-64770000D03*
%TO.P,DS1,15,DB6*%
%TO.N,Net-(DS1-DB6)*%
X115570000Y-64770000D03*
%TO.P,DS1,16,DB7*%
%TO.N,Net-(DS1-DB7)*%
X113030000Y-64770000D03*
%TD*%
D17*
%TO.P,J1,1,Pin_1*%
%TO.N,+3V3*%
X208900000Y-107385000D03*
D18*
%TO.P,J1,2,Pin_2*%
%TO.N,RELAY_COIL*%
X206360000Y-107385000D03*
%TO.P,J1,3,Pin_3*%
%TO.N,GND*%
X203820000Y-107385000D03*
%TD*%
D17*
%TO.P,J3,1,Pin_1*%
%TO.N,+3V3*%
X196835000Y-107385000D03*
D18*
%TO.P,J3,2,Pin_2*%
%TO.N,RELAY_FAN*%
X194295000Y-107385000D03*
%TO.P,J3,3,Pin_3*%
%TO.N,GND*%
X191755000Y-107385000D03*
%TD*%
D19*
%TO.P,U1,1,IN*%
%TO.N,V_ALL+*%
X165620620Y-101879240D03*
D20*
%TO.P,U1,2,GND*%
%TO.N,GND*%
X165620620Y-99339240D03*
%TO.P,U1,3,OUT*%
%TO.N,Net-(U1-OUT)*%
X165620620Y-96799240D03*
%TD*%
D19*
%TO.P,U2,1,IN*%
%TO.N,V_ALL+*%
X165615620Y-78374240D03*
D20*
%TO.P,U2,2,GND*%
%TO.N,GND*%
X165615620Y-75834240D03*
%TO.P,U2,3,OUT*%
%TO.N,Net-(U2-OUT)*%
X165615620Y-73294240D03*
%TD*%
D21*
%TO.P,D7,1,K*%
%TO.N,TC_sck*%
X198730000Y-84455000D03*
D22*
%TO.P,D7,2,A*%
%TO.N,Net-(D7-A)*%
X191110000Y-84455000D03*
%TD*%
D10*
%TO.P,J2,1,Pin_1*%
%TO.N,TC_sck*%
X224035620Y-85614240D03*
D11*
%TO.P,J2,2,Pin_2*%
%TO.N,TC_so*%
X224035620Y-87614240D03*
%TO.P,J2,3,Pin_3*%
%TO.N,TC_cs*%
X224035620Y-89614240D03*
%TO.P,J2,4,Pin_4*%
%TO.N,GND*%
X224035620Y-91614240D03*
%TO.P,J2,5,Pin_5*%
%TO.N,+3V3*%
X224035620Y-93614240D03*
%TO.P,J2,6,Pin_6*%
%TO.N,unconnected-(J2-Pin_6-Pad6)*%
X224035620Y-95614240D03*
%TD*%
D23*
%TO.P,J5,S1,SHIELD*%
%TO.N,GND*%
X162050000Y-112465000D03*
D24*
X162050000Y-116645000D03*
D23*
X170690000Y-112465000D03*
D24*
X170690000Y-116645000D03*
%TD*%
D21*
%TO.P,D8,1,K*%
%TO.N,TC_cs*%
X198730000Y-90170000D03*
D22*
%TO.P,D8,2,A*%
%TO.N,Net-(D8-A)*%
X191110000Y-90170000D03*
%TD*%
D25*
%TO.N,+5V*%
X123571000Y-70358000D03*
X161544000Y-95250000D03*
X153162000Y-75819000D03*
X185674000Y-95885000D03*
X165100000Y-109728000D03*
X127635000Y-70358000D03*
X168914653Y-109224653D03*
X141478000Y-73279000D03*
%TO.N,+3V3*%
X136144000Y-102108000D03*
X191516000Y-76454000D03*
X149918380Y-99993000D03*
X191389000Y-70993000D03*
X122174000Y-108458000D03*
X144907000Y-102870000D03*
%TO.N,Net-(U8-EN)*%
X145096000Y-100711000D03*
X152077380Y-97056760D03*
%TO.N,TC_sck*%
X158178500Y-84264500D03*
X193040000Y-86614000D03*
D26*
%TO.N,TC_cs*%
X145161000Y-92710000D03*
D25*
%TO.N,Net-(D8-A)*%
X185547000Y-83185000D03*
X185420000Y-78867000D03*
D26*
%TO.N,RELAY_COIL*%
X135001000Y-115339400D03*
X152781000Y-115297540D03*
%TO.N,RELAY_FAN*%
X137160000Y-114681000D03*
X151892000Y-114681000D03*
D25*
%TO.N,LCD_scl*%
X134366000Y-74168000D03*
X138938000Y-84582000D03*
%TO.N,LCD_sda*%
X135128000Y-75692000D03*
X140970000Y-90170000D03*
%TO.N,Net-(JP1-B)*%
X127508000Y-80010000D03*
X125095000Y-74930000D03*
%TD*%
D27*
%TO.N,+5V*%
X123571000Y-70358000D02*
X127635000Y-70358000D01*
X175641000Y-105918000D02*
X168910000Y-105918000D01*
X141478000Y-73279000D02*
X130556000Y-73279000D01*
X185674000Y-95885000D02*
X175641000Y-105918000D01*
X161544000Y-106172000D02*
X161544000Y-105918000D01*
X168910000Y-109220000D02*
X168910000Y-105918000D01*
X168914653Y-109224653D02*
X168910000Y-109220000D01*
X144018000Y-75819000D02*
X141478000Y-73279000D01*
X168910000Y-105918000D02*
X161544000Y-105918000D01*
X130556000Y-73279000D02*
X127635000Y-70358000D01*
X153162000Y-75819000D02*
X144018000Y-75819000D01*
X165100000Y-109728000D02*
X161544000Y-106172000D01*
X161544000Y-95250000D02*
X161544000Y-105918000D01*
%TO.N,+3V3*%
X191516000Y-76454000D02*
X191516000Y-71120000D01*
X191516000Y-71120000D02*
X191389000Y-70993000D01*
X122555000Y-108458000D02*
X128905000Y-102108000D01*
X122174000Y-108458000D02*
X122555000Y-108458000D01*
X147843240Y-102870000D02*
X144907000Y-102870000D01*
X149918380Y-99993000D02*
X147843240Y-102068140D01*
X147843240Y-102068140D02*
X147843240Y-102870000D01*
X128905000Y-102108000D02*
X136144000Y-102108000D01*
%TO.N,Net-(U8-EN)*%
X146972240Y-98834760D02*
X150299380Y-98834760D01*
X150299380Y-98834760D02*
X152077380Y-97056760D01*
X145096000Y-100711000D02*
X146972240Y-98834760D01*
%TO.N,TC_sck*%
X159258000Y-85344000D02*
X190439405Y-85344000D01*
X191775298Y-85349298D02*
X193040000Y-86614000D01*
X191566795Y-85557800D02*
X191775298Y-85349298D01*
X190439405Y-85344000D02*
X190653205Y-85557800D01*
X158178500Y-84264500D02*
X159258000Y-85344000D01*
X190653205Y-85557800D02*
X191566795Y-85557800D01*
D28*
%TO.N,TC_cs*%
X145161000Y-92710000D02*
X196190000Y-92710000D01*
X196190000Y-92710000D02*
X198730000Y-90170000D01*
D27*
%TO.N,Net-(D8-A)*%
X185547000Y-83185000D02*
X185420000Y-83058000D01*
X185420000Y-83058000D02*
X185420000Y-78867000D01*
%TO.N,RELAY_COIL*%
X152781000Y-115297540D02*
X152781000Y-114723119D01*
X152781000Y-114723119D02*
X152164719Y-115339400D01*
X152164719Y-115339400D02*
X135001000Y-115339400D01*
%TO.N,RELAY_FAN*%
X137160000Y-114681000D02*
X151892000Y-114681000D01*
%TO.N,LCD_scl*%
X133387000Y-75147000D02*
X134366000Y-74168000D01*
X138430000Y-84582000D02*
X133387000Y-79539000D01*
X133387000Y-79539000D02*
X133387000Y-75147000D01*
X138938000Y-84582000D02*
X138430000Y-84582000D01*
%TO.N,LCD_sda*%
X135128000Y-75692000D02*
X135128000Y-77724000D01*
X140970000Y-83566000D02*
X140970000Y-90170000D01*
X135128000Y-77724000D02*
X140970000Y-83566000D01*
X140970000Y-90424000D02*
X140970000Y-90170000D01*
%TO.N,Net-(JP1-B)*%
X127508000Y-77343000D02*
X125095000Y-74930000D01*
X127508000Y-80010000D02*
X127508000Y-77343000D01*
%TD*%
%TA.AperFunction,Conductor*%
%TO.N,GND*%
G36*
X227968940Y-51053757D02*
G01*
X228035939Y-51073574D01*
X228081590Y-51126468D01*
X228092692Y-51177059D01*
X228472299Y-118620546D01*
X228452992Y-118687695D01*
X228400447Y-118733747D01*
X228348545Y-118745244D01*
X99311013Y-118998756D01*
X99243935Y-118979203D01*
X99198076Y-118926489D01*
X99186769Y-118874987D01*
X99181394Y-115988582D01*
X99180185Y-115339400D01*
X134140184Y-115339400D01*
X134158995Y-115518374D01*
X134214605Y-115689525D01*
X134304585Y-115845375D01*
X134387309Y-115937249D01*
X134413758Y-115966624D01*
X134425002Y-115979111D01*
X134570592Y-116084889D01*
X134734993Y-116158085D01*
X134734996Y-116158085D01*
X134734997Y-116158086D01*
X134763128Y-116164065D01*
X134911020Y-116195500D01*
X135090980Y-116195500D01*
X135267007Y-116158085D01*
X135431408Y-116084889D01*
X135563962Y-115988581D01*
X135629769Y-115965102D01*
X135636848Y-115964900D01*
X152081976Y-115964900D01*
X152097596Y-115966624D01*
X152097623Y-115966339D01*
X152105379Y-115967071D01*
X152105386Y-115967073D01*
X152172592Y-115964961D01*
X152176487Y-115964900D01*
X152202767Y-115964900D01*
X152269806Y-115984585D01*
X152275653Y-115988582D01*
X152350592Y-116043029D01*
X152514993Y-116116225D01*
X152514996Y-116116225D01*
X152514997Y-116116226D01*
X152543128Y-116122205D01*
X152691020Y-116153640D01*
X152870980Y-116153640D01*
X153047007Y-116116225D01*
X153211408Y-116043029D01*
X153356998Y-115937251D01*
X153477415Y-115803515D01*
X153567395Y-115647665D01*
X153623005Y-115476514D01*
X153641816Y-115297540D01*
X153623005Y-115118566D01*
X153567395Y-114947415D01*
X153477415Y-114791565D01*
X153436768Y-114746423D01*
X153406539Y-114683433D01*
X153405900Y-114679021D01*
X153403041Y-114656394D01*
X153402613Y-114652519D01*
X153396287Y-114585587D01*
X153394586Y-114577977D01*
X153394866Y-114577914D01*
X153393881Y-114573809D01*
X153393603Y-114573881D01*
X153391663Y-114566325D01*
X153366892Y-114503760D01*
X153365555Y-114500224D01*
X153342754Y-114436891D01*
X153342750Y-114436886D01*
X153342750Y-114436884D01*
X153339208Y-114429931D01*
X153339464Y-114429800D01*
X153337497Y-114426085D01*
X153337244Y-114426225D01*
X153333488Y-114419394D01*
X153333486Y-114419387D01*
X153293955Y-114364977D01*
X153291715Y-114361790D01*
X153270705Y-114330875D01*
X153253924Y-114306181D01*
X153253923Y-114306180D01*
X153248763Y-114300327D01*
X153248977Y-114300137D01*
X153246140Y-114297019D01*
X153245932Y-114297216D01*
X153240596Y-114291533D01*
X153188802Y-114248687D01*
X153185838Y-114246156D01*
X153135378Y-114201669D01*
X153128928Y-114197286D01*
X153129088Y-114197050D01*
X153125562Y-114194734D01*
X153125410Y-114194974D01*
X153118825Y-114190795D01*
X153057975Y-114162161D01*
X153054507Y-114160462D01*
X152994565Y-114129921D01*
X152987224Y-114127278D01*
X152987320Y-114127008D01*
X152983334Y-114125643D01*
X152983246Y-114125915D01*
X152975832Y-114123506D01*
X152959447Y-114120380D01*
X152909758Y-114110901D01*
X152905972Y-114110117D01*
X152840332Y-114095445D01*
X152832573Y-114094712D01*
X152832599Y-114094430D01*
X152828387Y-114094099D01*
X152828370Y-114094381D01*
X152820587Y-114093891D01*
X152753490Y-114098112D01*
X152749603Y-114098296D01*
X152682374Y-114100409D01*
X152674670Y-114101630D01*
X152674625Y-114101349D01*
X152670473Y-114102074D01*
X152670527Y-114102352D01*
X152662864Y-114103814D01*
X152632244Y-114113763D01*
X152562403Y-114115758D01*
X152502570Y-114079677D01*
X152501776Y-114078803D01*
X152468002Y-114041292D01*
X152468000Y-114041291D01*
X152467999Y-114041290D01*
X152467998Y-114041289D01*
X152322408Y-113935511D01*
X152158007Y-113862315D01*
X152158006Y-113862314D01*
X152158002Y-113862313D01*
X151981980Y-113824900D01*
X151802020Y-113824900D01*
X151625997Y-113862313D01*
X151461588Y-113935513D01*
X151329038Y-114031818D01*
X151263231Y-114055298D01*
X151256152Y-114055500D01*
X137795848Y-114055500D01*
X137728809Y-114035815D01*
X137722962Y-114031818D01*
X137590411Y-113935513D01*
X137590410Y-113935512D01*
X137590408Y-113935511D01*
X137426007Y-113862315D01*
X137426006Y-113862314D01*
X137426002Y-113862313D01*
X137249980Y-113824900D01*
X137070020Y-113824900D01*
X136893997Y-113862313D01*
X136729588Y-113935513D01*
X136584000Y-114041290D01*
X136463584Y-114175026D01*
X136373604Y-114330876D01*
X136324079Y-114483300D01*
X136317995Y-114502026D01*
X136308338Y-114593913D01*
X136307397Y-114602862D01*
X136280812Y-114667477D01*
X136223514Y-114707461D01*
X136184076Y-114713900D01*
X135636848Y-114713900D01*
X135569809Y-114694215D01*
X135563962Y-114690218D01*
X135554623Y-114683433D01*
X135431408Y-114593911D01*
X135267007Y-114520715D01*
X135267006Y-114520714D01*
X135267002Y-114520713D01*
X135090980Y-114483300D01*
X134911020Y-114483300D01*
X134734997Y-114520713D01*
X134734993Y-114520715D01*
X134589291Y-114585586D01*
X134570588Y-114593913D01*
X134425000Y-114699690D01*
X134304584Y-114833426D01*
X134214604Y-114989276D01*
X134158996Y-115160422D01*
X134158995Y-115160424D01*
X134158995Y-115160426D01*
X134140184Y-115339400D01*
X99180185Y-115339400D01*
X99175686Y-112923516D01*
X162820594Y-112923516D01*
X162830993Y-113088804D01*
X162830993Y-113088807D01*
X162882172Y-113246317D01*
X162970914Y-113386152D01*
X163091644Y-113499526D01*
X163091647Y-113499528D01*
X163091649Y-113499529D01*
X163236772Y-113579311D01*
X163236776Y-113579313D01*
X163397191Y-113620500D01*
X163397195Y-113620500D01*
X163521240Y-113620500D01*
X163521242Y-113620500D01*
X163521247Y-113620499D01*
X163521251Y-113620499D01*
X163534590Y-113618813D01*
X163644312Y-113604953D01*
X163798299Y-113543985D01*
X163932287Y-113446637D01*
X164037856Y-113319026D01*
X164108373Y-113169171D01*
X164139406Y-113006486D01*
X164134186Y-112923516D01*
X168600594Y-112923516D01*
X168610993Y-113088804D01*
X168610993Y-113088807D01*
X168662172Y-113246317D01*
X168750914Y-113386152D01*
X168871644Y-113499526D01*
X168871647Y-113499528D01*
X168871649Y-113499529D01*
X169016772Y-113579311D01*
X169016776Y-113579313D01*
X169177191Y-113620500D01*
X169177195Y-113620500D01*
X169301240Y-113620500D01*
X169301242Y-113620500D01*
X169301247Y-113620499D01*
X169301251Y-113620499D01*
X169314590Y-113618813D01*
X169424312Y-113604953D01*
X169578299Y-113543985D01*
X169712287Y-113446637D01*
X169817856Y-113319026D01*
X169888373Y-113169171D01*
X169919406Y-113006486D01*
X169909007Y-112841195D01*
X169857828Y-112683683D01*
X169769086Y-112543848D01*
X169648356Y-112430474D01*
X169648353Y-112430472D01*
X169648350Y-112430470D01*
X169503227Y-112350688D01*
X169503217Y-112350685D01*
X169342812Y-112309500D01*
X169342809Y-112309500D01*
X169218758Y-112309500D01*
X169218748Y-112309500D01*
X169095688Y-112325047D01*
X169095686Y-112325047D01*
X168941702Y-112386014D01*
X168941693Y-112386019D01*
X168807715Y-112483360D01*
X168807712Y-112483363D01*
X168702144Y-112610972D01*
X168631626Y-112760831D01*
X168600594Y-112923516D01*
X164134186Y-112923516D01*
X164129007Y-112841195D01*
X164077828Y-112683683D01*
X163989086Y-112543848D01*
X163868356Y-112430474D01*
X163868353Y-112430472D01*
X163868350Y-112430470D01*
X163723227Y-112350688D01*
X163723217Y-112350685D01*
X163562812Y-112309500D01*
X163562809Y-112309500D01*
X163438758Y-112309500D01*
X163438748Y-112309500D01*
X163315688Y-112325047D01*
X163315686Y-112325047D01*
X163161702Y-112386014D01*
X163161693Y-112386019D01*
X163027715Y-112483360D01*
X163027712Y-112483363D01*
X162922144Y-112610972D01*
X162851626Y-112760831D01*
X162820594Y-112923516D01*
X99175686Y-112923516D01*
X99167371Y-108458000D01*
X121268540Y-108458000D01*
X121288326Y-108646256D01*
X121288327Y-108646259D01*
X121346818Y-108826277D01*
X121346821Y-108826284D01*
X121441467Y-108990216D01*
X121483049Y-109036397D01*
X121568129Y-109130888D01*
X121721265Y-109242148D01*
X121721270Y-109242151D01*
X121894192Y-109319142D01*
X121894197Y-109319144D01*
X122079354Y-109358500D01*
X122079355Y-109358500D01*
X122268644Y-109358500D01*
X122268646Y-109358500D01*
X122453803Y-109319144D01*
X122626730Y-109242151D01*
X122779871Y-109130888D01*
X122906533Y-108990216D01*
X122906538Y-108990205D01*
X122908520Y-108987480D01*
X122936256Y-108962245D01*
X122935254Y-108960953D01*
X122941415Y-108956173D01*
X122941415Y-108956172D01*
X122941420Y-108956170D01*
X122955589Y-108941999D01*
X122970379Y-108929368D01*
X122986587Y-108917594D01*
X123014438Y-108883926D01*
X123022279Y-108875309D01*
X125288941Y-106608648D01*
X125350262Y-106575165D01*
X125419954Y-106580149D01*
X125475887Y-106622021D01*
X125500304Y-106687485D01*
X125500620Y-106696331D01*
X125500620Y-111669240D01*
X143500620Y-111669240D01*
X143500620Y-105719240D01*
X126477713Y-105719240D01*
X126410674Y-105699555D01*
X126364919Y-105646751D01*
X126354975Y-105577593D01*
X126384000Y-105514037D01*
X126390032Y-105507559D01*
X129127772Y-102769819D01*
X129189095Y-102736334D01*
X129215453Y-102733500D01*
X135440252Y-102733500D01*
X135507291Y-102753185D01*
X135532400Y-102774526D01*
X135538126Y-102780885D01*
X135538130Y-102780889D01*
X135691265Y-102892148D01*
X135691270Y-102892151D01*
X135864192Y-102969142D01*
X135864197Y-102969144D01*
X136049354Y-103008500D01*
X136049355Y-103008500D01*
X136238644Y-103008500D01*
X136238646Y-103008500D01*
X136423803Y-102969144D01*
X136596730Y-102892151D01*
X136627218Y-102870000D01*
X144001540Y-102870000D01*
X144021326Y-103058256D01*
X144021327Y-103058259D01*
X144079818Y-103238277D01*
X144079821Y-103238284D01*
X144174467Y-103402216D01*
X144295401Y-103536526D01*
X144301129Y-103542888D01*
X144454265Y-103654148D01*
X144454270Y-103654151D01*
X144627192Y-103731142D01*
X144627197Y-103731144D01*
X144812354Y-103770500D01*
X144812355Y-103770500D01*
X145001644Y-103770500D01*
X145001646Y-103770500D01*
X145186803Y-103731144D01*
X145359730Y-103654151D01*
X145512871Y-103542888D01*
X145515788Y-103539647D01*
X145518600Y-103536526D01*
X145578087Y-103499879D01*
X145610748Y-103495500D01*
X147772393Y-103495500D01*
X147795625Y-103497696D01*
X147797229Y-103498001D01*
X147803652Y-103499227D01*
X147803653Y-103499226D01*
X147803654Y-103499227D01*
X147858999Y-103495745D01*
X147866785Y-103495500D01*
X147882582Y-103495500D01*
X147882590Y-103495500D01*
X147898311Y-103493513D01*
X147905975Y-103492789D01*
X147961378Y-103489304D01*
X147969145Y-103486780D01*
X147991920Y-103481688D01*
X148000032Y-103480664D01*
X148051636Y-103460231D01*
X148058911Y-103457612D01*
X148111681Y-103440467D01*
X148118577Y-103436090D01*
X148139373Y-103425494D01*
X148146972Y-103422486D01*
X148191871Y-103389864D01*
X148198266Y-103385517D01*
X148245117Y-103355786D01*
X148250706Y-103349833D01*
X148268219Y-103334394D01*
X148274827Y-103329594D01*
X148310194Y-103286840D01*
X148315318Y-103281029D01*
X148353302Y-103240582D01*
X148357238Y-103233421D01*
X148370359Y-103214114D01*
X148375564Y-103207823D01*
X148399179Y-103157638D01*
X148402707Y-103150711D01*
X148429437Y-103102092D01*
X148431467Y-103094181D01*
X148439375Y-103072218D01*
X148442854Y-103064826D01*
X148453250Y-103010325D01*
X148454937Y-103002775D01*
X148468740Y-102949019D01*
X148468740Y-102940844D01*
X148470937Y-102917606D01*
X148472467Y-102909586D01*
X148468985Y-102854241D01*
X148468740Y-102846455D01*
X148468740Y-102378592D01*
X148488425Y-102311553D01*
X148505059Y-102290911D01*
X149866152Y-100929819D01*
X149927475Y-100896334D01*
X149953833Y-100893500D01*
X150013024Y-100893500D01*
X150013026Y-100893500D01*
X150198183Y-100854144D01*
X150371110Y-100777151D01*
X150524251Y-100665888D01*
X150650913Y-100525216D01*
X150745559Y-100361284D01*
X150804054Y-100181256D01*
X150823840Y-99993000D01*
X150804054Y-99804744D01*
X150745559Y-99624716D01*
X150664459Y-99484246D01*
X150647986Y-99416345D01*
X150670839Y-99350319D01*
X150684159Y-99334570D01*
X150685797Y-99332931D01*
X150685800Y-99332930D01*
X150699970Y-99318758D01*
X150714759Y-99306128D01*
X150730967Y-99294354D01*
X150758818Y-99260686D01*
X150766659Y-99252069D01*
X152025151Y-97993579D01*
X152086474Y-97960094D01*
X152112832Y-97957260D01*
X152172024Y-97957260D01*
X152172026Y-97957260D01*
X152357183Y-97917904D01*
X152530110Y-97840911D01*
X152683251Y-97729648D01*
X152809913Y-97588976D01*
X152904559Y-97425044D01*
X152963054Y-97245016D01*
X152982840Y-97056760D01*
X152963054Y-96868504D01*
X152904559Y-96688476D01*
X152809913Y-96524544D01*
X152683251Y-96383872D01*
X152626913Y-96342940D01*
X152530114Y-96272611D01*
X152530109Y-96272608D01*
X152357187Y-96195617D01*
X152357182Y-96195615D01*
X152211381Y-96164625D01*
X152172026Y-96156260D01*
X151982734Y-96156260D01*
X151950277Y-96163158D01*
X151797577Y-96195615D01*
X151797572Y-96195617D01*
X151624650Y-96272608D01*
X151624645Y-96272611D01*
X151471509Y-96383871D01*
X151344846Y-96524545D01*
X151250201Y-96688475D01*
X151250198Y-96688482D01*
X151191707Y-96868500D01*
X151191706Y-96868504D01*
X151174676Y-97030537D01*
X151174059Y-97036409D01*
X151147474Y-97101023D01*
X151138419Y-97111128D01*
X150076608Y-98172941D01*
X150015285Y-98206426D01*
X149988927Y-98209260D01*
X147054978Y-98209260D01*
X147039361Y-98207536D01*
X147039334Y-98207822D01*
X147031572Y-98207087D01*
X146964385Y-98209199D01*
X146960491Y-98209260D01*
X146932890Y-98209260D01*
X146929202Y-98209725D01*
X146928889Y-98209765D01*
X146917271Y-98210678D01*
X146873613Y-98212050D01*
X146873612Y-98212050D01*
X146854369Y-98217641D01*
X146835319Y-98221585D01*
X146815451Y-98224094D01*
X146815450Y-98224094D01*
X146774839Y-98240173D01*
X146763794Y-98243954D01*
X146721854Y-98256139D01*
X146721850Y-98256141D01*
X146704606Y-98266339D01*
X146687145Y-98274893D01*
X146668514Y-98282270D01*
X146668502Y-98282277D01*
X146633173Y-98307945D01*
X146623413Y-98314356D01*
X146585820Y-98336589D01*
X146571654Y-98350755D01*
X146556864Y-98363387D01*
X146540654Y-98375164D01*
X146540651Y-98375167D01*
X146512813Y-98408818D01*
X146504951Y-98417457D01*
X145148228Y-99774181D01*
X145086905Y-99807666D01*
X145060547Y-99810500D01*
X145001354Y-99810500D01*
X144968897Y-99817398D01*
X144816197Y-99849855D01*
X144816192Y-99849857D01*
X144643270Y-99926848D01*
X144643265Y-99926851D01*
X144490129Y-100038111D01*
X144363466Y-100178785D01*
X144268821Y-100342715D01*
X144268818Y-100342722D01*
X144222541Y-100485149D01*
X144210326Y-100522744D01*
X144190540Y-100711000D01*
X144210326Y-100899256D01*
X144210327Y-100899259D01*
X144268818Y-101079277D01*
X144268821Y-101079284D01*
X144363467Y-101243216D01*
X144490129Y-101383888D01*
X144643265Y-101495148D01*
X144643270Y-101495151D01*
X144816192Y-101572142D01*
X144816197Y-101572144D01*
X145001354Y-101611500D01*
X145001355Y-101611500D01*
X145190644Y-101611500D01*
X145190646Y-101611500D01*
X145375803Y-101572144D01*
X145548730Y-101495151D01*
X145701871Y-101383888D01*
X145828533Y-101243216D01*
X145923179Y-101079284D01*
X145981674Y-100899256D01*
X145999321Y-100731344D01*
X146025904Y-100666734D01*
X146034951Y-100656638D01*
X147195012Y-99496579D01*
X147256335Y-99463094D01*
X147282693Y-99460260D01*
X148973964Y-99460260D01*
X149041003Y-99479945D01*
X149086758Y-99532749D01*
X149096702Y-99601907D01*
X149091895Y-99622578D01*
X149032707Y-99804740D01*
X149032706Y-99804744D01*
X149015059Y-99972649D01*
X148988474Y-100037263D01*
X148979419Y-100047368D01*
X147459448Y-101567339D01*
X147447191Y-101577160D01*
X147447374Y-101577381D01*
X147441362Y-101582354D01*
X147395338Y-101631363D01*
X147392631Y-101634156D01*
X147373129Y-101653657D01*
X147373115Y-101653674D01*
X147370647Y-101656855D01*
X147363083Y-101665710D01*
X147333177Y-101697558D01*
X147333176Y-101697560D01*
X147323524Y-101715116D01*
X147312850Y-101731366D01*
X147300569Y-101747201D01*
X147300564Y-101747208D01*
X147283215Y-101787298D01*
X147278078Y-101797784D01*
X147257043Y-101836046D01*
X147252062Y-101855447D01*
X147245761Y-101873850D01*
X147237802Y-101892242D01*
X147237801Y-101892245D01*
X147230968Y-101935383D01*
X147228600Y-101946814D01*
X147217741Y-101989111D01*
X147217740Y-101989122D01*
X147217740Y-102009156D01*
X147216213Y-102028555D01*
X147213080Y-102048334D01*
X147213080Y-102048335D01*
X147217190Y-102091814D01*
X147217740Y-102103483D01*
X147217740Y-102120500D01*
X147198055Y-102187539D01*
X147145251Y-102233294D01*
X147093740Y-102244500D01*
X145610748Y-102244500D01*
X145543709Y-102224815D01*
X145518600Y-102203474D01*
X145512873Y-102197114D01*
X145512869Y-102197110D01*
X145359734Y-102085851D01*
X145359729Y-102085848D01*
X145186807Y-102008857D01*
X145186802Y-102008855D01*
X145041001Y-101977865D01*
X145001646Y-101969500D01*
X144812354Y-101969500D01*
X144779897Y-101976398D01*
X144627197Y-102008855D01*
X144627192Y-102008857D01*
X144454270Y-102085848D01*
X144454265Y-102085851D01*
X144301129Y-102197111D01*
X144174466Y-102337785D01*
X144079821Y-102501715D01*
X144079818Y-102501722D01*
X144034820Y-102640214D01*
X144021326Y-102681744D01*
X144001540Y-102870000D01*
X136627218Y-102870000D01*
X136749871Y-102780888D01*
X136876533Y-102640216D01*
X136971179Y-102476284D01*
X137029674Y-102296256D01*
X137049460Y-102108000D01*
X137029674Y-101919744D01*
X136971179Y-101739716D01*
X136876533Y-101575784D01*
X136749871Y-101435112D01*
X136749870Y-101435111D01*
X136596734Y-101323851D01*
X136596729Y-101323848D01*
X136423807Y-101246857D01*
X136423802Y-101246855D01*
X136278001Y-101215865D01*
X136238646Y-101207500D01*
X136049354Y-101207500D01*
X136016897Y-101214398D01*
X135864197Y-101246855D01*
X135864192Y-101246857D01*
X135691270Y-101323848D01*
X135691265Y-101323851D01*
X135538130Y-101435110D01*
X135538126Y-101435114D01*
X135532400Y-101441474D01*
X135472913Y-101478121D01*
X135440252Y-101482500D01*
X128987738Y-101482500D01*
X128972121Y-101480776D01*
X128972094Y-101481062D01*
X128964332Y-101480327D01*
X128897145Y-101482439D01*
X128893251Y-101482500D01*
X128865650Y-101482500D01*
X128861962Y-101482965D01*
X128861649Y-101483005D01*
X128850031Y-101483918D01*
X128806373Y-101485290D01*
X128806372Y-101485290D01*
X128787129Y-101490881D01*
X128768079Y-101494825D01*
X128748211Y-101497334D01*
X128748210Y-101497335D01*
X128707600Y-101513413D01*
X128696553Y-101517195D01*
X128654610Y-101529381D01*
X128654609Y-101529382D01*
X128637367Y-101539579D01*
X128619899Y-101548137D01*
X128601269Y-101555513D01*
X128601266Y-101555515D01*
X128565939Y-101581181D01*
X128556180Y-101587592D01*
X128518579Y-101609830D01*
X128504408Y-101624000D01*
X128489623Y-101636628D01*
X128473412Y-101648407D01*
X128445571Y-101682059D01*
X128437711Y-101690696D01*
X122565529Y-107562878D01*
X122504206Y-107596363D01*
X122452067Y-107596487D01*
X122268646Y-107557500D01*
X122079354Y-107557500D01*
X122046897Y-107564398D01*
X121894197Y-107596855D01*
X121894192Y-107596857D01*
X121721270Y-107673848D01*
X121721265Y-107673851D01*
X121568129Y-107785111D01*
X121441466Y-107925785D01*
X121346821Y-108089715D01*
X121346818Y-108089722D01*
X121292663Y-108256395D01*
X121288326Y-108269744D01*
X121268540Y-108458000D01*
X99167371Y-108458000D01*
X99142775Y-95250000D01*
X160638540Y-95250000D01*
X160658326Y-95438256D01*
X160658327Y-95438259D01*
X160716818Y-95618277D01*
X160716821Y-95618284D01*
X160811467Y-95782216D01*
X160854772Y-95830310D01*
X160886650Y-95865715D01*
X160916880Y-95928706D01*
X160918500Y-95948687D01*
X160918500Y-105847152D01*
X160916305Y-105870382D01*
X160914773Y-105878414D01*
X160918255Y-105933757D01*
X160918500Y-105941543D01*
X160918500Y-106089255D01*
X160916775Y-106104872D01*
X160917061Y-106104899D01*
X160916326Y-106112665D01*
X160918439Y-106179872D01*
X160918500Y-106183767D01*
X160918500Y-106211357D01*
X160919003Y-106215335D01*
X160919918Y-106226967D01*
X160921290Y-106270624D01*
X160921291Y-106270627D01*
X160926880Y-106289867D01*
X160930824Y-106308911D01*
X160933336Y-106328792D01*
X160949414Y-106369403D01*
X160953197Y-106380452D01*
X160963574Y-106416170D01*
X160965382Y-106422390D01*
X160974849Y-106438399D01*
X160975580Y-106439634D01*
X160984138Y-106457103D01*
X160991514Y-106475732D01*
X161017181Y-106511060D01*
X161023593Y-106520821D01*
X161045828Y-106558417D01*
X161045833Y-106558424D01*
X161059990Y-106572580D01*
X161072628Y-106587376D01*
X161084405Y-106603586D01*
X161084406Y-106603587D01*
X161118057Y-106631425D01*
X161126698Y-106639288D01*
X164161038Y-109673629D01*
X164194523Y-109734952D01*
X164196678Y-109748348D01*
X164197574Y-109756869D01*
X164214326Y-109916256D01*
X164214327Y-109916259D01*
X164272818Y-110096277D01*
X164272821Y-110096284D01*
X164367467Y-110260216D01*
X164494129Y-110400888D01*
X164647265Y-110512148D01*
X164647270Y-110512151D01*
X164820192Y-110589142D01*
X164820197Y-110589144D01*
X165005354Y-110628500D01*
X165005355Y-110628500D01*
X165194644Y-110628500D01*
X165194646Y-110628500D01*
X165379803Y-110589144D01*
X165552730Y-110512151D01*
X165705871Y-110400888D01*
X165832533Y-110260216D01*
X165927179Y-110096284D01*
X165985674Y-109916256D01*
X166005460Y-109728000D01*
X165985674Y-109539744D01*
X165927179Y-109359716D01*
X165832533Y-109195784D01*
X165705871Y-109055112D01*
X165680112Y-109036397D01*
X165552734Y-108943851D01*
X165552729Y-108943848D01*
X165379807Y-108866857D01*
X165379802Y-108866855D01*
X165234001Y-108835865D01*
X165194646Y-108827500D01*
X165194645Y-108827500D01*
X165135453Y-108827500D01*
X165068414Y-108807815D01*
X165047772Y-108791181D01*
X163011772Y-106755181D01*
X162978287Y-106693858D01*
X162983271Y-106624166D01*
X163025143Y-106568233D01*
X163090607Y-106543816D01*
X163099453Y-106543500D01*
X168160500Y-106543500D01*
X168227539Y-106563185D01*
X168273294Y-106615989D01*
X168284500Y-106667500D01*
X168284500Y-108531133D01*
X168264815Y-108598172D01*
X168252650Y-108614105D01*
X168182119Y-108692437D01*
X168087474Y-108856368D01*
X168087471Y-108856375D01*
X168028980Y-109036393D01*
X168028979Y-109036397D01*
X168009193Y-109224653D01*
X168028979Y-109412909D01*
X168028980Y-109412912D01*
X168087471Y-109592930D01*
X168087474Y-109592937D01*
X168182120Y-109756869D01*
X168308782Y-109897541D01*
X168461918Y-110008801D01*
X168461923Y-110008804D01*
X168634845Y-110085795D01*
X168634850Y-110085797D01*
X168820007Y-110125153D01*
X168820008Y-110125153D01*
X169009297Y-110125153D01*
X169009299Y-110125153D01*
X169194456Y-110085797D01*
X169367383Y-110008804D01*
X169520524Y-109897541D01*
X169647186Y-109756869D01*
X169741832Y-109592937D01*
X169800327Y-109412909D01*
X169820113Y-109224653D01*
X169800327Y-109036397D01*
X169741832Y-108856369D01*
X169647186Y-108692437D01*
X169567350Y-108603770D01*
X169537120Y-108540778D01*
X169535500Y-108520798D01*
X169535500Y-107385000D01*
X192939341Y-107385000D01*
X192959936Y-107620403D01*
X192959938Y-107620413D01*
X193021094Y-107848655D01*
X193021096Y-107848659D01*
X193021097Y-107848663D01*
X193057060Y-107925785D01*
X193120965Y-108062830D01*
X193120967Y-108062834D01*
X193229281Y-108217521D01*
X193256505Y-108256401D01*
X193423599Y-108423495D01*
X193520384Y-108491265D01*
X193617165Y-108559032D01*
X193617167Y-108559033D01*
X193617170Y-108559035D01*
X193831337Y-108658903D01*
X194059592Y-108720063D01*
X194236034Y-108735500D01*
X194294999Y-108740659D01*
X194295000Y-108740659D01*
X194295001Y-108740659D01*
X194353966Y-108735500D01*
X194530408Y-108720063D01*
X194758663Y-108658903D01*
X194972830Y-108559035D01*
X195166401Y-108423495D01*
X195288329Y-108301566D01*
X195349648Y-108268084D01*
X195419340Y-108273068D01*
X195475274Y-108314939D01*
X195492189Y-108345917D01*
X195541202Y-108477328D01*
X195541206Y-108477335D01*
X195627452Y-108592544D01*
X195627455Y-108592547D01*
X195742664Y-108678793D01*
X195742671Y-108678797D01*
X195877517Y-108729091D01*
X195877516Y-108729091D01*
X195884444Y-108729835D01*
X195937127Y-108735500D01*
X197732872Y-108735499D01*
X197792483Y-108729091D01*
X197927331Y-108678796D01*
X198042546Y-108592546D01*
X198128796Y-108477331D01*
X198179091Y-108342483D01*
X198185500Y-108282873D01*
X198185499Y-107385000D01*
X205004341Y-107385000D01*
X205024936Y-107620403D01*
X205024938Y-107620413D01*
X205086094Y-107848655D01*
X205086096Y-107848659D01*
X205086097Y-107848663D01*
X205122060Y-107925785D01*
X205185965Y-108062830D01*
X205185967Y-108062834D01*
X205294281Y-108217521D01*
X205321505Y-108256401D01*
X205488599Y-108423495D01*
X205585384Y-108491265D01*
X205682165Y-108559032D01*
X205682167Y-108559033D01*
X205682170Y-108559035D01*
X205896337Y-108658903D01*
X206124592Y-108720063D01*
X206301034Y-108735500D01*
X206359999Y-108740659D01*
X206360000Y-108740659D01*
X206360001Y-108740659D01*
X206418966Y-108735500D01*
X206595408Y-108720063D01*
X206823663Y-108658903D01*
X207037830Y-108559035D01*
X207231401Y-108423495D01*
X207353329Y-108301566D01*
X207414648Y-108268084D01*
X207484340Y-108273068D01*
X207540274Y-108314939D01*
X207557189Y-108345917D01*
X207606202Y-108477328D01*
X207606206Y-108477335D01*
X207692452Y-108592544D01*
X207692455Y-108592547D01*
X207807664Y-108678793D01*
X207807671Y-108678797D01*
X207942517Y-108729091D01*
X207942516Y-108729091D01*
X207949444Y-108729835D01*
X208002127Y-108735500D01*
X209797872Y-108735499D01*
X209857483Y-108729091D01*
X209992331Y-108678796D01*
X210107546Y-108592546D01*
X210193796Y-108477331D01*
X210244091Y-108342483D01*
X210250500Y-108282873D01*
X210250499Y-106487128D01*
X210244091Y-106427517D01*
X210242810Y-106424083D01*
X210193797Y-106292671D01*
X210193793Y-106292664D01*
X210107547Y-106177455D01*
X210107544Y-106177452D01*
X209992335Y-106091206D01*
X209992328Y-106091202D01*
X209857482Y-106040908D01*
X209857483Y-106040908D01*
X209797883Y-106034501D01*
X209797881Y-106034500D01*
X209797873Y-106034500D01*
X209797864Y-106034500D01*
X208002129Y-106034500D01*
X208002123Y-106034501D01*
X207942516Y-106040908D01*
X207807671Y-106091202D01*
X207807664Y-106091206D01*
X207692455Y-106177452D01*
X207692452Y-106177455D01*
X207606206Y-106292664D01*
X207606203Y-106292669D01*
X207557189Y-106424083D01*
X207515317Y-106480016D01*
X207449853Y-106504433D01*
X207381580Y-106489581D01*
X207353326Y-106468430D01*
X207231402Y-106346506D01*
X207231395Y-106346501D01*
X207227740Y-106343942D01*
X207154518Y-106292671D01*
X207037834Y-106210967D01*
X207037830Y-106210965D01*
X206979504Y-106183767D01*
X206823663Y-106111097D01*
X206823659Y-106111096D01*
X206823655Y-106111094D01*
X206595413Y-106049938D01*
X206595403Y-106049936D01*
X206360001Y-106029341D01*
X206359999Y-106029341D01*
X206124596Y-106049936D01*
X206124586Y-106049938D01*
X205896344Y-106111094D01*
X205896337Y-106111096D01*
X205896337Y-106111097D01*
X205892970Y-106112667D01*
X205682171Y-106210964D01*
X205682169Y-106210965D01*
X205488597Y-106346505D01*
X205321505Y-106513597D01*
X205185965Y-106707169D01*
X205185964Y-106707171D01*
X205086098Y-106921335D01*
X205086094Y-106921344D01*
X205024938Y-107149586D01*
X205024936Y-107149596D01*
X205004341Y-107384999D01*
X205004341Y-107385000D01*
X198185499Y-107385000D01*
X198185499Y-106487128D01*
X198179091Y-106427517D01*
X198177810Y-106424083D01*
X198128797Y-106292671D01*
X198128793Y-106292664D01*
X198042547Y-106177455D01*
X198042544Y-106177452D01*
X197927335Y-106091206D01*
X197927328Y-106091202D01*
X197792482Y-106040908D01*
X197792483Y-106040908D01*
X197732883Y-106034501D01*
X197732881Y-106034500D01*
X197732873Y-106034500D01*
X197732864Y-106034500D01*
X195937129Y-106034500D01*
X195937123Y-106034501D01*
X195877516Y-106040908D01*
X195742671Y-106091202D01*
X195742664Y-106091206D01*
X195627455Y-106177452D01*
X195627452Y-106177455D01*
X195541206Y-106292664D01*
X195541203Y-106292669D01*
X195492189Y-106424083D01*
X195450317Y-106480016D01*
X195384853Y-106504433D01*
X195316580Y-106489581D01*
X195288326Y-106468430D01*
X195166402Y-106346506D01*
X195166395Y-106346501D01*
X195162740Y-106343942D01*
X195089518Y-106292671D01*
X194972834Y-106210967D01*
X194972830Y-106210965D01*
X194914504Y-106183767D01*
X194758663Y-106111097D01*
X194758659Y-106111096D01*
X194758655Y-106111094D01*
X194530413Y-106049938D01*
X194530403Y-106049936D01*
X194295001Y-106029341D01*
X194294999Y-106029341D01*
X194059596Y-106049936D01*
X194059586Y-106049938D01*
X193831344Y-106111094D01*
X193831337Y-106111096D01*
X193831337Y-106111097D01*
X193827970Y-106112667D01*
X193617171Y-106210964D01*
X193617169Y-106210965D01*
X193423597Y-106346505D01*
X193256505Y-106513597D01*
X193120965Y-106707169D01*
X193120964Y-106707171D01*
X193021098Y-106921335D01*
X193021094Y-106921344D01*
X192959938Y-107149586D01*
X192959936Y-107149596D01*
X192939341Y-107384999D01*
X192939341Y-107385000D01*
X169535500Y-107385000D01*
X169535500Y-106667500D01*
X169555185Y-106600461D01*
X169607989Y-106554706D01*
X169659500Y-106543500D01*
X175558257Y-106543500D01*
X175573877Y-106545224D01*
X175573904Y-106544939D01*
X175581660Y-106545671D01*
X175581667Y-106545673D01*
X175648873Y-106543561D01*
X175652768Y-106543500D01*
X175680346Y-106543500D01*
X175680350Y-106543500D01*
X175684324Y-106542997D01*
X175695963Y-106542080D01*
X175739627Y-106540709D01*
X175758869Y-106535117D01*
X175777912Y-106531174D01*
X175797792Y-106528664D01*
X175838401Y-106512585D01*
X175849444Y-106508803D01*
X175891390Y-106496618D01*
X175908629Y-106486422D01*
X175926103Y-106477862D01*
X175944727Y-106470488D01*
X175944727Y-106470487D01*
X175944732Y-106470486D01*
X175980083Y-106444800D01*
X175989814Y-106438408D01*
X176027420Y-106416170D01*
X176041589Y-106401999D01*
X176056379Y-106389368D01*
X176072587Y-106377594D01*
X176100438Y-106343926D01*
X176108279Y-106335309D01*
X185621771Y-96821819D01*
X185683094Y-96788334D01*
X185709452Y-96785500D01*
X185768644Y-96785500D01*
X185768646Y-96785500D01*
X185953803Y-96746144D01*
X186126730Y-96669151D01*
X186279871Y-96557888D01*
X186406533Y-96417216D01*
X186501179Y-96253284D01*
X186559674Y-96073256D01*
X186579460Y-95885000D01*
X186559674Y-95696744D01*
X186532867Y-95614240D01*
X222855084Y-95614240D01*
X222875184Y-95831158D01*
X222875184Y-95831160D01*
X222875185Y-95831163D01*
X222934803Y-96040699D01*
X222934804Y-96040702D01*
X223011943Y-96195617D01*
X223031908Y-96235712D01*
X223163193Y-96409562D01*
X223324188Y-96556328D01*
X223324195Y-96556332D01*
X223324196Y-96556333D01*
X223509406Y-96671010D01*
X223509412Y-96671013D01*
X223532284Y-96679873D01*
X223712551Y-96749710D01*
X223926694Y-96789740D01*
X223926696Y-96789740D01*
X224144544Y-96789740D01*
X224144546Y-96789740D01*
X224358689Y-96749710D01*
X224561830Y-96671012D01*
X224747052Y-96556328D01*
X224908047Y-96409562D01*
X225039332Y-96235712D01*
X225136437Y-96040699D01*
X225196055Y-95831163D01*
X225216156Y-95614240D01*
X225196055Y-95397317D01*
X225136437Y-95187781D01*
X225039332Y-94992768D01*
X224908047Y-94818918D01*
X224784043Y-94705874D01*
X224747765Y-94646167D01*
X224749525Y-94576319D01*
X224784043Y-94522605D01*
X224908047Y-94409562D01*
X225039332Y-94235712D01*
X225136437Y-94040699D01*
X225196055Y-93831163D01*
X225216156Y-93614240D01*
X225196055Y-93397317D01*
X225136437Y-93187781D01*
X225039332Y-92992768D01*
X224908047Y-92818918D01*
X224747052Y-92672152D01*
X224747048Y-92672149D01*
X224747043Y-92672146D01*
X224561833Y-92557469D01*
X224561827Y-92557466D01*
X224476733Y-92524500D01*
X224358689Y-92478770D01*
X224144546Y-92438740D01*
X223926694Y-92438740D01*
X223712551Y-92478770D01*
X223663750Y-92497675D01*
X223509412Y-92557466D01*
X223509406Y-92557469D01*
X223324196Y-92672146D01*
X223324186Y-92672153D01*
X223163194Y-92818916D01*
X223031908Y-92992767D01*
X222934804Y-93187777D01*
X222934803Y-93187781D01*
X222889968Y-93345362D01*
X222875184Y-93397321D01*
X222855084Y-93614239D01*
X222855084Y-93614240D01*
X222875184Y-93831158D01*
X222934804Y-94040702D01*
X223031908Y-94235712D01*
X223163194Y-94409564D01*
X223287192Y-94522603D01*
X223323474Y-94582314D01*
X223321713Y-94652162D01*
X223287192Y-94705877D01*
X223163194Y-94818915D01*
X223031908Y-94992767D01*
X222934804Y-95187777D01*
X222875184Y-95397321D01*
X222855084Y-95614239D01*
X222855084Y-95614240D01*
X186532867Y-95614240D01*
X186501179Y-95516716D01*
X186406533Y-95352784D01*
X186279871Y-95212112D01*
X186279870Y-95212111D01*
X186126734Y-95100851D01*
X186126729Y-95100848D01*
X185953807Y-95023857D01*
X185953802Y-95023855D01*
X185807544Y-94992768D01*
X185768646Y-94984500D01*
X185579354Y-94984500D01*
X185546897Y-94991398D01*
X185394197Y-95023855D01*
X185394192Y-95023857D01*
X185221270Y-95100848D01*
X185221265Y-95100851D01*
X185068129Y-95212111D01*
X184941466Y-95352785D01*
X184846821Y-95516715D01*
X184846818Y-95516722D01*
X184812361Y-95622771D01*
X184788326Y-95696744D01*
X184781118Y-95765324D01*
X184770678Y-95864651D01*
X184744093Y-95929266D01*
X184735038Y-95939370D01*
X175418228Y-105256181D01*
X175356905Y-105289666D01*
X175330547Y-105292500D01*
X168980847Y-105292500D01*
X168957615Y-105290304D01*
X168949588Y-105288773D01*
X168949585Y-105288772D01*
X168894241Y-105292255D01*
X168886455Y-105292500D01*
X162293500Y-105292500D01*
X162226461Y-105272815D01*
X162180706Y-105220011D01*
X162169500Y-105168500D01*
X162169500Y-102827110D01*
X164220120Y-102827110D01*
X164220121Y-102827116D01*
X164226528Y-102886723D01*
X164276822Y-103021568D01*
X164276826Y-103021575D01*
X164363072Y-103136784D01*
X164363075Y-103136787D01*
X164478284Y-103223033D01*
X164478291Y-103223037D01*
X164613137Y-103273331D01*
X164613136Y-103273331D01*
X164620064Y-103274075D01*
X164672747Y-103279740D01*
X166568492Y-103279739D01*
X166628103Y-103273331D01*
X166762951Y-103223036D01*
X166878166Y-103136786D01*
X166964416Y-103021571D01*
X167014711Y-102886723D01*
X167021120Y-102827113D01*
X167021119Y-100931368D01*
X167014711Y-100871757D01*
X166979425Y-100777151D01*
X166964417Y-100736911D01*
X166964413Y-100736904D01*
X166878167Y-100621695D01*
X166878164Y-100621692D01*
X166762955Y-100535446D01*
X166762948Y-100535442D01*
X166628102Y-100485148D01*
X166628103Y-100485148D01*
X166568503Y-100478741D01*
X166568501Y-100478740D01*
X166568493Y-100478740D01*
X166568484Y-100478740D01*
X164672749Y-100478740D01*
X164672743Y-100478741D01*
X164613136Y-100485148D01*
X164478291Y-100535442D01*
X164478284Y-100535446D01*
X164363075Y-100621692D01*
X164363072Y-100621695D01*
X164276826Y-100736904D01*
X164276822Y-100736911D01*
X164226528Y-100871757D01*
X164220286Y-100929819D01*
X164220121Y-100931363D01*
X164220120Y-100931375D01*
X164220120Y-102827110D01*
X162169500Y-102827110D01*
X162169500Y-96799246D01*
X164215320Y-96799246D01*
X164234484Y-97030537D01*
X164234486Y-97030548D01*
X164291462Y-97255540D01*
X164384695Y-97468088D01*
X164511636Y-97662387D01*
X164511639Y-97662391D01*
X164511641Y-97662393D01*
X164668836Y-97833153D01*
X164668839Y-97833155D01*
X164668842Y-97833158D01*
X164851985Y-97975704D01*
X164851991Y-97975708D01*
X164851994Y-97975710D01*
X165056117Y-98086176D01*
X165170107Y-98125308D01*
X165275635Y-98161537D01*
X165275637Y-98161537D01*
X165275639Y-98161538D01*
X165504571Y-98199740D01*
X165504572Y-98199740D01*
X165736668Y-98199740D01*
X165736669Y-98199740D01*
X165965601Y-98161538D01*
X166185123Y-98086176D01*
X166389246Y-97975710D01*
X166572404Y-97833153D01*
X166729599Y-97662393D01*
X166856544Y-97468089D01*
X166949777Y-97255540D01*
X167006754Y-97030545D01*
X167020181Y-96868504D01*
X167025920Y-96799246D01*
X167025920Y-96799233D01*
X167006755Y-96567942D01*
X167006753Y-96567931D01*
X166949777Y-96342939D01*
X166856544Y-96130391D01*
X166729603Y-95936092D01*
X166729600Y-95936089D01*
X166729599Y-95936087D01*
X166572404Y-95765327D01*
X166572399Y-95765323D01*
X166572397Y-95765321D01*
X166389254Y-95622775D01*
X166389248Y-95622771D01*
X166185124Y-95512304D01*
X166185115Y-95512301D01*
X165965604Y-95436942D01*
X165793902Y-95408290D01*
X165736669Y-95398740D01*
X165504571Y-95398740D01*
X165458784Y-95406380D01*
X165275635Y-95436942D01*
X165056124Y-95512301D01*
X165056115Y-95512304D01*
X164851991Y-95622771D01*
X164851985Y-95622775D01*
X164668842Y-95765321D01*
X164668839Y-95765324D01*
X164668836Y-95765326D01*
X164668836Y-95765327D01*
X164653289Y-95782216D01*
X164511636Y-95936092D01*
X164384695Y-96130391D01*
X164291462Y-96342939D01*
X164234486Y-96567931D01*
X164234484Y-96567942D01*
X164215320Y-96799233D01*
X164215320Y-96799246D01*
X162169500Y-96799246D01*
X162169500Y-95948687D01*
X162189185Y-95881648D01*
X162201350Y-95865715D01*
X162232465Y-95831158D01*
X162276533Y-95782216D01*
X162371179Y-95618284D01*
X162429674Y-95438256D01*
X162449460Y-95250000D01*
X162429674Y-95061744D01*
X162371179Y-94881716D01*
X162276533Y-94717784D01*
X162149871Y-94577112D01*
X162148780Y-94576319D01*
X161996734Y-94465851D01*
X161996729Y-94465848D01*
X161823807Y-94388857D01*
X161823802Y-94388855D01*
X161678001Y-94357865D01*
X161638646Y-94349500D01*
X161449354Y-94349500D01*
X161416897Y-94356398D01*
X161264197Y-94388855D01*
X161264192Y-94388857D01*
X161091270Y-94465848D01*
X161091265Y-94465851D01*
X160938129Y-94577111D01*
X160811466Y-94717785D01*
X160716821Y-94881715D01*
X160716818Y-94881722D01*
X160670636Y-95023857D01*
X160658326Y-95061744D01*
X160638540Y-95250000D01*
X99142775Y-95250000D01*
X99138045Y-92710000D01*
X144300184Y-92710000D01*
X144318995Y-92888975D01*
X144318996Y-92888977D01*
X144352719Y-92992768D01*
X144374605Y-93060125D01*
X144464585Y-93215975D01*
X144585002Y-93349711D01*
X144730592Y-93455489D01*
X144894993Y-93528685D01*
X144894996Y-93528685D01*
X144894997Y-93528686D01*
X144923128Y-93534665D01*
X145071020Y-93566100D01*
X145250980Y-93566100D01*
X145427007Y-93528685D01*
X145591408Y-93455489D01*
X145736998Y-93349711D01*
X145737003Y-93349704D01*
X145741828Y-93345362D01*
X145743506Y-93347226D01*
X145793390Y-93316484D01*
X145826071Y-93312100D01*
X196142420Y-93312100D01*
X196158605Y-93313161D01*
X196189999Y-93317294D01*
X196190000Y-93317294D01*
X196190001Y-93317294D01*
X196204862Y-93315337D01*
X196229455Y-93312100D01*
X196229460Y-93312100D01*
X196347180Y-93296602D01*
X196493647Y-93235933D01*
X196556400Y-93187781D01*
X196587847Y-93163651D01*
X196587846Y-93163651D01*
X196595939Y-93157442D01*
X196595945Y-93157436D01*
X196598673Y-93155342D01*
X196619422Y-93139422D01*
X196638711Y-93114283D01*
X196649390Y-93102106D01*
X198244679Y-91506818D01*
X198306002Y-91473333D01*
X198332360Y-91470499D01*
X199577871Y-91470499D01*
X199577872Y-91470499D01*
X199637483Y-91464091D01*
X199772331Y-91413796D01*
X199887546Y-91327546D01*
X199973796Y-91212331D01*
X200024091Y-91077483D01*
X200030500Y-91017873D01*
X200030499Y-89614240D01*
X222855084Y-89614240D01*
X222875184Y-89831158D01*
X222875184Y-89831160D01*
X222875185Y-89831163D01*
X222934803Y-90040699D01*
X223031908Y-90235712D01*
X223163193Y-90409562D01*
X223324188Y-90556328D01*
X223324195Y-90556332D01*
X223324196Y-90556333D01*
X223509406Y-90671010D01*
X223509412Y-90671013D01*
X223532284Y-90679873D01*
X223712551Y-90749710D01*
X223926694Y-90789740D01*
X223926696Y-90789740D01*
X224144544Y-90789740D01*
X224144546Y-90789740D01*
X224358689Y-90749710D01*
X224561830Y-90671012D01*
X224747052Y-90556328D01*
X224908047Y-90409562D01*
X225039332Y-90235712D01*
X225136437Y-90040699D01*
X225196055Y-89831163D01*
X225216156Y-89614240D01*
X225196055Y-89397317D01*
X225136437Y-89187781D01*
X225039332Y-88992768D01*
X224908047Y-88818918D01*
X224784043Y-88705874D01*
X224747765Y-88646167D01*
X224749525Y-88576319D01*
X224784043Y-88522605D01*
X224908047Y-88409562D01*
X225039332Y-88235712D01*
X225136437Y-88040699D01*
X225196055Y-87831163D01*
X225216156Y-87614240D01*
X225196055Y-87397317D01*
X225136437Y-87187781D01*
X225039332Y-86992768D01*
X224957871Y-86884896D01*
X224933180Y-86819537D01*
X224947745Y-86751202D01*
X224982515Y-86710905D01*
X225061305Y-86651922D01*
X225068166Y-86646786D01*
X225154416Y-86531571D01*
X225204711Y-86396723D01*
X225211120Y-86337113D01*
X225211119Y-84891368D01*
X225204711Y-84831757D01*
X225174576Y-84750962D01*
X225154417Y-84696911D01*
X225154413Y-84696904D01*
X225068167Y-84581695D01*
X225068164Y-84581692D01*
X224952955Y-84495446D01*
X224952948Y-84495442D01*
X224818102Y-84445148D01*
X224818103Y-84445148D01*
X224758503Y-84438741D01*
X224758501Y-84438740D01*
X224758493Y-84438740D01*
X224758484Y-84438740D01*
X223312749Y-84438740D01*
X223312743Y-84438741D01*
X223253136Y-84445148D01*
X223118291Y-84495442D01*
X223118284Y-84495446D01*
X223003075Y-84581692D01*
X223003072Y-84581695D01*
X222916826Y-84696904D01*
X222916822Y-84696911D01*
X222866528Y-84831757D01*
X222860841Y-84884658D01*
X222860121Y-84891363D01*
X222860120Y-84891375D01*
X222860120Y-86337110D01*
X222860121Y-86337116D01*
X222866528Y-86396723D01*
X222916822Y-86531568D01*
X222916826Y-86531575D01*
X222964392Y-86595114D01*
X223003074Y-86646786D01*
X223088725Y-86710904D01*
X223130595Y-86766837D01*
X223135579Y-86836529D01*
X223113368Y-86884896D01*
X223031908Y-86992768D01*
X222934804Y-87187777D01*
X222875184Y-87397321D01*
X222855084Y-87614239D01*
X222855084Y-87614240D01*
X222875184Y-87831158D01*
X222934804Y-88040702D01*
X223031908Y-88235712D01*
X223163194Y-88409564D01*
X223287192Y-88522603D01*
X223323474Y-88582314D01*
X223321713Y-88652162D01*
X223287192Y-88705877D01*
X223163194Y-88818915D01*
X223031908Y-88992767D01*
X222934804Y-89187777D01*
X222934803Y-89187781D01*
X222896580Y-89322123D01*
X222875184Y-89397321D01*
X222855084Y-89614239D01*
X222855084Y-89614240D01*
X200030499Y-89614240D01*
X200030499Y-89322128D01*
X200024091Y-89262517D01*
X199996216Y-89187781D01*
X199973797Y-89127671D01*
X199973793Y-89127664D01*
X199887547Y-89012455D01*
X199887544Y-89012452D01*
X199772335Y-88926206D01*
X199772328Y-88926202D01*
X199637482Y-88875908D01*
X199637483Y-88875908D01*
X199577883Y-88869501D01*
X199577881Y-88869500D01*
X199577873Y-88869500D01*
X199577864Y-88869500D01*
X197882129Y-88869500D01*
X197882123Y-88869501D01*
X197822516Y-88875908D01*
X197687671Y-88926202D01*
X197687664Y-88926206D01*
X197572455Y-89012452D01*
X197572452Y-89012455D01*
X197486206Y-89127664D01*
X197486202Y-89127671D01*
X197435908Y-89262517D01*
X197429501Y-89322116D01*
X197429501Y-89322123D01*
X197429500Y-89322135D01*
X197429500Y-90567639D01*
X197409815Y-90634678D01*
X197393181Y-90655320D01*
X195976921Y-92071581D01*
X195915598Y-92105066D01*
X195889240Y-92107900D01*
X145826071Y-92107900D01*
X145759032Y-92088215D01*
X145742362Y-92074044D01*
X145741828Y-92074638D01*
X145737000Y-92070291D01*
X145736999Y-92070290D01*
X145736998Y-92070289D01*
X145591408Y-91964511D01*
X145427007Y-91891315D01*
X145427006Y-91891314D01*
X145427002Y-91891313D01*
X145250980Y-91853900D01*
X145071020Y-91853900D01*
X144894997Y-91891313D01*
X144730588Y-91964513D01*
X144585000Y-92070290D01*
X144464584Y-92204026D01*
X144374604Y-92359876D01*
X144318996Y-92531022D01*
X144318995Y-92531024D01*
X144300184Y-92710000D01*
X99138045Y-92710000D01*
X99128555Y-87614000D01*
X111087464Y-87614000D01*
X111107564Y-87830918D01*
X111107564Y-87830920D01*
X111107565Y-87830923D01*
X111167183Y-88040459D01*
X111167184Y-88040462D01*
X111167304Y-88040702D01*
X111264288Y-88235472D01*
X111395573Y-88409322D01*
X111556568Y-88556088D01*
X111556575Y-88556092D01*
X111556576Y-88556093D01*
X111741786Y-88670770D01*
X111741792Y-88670773D01*
X111745352Y-88672152D01*
X111944931Y-88749470D01*
X112159074Y-88789500D01*
X112159076Y-88789500D01*
X112376924Y-88789500D01*
X112376926Y-88789500D01*
X112591069Y-88749470D01*
X112794210Y-88670772D01*
X112979432Y-88556088D01*
X113140427Y-88409322D01*
X113271712Y-88235472D01*
X113368817Y-88040459D01*
X113428435Y-87830923D01*
X113448536Y-87614000D01*
X113428435Y-87397077D01*
X113368817Y-87187541D01*
X113271712Y-86992528D01*
X113140427Y-86818678D01*
X113016423Y-86705634D01*
X112980145Y-86645927D01*
X112981905Y-86576079D01*
X113016423Y-86522365D01*
X113140427Y-86409322D01*
X113271712Y-86235472D01*
X113368817Y-86040459D01*
X113428435Y-85830923D01*
X113448536Y-85614000D01*
X113428435Y-85397077D01*
X113368817Y-85187541D01*
X113271712Y-84992528D01*
X113190251Y-84884656D01*
X113165560Y-84819297D01*
X113180125Y-84750962D01*
X113214895Y-84710665D01*
X113262545Y-84674993D01*
X113300546Y-84646546D01*
X113386796Y-84531331D01*
X113437091Y-84396483D01*
X113443500Y-84336873D01*
X113443499Y-82891128D01*
X113437091Y-82831517D01*
X113431570Y-82816715D01*
X113386797Y-82696671D01*
X113386793Y-82696664D01*
X113300547Y-82581455D01*
X113300544Y-82581452D01*
X113185335Y-82495206D01*
X113185328Y-82495202D01*
X113050482Y-82444908D01*
X113050483Y-82444908D01*
X112990883Y-82438501D01*
X112990881Y-82438500D01*
X112990873Y-82438500D01*
X112990864Y-82438500D01*
X111545129Y-82438500D01*
X111545123Y-82438501D01*
X111485516Y-82444908D01*
X111350671Y-82495202D01*
X111350664Y-82495206D01*
X111235455Y-82581452D01*
X111235452Y-82581455D01*
X111149206Y-82696664D01*
X111149202Y-82696671D01*
X111098908Y-82831517D01*
X111092501Y-82891116D01*
X111092501Y-82891123D01*
X111092500Y-82891135D01*
X111092500Y-84336870D01*
X111092501Y-84336876D01*
X111098908Y-84396483D01*
X111149202Y-84531328D01*
X111149206Y-84531335D01*
X111188402Y-84583693D01*
X111235454Y-84646546D01*
X111321105Y-84710664D01*
X111362975Y-84766597D01*
X111367959Y-84836289D01*
X111345748Y-84884656D01*
X111264288Y-84992528D01*
X111167184Y-85187537D01*
X111107564Y-85397081D01*
X111087464Y-85613999D01*
X111087464Y-85614000D01*
X111107564Y-85830918D01*
X111107564Y-85830920D01*
X111107565Y-85830923D01*
X111164313Y-86030372D01*
X111167184Y-86040462D01*
X111264288Y-86235472D01*
X111395574Y-86409324D01*
X111519572Y-86522363D01*
X111555854Y-86582074D01*
X111554093Y-86651922D01*
X111519572Y-86705637D01*
X111395574Y-86818675D01*
X111264288Y-86992527D01*
X111167184Y-87187537D01*
X111107564Y-87397081D01*
X111087464Y-87613999D01*
X111087464Y-87614000D01*
X99128555Y-87614000D01*
X99104935Y-74930000D01*
X124189540Y-74930000D01*
X124209326Y-75118256D01*
X124209327Y-75118259D01*
X124267818Y-75298277D01*
X124267821Y-75298284D01*
X124362467Y-75462216D01*
X124474629Y-75586784D01*
X124489129Y-75602888D01*
X124642265Y-75714148D01*
X124642270Y-75714151D01*
X124815192Y-75791142D01*
X124815197Y-75791144D01*
X125000354Y-75830500D01*
X125059548Y-75830500D01*
X125126587Y-75850185D01*
X125147229Y-75866819D01*
X126846181Y-77565771D01*
X126879666Y-77627094D01*
X126882500Y-77653452D01*
X126882500Y-79311312D01*
X126862815Y-79378351D01*
X126850650Y-79394284D01*
X126775466Y-79477784D01*
X126680821Y-79641715D01*
X126680818Y-79641722D01*
X126624507Y-79815032D01*
X126622326Y-79821744D01*
X126602540Y-80010000D01*
X126622326Y-80198256D01*
X126622327Y-80198259D01*
X126680818Y-80378277D01*
X126680821Y-80378284D01*
X126775467Y-80542216D01*
X126902129Y-80682888D01*
X127055265Y-80794148D01*
X127055270Y-80794151D01*
X127228192Y-80871142D01*
X127228197Y-80871144D01*
X127413354Y-80910500D01*
X127413355Y-80910500D01*
X127602644Y-80910500D01*
X127602646Y-80910500D01*
X127787803Y-80871144D01*
X127960730Y-80794151D01*
X128113871Y-80682888D01*
X128240533Y-80542216D01*
X128335179Y-80378284D01*
X128393674Y-80198256D01*
X128413460Y-80010000D01*
X128393674Y-79821744D01*
X128335179Y-79641716D01*
X128240533Y-79477784D01*
X128221148Y-79456255D01*
X128165350Y-79394284D01*
X128135120Y-79331292D01*
X128133500Y-79311312D01*
X128133500Y-77425737D01*
X128135224Y-77410123D01*
X128134938Y-77410096D01*
X128135672Y-77402333D01*
X128133561Y-77335144D01*
X128133500Y-77331250D01*
X128133500Y-77303651D01*
X128133500Y-77303650D01*
X128132997Y-77299670D01*
X128132080Y-77288021D01*
X128130709Y-77244373D01*
X128125121Y-77225139D01*
X128121174Y-77206081D01*
X128118664Y-77186208D01*
X128111834Y-77168958D01*
X128102583Y-77145592D01*
X128098799Y-77134539D01*
X128086618Y-77092615D01*
X128086617Y-77092610D01*
X128076420Y-77075368D01*
X128067863Y-77057902D01*
X128060486Y-77039268D01*
X128034809Y-77003926D01*
X128028412Y-76994190D01*
X128006170Y-76956579D01*
X128006167Y-76956576D01*
X128006165Y-76956573D01*
X127992005Y-76942413D01*
X127979370Y-76927620D01*
X127967593Y-76911412D01*
X127933945Y-76883576D01*
X127925304Y-76875713D01*
X126033960Y-74984369D01*
X126000475Y-74923046D01*
X125998323Y-74909668D01*
X125980674Y-74741744D01*
X125922179Y-74561716D01*
X125827533Y-74397784D01*
X125700871Y-74257112D01*
X125653050Y-74222368D01*
X125547734Y-74145851D01*
X125547729Y-74145848D01*
X125374807Y-74068857D01*
X125374802Y-74068855D01*
X125229001Y-74037865D01*
X125189646Y-74029500D01*
X125000354Y-74029500D01*
X124967897Y-74036398D01*
X124815197Y-74068855D01*
X124815192Y-74068857D01*
X124642270Y-74145848D01*
X124642265Y-74145851D01*
X124489129Y-74257111D01*
X124362466Y-74397785D01*
X124267821Y-74561715D01*
X124267818Y-74561722D01*
X124211285Y-74735715D01*
X124209326Y-74741744D01*
X124189540Y-74930000D01*
X99104935Y-74930000D01*
X99096421Y-70358000D01*
X122665540Y-70358000D01*
X122685326Y-70546256D01*
X122685327Y-70546259D01*
X122743818Y-70726277D01*
X122743821Y-70726284D01*
X122838467Y-70890216D01*
X122940185Y-71003185D01*
X122965129Y-71030888D01*
X123118265Y-71142148D01*
X123118270Y-71142151D01*
X123291192Y-71219142D01*
X123291197Y-71219144D01*
X123476354Y-71258500D01*
X123476355Y-71258500D01*
X123665644Y-71258500D01*
X123665646Y-71258500D01*
X123850803Y-71219144D01*
X124023730Y-71142151D01*
X124176871Y-71030888D01*
X124179788Y-71027647D01*
X124182600Y-71024526D01*
X124242087Y-70987879D01*
X124274748Y-70983500D01*
X126931252Y-70983500D01*
X126998291Y-71003185D01*
X127023400Y-71024526D01*
X127029126Y-71030885D01*
X127029130Y-71030889D01*
X127182265Y-71142148D01*
X127182270Y-71142151D01*
X127355192Y-71219142D01*
X127355197Y-71219144D01*
X127540354Y-71258500D01*
X127599548Y-71258500D01*
X127666587Y-71278185D01*
X127687229Y-71294819D01*
X130055197Y-73662788D01*
X130065022Y-73675051D01*
X130065243Y-73674869D01*
X130070211Y-73680874D01*
X130119222Y-73726899D01*
X130122021Y-73729612D01*
X130141522Y-73749114D01*
X130141526Y-73749117D01*
X130141529Y-73749120D01*
X130144702Y-73751581D01*
X130153574Y-73759159D01*
X130185418Y-73789062D01*
X130202976Y-73798714D01*
X130219233Y-73809393D01*
X130235064Y-73821673D01*
X130264803Y-73834542D01*
X130275152Y-73839021D01*
X130285641Y-73844160D01*
X130309457Y-73857252D01*
X130323908Y-73865197D01*
X130336523Y-73868435D01*
X130343305Y-73870177D01*
X130361719Y-73876481D01*
X130380104Y-73884438D01*
X130423261Y-73891273D01*
X130434656Y-73893632D01*
X130476981Y-73904500D01*
X130497016Y-73904500D01*
X130516413Y-73906026D01*
X130536196Y-73909160D01*
X130579675Y-73905050D01*
X130591344Y-73904500D01*
X133350519Y-73904500D01*
X133417558Y-73924185D01*
X133463313Y-73976989D01*
X133473839Y-74041459D01*
X133463468Y-74140142D01*
X133462679Y-74147649D01*
X133436094Y-74212263D01*
X133427039Y-74222368D01*
X133003208Y-74646199D01*
X132990951Y-74656020D01*
X132991134Y-74656241D01*
X132985122Y-74661214D01*
X132939098Y-74710223D01*
X132936391Y-74713016D01*
X132916889Y-74732517D01*
X132916875Y-74732534D01*
X132914407Y-74735715D01*
X132906843Y-74744570D01*
X132876937Y-74776418D01*
X132876936Y-74776420D01*
X132867284Y-74793976D01*
X132856610Y-74810226D01*
X132844329Y-74826061D01*
X132844324Y-74826068D01*
X132826975Y-74866158D01*
X132821838Y-74876644D01*
X132800803Y-74914906D01*
X132795822Y-74934307D01*
X132789521Y-74952710D01*
X132781562Y-74971102D01*
X132781561Y-74971105D01*
X132774728Y-75014243D01*
X132772360Y-75025674D01*
X132761501Y-75067971D01*
X132761500Y-75067982D01*
X132761500Y-75088016D01*
X132759973Y-75107415D01*
X132756840Y-75127194D01*
X132756840Y-75127195D01*
X132760950Y-75170674D01*
X132761500Y-75182343D01*
X132761500Y-79456255D01*
X132759775Y-79471872D01*
X132760061Y-79471899D01*
X132759326Y-79479665D01*
X132761439Y-79546872D01*
X132761500Y-79550767D01*
X132761500Y-79578357D01*
X132762003Y-79582335D01*
X132762918Y-79593967D01*
X132764290Y-79637624D01*
X132764291Y-79637627D01*
X132769880Y-79656867D01*
X132773824Y-79675911D01*
X132776336Y-79695792D01*
X132792414Y-79736403D01*
X132796197Y-79747452D01*
X132808381Y-79789388D01*
X132818580Y-79806634D01*
X132827138Y-79824103D01*
X132834514Y-79842732D01*
X132860181Y-79878060D01*
X132866593Y-79887821D01*
X132888828Y-79925417D01*
X132888833Y-79925424D01*
X132902990Y-79939580D01*
X132915628Y-79954376D01*
X132927405Y-79970586D01*
X132927406Y-79970587D01*
X132961057Y-79998425D01*
X132969698Y-80006288D01*
X137929197Y-84965788D01*
X137939022Y-84978051D01*
X137939243Y-84977869D01*
X137944211Y-84983874D01*
X137993222Y-85029899D01*
X137996021Y-85032612D01*
X138015522Y-85052114D01*
X138015526Y-85052117D01*
X138015529Y-85052120D01*
X138018702Y-85054581D01*
X138027574Y-85062159D01*
X138059418Y-85092062D01*
X138076976Y-85101714D01*
X138093233Y-85112393D01*
X138109064Y-85124673D01*
X138138803Y-85137542D01*
X138149152Y-85142021D01*
X138159641Y-85147160D01*
X138183457Y-85160252D01*
X138197908Y-85168197D01*
X138210523Y-85171435D01*
X138217305Y-85173177D01*
X138235712Y-85179478D01*
X138254104Y-85187438D01*
X138254107Y-85187438D01*
X138257623Y-85188960D01*
X138300524Y-85219788D01*
X138332128Y-85254887D01*
X138332135Y-85254893D01*
X138485265Y-85366148D01*
X138485270Y-85366151D01*
X138658192Y-85443142D01*
X138658197Y-85443144D01*
X138843354Y-85482500D01*
X138843355Y-85482500D01*
X139032644Y-85482500D01*
X139032646Y-85482500D01*
X139217803Y-85443144D01*
X139390730Y-85366151D01*
X139543871Y-85254888D01*
X139670533Y-85114216D01*
X139765179Y-84950284D01*
X139823674Y-84770256D01*
X139843460Y-84582000D01*
X139823674Y-84393744D01*
X139765179Y-84213716D01*
X139670533Y-84049784D01*
X139543871Y-83909112D01*
X139543870Y-83909111D01*
X139390734Y-83797851D01*
X139390729Y-83797848D01*
X139217807Y-83720857D01*
X139217802Y-83720855D01*
X139072001Y-83689865D01*
X139032646Y-83681500D01*
X138843354Y-83681500D01*
X138803999Y-83689865D01*
X138658198Y-83720855D01*
X138658193Y-83720857D01*
X138594376Y-83749270D01*
X138525126Y-83758554D01*
X138461850Y-83728925D01*
X138456261Y-83723671D01*
X134048819Y-79316228D01*
X134015334Y-79254905D01*
X134012500Y-79228547D01*
X134012500Y-75955829D01*
X134032185Y-75888790D01*
X134084989Y-75843035D01*
X134154147Y-75833091D01*
X134217703Y-75862116D01*
X134254431Y-75917511D01*
X134300818Y-76060278D01*
X134300821Y-76060284D01*
X134395467Y-76224216D01*
X134432856Y-76265740D01*
X134470650Y-76307715D01*
X134500880Y-76370706D01*
X134502500Y-76390687D01*
X134502500Y-77641255D01*
X134500775Y-77656872D01*
X134501061Y-77656899D01*
X134500326Y-77664665D01*
X134502439Y-77731872D01*
X134502500Y-77735767D01*
X134502500Y-77763357D01*
X134503003Y-77767335D01*
X134503918Y-77778967D01*
X134505290Y-77822624D01*
X134505291Y-77822627D01*
X134510880Y-77841867D01*
X134514824Y-77860911D01*
X134517336Y-77880792D01*
X134533414Y-77921403D01*
X134537197Y-77932452D01*
X134549381Y-77974388D01*
X134559580Y-77991634D01*
X134568138Y-78009103D01*
X134575514Y-78027732D01*
X134601181Y-78063060D01*
X134607593Y-78072821D01*
X134629828Y-78110417D01*
X134629833Y-78110424D01*
X134643990Y-78124580D01*
X134656628Y-78139376D01*
X134668405Y-78155586D01*
X134668406Y-78155587D01*
X134702057Y-78183425D01*
X134710698Y-78191288D01*
X140308181Y-83788771D01*
X140341666Y-83850094D01*
X140344500Y-83876452D01*
X140344500Y-89471312D01*
X140324815Y-89538351D01*
X140312650Y-89554284D01*
X140237466Y-89637784D01*
X140142821Y-89801715D01*
X140142818Y-89801722D01*
X140096813Y-89943313D01*
X140084326Y-89981744D01*
X140064540Y-90170000D01*
X140084326Y-90358256D01*
X140084327Y-90358259D01*
X140142818Y-90538277D01*
X140142821Y-90538284D01*
X140237467Y-90702216D01*
X140345982Y-90822734D01*
X140364129Y-90842888D01*
X140517265Y-90954148D01*
X140517270Y-90954151D01*
X140690192Y-91031142D01*
X140690197Y-91031144D01*
X140875354Y-91070500D01*
X140875355Y-91070500D01*
X141064644Y-91070500D01*
X141064646Y-91070500D01*
X141249803Y-91031144D01*
X141422730Y-90954151D01*
X141575871Y-90842888D01*
X141702533Y-90702216D01*
X141797179Y-90538284D01*
X141855674Y-90358256D01*
X141875460Y-90170001D01*
X189804532Y-90170001D01*
X189824364Y-90396686D01*
X189824366Y-90396697D01*
X189883258Y-90616488D01*
X189883261Y-90616497D01*
X189979431Y-90822732D01*
X189979432Y-90822734D01*
X190109954Y-91009141D01*
X190270858Y-91170045D01*
X190270861Y-91170047D01*
X190457266Y-91300568D01*
X190663504Y-91396739D01*
X190883308Y-91455635D01*
X191045230Y-91469801D01*
X191109998Y-91475468D01*
X191110000Y-91475468D01*
X191110002Y-91475468D01*
X191166807Y-91470498D01*
X191336692Y-91455635D01*
X191556496Y-91396739D01*
X191762734Y-91300568D01*
X191949139Y-91170047D01*
X192110047Y-91009139D01*
X192240568Y-90822734D01*
X192336739Y-90616496D01*
X192395635Y-90396692D01*
X192415468Y-90170000D01*
X192395635Y-89943308D01*
X192336739Y-89723504D01*
X192240568Y-89517266D01*
X192110047Y-89330861D01*
X192110045Y-89330858D01*
X191949141Y-89169954D01*
X191762734Y-89039432D01*
X191762732Y-89039431D01*
X191556497Y-88943261D01*
X191556488Y-88943258D01*
X191336697Y-88884366D01*
X191336693Y-88884365D01*
X191336692Y-88884365D01*
X191336691Y-88884364D01*
X191336686Y-88884364D01*
X191110002Y-88864532D01*
X191109998Y-88864532D01*
X190883313Y-88884364D01*
X190883302Y-88884366D01*
X190663511Y-88943258D01*
X190663502Y-88943261D01*
X190457267Y-89039431D01*
X190457265Y-89039432D01*
X190270858Y-89169954D01*
X190109954Y-89330858D01*
X189979432Y-89517265D01*
X189979431Y-89517267D01*
X189883261Y-89723502D01*
X189883258Y-89723511D01*
X189824366Y-89943302D01*
X189824364Y-89943313D01*
X189804532Y-90169998D01*
X189804532Y-90170001D01*
X141875460Y-90170001D01*
X141875460Y-90170000D01*
X141855674Y-89981744D01*
X141797179Y-89801716D01*
X141702533Y-89637784D01*
X141681333Y-89614239D01*
X141627350Y-89554284D01*
X141597120Y-89491292D01*
X141595500Y-89471312D01*
X141595500Y-84264500D01*
X157273040Y-84264500D01*
X157292826Y-84452756D01*
X157292827Y-84452759D01*
X157351318Y-84632777D01*
X157351321Y-84632784D01*
X157445967Y-84796716D01*
X157554170Y-84916887D01*
X157572629Y-84937388D01*
X157725765Y-85048648D01*
X157725770Y-85048651D01*
X157898692Y-85125642D01*
X157898697Y-85125644D01*
X158083854Y-85165000D01*
X158143048Y-85165000D01*
X158210087Y-85184685D01*
X158230729Y-85201319D01*
X158757194Y-85727784D01*
X158767019Y-85740048D01*
X158767240Y-85739866D01*
X158772210Y-85745874D01*
X158821239Y-85791915D01*
X158824036Y-85794626D01*
X158843530Y-85814120D01*
X158846695Y-85816575D01*
X158855571Y-85824156D01*
X158887418Y-85854062D01*
X158887422Y-85854064D01*
X158904973Y-85863713D01*
X158921231Y-85874392D01*
X158937064Y-85886674D01*
X158972410Y-85901968D01*
X158977155Y-85904022D01*
X158987635Y-85909155D01*
X159025908Y-85930197D01*
X159045312Y-85935179D01*
X159063710Y-85941478D01*
X159082105Y-85949438D01*
X159125254Y-85956271D01*
X159136680Y-85958638D01*
X159178981Y-85969500D01*
X159199016Y-85969500D01*
X159218413Y-85971026D01*
X159238196Y-85974160D01*
X159281675Y-85970050D01*
X159293344Y-85969500D01*
X190128784Y-85969500D01*
X190195823Y-85989185D01*
X190213671Y-86003111D01*
X190216431Y-86005703D01*
X190219227Y-86008413D01*
X190238727Y-86027914D01*
X190238731Y-86027917D01*
X190238734Y-86027920D01*
X190241907Y-86030381D01*
X190250779Y-86037959D01*
X190282623Y-86067862D01*
X190300181Y-86077514D01*
X190316438Y-86088193D01*
X190332269Y-86100473D01*
X190362008Y-86113342D01*
X190372357Y-86117821D01*
X190382846Y-86122960D01*
X190406662Y-86136052D01*
X190421113Y-86143997D01*
X190433728Y-86147235D01*
X190440510Y-86148977D01*
X190458924Y-86155281D01*
X190477309Y-86163238D01*
X190520466Y-86170073D01*
X190531861Y-86172432D01*
X190574186Y-86183300D01*
X190594221Y-86183300D01*
X190613618Y-86184826D01*
X190633401Y-86187960D01*
X190676880Y-86183850D01*
X190688549Y-86183300D01*
X191484055Y-86183300D01*
X191499671Y-86185023D01*
X191499699Y-86184738D01*
X191507460Y-86185472D01*
X191507460Y-86185471D01*
X191507461Y-86185472D01*
X191574662Y-86183360D01*
X191578555Y-86183300D01*
X191606148Y-86183300D01*
X191606148Y-86183299D01*
X191608268Y-86183031D01*
X191610111Y-86182799D01*
X191621768Y-86181880D01*
X191665421Y-86180510D01*
X191665424Y-86180508D01*
X191666567Y-86180473D01*
X191734191Y-86198043D01*
X191758141Y-86216731D01*
X192101038Y-86559628D01*
X192134523Y-86620951D01*
X192136678Y-86634347D01*
X192144139Y-86705338D01*
X192154326Y-86802256D01*
X192154327Y-86802259D01*
X192212818Y-86982277D01*
X192212821Y-86982284D01*
X192307467Y-87146216D01*
X192434129Y-87286888D01*
X192587265Y-87398148D01*
X192587270Y-87398151D01*
X192760192Y-87475142D01*
X192760197Y-87475144D01*
X192945354Y-87514500D01*
X192945355Y-87514500D01*
X193134644Y-87514500D01*
X193134646Y-87514500D01*
X193319803Y-87475144D01*
X193492730Y-87398151D01*
X193645871Y-87286888D01*
X193772533Y-87146216D01*
X193867179Y-86982284D01*
X193925674Y-86802256D01*
X193945460Y-86614000D01*
X193925674Y-86425744D01*
X193867179Y-86245716D01*
X193772533Y-86081784D01*
X193645871Y-85941112D01*
X193601897Y-85909163D01*
X193492734Y-85829851D01*
X193492729Y-85829848D01*
X193319807Y-85752857D01*
X193319802Y-85752855D01*
X193174001Y-85721865D01*
X193134646Y-85713500D01*
X193134645Y-85713500D01*
X193075452Y-85713500D01*
X193008413Y-85693815D01*
X192987771Y-85677181D01*
X192613461Y-85302870D01*
X197429500Y-85302870D01*
X197429501Y-85302876D01*
X197435908Y-85362483D01*
X197486202Y-85497328D01*
X197486206Y-85497335D01*
X197572452Y-85612544D01*
X197572455Y-85612547D01*
X197687664Y-85698793D01*
X197687671Y-85698797D01*
X197822517Y-85749091D01*
X197822516Y-85749091D01*
X197829444Y-85749835D01*
X197882127Y-85755500D01*
X199577872Y-85755499D01*
X199637483Y-85749091D01*
X199772331Y-85698796D01*
X199887546Y-85612546D01*
X199973796Y-85497331D01*
X200024091Y-85362483D01*
X200030500Y-85302873D01*
X200030499Y-83607128D01*
X200024091Y-83547517D01*
X200016310Y-83526656D01*
X199973797Y-83412671D01*
X199973793Y-83412664D01*
X199887547Y-83297455D01*
X199887544Y-83297452D01*
X199772335Y-83211206D01*
X199772328Y-83211202D01*
X199637482Y-83160908D01*
X199637483Y-83160908D01*
X199577883Y-83154501D01*
X199577881Y-83154500D01*
X199577873Y-83154500D01*
X199577864Y-83154500D01*
X197882129Y-83154500D01*
X197882123Y-83154501D01*
X197822516Y-83160908D01*
X197687671Y-83211202D01*
X197687664Y-83211206D01*
X197572455Y-83297452D01*
X197572452Y-83297455D01*
X197486206Y-83412664D01*
X197486202Y-83412671D01*
X197435908Y-83547517D01*
X197431168Y-83591611D01*
X197429501Y-83607123D01*
X197429500Y-83607135D01*
X197429500Y-85302870D01*
X192613461Y-85302870D01*
X192358493Y-85047902D01*
X192325008Y-84986579D01*
X192329992Y-84916887D01*
X192333793Y-84907814D01*
X192336739Y-84901495D01*
X192339451Y-84891375D01*
X192395635Y-84681692D01*
X192415468Y-84455000D01*
X192414045Y-84438740D01*
X192403558Y-84318869D01*
X192395635Y-84228308D01*
X192336739Y-84008504D01*
X192240568Y-83802266D01*
X192110047Y-83615861D01*
X192110045Y-83615858D01*
X191949141Y-83454954D01*
X191762734Y-83324432D01*
X191762732Y-83324431D01*
X191556497Y-83228261D01*
X191556488Y-83228258D01*
X191336697Y-83169366D01*
X191336693Y-83169365D01*
X191336692Y-83169365D01*
X191336691Y-83169364D01*
X191336686Y-83169364D01*
X191110002Y-83149532D01*
X191109998Y-83149532D01*
X190883313Y-83169364D01*
X190883302Y-83169366D01*
X190663511Y-83228258D01*
X190663502Y-83228261D01*
X190457267Y-83324431D01*
X190457265Y-83324432D01*
X190270858Y-83454954D01*
X190109954Y-83615858D01*
X189979432Y-83802265D01*
X189979431Y-83802267D01*
X189883261Y-84008502D01*
X189883258Y-84008511D01*
X189824366Y-84228302D01*
X189824364Y-84228313D01*
X189804532Y-84454998D01*
X189804532Y-84455001D01*
X189815791Y-84583693D01*
X189802024Y-84652193D01*
X189753409Y-84702376D01*
X189692263Y-84718500D01*
X159568452Y-84718500D01*
X159501413Y-84698815D01*
X159480771Y-84682181D01*
X159117460Y-84318869D01*
X159083975Y-84257546D01*
X159081823Y-84244168D01*
X159064174Y-84076244D01*
X159005679Y-83896216D01*
X158911033Y-83732284D01*
X158784371Y-83591612D01*
X158784370Y-83591611D01*
X158631234Y-83480351D01*
X158631229Y-83480348D01*
X158458307Y-83403357D01*
X158458302Y-83403355D01*
X158294787Y-83368600D01*
X158273146Y-83364000D01*
X158083854Y-83364000D01*
X158062213Y-83368600D01*
X157898697Y-83403355D01*
X157898692Y-83403357D01*
X157725770Y-83480348D01*
X157725765Y-83480351D01*
X157572629Y-83591611D01*
X157445966Y-83732285D01*
X157351321Y-83896215D01*
X157351318Y-83896222D01*
X157302606Y-84046144D01*
X157292826Y-84076244D01*
X157273040Y-84264500D01*
X141595500Y-84264500D01*
X141595500Y-83648742D01*
X141597224Y-83633122D01*
X141596939Y-83633095D01*
X141597673Y-83625333D01*
X141595561Y-83558112D01*
X141595500Y-83554218D01*
X141595500Y-83526656D01*
X141595500Y-83526650D01*
X141594996Y-83522668D01*
X141594081Y-83511029D01*
X141592710Y-83467373D01*
X141587119Y-83448130D01*
X141583173Y-83429078D01*
X141580664Y-83409208D01*
X141564579Y-83368583D01*
X141560806Y-83357562D01*
X141548618Y-83315610D01*
X141548617Y-83315609D01*
X141548617Y-83315607D01*
X141548616Y-83315606D01*
X141538423Y-83298371D01*
X141529861Y-83280894D01*
X141522487Y-83262269D01*
X141496816Y-83226937D01*
X141490405Y-83217177D01*
X141468170Y-83179580D01*
X141468168Y-83179578D01*
X141468165Y-83179574D01*
X141454006Y-83165415D01*
X141441368Y-83150619D01*
X141429594Y-83134413D01*
X141395940Y-83106572D01*
X141387299Y-83098709D01*
X137610701Y-79322110D01*
X164215120Y-79322110D01*
X164215121Y-79322116D01*
X164221528Y-79381723D01*
X164271822Y-79516568D01*
X164271826Y-79516575D01*
X164358072Y-79631784D01*
X164358075Y-79631787D01*
X164473284Y-79718033D01*
X164473291Y-79718037D01*
X164608137Y-79768331D01*
X164608136Y-79768331D01*
X164615064Y-79769075D01*
X164667747Y-79774740D01*
X166563492Y-79774739D01*
X166623103Y-79768331D01*
X166757951Y-79718036D01*
X166873166Y-79631786D01*
X166959416Y-79516571D01*
X167009711Y-79381723D01*
X167016120Y-79322113D01*
X167016120Y-78867000D01*
X184514540Y-78867000D01*
X184534326Y-79055256D01*
X184534327Y-79055259D01*
X184592818Y-79235277D01*
X184592821Y-79235284D01*
X184687467Y-79399216D01*
X184730772Y-79447310D01*
X184762650Y-79482715D01*
X184792880Y-79545706D01*
X184794500Y-79565687D01*
X184794500Y-82654141D01*
X184777887Y-82716141D01*
X184719821Y-82816714D01*
X184661327Y-82996740D01*
X184661326Y-82996744D01*
X184641540Y-83185000D01*
X184661326Y-83373256D01*
X184661327Y-83373259D01*
X184719818Y-83553277D01*
X184719821Y-83553284D01*
X184814467Y-83717216D01*
X184934111Y-83850094D01*
X184941129Y-83857888D01*
X185094265Y-83969148D01*
X185094270Y-83969151D01*
X185267192Y-84046142D01*
X185267197Y-84046144D01*
X185452354Y-84085500D01*
X185452355Y-84085500D01*
X185641644Y-84085500D01*
X185641646Y-84085500D01*
X185826803Y-84046144D01*
X185999730Y-83969151D01*
X186152871Y-83857888D01*
X186279533Y-83717216D01*
X186374179Y-83553284D01*
X186432674Y-83373256D01*
X186452460Y-83185000D01*
X186432674Y-82996744D01*
X186374179Y-82816716D01*
X186279533Y-82652784D01*
X186215305Y-82581452D01*
X186152876Y-82512116D01*
X186152871Y-82512112D01*
X186096613Y-82471237D01*
X186053948Y-82415906D01*
X186045500Y-82370920D01*
X186045500Y-79565687D01*
X186065185Y-79498648D01*
X186077350Y-79482715D01*
X186096510Y-79461435D01*
X186152533Y-79399216D01*
X186247179Y-79235284D01*
X186305674Y-79055256D01*
X186318918Y-78929244D01*
X219055071Y-78929244D01*
X219075236Y-79198341D01*
X219135284Y-79461428D01*
X219135286Y-79461435D01*
X219233876Y-79712636D01*
X219233878Y-79712640D01*
X219236994Y-79718037D01*
X219368805Y-79946342D01*
X219416611Y-80006288D01*
X219537062Y-80157329D01*
X219723803Y-80330598D01*
X219734879Y-80340875D01*
X219957846Y-80492891D01*
X220200979Y-80609978D01*
X220458848Y-80689520D01*
X220458849Y-80689520D01*
X220458852Y-80689521D01*
X220725683Y-80729739D01*
X220725688Y-80729739D01*
X220725691Y-80729740D01*
X220725692Y-80729740D01*
X220995548Y-80729740D01*
X220995549Y-80729740D01*
X220995556Y-80729739D01*
X221262387Y-80689521D01*
X221262388Y-80689520D01*
X221262392Y-80689520D01*
X221520261Y-80609978D01*
X221763395Y-80492891D01*
X221986361Y-80340875D01*
X222184181Y-80157325D01*
X222352435Y-79946342D01*
X222487363Y-79712638D01*
X222585954Y-79461435D01*
X222646003Y-79198343D01*
X222666169Y-78929240D01*
X222646003Y-78660137D01*
X222585954Y-78397045D01*
X222487363Y-78145842D01*
X222352435Y-77912138D01*
X222184181Y-77701155D01*
X222184180Y-77701154D01*
X222184177Y-77701150D01*
X221986361Y-77517605D01*
X221852551Y-77426375D01*
X221763395Y-77365589D01*
X221763389Y-77365586D01*
X221763388Y-77365585D01*
X221763387Y-77365584D01*
X221520263Y-77248503D01*
X221520265Y-77248503D01*
X221262393Y-77168960D01*
X221262387Y-77168958D01*
X220995556Y-77128740D01*
X220995549Y-77128740D01*
X220725691Y-77128740D01*
X220725683Y-77128740D01*
X220458852Y-77168958D01*
X220458846Y-77168960D01*
X220200978Y-77248502D01*
X219957850Y-77365586D01*
X219734878Y-77517605D01*
X219537062Y-77701150D01*
X219368805Y-77912138D01*
X219233878Y-78145839D01*
X219233876Y-78145843D01*
X219135286Y-78397044D01*
X219135284Y-78397051D01*
X219075236Y-78660138D01*
X219055071Y-78929235D01*
X219055071Y-78929244D01*
X186318918Y-78929244D01*
X186325460Y-78867000D01*
X186305674Y-78678744D01*
X186247179Y-78498716D01*
X186152533Y-78334784D01*
X186025871Y-78194112D01*
X186021984Y-78191288D01*
X185872734Y-78082851D01*
X185872729Y-78082848D01*
X185699807Y-78005857D01*
X185699802Y-78005855D01*
X185551756Y-77974388D01*
X185514646Y-77966500D01*
X185325354Y-77966500D01*
X185292897Y-77973398D01*
X185140197Y-78005855D01*
X185140192Y-78005857D01*
X184967270Y-78082848D01*
X184967265Y-78082851D01*
X184814129Y-78194111D01*
X184687466Y-78334785D01*
X184592821Y-78498715D01*
X184592818Y-78498722D01*
X184540371Y-78660138D01*
X184534326Y-78678744D01*
X184514540Y-78867000D01*
X167016120Y-78867000D01*
X167016119Y-77426368D01*
X167009711Y-77366757D01*
X167009275Y-77365589D01*
X166959417Y-77231911D01*
X166959413Y-77231904D01*
X166873167Y-77116695D01*
X166873164Y-77116692D01*
X166757955Y-77030446D01*
X166757948Y-77030442D01*
X166623102Y-76980148D01*
X166623103Y-76980148D01*
X166563503Y-76973741D01*
X166563501Y-76973740D01*
X166563493Y-76973740D01*
X166563484Y-76973740D01*
X164667749Y-76973740D01*
X164667743Y-76973741D01*
X164608136Y-76980148D01*
X164473291Y-77030442D01*
X164473284Y-77030446D01*
X164358075Y-77116692D01*
X164358072Y-77116695D01*
X164271826Y-77231904D01*
X164271822Y-77231911D01*
X164221528Y-77366757D01*
X164216498Y-77413547D01*
X164215121Y-77426363D01*
X164215120Y-77426375D01*
X164215120Y-79322110D01*
X137610701Y-79322110D01*
X135789819Y-77501228D01*
X135756334Y-77439905D01*
X135753500Y-77413547D01*
X135753500Y-76390687D01*
X135773185Y-76323648D01*
X135785350Y-76307715D01*
X135803891Y-76287122D01*
X135860533Y-76224216D01*
X135955179Y-76060284D01*
X136013674Y-75880256D01*
X136033460Y-75692000D01*
X136013674Y-75503744D01*
X135955179Y-75323716D01*
X135860533Y-75159784D01*
X135733871Y-75019112D01*
X135733870Y-75019111D01*
X135580734Y-74907851D01*
X135580729Y-74907848D01*
X135407807Y-74830857D01*
X135407802Y-74830855D01*
X135232098Y-74793509D01*
X135170616Y-74760317D01*
X135136840Y-74699154D01*
X135141492Y-74629439D01*
X135150489Y-74610225D01*
X135193179Y-74536284D01*
X135251674Y-74356256D01*
X135271460Y-74168000D01*
X135258160Y-74041459D01*
X135270730Y-73972732D01*
X135318462Y-73921708D01*
X135381481Y-73904500D01*
X140774252Y-73904500D01*
X140841291Y-73924185D01*
X140866400Y-73945526D01*
X140872126Y-73951885D01*
X140872130Y-73951889D01*
X141025265Y-74063148D01*
X141025270Y-74063151D01*
X141198192Y-74140142D01*
X141198197Y-74140144D01*
X141383354Y-74179500D01*
X141442548Y-74179500D01*
X141509587Y-74199185D01*
X141530229Y-74215819D01*
X143517197Y-76202788D01*
X143527022Y-76215051D01*
X143527243Y-76214869D01*
X143532211Y-76220874D01*
X143581222Y-76266899D01*
X143584021Y-76269612D01*
X143603522Y-76289114D01*
X143603526Y-76289117D01*
X143603529Y-76289120D01*
X143606702Y-76291581D01*
X143615574Y-76299159D01*
X143647418Y-76329062D01*
X143664976Y-76338714D01*
X143681235Y-76349395D01*
X143697064Y-76361673D01*
X143737155Y-76379021D01*
X143747626Y-76384151D01*
X143759515Y-76390687D01*
X143785902Y-76405194D01*
X143785904Y-76405195D01*
X143785908Y-76405197D01*
X143805316Y-76410180D01*
X143823719Y-76416481D01*
X143842101Y-76424436D01*
X143842102Y-76424436D01*
X143842104Y-76424437D01*
X143885250Y-76431270D01*
X143896672Y-76433636D01*
X143938981Y-76444500D01*
X143959016Y-76444500D01*
X143978414Y-76446026D01*
X143998194Y-76449159D01*
X143998195Y-76449160D01*
X143998195Y-76449159D01*
X143998196Y-76449160D01*
X144041675Y-76445050D01*
X144053344Y-76444500D01*
X152458252Y-76444500D01*
X152525291Y-76464185D01*
X152550400Y-76485526D01*
X152556126Y-76491885D01*
X152556130Y-76491889D01*
X152709265Y-76603148D01*
X152709270Y-76603151D01*
X152882192Y-76680142D01*
X152882197Y-76680144D01*
X153067354Y-76719500D01*
X153067355Y-76719500D01*
X153256644Y-76719500D01*
X153256646Y-76719500D01*
X153441803Y-76680144D01*
X153614730Y-76603151D01*
X153767871Y-76491888D01*
X153894533Y-76351216D01*
X153989179Y-76187284D01*
X154047674Y-76007256D01*
X154067460Y-75819000D01*
X154047674Y-75630744D01*
X153989179Y-75450716D01*
X153894533Y-75286784D01*
X153767871Y-75146112D01*
X153767870Y-75146111D01*
X153614734Y-75034851D01*
X153614729Y-75034848D01*
X153441807Y-74957857D01*
X153441802Y-74957855D01*
X153278033Y-74923046D01*
X153256646Y-74918500D01*
X153067354Y-74918500D01*
X153045967Y-74923046D01*
X152882197Y-74957855D01*
X152882192Y-74957857D01*
X152709270Y-75034848D01*
X152709265Y-75034851D01*
X152556130Y-75146110D01*
X152556126Y-75146114D01*
X152550400Y-75152474D01*
X152490913Y-75189121D01*
X152458252Y-75193500D01*
X144328453Y-75193500D01*
X144261414Y-75173815D01*
X144240772Y-75157181D01*
X142416960Y-73333369D01*
X142395597Y-73294246D01*
X164210320Y-73294246D01*
X164229484Y-73525537D01*
X164229486Y-73525548D01*
X164286462Y-73750540D01*
X164379695Y-73963088D01*
X164506636Y-74157387D01*
X164506639Y-74157391D01*
X164506641Y-74157393D01*
X164663836Y-74328153D01*
X164663839Y-74328155D01*
X164663842Y-74328158D01*
X164846985Y-74470704D01*
X164846991Y-74470708D01*
X164846994Y-74470710D01*
X165051117Y-74581176D01*
X165165107Y-74620308D01*
X165270635Y-74656537D01*
X165270637Y-74656537D01*
X165270639Y-74656538D01*
X165499571Y-74694740D01*
X165499572Y-74694740D01*
X165731668Y-74694740D01*
X165731669Y-74694740D01*
X165960601Y-74656538D01*
X166180123Y-74581176D01*
X166384246Y-74470710D01*
X166567404Y-74328153D01*
X166724599Y-74157393D01*
X166851544Y-73963089D01*
X166944777Y-73750540D01*
X167001754Y-73525545D01*
X167017678Y-73333369D01*
X167020920Y-73294246D01*
X167020920Y-73294233D01*
X167001755Y-73062942D01*
X167001753Y-73062931D01*
X166944777Y-72837939D01*
X166851544Y-72625391D01*
X166724603Y-72431092D01*
X166724600Y-72431089D01*
X166724599Y-72431087D01*
X166567404Y-72260327D01*
X166567399Y-72260323D01*
X166567397Y-72260321D01*
X166384254Y-72117775D01*
X166384248Y-72117771D01*
X166180124Y-72007304D01*
X166180115Y-72007301D01*
X165960604Y-71931942D01*
X165788902Y-71903290D01*
X165731669Y-71893740D01*
X165499571Y-71893740D01*
X165453784Y-71901380D01*
X165270635Y-71931942D01*
X165051124Y-72007301D01*
X165051115Y-72007304D01*
X164846991Y-72117771D01*
X164846985Y-72117775D01*
X164663842Y-72260321D01*
X164663839Y-72260324D01*
X164506636Y-72431092D01*
X164379695Y-72625391D01*
X164286462Y-72837939D01*
X164229486Y-73062931D01*
X164229484Y-73062942D01*
X164210320Y-73294233D01*
X164210320Y-73294246D01*
X142395597Y-73294246D01*
X142383475Y-73272046D01*
X142381323Y-73258668D01*
X142363674Y-73090744D01*
X142305179Y-72910716D01*
X142210533Y-72746784D01*
X142083871Y-72606112D01*
X142083870Y-72606111D01*
X141930734Y-72494851D01*
X141930729Y-72494848D01*
X141757807Y-72417857D01*
X141757802Y-72417855D01*
X141612001Y-72386865D01*
X141572646Y-72378500D01*
X141383354Y-72378500D01*
X141350897Y-72385398D01*
X141198197Y-72417855D01*
X141198192Y-72417857D01*
X141025270Y-72494848D01*
X141025265Y-72494851D01*
X140872130Y-72606110D01*
X140872126Y-72606114D01*
X140866400Y-72612474D01*
X140806913Y-72649121D01*
X140774252Y-72653500D01*
X130866452Y-72653500D01*
X130799413Y-72633815D01*
X130778771Y-72617181D01*
X129154591Y-70993000D01*
X190483540Y-70993000D01*
X190503326Y-71181256D01*
X190503327Y-71181259D01*
X190561818Y-71361277D01*
X190561821Y-71361284D01*
X190656467Y-71525216D01*
X190783129Y-71665888D01*
X190783133Y-71665891D01*
X190839384Y-71706759D01*
X190882050Y-71762088D01*
X190890500Y-71807078D01*
X190890500Y-75755312D01*
X190870815Y-75822351D01*
X190858650Y-75838284D01*
X190783466Y-75921784D01*
X190688821Y-76085715D01*
X190688818Y-76085722D01*
X190647636Y-76212469D01*
X190630326Y-76265744D01*
X190610540Y-76454000D01*
X190630326Y-76642256D01*
X190630327Y-76642259D01*
X190688818Y-76822277D01*
X190688821Y-76822284D01*
X190783467Y-76986216D01*
X190900950Y-77116694D01*
X190910129Y-77126888D01*
X191063265Y-77238148D01*
X191063270Y-77238151D01*
X191236192Y-77315142D01*
X191236197Y-77315144D01*
X191421354Y-77354500D01*
X191421355Y-77354500D01*
X191610644Y-77354500D01*
X191610646Y-77354500D01*
X191795803Y-77315144D01*
X191968730Y-77238151D01*
X192121871Y-77126888D01*
X192248533Y-76986216D01*
X192343179Y-76822284D01*
X192401674Y-76642256D01*
X192421460Y-76454000D01*
X192401674Y-76265744D01*
X192343179Y-76085716D01*
X192248533Y-75921784D01*
X192211141Y-75880256D01*
X192173350Y-75838284D01*
X192143120Y-75775292D01*
X192141500Y-75755312D01*
X192141500Y-75277110D01*
X219060120Y-75277110D01*
X219060121Y-75277116D01*
X219066528Y-75336723D01*
X219116822Y-75471568D01*
X219116826Y-75471575D01*
X219203072Y-75586784D01*
X219203075Y-75586787D01*
X219318284Y-75673033D01*
X219318291Y-75673037D01*
X219453137Y-75723331D01*
X219453136Y-75723331D01*
X219460064Y-75724075D01*
X219512747Y-75729740D01*
X222208492Y-75729739D01*
X222268103Y-75723331D01*
X222402951Y-75673036D01*
X222518166Y-75586786D01*
X222604416Y-75471571D01*
X222654711Y-75336723D01*
X222661120Y-75277113D01*
X222661119Y-72581368D01*
X222654711Y-72521757D01*
X222620893Y-72431087D01*
X222604417Y-72386911D01*
X222604413Y-72386904D01*
X222518167Y-72271695D01*
X222518164Y-72271692D01*
X222402955Y-72185446D01*
X222402948Y-72185442D01*
X222268102Y-72135148D01*
X222268103Y-72135148D01*
X222208503Y-72128741D01*
X222208501Y-72128740D01*
X222208493Y-72128740D01*
X222208484Y-72128740D01*
X219512749Y-72128740D01*
X219512743Y-72128741D01*
X219453136Y-72135148D01*
X219318291Y-72185442D01*
X219318284Y-72185446D01*
X219203075Y-72271692D01*
X219203072Y-72271695D01*
X219116826Y-72386904D01*
X219116822Y-72386911D01*
X219066528Y-72521757D01*
X219060121Y-72581356D01*
X219060121Y-72581363D01*
X219060120Y-72581375D01*
X219060120Y-75277110D01*
X192141500Y-75277110D01*
X192141500Y-71523857D01*
X192158113Y-71461857D01*
X192216179Y-71361284D01*
X192274674Y-71181256D01*
X192294460Y-70993000D01*
X192274674Y-70804744D01*
X192216179Y-70624716D01*
X192121533Y-70460784D01*
X191994871Y-70320112D01*
X191994870Y-70320111D01*
X191841734Y-70208851D01*
X191841729Y-70208848D01*
X191668807Y-70131857D01*
X191668802Y-70131855D01*
X191523001Y-70100865D01*
X191483646Y-70092500D01*
X191294354Y-70092500D01*
X191261897Y-70099398D01*
X191109197Y-70131855D01*
X191109192Y-70131857D01*
X190936270Y-70208848D01*
X190936265Y-70208851D01*
X190783129Y-70320111D01*
X190656466Y-70460785D01*
X190561821Y-70624715D01*
X190561818Y-70624722D01*
X190528819Y-70726284D01*
X190503326Y-70804744D01*
X190483540Y-70993000D01*
X129154591Y-70993000D01*
X128573960Y-70412369D01*
X128540475Y-70351046D01*
X128538323Y-70337668D01*
X128520674Y-70169744D01*
X128462179Y-69989716D01*
X128367533Y-69825784D01*
X128240871Y-69685112D01*
X128240870Y-69685111D01*
X128087734Y-69573851D01*
X128087729Y-69573848D01*
X127914807Y-69496857D01*
X127914802Y-69496855D01*
X127769001Y-69465865D01*
X127729646Y-69457500D01*
X127540354Y-69457500D01*
X127507897Y-69464398D01*
X127355197Y-69496855D01*
X127355192Y-69496857D01*
X127182270Y-69573848D01*
X127182265Y-69573851D01*
X127029130Y-69685110D01*
X127029126Y-69685114D01*
X127023400Y-69691474D01*
X126963913Y-69728121D01*
X126931252Y-69732500D01*
X124274748Y-69732500D01*
X124207709Y-69712815D01*
X124182600Y-69691474D01*
X124176873Y-69685114D01*
X124176869Y-69685110D01*
X124023734Y-69573851D01*
X124023729Y-69573848D01*
X123850807Y-69496857D01*
X123850802Y-69496855D01*
X123705001Y-69465865D01*
X123665646Y-69457500D01*
X123476354Y-69457500D01*
X123443897Y-69464398D01*
X123291197Y-69496855D01*
X123291192Y-69496857D01*
X123118270Y-69573848D01*
X123118265Y-69573851D01*
X122965129Y-69685111D01*
X122838466Y-69825785D01*
X122743821Y-69989715D01*
X122743818Y-69989722D01*
X122697636Y-70131857D01*
X122685326Y-70169744D01*
X122665540Y-70358000D01*
X99096421Y-70358000D01*
X99084151Y-63769245D01*
X103023936Y-63769245D01*
X103043690Y-64083244D01*
X103043691Y-64083251D01*
X103102650Y-64392323D01*
X103199877Y-64691556D01*
X103199879Y-64691561D01*
X103333841Y-64976243D01*
X103333844Y-64976249D01*
X103502431Y-65241901D01*
X103502434Y-65241905D01*
X103702986Y-65484330D01*
X103702988Y-65484332D01*
X103932348Y-65699716D01*
X103932358Y-65699724D01*
X104186884Y-65884648D01*
X104186889Y-65884650D01*
X104186896Y-65884656D01*
X104462614Y-66036234D01*
X104462619Y-66036236D01*
X104462621Y-66036237D01*
X104462622Y-66036238D01*
X104755151Y-66152058D01*
X104755154Y-66152059D01*
X104974982Y-66208501D01*
X105059907Y-66230306D01*
X105125390Y-66238578D01*
X105372050Y-66269739D01*
X105372059Y-66269739D01*
X105372062Y-66269740D01*
X105372064Y-66269740D01*
X105686696Y-66269740D01*
X105686698Y-66269740D01*
X105686701Y-66269739D01*
X105686709Y-66269739D01*
X105872973Y-66246208D01*
X105998853Y-66230306D01*
X106303605Y-66152059D01*
X106327587Y-66142564D01*
X106596137Y-66036238D01*
X106596138Y-66036237D01*
X106596136Y-66036237D01*
X106596146Y-66036234D01*
X106871864Y-65884656D01*
X107126410Y-65699718D01*
X107355770Y-65484334D01*
X107556327Y-65241903D01*
X107564189Y-65229515D01*
X111629500Y-65229515D01*
X111644652Y-65407536D01*
X111704724Y-65638248D01*
X111802919Y-65855480D01*
X111802924Y-65855488D01*
X111936413Y-66052993D01*
X111936418Y-66052998D01*
X111936421Y-66053003D01*
X112101379Y-66225118D01*
X112293053Y-66366879D01*
X112505926Y-66474207D01*
X112733877Y-66544016D01*
X112970346Y-66574298D01*
X113208532Y-66564180D01*
X113441581Y-66513954D01*
X113662790Y-66425064D01*
X113865795Y-66300069D01*
X114044755Y-66142564D01*
X114194523Y-65957080D01*
X114194529Y-65957070D01*
X114197472Y-65952717D01*
X114198357Y-65953315D01*
X114244401Y-65908144D01*
X114312813Y-65893945D01*
X114378041Y-65918987D01*
X114405520Y-65948102D01*
X114476413Y-66052993D01*
X114476418Y-66052998D01*
X114476421Y-66053003D01*
X114641379Y-66225118D01*
X114833053Y-66366879D01*
X115045926Y-66474207D01*
X115273877Y-66544016D01*
X115510346Y-66574298D01*
X115748532Y-66564180D01*
X115981581Y-66513954D01*
X116202790Y-66425064D01*
X116405795Y-66300069D01*
X116584755Y-66142564D01*
X116734523Y-65957080D01*
X116734529Y-65957070D01*
X116737472Y-65952717D01*
X116738357Y-65953315D01*
X116784401Y-65908144D01*
X116852813Y-65893945D01*
X116918041Y-65918987D01*
X116945520Y-65948102D01*
X117016413Y-66052993D01*
X117016418Y-66052998D01*
X117016421Y-66053003D01*
X117181379Y-66225118D01*
X117373053Y-66366879D01*
X117585926Y-66474207D01*
X117813877Y-66544016D01*
X118050346Y-66574298D01*
X118288532Y-66564180D01*
X118521581Y-66513954D01*
X118742790Y-66425064D01*
X118945795Y-66300069D01*
X119124755Y-66142564D01*
X119274523Y-65957080D01*
X119274529Y-65957070D01*
X119277472Y-65952717D01*
X119278357Y-65953315D01*
X119324401Y-65908144D01*
X119392813Y-65893945D01*
X119458041Y-65918987D01*
X119485520Y-65948102D01*
X119556413Y-66052993D01*
X119556418Y-66052998D01*
X119556421Y-66053003D01*
X119721379Y-66225118D01*
X119913053Y-66366879D01*
X120125926Y-66474207D01*
X120353877Y-66544016D01*
X120590346Y-66574298D01*
X120828532Y-66564180D01*
X121061581Y-66513954D01*
X121282790Y-66425064D01*
X121485795Y-66300069D01*
X121664755Y-66142564D01*
X121814523Y-65957080D01*
X121814529Y-65957070D01*
X121817472Y-65952717D01*
X121818357Y-65953315D01*
X121864401Y-65908144D01*
X121932813Y-65893945D01*
X121998041Y-65918987D01*
X122025520Y-65948102D01*
X122096413Y-66052993D01*
X122096418Y-66052998D01*
X122096421Y-66053003D01*
X122261379Y-66225118D01*
X122453053Y-66366879D01*
X122665926Y-66474207D01*
X122893877Y-66544016D01*
X123130346Y-66574298D01*
X123368532Y-66564180D01*
X123601581Y-66513954D01*
X123822790Y-66425064D01*
X124025795Y-66300069D01*
X124204755Y-66142564D01*
X124354523Y-65957080D01*
X124354529Y-65957070D01*
X124357472Y-65952717D01*
X124358357Y-65953315D01*
X124404401Y-65908144D01*
X124472813Y-65893945D01*
X124538041Y-65918987D01*
X124565520Y-65948102D01*
X124636413Y-66052993D01*
X124636418Y-66052998D01*
X124636421Y-66053003D01*
X124801379Y-66225118D01*
X124993053Y-66366879D01*
X125205926Y-66474207D01*
X125433877Y-66544016D01*
X125670346Y-66574298D01*
X125908532Y-66564180D01*
X126141581Y-66513954D01*
X126362790Y-66425064D01*
X126565795Y-66300069D01*
X126744755Y-66142564D01*
X126894523Y-65957080D01*
X126894529Y-65957070D01*
X126897472Y-65952717D01*
X126898357Y-65953315D01*
X126944401Y-65908144D01*
X127012813Y-65893945D01*
X127078041Y-65918987D01*
X127105520Y-65948102D01*
X127176413Y-66052993D01*
X127176418Y-66052998D01*
X127176421Y-66053003D01*
X127341379Y-66225118D01*
X127533053Y-66366879D01*
X127745926Y-66474207D01*
X127973877Y-66544016D01*
X128210346Y-66574298D01*
X128448532Y-66564180D01*
X128681581Y-66513954D01*
X128902790Y-66425064D01*
X129105795Y-66300069D01*
X129284755Y-66142564D01*
X129434523Y-65957080D01*
X129434529Y-65957070D01*
X129437472Y-65952717D01*
X129438357Y-65953315D01*
X129484401Y-65908144D01*
X129552813Y-65893945D01*
X129618041Y-65918987D01*
X129645520Y-65948102D01*
X129716413Y-66052993D01*
X129716418Y-66052998D01*
X129716421Y-66053003D01*
X129881379Y-66225118D01*
X130073053Y-66366879D01*
X130285926Y-66474207D01*
X130513877Y-66544016D01*
X130750346Y-66574298D01*
X130988532Y-66564180D01*
X131221581Y-66513954D01*
X131442790Y-66425064D01*
X131645795Y-66300069D01*
X131824755Y-66142564D01*
X131974523Y-65957080D01*
X131974529Y-65957070D01*
X131977472Y-65952717D01*
X131978357Y-65953315D01*
X132024401Y-65908144D01*
X132092813Y-65893945D01*
X132158041Y-65918987D01*
X132185520Y-65948102D01*
X132256413Y-66052993D01*
X132256418Y-66052998D01*
X132256421Y-66053003D01*
X132421379Y-66225118D01*
X132613053Y-66366879D01*
X132825926Y-66474207D01*
X133053877Y-66544016D01*
X133290346Y-66574298D01*
X133528532Y-66564180D01*
X133761581Y-66513954D01*
X133982790Y-66425064D01*
X134185795Y-66300069D01*
X134364755Y-66142564D01*
X134514523Y-65957080D01*
X134514529Y-65957070D01*
X134517472Y-65952717D01*
X134518357Y-65953315D01*
X134564401Y-65908144D01*
X134632813Y-65893945D01*
X134698041Y-65918987D01*
X134725520Y-65948102D01*
X134796413Y-66052993D01*
X134796418Y-66052998D01*
X134796421Y-66053003D01*
X134961379Y-66225118D01*
X135153053Y-66366879D01*
X135365926Y-66474207D01*
X135593877Y-66544016D01*
X135830346Y-66574298D01*
X136068532Y-66564180D01*
X136301581Y-66513954D01*
X136522790Y-66425064D01*
X136725795Y-66300069D01*
X136904755Y-66142564D01*
X137054523Y-65957080D01*
X137054529Y-65957070D01*
X137057472Y-65952717D01*
X137058357Y-65953315D01*
X137104401Y-65908144D01*
X137172813Y-65893945D01*
X137238041Y-65918987D01*
X137265520Y-65948102D01*
X137336413Y-66052993D01*
X137336418Y-66052998D01*
X137336421Y-66053003D01*
X137501379Y-66225118D01*
X137693053Y-66366879D01*
X137905926Y-66474207D01*
X138133877Y-66544016D01*
X138370346Y-66574298D01*
X138608532Y-66564180D01*
X138841581Y-66513954D01*
X139062790Y-66425064D01*
X139265795Y-66300069D01*
X139444755Y-66142564D01*
X139594523Y-65957080D01*
X139594529Y-65957070D01*
X139597472Y-65952717D01*
X139598357Y-65953315D01*
X139644401Y-65908144D01*
X139712813Y-65893945D01*
X139778041Y-65918987D01*
X139805520Y-65948102D01*
X139876413Y-66052993D01*
X139876418Y-66052998D01*
X139876421Y-66053003D01*
X140041379Y-66225118D01*
X140233053Y-66366879D01*
X140445926Y-66474207D01*
X140673877Y-66544016D01*
X140910346Y-66574298D01*
X141148532Y-66564180D01*
X141381581Y-66513954D01*
X141602790Y-66425064D01*
X141805795Y-66300069D01*
X141984755Y-66142564D01*
X142134523Y-65957080D01*
X142134529Y-65957070D01*
X142137472Y-65952717D01*
X142138357Y-65953315D01*
X142184401Y-65908144D01*
X142252813Y-65893945D01*
X142318041Y-65918987D01*
X142345520Y-65948102D01*
X142416413Y-66052993D01*
X142416418Y-66052998D01*
X142416421Y-66053003D01*
X142581379Y-66225118D01*
X142773053Y-66366879D01*
X142985926Y-66474207D01*
X143213877Y-66544016D01*
X143450346Y-66574298D01*
X143688532Y-66564180D01*
X143921581Y-66513954D01*
X144142790Y-66425064D01*
X144345795Y-66300069D01*
X144524755Y-66142564D01*
X144674523Y-65957080D01*
X144790790Y-65748954D01*
X144870211Y-65524171D01*
X144890210Y-65407536D01*
X144910499Y-65289209D01*
X144910500Y-65289198D01*
X144910500Y-65229515D01*
X147189500Y-65229515D01*
X147204652Y-65407536D01*
X147264724Y-65638248D01*
X147362919Y-65855480D01*
X147362924Y-65855488D01*
X147496413Y-66052993D01*
X147496418Y-66052998D01*
X147496421Y-66053003D01*
X147661379Y-66225118D01*
X147853053Y-66366879D01*
X148065926Y-66474207D01*
X148293877Y-66544016D01*
X148530346Y-66574298D01*
X148768532Y-66564180D01*
X149001581Y-66513954D01*
X149222790Y-66425064D01*
X149425795Y-66300069D01*
X149558515Y-66183259D01*
X149621842Y-66153746D01*
X149691076Y-66163155D01*
X149744231Y-66208501D01*
X149756619Y-66233011D01*
X149786202Y-66312328D01*
X149786206Y-66312335D01*
X149872452Y-66427544D01*
X149872455Y-66427547D01*
X149987664Y-66513793D01*
X149987671Y-66513797D01*
X150122517Y-66564091D01*
X150122516Y-66564091D01*
X150129444Y-66564835D01*
X150182127Y-66570500D01*
X152077872Y-66570499D01*
X152137483Y-66564091D01*
X152272331Y-66513796D01*
X152387546Y-66427546D01*
X152473796Y-66312331D01*
X152524091Y-66177483D01*
X152530500Y-66117873D01*
X152530499Y-63769245D01*
X218024976Y-63769245D01*
X218044730Y-64083244D01*
X218044731Y-64083251D01*
X218103690Y-64392323D01*
X218200917Y-64691556D01*
X218200919Y-64691561D01*
X218334881Y-64976243D01*
X218334884Y-64976249D01*
X218503471Y-65241901D01*
X218503474Y-65241905D01*
X218704026Y-65484330D01*
X218704028Y-65484332D01*
X218933388Y-65699716D01*
X218933398Y-65699724D01*
X219187924Y-65884648D01*
X219187929Y-65884650D01*
X219187936Y-65884656D01*
X219463654Y-66036234D01*
X219463659Y-66036236D01*
X219463661Y-66036237D01*
X219463662Y-66036238D01*
X219756191Y-66152058D01*
X219756194Y-66152059D01*
X219976022Y-66208501D01*
X220060947Y-66230306D01*
X220126430Y-66238578D01*
X220373090Y-66269739D01*
X220373099Y-66269739D01*
X220373102Y-66269740D01*
X220373104Y-66269740D01*
X220687736Y-66269740D01*
X220687738Y-66269740D01*
X220687741Y-66269739D01*
X220687749Y-66269739D01*
X220874013Y-66246208D01*
X220999893Y-66230306D01*
X221304645Y-66152059D01*
X221328627Y-66142564D01*
X221597177Y-66036238D01*
X221597178Y-66036237D01*
X221597176Y-66036237D01*
X221597186Y-66036234D01*
X221872904Y-65884656D01*
X222127450Y-65699718D01*
X222356810Y-65484334D01*
X222557367Y-65241903D01*
X222725957Y-64976247D01*
X222859923Y-64691555D01*
X222957151Y-64392319D01*
X223016108Y-64083255D01*
X223034492Y-63791046D01*
X223035864Y-63769245D01*
X223035864Y-63769234D01*
X223016109Y-63455235D01*
X223016108Y-63455228D01*
X223016108Y-63455225D01*
X222957151Y-63146161D01*
X222859923Y-62846925D01*
X222725957Y-62562233D01*
X222557367Y-62296577D01*
X222557365Y-62296574D01*
X222356813Y-62054149D01*
X222356811Y-62054147D01*
X222127451Y-61838763D01*
X222127441Y-61838755D01*
X221872915Y-61653831D01*
X221872908Y-61653826D01*
X221872904Y-61653824D01*
X221597186Y-61502246D01*
X221597183Y-61502244D01*
X221597178Y-61502242D01*
X221597177Y-61502241D01*
X221304648Y-61386421D01*
X221304645Y-61386420D01*
X220999896Y-61308174D01*
X220999883Y-61308172D01*
X220687749Y-61268740D01*
X220687738Y-61268740D01*
X220373102Y-61268740D01*
X220373090Y-61268740D01*
X220060956Y-61308172D01*
X220060943Y-61308174D01*
X219756194Y-61386420D01*
X219756191Y-61386421D01*
X219463662Y-61502241D01*
X219463661Y-61502242D01*
X219187936Y-61653824D01*
X219187924Y-61653831D01*
X218933398Y-61838755D01*
X218933388Y-61838763D01*
X218704028Y-62054147D01*
X218704026Y-62054149D01*
X218503474Y-62296574D01*
X218503471Y-62296578D01*
X218334884Y-62562230D01*
X218334881Y-62562236D01*
X218200919Y-62846918D01*
X218200917Y-62846923D01*
X218103690Y-63146156D01*
X218044731Y-63455228D01*
X218044730Y-63455235D01*
X218024976Y-63769234D01*
X218024976Y-63769245D01*
X152530499Y-63769245D01*
X152530499Y-63422128D01*
X152524091Y-63362517D01*
X152524006Y-63362290D01*
X152473797Y-63227671D01*
X152473793Y-63227664D01*
X152387547Y-63112455D01*
X152387544Y-63112452D01*
X152272335Y-63026206D01*
X152272328Y-63026202D01*
X152137482Y-62975908D01*
X152137483Y-62975908D01*
X152077883Y-62969501D01*
X152077881Y-62969500D01*
X152077873Y-62969500D01*
X152077864Y-62969500D01*
X150182129Y-62969500D01*
X150182123Y-62969501D01*
X150122516Y-62975908D01*
X149987671Y-63026202D01*
X149987664Y-63026206D01*
X149872455Y-63112452D01*
X149872452Y-63112455D01*
X149786206Y-63227664D01*
X149786202Y-63227671D01*
X149756855Y-63306356D01*
X149714984Y-63362290D01*
X149649519Y-63386707D01*
X149581246Y-63371855D01*
X149551152Y-63348824D01*
X149518621Y-63314882D01*
X149326947Y-63173121D01*
X149114074Y-63065793D01*
X149013447Y-63034976D01*
X148886121Y-62995983D01*
X148649647Y-62965701D01*
X148411471Y-62975819D01*
X148411467Y-62975819D01*
X148178419Y-63026045D01*
X147957211Y-63114935D01*
X147754203Y-63239932D01*
X147575245Y-63397435D01*
X147502929Y-63486997D01*
X147425477Y-63582920D01*
X147425476Y-63582922D01*
X147309210Y-63791044D01*
X147229788Y-64015829D01*
X147189500Y-64250790D01*
X147189500Y-65229515D01*
X144910500Y-65229515D01*
X144910500Y-64310503D01*
X144910499Y-64310484D01*
X144895347Y-64132463D01*
X144835275Y-63901751D01*
X144737080Y-63684519D01*
X144737075Y-63684511D01*
X144603586Y-63487006D01*
X144603582Y-63487001D01*
X144603579Y-63486997D01*
X144438621Y-63314882D01*
X144246947Y-63173121D01*
X144034074Y-63065793D01*
X143933447Y-63034976D01*
X143806121Y-62995983D01*
X143569647Y-62965701D01*
X143331471Y-62975819D01*
X143331467Y-62975819D01*
X143098419Y-63026045D01*
X142877211Y-63114935D01*
X142674203Y-63239932D01*
X142495245Y-63397435D01*
X142345471Y-63582928D01*
X142345458Y-63582952D01*
X142345449Y-63582960D01*
X142342522Y-63587291D01*
X142341640Y-63586695D01*
X142295570Y-63631870D01*
X142227154Y-63646051D01*
X142161933Y-63620993D01*
X142134479Y-63591897D01*
X142063586Y-63487006D01*
X142063582Y-63487001D01*
X142063579Y-63486997D01*
X141898621Y-63314882D01*
X141706947Y-63173121D01*
X141494074Y-63065793D01*
X141393447Y-63034976D01*
X141266121Y-62995983D01*
X141029647Y-62965701D01*
X140791471Y-62975819D01*
X140791467Y-62975819D01*
X140558419Y-63026045D01*
X140337211Y-63114935D01*
X140134203Y-63239932D01*
X139955245Y-63397435D01*
X139805471Y-63582928D01*
X139805458Y-63582952D01*
X139805449Y-63582960D01*
X139802522Y-63587291D01*
X139801640Y-63586695D01*
X139755570Y-63631870D01*
X139687154Y-63646051D01*
X139621933Y-63620993D01*
X139594479Y-63591897D01*
X139523586Y-63487006D01*
X139523582Y-63487001D01*
X139523579Y-63486997D01*
X139358621Y-63314882D01*
X139166947Y-63173121D01*
X138954074Y-63065793D01*
X138853447Y-63034976D01*
X138726121Y-62995983D01*
X138489647Y-62965701D01*
X138251471Y-62975819D01*
X138251467Y-62975819D01*
X138018419Y-63026045D01*
X137797211Y-63114935D01*
X137594203Y-63239932D01*
X137415245Y-63397435D01*
X137265471Y-63582928D01*
X137265458Y-63582952D01*
X137265449Y-63582960D01*
X137262522Y-63587291D01*
X137261640Y-63586695D01*
X137215570Y-63631870D01*
X137147154Y-63646051D01*
X137081933Y-63620993D01*
X137054479Y-63591897D01*
X136983586Y-63487006D01*
X136983582Y-63487001D01*
X136983579Y-63486997D01*
X136818621Y-63314882D01*
X136626947Y-63173121D01*
X136414074Y-63065793D01*
X136313447Y-63034976D01*
X136186121Y-62995983D01*
X135949647Y-62965701D01*
X135711471Y-62975819D01*
X135711467Y-62975819D01*
X135478419Y-63026045D01*
X135257211Y-63114935D01*
X135054203Y-63239932D01*
X134875245Y-63397435D01*
X134725471Y-63582928D01*
X134725458Y-63582952D01*
X134725449Y-63582960D01*
X134722522Y-63587291D01*
X134721640Y-63586695D01*
X134675570Y-63631870D01*
X134607154Y-63646051D01*
X134541933Y-63620993D01*
X134514479Y-63591897D01*
X134443586Y-63487006D01*
X134443582Y-63487001D01*
X134443579Y-63486997D01*
X134278621Y-63314882D01*
X134086947Y-63173121D01*
X133874074Y-63065793D01*
X133773447Y-63034976D01*
X133646121Y-62995983D01*
X133409647Y-62965701D01*
X133171471Y-62975819D01*
X133171467Y-62975819D01*
X132938419Y-63026045D01*
X132717211Y-63114935D01*
X132514203Y-63239932D01*
X132335245Y-63397435D01*
X132185471Y-63582928D01*
X132185458Y-63582952D01*
X132185449Y-63582960D01*
X132182522Y-63587291D01*
X132181640Y-63586695D01*
X132135570Y-63631870D01*
X132067154Y-63646051D01*
X132001933Y-63620993D01*
X131974479Y-63591897D01*
X131903586Y-63487006D01*
X131903582Y-63487001D01*
X131903579Y-63486997D01*
X131738621Y-63314882D01*
X131546947Y-63173121D01*
X131334074Y-63065793D01*
X131233447Y-63034976D01*
X131106121Y-62995983D01*
X130869647Y-62965701D01*
X130631471Y-62975819D01*
X130631467Y-62975819D01*
X130398419Y-63026045D01*
X130177211Y-63114935D01*
X129974203Y-63239932D01*
X129795245Y-63397435D01*
X129645471Y-63582928D01*
X129645458Y-63582952D01*
X129645449Y-63582960D01*
X129642522Y-63587291D01*
X129641640Y-63586695D01*
X129595570Y-63631870D01*
X129527154Y-63646051D01*
X129461933Y-63620993D01*
X129434479Y-63591897D01*
X129363586Y-63487006D01*
X129363582Y-63487001D01*
X129363579Y-63486997D01*
X129198621Y-63314882D01*
X129006947Y-63173121D01*
X128794074Y-63065793D01*
X128693447Y-63034976D01*
X128566121Y-62995983D01*
X128329647Y-62965701D01*
X128091471Y-62975819D01*
X128091467Y-62975819D01*
X127858419Y-63026045D01*
X127637211Y-63114935D01*
X127434203Y-63239932D01*
X127255245Y-63397435D01*
X127105471Y-63582928D01*
X127105458Y-63582952D01*
X127105449Y-63582960D01*
X127102522Y-63587291D01*
X127101640Y-63586695D01*
X127055570Y-63631870D01*
X126987154Y-63646051D01*
X126921933Y-63620993D01*
X126894479Y-63591897D01*
X126823586Y-63487006D01*
X126823582Y-63487001D01*
X126823579Y-63486997D01*
X126658621Y-63314882D01*
X126466947Y-63173121D01*
X126254074Y-63065793D01*
X126153447Y-63034976D01*
X126026121Y-62995983D01*
X125789647Y-62965701D01*
X125551471Y-62975819D01*
X125551467Y-62975819D01*
X125318419Y-63026045D01*
X125097211Y-63114935D01*
X124894203Y-63239932D01*
X124715245Y-63397435D01*
X124565471Y-63582928D01*
X124565458Y-63582952D01*
X124565449Y-63582960D01*
X124562522Y-63587291D01*
X124561640Y-63586695D01*
X124515570Y-63631870D01*
X124447154Y-63646051D01*
X124381933Y-63620993D01*
X124354479Y-63591897D01*
X124283586Y-63487006D01*
X124283582Y-63487001D01*
X124283579Y-63486997D01*
X124118621Y-63314882D01*
X123926947Y-63173121D01*
X123714074Y-63065793D01*
X123613447Y-63034976D01*
X123486121Y-62995983D01*
X123249647Y-62965701D01*
X123011471Y-62975819D01*
X123011467Y-62975819D01*
X122778419Y-63026045D01*
X122557211Y-63114935D01*
X122354203Y-63239932D01*
X122175245Y-63397435D01*
X122025471Y-63582928D01*
X122025458Y-63582952D01*
X122025449Y-63582960D01*
X122022522Y-63587291D01*
X122021640Y-63586695D01*
X121975570Y-63631870D01*
X121907154Y-63646051D01*
X121841933Y-63620993D01*
X121814479Y-63591897D01*
X121743586Y-63487006D01*
X121743582Y-63487001D01*
X121743579Y-63486997D01*
X121578621Y-63314882D01*
X121386947Y-63173121D01*
X121174074Y-63065793D01*
X121073447Y-63034976D01*
X120946121Y-62995983D01*
X120709647Y-62965701D01*
X120471471Y-62975819D01*
X120471467Y-62975819D01*
X120238419Y-63026045D01*
X120017211Y-63114935D01*
X119814203Y-63239932D01*
X119635245Y-63397435D01*
X119485471Y-63582928D01*
X119485458Y-63582952D01*
X119485449Y-63582960D01*
X119482522Y-63587291D01*
X119481640Y-63586695D01*
X119435570Y-63631870D01*
X119367154Y-63646051D01*
X119301933Y-63620993D01*
X119274479Y-63591897D01*
X119203586Y-63487006D01*
X119203582Y-63487001D01*
X119203579Y-63486997D01*
X119038621Y-63314882D01*
X118846947Y-63173121D01*
X118634074Y-63065793D01*
X118533447Y-63034976D01*
X118406121Y-62995983D01*
X118169647Y-62965701D01*
X117931471Y-62975819D01*
X117931467Y-62975819D01*
X117698419Y-63026045D01*
X117477211Y-63114935D01*
X117274203Y-63239932D01*
X117095245Y-63397435D01*
X116945471Y-63582928D01*
X116945458Y-63582952D01*
X116945449Y-63582960D01*
X116942522Y-63587291D01*
X116941640Y-63586695D01*
X116895570Y-63631870D01*
X116827154Y-63646051D01*
X116761933Y-63620993D01*
X116734479Y-63591897D01*
X116663586Y-63487006D01*
X116663582Y-63487001D01*
X116663579Y-63486997D01*
X116498621Y-63314882D01*
X116306947Y-63173121D01*
X116094074Y-63065793D01*
X115993447Y-63034976D01*
X115866121Y-62995983D01*
X115629647Y-62965701D01*
X115391471Y-62975819D01*
X115391467Y-62975819D01*
X115158419Y-63026045D01*
X114937211Y-63114935D01*
X114734203Y-63239932D01*
X114555245Y-63397435D01*
X114405471Y-63582928D01*
X114405458Y-63582952D01*
X114405449Y-63582960D01*
X114402522Y-63587291D01*
X114401640Y-63586695D01*
X114355570Y-63631870D01*
X114287154Y-63646051D01*
X114221933Y-63620993D01*
X114194479Y-63591897D01*
X114123586Y-63487006D01*
X114123582Y-63487001D01*
X114123579Y-63486997D01*
X113958621Y-63314882D01*
X113766947Y-63173121D01*
X113554074Y-63065793D01*
X113453447Y-63034976D01*
X113326121Y-62995983D01*
X113089647Y-62965701D01*
X112851471Y-62975819D01*
X112851467Y-62975819D01*
X112618419Y-63026045D01*
X112397211Y-63114935D01*
X112194203Y-63239932D01*
X112015245Y-63397435D01*
X111942929Y-63486997D01*
X111865477Y-63582920D01*
X111865476Y-63582922D01*
X111749210Y-63791044D01*
X111669788Y-64015829D01*
X111629500Y-64250790D01*
X111629500Y-65229515D01*
X107564189Y-65229515D01*
X107724917Y-64976247D01*
X107858883Y-64691555D01*
X107956111Y-64392319D01*
X108015068Y-64083255D01*
X108033452Y-63791046D01*
X108034824Y-63769245D01*
X108034824Y-63769234D01*
X108015069Y-63455235D01*
X108015068Y-63455228D01*
X108015068Y-63455225D01*
X107956111Y-63146161D01*
X107858883Y-62846925D01*
X107724917Y-62562233D01*
X107556327Y-62296577D01*
X107556325Y-62296574D01*
X107355773Y-62054149D01*
X107355771Y-62054147D01*
X107126411Y-61838763D01*
X107126401Y-61838755D01*
X106871875Y-61653831D01*
X106871868Y-61653826D01*
X106871864Y-61653824D01*
X106596146Y-61502246D01*
X106596143Y-61502244D01*
X106596138Y-61502242D01*
X106596137Y-61502241D01*
X106303608Y-61386421D01*
X106303605Y-61386420D01*
X105998856Y-61308174D01*
X105998843Y-61308172D01*
X105686709Y-61268740D01*
X105686698Y-61268740D01*
X105372062Y-61268740D01*
X105372050Y-61268740D01*
X105059916Y-61308172D01*
X105059903Y-61308174D01*
X104755154Y-61386420D01*
X104755151Y-61386421D01*
X104462622Y-61502241D01*
X104462621Y-61502242D01*
X104186896Y-61653824D01*
X104186884Y-61653831D01*
X103932358Y-61838755D01*
X103932348Y-61838763D01*
X103702988Y-62054147D01*
X103702986Y-62054149D01*
X103502434Y-62296574D01*
X103502431Y-62296578D01*
X103333844Y-62562230D01*
X103333841Y-62562236D01*
X103199879Y-62846918D01*
X103199877Y-62846923D01*
X103102650Y-63146156D01*
X103043691Y-63455228D01*
X103043690Y-63455235D01*
X103023936Y-63769234D01*
X103023936Y-63769245D01*
X99084151Y-63769245D01*
X99060231Y-50924473D01*
X99079791Y-50857400D01*
X99132510Y-50811547D01*
X99184474Y-50800245D01*
X227968940Y-51053757D01*
G37*
%TD.AperFunction*%
%TD*%
M02*
