%TF.GenerationSoftware,KiCad,Pcbnew,7.0.10*%
%TF.CreationDate,2024-04-09T14:21:01-07:00*%
%TF.ProjectId,COFFEE_MAKER,434f4646-4545-45f4-9d41-4b45522e6b69,rev?*%
%TF.SameCoordinates,Original*%
%TF.FileFunction,Soldermask,Top*%
%TF.FilePolarity,Negative*%
%FSLAX46Y46*%
G04 Gerber Fmt 4.6, Leading zero omitted, Abs format (unit mm)*
G04 Created by KiCad (PCBNEW 7.0.10) date 2024-04-09 14:21:01*
%MOMM*%
%LPD*%
G01*
G04 APERTURE LIST*
G04 Aperture macros list*
%AMRoundRect*
0 Rectangle with rounded corners*
0 $1 Rounding radius*
0 $2 $3 $4 $5 $6 $7 $8 $9 X,Y pos of 4 corners*
0 Add a 4 corners polygon primitive as box body*
4,1,4,$2,$3,$4,$5,$6,$7,$8,$9,$2,$3,0*
0 Add four circle primitives for the rounded corners*
1,1,$1+$1,$2,$3*
1,1,$1+$1,$4,$5*
1,1,$1+$1,$6,$7*
1,1,$1+$1,$8,$9*
0 Add four rect primitives between the rounded corners*
20,1,$1+$1,$2,$3,$4,$5,0*
20,1,$1+$1,$4,$5,$6,$7,0*
20,1,$1+$1,$6,$7,$8,$9,0*
20,1,$1+$1,$8,$9,$2,$3,0*%
%AMFreePoly0*
4,1,19,0.500000,-0.750000,0.000000,-0.750000,0.000000,-0.744911,-0.071157,-0.744911,-0.207708,-0.704816,-0.327430,-0.627875,-0.420627,-0.520320,-0.479746,-0.390866,-0.500000,-0.250000,-0.500000,0.250000,-0.479746,0.390866,-0.420627,0.520320,-0.327430,0.627875,-0.207708,0.704816,-0.071157,0.744911,0.000000,0.744911,0.000000,0.750000,0.500000,0.750000,0.500000,-0.750000,0.500000,-0.750000,
$1*%
%AMFreePoly1*
4,1,19,0.000000,0.744911,0.071157,0.744911,0.207708,0.704816,0.327430,0.627875,0.420627,0.520320,0.479746,0.390866,0.500000,0.250000,0.500000,-0.250000,0.479746,-0.390866,0.420627,-0.520320,0.327430,-0.627875,0.207708,-0.704816,0.071157,-0.744911,0.000000,-0.744911,0.000000,-0.750000,-0.500000,-0.750000,-0.500000,0.750000,0.000000,0.750000,0.000000,0.744911,0.000000,0.744911,
$1*%
G04 Aperture macros list end*
%ADD10RoundRect,0.250000X-0.475000X0.250000X-0.475000X-0.250000X0.475000X-0.250000X0.475000X0.250000X0*%
%ADD11RoundRect,0.250000X0.475000X-0.250000X0.475000X0.250000X-0.475000X0.250000X-0.475000X-0.250000X0*%
%ADD12RoundRect,0.250000X-0.262500X-0.450000X0.262500X-0.450000X0.262500X0.450000X-0.262500X0.450000X0*%
%ADD13RoundRect,0.200000X0.200000X0.275000X-0.200000X0.275000X-0.200000X-0.275000X0.200000X-0.275000X0*%
%ADD14R,1.500000X0.900000*%
%ADD15R,0.900000X1.500000*%
%ADD16R,0.900000X0.900000*%
%ADD17RoundRect,0.250000X-0.250000X-0.475000X0.250000X-0.475000X0.250000X0.475000X-0.250000X0.475000X0*%
%ADD18R,1.400000X1.600000*%
%ADD19R,1.350000X1.350000*%
%ADD20O,1.350000X1.350000*%
%ADD21RoundRect,0.200000X-0.200000X-0.275000X0.200000X-0.275000X0.200000X0.275000X-0.200000X0.275000X0*%
%ADD22FreePoly0,0.000000*%
%ADD23FreePoly1,0.000000*%
%ADD24RoundRect,0.200000X-0.275000X0.200000X-0.275000X-0.200000X0.275000X-0.200000X0.275000X0.200000X0*%
%ADD25RoundRect,0.150000X-0.150000X0.825000X-0.150000X-0.825000X0.150000X-0.825000X0.150000X0.825000X0*%
%ADD26R,2.600000X2.600000*%
%ADD27C,2.600000*%
%ADD28C,4.000000*%
%ADD29R,1.800000X2.600000*%
%ADD30O,1.800000X2.600000*%
%ADD31RoundRect,0.102000X-0.300000X-1.100000X0.300000X-1.100000X0.300000X1.100000X-0.300000X1.100000X0*%
%ADD32FreePoly0,90.000000*%
%ADD33FreePoly1,90.000000*%
%ADD34RoundRect,0.225000X0.250000X-0.225000X0.250000X0.225000X-0.250000X0.225000X-0.250000X-0.225000X0*%
%ADD35RoundRect,0.150000X-0.587500X-0.150000X0.587500X-0.150000X0.587500X0.150000X-0.587500X0.150000X0*%
%ADD36RoundRect,0.218750X-0.218750X-0.256250X0.218750X-0.256250X0.218750X0.256250X-0.218750X0.256250X0*%
%ADD37R,1.700000X1.700000*%
%ADD38O,1.700000X1.700000*%
%ADD39RoundRect,0.250000X0.262500X0.450000X-0.262500X0.450000X-0.262500X-0.450000X0.262500X-0.450000X0*%
%ADD40R,1.800000X1.800000*%
%ADD41C,1.800000*%
%ADD42RoundRect,0.243750X0.456250X-0.243750X0.456250X0.243750X-0.456250X0.243750X-0.456250X-0.243750X0*%
%ADD43RoundRect,0.225000X-0.225000X-0.250000X0.225000X-0.250000X0.225000X0.250000X-0.225000X0.250000X0*%
%ADD44R,2.000000X1.500000*%
%ADD45R,2.000000X3.800000*%
%ADD46R,1.600000X1.600000*%
%ADD47O,1.600000X1.600000*%
%ADD48C,0.650000*%
%ADD49RoundRect,0.150000X-0.150000X-0.425000X0.150000X-0.425000X0.150000X0.425000X-0.150000X0.425000X0*%
%ADD50RoundRect,0.110000X-0.110000X-0.465000X0.110000X-0.465000X0.110000X0.465000X-0.110000X0.465000X0*%
%ADD51RoundRect,0.075000X-0.075000X-0.500000X0.075000X-0.500000X0.075000X0.500000X-0.075000X0.500000X0*%
%ADD52O,1.000000X2.100000*%
%ADD53O,1.000000X1.800000*%
%ADD54RoundRect,0.250000X0.250000X0.475000X-0.250000X0.475000X-0.250000X-0.475000X0.250000X-0.475000X0*%
%ADD55R,1.200000X1.200000*%
%ADD56R,1.600000X1.500000*%
G04 APERTURE END LIST*
D10*
%TO.C,C2*%
X158115000Y-88318000D03*
X158115000Y-90218000D03*
%TD*%
D11*
%TO.C,C1*%
X163068000Y-90104000D03*
X163068000Y-88204000D03*
%TD*%
D12*
%TO.C,R7*%
X117832500Y-83185000D03*
X119657500Y-83185000D03*
%TD*%
D13*
%TO.C,FB1*%
X208350620Y-73929240D03*
X206700620Y-73929240D03*
%TD*%
D14*
%TO.C,U8*%
X143250620Y-104179240D03*
X143250620Y-102909240D03*
X143250620Y-101639240D03*
X143250620Y-100369240D03*
X143250620Y-99099240D03*
X143250620Y-97829240D03*
X143250620Y-96559240D03*
X143250620Y-95289240D03*
X143250620Y-94019240D03*
X143250620Y-92749240D03*
X143250620Y-91479240D03*
X143250620Y-90209240D03*
X143250620Y-88939240D03*
X143250620Y-87669240D03*
D15*
X141485620Y-86419240D03*
X140215620Y-86419240D03*
X138945620Y-86419240D03*
X137675620Y-86419240D03*
X136405620Y-86419240D03*
X135135620Y-86419240D03*
X133865620Y-86419240D03*
X132595620Y-86419240D03*
X131325620Y-86419240D03*
X130055620Y-86419240D03*
X128785620Y-86419240D03*
X127515620Y-86419240D03*
D14*
X125750620Y-87669240D03*
X125750620Y-88939240D03*
X125750620Y-90209240D03*
X125750620Y-91479240D03*
X125750620Y-92749240D03*
X125750620Y-94019240D03*
X125750620Y-95289240D03*
X125750620Y-96559240D03*
X125750620Y-97829240D03*
X125750620Y-99099240D03*
X125750620Y-100369240D03*
X125750620Y-101639240D03*
X125750620Y-102909240D03*
X125750620Y-104179240D03*
D16*
X137400620Y-97859240D03*
X137400620Y-96459240D03*
X137400620Y-95059240D03*
X136000620Y-97859240D03*
X136000620Y-96459240D03*
X136000620Y-95059240D03*
X134600620Y-97859240D03*
X134600620Y-96459240D03*
X134600620Y-95059240D03*
%TD*%
D17*
%TO.C,C18*%
X151450000Y-104648000D03*
X153350000Y-104648000D03*
%TD*%
D18*
%TO.C,SW5*%
X150585000Y-95338000D03*
X150585000Y-88138000D03*
X153585000Y-95338000D03*
X153585000Y-88138000D03*
%TD*%
D10*
%TO.C,C16*%
X205740000Y-94935000D03*
X205740000Y-96835000D03*
%TD*%
D19*
%TO.C,J7*%
X112268000Y-83614000D03*
D20*
X112268000Y-85614000D03*
X112268000Y-87614000D03*
X112268000Y-89614000D03*
%TD*%
D21*
%TO.C,R5*%
X123445000Y-83185000D03*
X125095000Y-83185000D03*
%TD*%
D22*
%TO.C,JP2*%
X118080000Y-88138000D03*
D23*
X119380000Y-88138000D03*
%TD*%
D21*
%TO.C,R4*%
X123635000Y-79375000D03*
X125285000Y-79375000D03*
%TD*%
D24*
%TO.C,R2*%
X191643000Y-78804000D03*
X191643000Y-80454000D03*
%TD*%
D25*
%TO.C,U5*%
X197612000Y-70866000D03*
X196342000Y-70866000D03*
X195072000Y-70866000D03*
X193802000Y-70866000D03*
X193802000Y-75816000D03*
X195072000Y-75816000D03*
X196342000Y-75816000D03*
X197612000Y-75816000D03*
%TD*%
D26*
%TO.C,J4*%
X220860620Y-73929240D03*
D27*
X220860620Y-78929240D03*
%TD*%
D28*
%TO.C,DS1*%
X220530420Y-63769240D03*
X220530420Y-26769060D03*
X105529380Y-63769240D03*
X105529380Y-26769060D03*
D29*
X151130000Y-64770000D03*
D30*
X148590000Y-64770000D03*
X146050000Y-64770000D03*
X143510000Y-64770000D03*
X140970000Y-64770000D03*
X138430000Y-64770000D03*
X135890000Y-64770000D03*
X133350000Y-64770000D03*
X130810000Y-64770000D03*
X128270000Y-64770000D03*
X125730000Y-64770000D03*
X123190000Y-64770000D03*
X120650000Y-64770000D03*
X118110000Y-64770000D03*
X115570000Y-64770000D03*
X113030000Y-64770000D03*
%TD*%
D11*
%TO.C,C13*%
X214757000Y-93279000D03*
X214757000Y-91379000D03*
%TD*%
D31*
%TO.C,U4*%
X129420620Y-79974240D03*
X130690620Y-79974240D03*
X131960620Y-79974240D03*
X133230620Y-79974240D03*
X134500620Y-79974240D03*
X135770620Y-79974240D03*
X137040620Y-79974240D03*
X138310620Y-79974240D03*
X138310620Y-70399240D03*
X137040620Y-70399240D03*
X135770620Y-70399240D03*
X134500620Y-70399240D03*
X133230620Y-70399240D03*
X131960620Y-70399240D03*
X130690620Y-70399240D03*
X129420620Y-70399240D03*
%TD*%
D24*
%TO.C,R1*%
X187198000Y-78741000D03*
X187198000Y-80391000D03*
%TD*%
D22*
%TO.C,JP1*%
X111810000Y-77355000D03*
D23*
X113110000Y-77355000D03*
%TD*%
D21*
%TO.C,FB2*%
X206890620Y-79009240D03*
X208540620Y-79009240D03*
%TD*%
D22*
%TO.C,JP3*%
X118080000Y-93218000D03*
D23*
X119380000Y-93218000D03*
%TD*%
D21*
%TO.C,R3*%
X123445000Y-74930000D03*
X125095000Y-74930000D03*
%TD*%
D32*
%TO.C,JP4*%
X119895620Y-73944240D03*
D33*
X119895620Y-72644240D03*
%TD*%
D34*
%TO.C,C3*%
X177139500Y-90297000D03*
X177139500Y-88747000D03*
%TD*%
D17*
%TO.C,C20*%
X118242000Y-114046000D03*
X120142000Y-114046000D03*
%TD*%
D35*
%TO.C,Q1*%
X149509000Y-70439240D03*
X149509000Y-72339240D03*
X151384000Y-71389240D03*
%TD*%
D17*
%TO.C,C19*%
X118242000Y-108712000D03*
X120142000Y-108712000D03*
%TD*%
D36*
%TO.C,F1*%
X170256000Y-89535000D03*
X171831000Y-89535000D03*
%TD*%
D37*
%TO.C,J1*%
X208900000Y-107385000D03*
D38*
X206360000Y-107385000D03*
X203820000Y-107385000D03*
%TD*%
D37*
%TO.C,J3*%
X196835000Y-107385000D03*
D38*
X194295000Y-107385000D03*
X191755000Y-107385000D03*
%TD*%
D11*
%TO.C,C14*%
X219710000Y-93294240D03*
X219710000Y-91394240D03*
%TD*%
D39*
%TO.C,R12*%
X184658000Y-112903000D03*
X182833000Y-112903000D03*
%TD*%
D40*
%TO.C,U1*%
X165620620Y-101879240D03*
D41*
X165620620Y-99339240D03*
X165620620Y-96799240D03*
%TD*%
D42*
%TO.C,D1*%
X112255380Y-105692760D03*
X112255380Y-103817760D03*
%TD*%
D40*
%TO.C,U2*%
X165615620Y-78374240D03*
D41*
X165615620Y-75834240D03*
X165615620Y-73294240D03*
%TD*%
D43*
%TO.C,C4*%
X157721000Y-77851000D03*
X159271000Y-77851000D03*
%TD*%
D12*
%TO.C,R11*%
X178411500Y-112903000D03*
X180236500Y-112903000D03*
%TD*%
%TO.C,R8*%
X111347880Y-100612760D03*
X113172880Y-100612760D03*
%TD*%
%TO.C,R9*%
X143105500Y-71120000D03*
X144930500Y-71120000D03*
%TD*%
D44*
%TO.C,U7*%
X197435000Y-100725000D03*
X197435000Y-98425000D03*
D45*
X191135000Y-98425000D03*
D44*
X197435000Y-96125000D03*
%TD*%
D10*
%TO.C,C17*%
X205740000Y-99380000D03*
X205740000Y-101280000D03*
%TD*%
D11*
%TO.C,C5*%
X187840620Y-73609240D03*
X187840620Y-71709240D03*
%TD*%
D46*
%TO.C,D7*%
X198730000Y-84455000D03*
D47*
X191110000Y-84455000D03*
%TD*%
D19*
%TO.C,J2*%
X224035620Y-85614240D03*
D20*
X224035620Y-87614240D03*
X224035620Y-89614240D03*
X224035620Y-91614240D03*
X224035620Y-93614240D03*
X224035620Y-95614240D03*
%TD*%
D36*
%TO.C,F2*%
X157454500Y-73025000D03*
X159029500Y-73025000D03*
%TD*%
D48*
%TO.C,J5*%
X163480000Y-112965000D03*
X169260000Y-112965000D03*
D49*
X163170000Y-111890000D03*
D50*
X164050000Y-111890000D03*
D51*
X165120000Y-111890000D03*
X166120000Y-111890000D03*
X166620000Y-111890000D03*
X167620000Y-111890000D03*
D49*
X169570000Y-111890000D03*
D50*
X168690000Y-111890000D03*
D51*
X168120000Y-111890000D03*
X167120000Y-111890000D03*
X165620000Y-111890000D03*
X164620000Y-111890000D03*
D52*
X162050000Y-112465000D03*
D53*
X162050000Y-116645000D03*
D52*
X170690000Y-112465000D03*
D53*
X170690000Y-116645000D03*
%TD*%
D54*
%TO.C,C10*%
X113409880Y-95830760D03*
X111509880Y-95830760D03*
%TD*%
D21*
%TO.C,R10*%
X151550000Y-99993000D03*
X153200000Y-99993000D03*
%TD*%
D55*
%TO.C,RV1*%
X111125000Y-73025000D03*
D56*
X112125000Y-69775000D03*
D55*
X113125000Y-73025000D03*
%TD*%
D12*
%TO.C,R6*%
X118110000Y-78105000D03*
X119935000Y-78105000D03*
%TD*%
D46*
%TO.C,D8*%
X198730000Y-90170000D03*
D47*
X191110000Y-90170000D03*
%TD*%
D54*
%TO.C,C21*%
X113210380Y-109502760D03*
X111310380Y-109502760D03*
%TD*%
D18*
%TO.C,SW6*%
X117396000Y-104648000D03*
X117396000Y-97448000D03*
X120396000Y-104648000D03*
X120396000Y-97448000D03*
%TD*%
M02*
